%TF.GenerationSoftware,KiCad,Pcbnew,8.0.3*%
%TF.CreationDate,2024-09-21T17:28:31+02:00*%
%TF.ProjectId,SynchGaze_Transmiter,53796e63-6847-4617-9a65-5f5472616e73,1.0*%
%TF.SameCoordinates,Original*%
%TF.FileFunction,Profile,NP*%
%FSLAX46Y46*%
G04 Gerber Fmt 4.6, Leading zero omitted, Abs format (unit mm)*
G04 Created by KiCad (PCBNEW 8.0.3) date 2024-09-21 17:28:31*
%MOMM*%
%LPD*%
G01*
G04 APERTURE LIST*
%TA.AperFunction,Profile*%
%ADD10C,0.050000*%
%TD*%
G04 APERTURE END LIST*
D10*
X168500000Y-56300000D02*
X168500000Y-51600000D01*
X138500000Y-59700000D02*
X138498078Y-91400000D01*
X141200000Y-94000000D02*
G75*
G02*
X138498078Y-91400000I-100000J2600000D01*
G01*
X138500000Y-59700000D02*
X138498078Y-51600000D01*
X161900000Y-99000000D02*
X161900000Y-95000000D01*
X164000000Y-50200000D02*
X164000000Y-49500000D01*
X145000000Y-95000000D02*
X145000000Y-99000000D01*
X161500000Y-49000000D02*
G75*
G02*
X162000000Y-49500000I0J-500000D01*
G01*
X168500000Y-91400000D02*
X168500000Y-56300000D01*
X162000000Y-50200000D02*
X162000000Y-49500000D01*
X164000000Y-49500000D02*
G75*
G02*
X164500000Y-49000000I500000J0D01*
G01*
X161900000Y-95000000D02*
G75*
G02*
X162900000Y-94000000I1000000J0D01*
G01*
X148012849Y-49000000D02*
X141200000Y-49000000D01*
X144000000Y-94000000D02*
G75*
G02*
X145000000Y-95000000I0J-1000000D01*
G01*
X146000000Y-100000000D02*
X160900000Y-100000000D01*
X146000000Y-100000000D02*
G75*
G02*
X145000000Y-99000000I0J1000000D01*
G01*
X165900000Y-94000000D02*
X162900000Y-94000000D01*
X158410850Y-49000000D02*
X161500000Y-49000000D01*
X141200000Y-94000000D02*
X144000000Y-94000000D01*
X164500000Y-49000000D02*
X165900000Y-49000000D01*
X138498078Y-51600000D02*
G75*
G02*
X141200000Y-49000000I2601922J0D01*
G01*
X164000000Y-50200000D02*
G75*
G02*
X162000000Y-50200000I-1000000J0D01*
G01*
X161900000Y-99000000D02*
G75*
G02*
X160900000Y-100000000I-1000000J0D01*
G01*
X165900000Y-49000000D02*
G75*
G02*
X168500000Y-51600000I0J-2600000D01*
G01*
X168500000Y-91400000D02*
G75*
G02*
X165900000Y-94000000I-2600000J0D01*
G01*
%TO.C,J201*%
X148410849Y-53200000D02*
X148412850Y-49390000D01*
X148412850Y-49390000D02*
X148012849Y-49000000D01*
X157510850Y-53699800D02*
X148910850Y-53700000D01*
X158008850Y-49394400D02*
X158010851Y-53200000D01*
X158008850Y-49394400D02*
X158410850Y-49000000D01*
X148910850Y-53700000D02*
G75*
G02*
X148410850Y-53200000I0J500000D01*
G01*
X158010851Y-53200000D02*
G75*
G02*
X157510850Y-53700000I-500000J0D01*
G01*
%TD*%
M02*
