%TF.GenerationSoftware,KiCad,Pcbnew,8.0.3*%
%TF.CreationDate,2024-09-21T17:28:27+02:00*%
%TF.ProjectId,SynchGaze_Transmiter,53796e63-6847-4617-9a65-5f5472616e73,1.0*%
%TF.SameCoordinates,Original*%
%TF.FileFunction,Drillmap*%
%TF.FilePolarity,Positive*%
%FSLAX45Y45*%
G04 Gerber Fmt 4.5, Leading zero omitted, Abs format (unit mm)*
G04 Created by KiCad (PCBNEW 8.0.3) date 2024-09-21 17:28:27*
%MOMM*%
%LPD*%
G01*
G04 APERTURE LIST*
%ADD10C,0.050000*%
%ADD11C,0.200000*%
%ADD12C,0.100000*%
G04 APERTURE END LIST*
D10*
X16850000Y-5630000D02*
X16850000Y-5160000D01*
X13850000Y-5970000D02*
X13849808Y-9140000D01*
X14120000Y-9400000D02*
G75*
G02*
X13849808Y-9140000I-10000J260000D01*
G01*
X13850000Y-5970000D02*
X13849808Y-5160000D01*
X16190000Y-9900000D02*
X16190000Y-9500000D01*
X16400000Y-5020000D02*
X16400000Y-4950000D01*
X14500000Y-9500000D02*
X14500000Y-9900000D01*
X16150000Y-4900000D02*
G75*
G02*
X16200000Y-4950000I0J-50000D01*
G01*
X16850000Y-9140000D02*
X16850000Y-5630000D01*
X16200000Y-5020000D02*
X16200000Y-4950000D01*
X16400000Y-4950000D02*
G75*
G02*
X16450000Y-4900000I50000J0D01*
G01*
X16190000Y-9500000D02*
G75*
G02*
X16290000Y-9400000I100000J0D01*
G01*
X14801285Y-4900000D02*
X14120000Y-4900000D01*
X14400000Y-9400000D02*
G75*
G02*
X14500000Y-9500000I0J-100000D01*
G01*
X14600000Y-10000000D02*
X16090000Y-10000000D01*
X14600000Y-10000000D02*
G75*
G02*
X14500000Y-9900000I0J100000D01*
G01*
X16590000Y-9400000D02*
X16290000Y-9400000D01*
X15841085Y-4900000D02*
X16150000Y-4900000D01*
X14120000Y-9400000D02*
X14400000Y-9400000D01*
X16450000Y-4900000D02*
X16590000Y-4900000D01*
X13849808Y-5160000D02*
G75*
G02*
X14120000Y-4900000I260192J0D01*
G01*
X16400000Y-5020000D02*
G75*
G02*
X16200000Y-5020000I-100000J0D01*
G01*
X16190000Y-9900000D02*
G75*
G02*
X16090000Y-10000000I-100000J0D01*
G01*
X16590000Y-4900000D02*
G75*
G02*
X16850000Y-5160000I0J-260000D01*
G01*
X16850000Y-9140000D02*
G75*
G02*
X16590000Y-9400000I-260000J0D01*
G01*
X14841085Y-5320000D02*
X14841285Y-4939000D01*
X14841285Y-4939000D02*
X14801285Y-4900000D01*
X15751085Y-5369980D02*
X14891085Y-5370000D01*
X15800885Y-4939440D02*
X15801085Y-5320000D01*
X15800885Y-4939440D02*
X15841085Y-4900000D01*
X14891085Y-5370000D02*
G75*
G02*
X14841085Y-5320000I0J50000D01*
G01*
X15801085Y-5320000D02*
G75*
G02*
X15751085Y-5370000I-50000J0D01*
G01*
D11*
D12*
X14070000Y-5260000D02*
X14090000Y-5280000D01*
X14090000Y-5260000D02*
X14070000Y-5280000D01*
X14094620Y-8283100D02*
X14114620Y-8303100D01*
X14114620Y-8283100D02*
X14094620Y-8303100D01*
X14140000Y-7420000D02*
X14160000Y-7440000D01*
X14160000Y-7420000D02*
X14140000Y-7440000D01*
X14142880Y-6985160D02*
X14162880Y-7005160D01*
X14162880Y-6985160D02*
X14142880Y-7005160D01*
X14180000Y-5960000D02*
X14200000Y-5980000D01*
X14200000Y-5960000D02*
X14180000Y-5980000D01*
X14193680Y-8349140D02*
X14213680Y-8369140D01*
X14213680Y-8349140D02*
X14193680Y-8369140D01*
X14193680Y-8394860D02*
X14213680Y-8414860D01*
X14213680Y-8394860D02*
X14193680Y-8414860D01*
X14277500Y-8567580D02*
X14297500Y-8587580D01*
X14297500Y-8567580D02*
X14277500Y-8587580D01*
X14287660Y-5184300D02*
X14307660Y-5204300D01*
X14307660Y-5184300D02*
X14287660Y-5204300D01*
X14290000Y-5720000D02*
X14310000Y-5740000D01*
X14310000Y-5720000D02*
X14290000Y-5740000D01*
X14290000Y-7130000D02*
X14310000Y-7150000D01*
X14310000Y-7130000D02*
X14290000Y-7150000D01*
X14290000Y-7420000D02*
X14310000Y-7440000D01*
X14310000Y-7420000D02*
X14290000Y-7440000D01*
X14290200Y-8049420D02*
X14310200Y-8069420D01*
X14310200Y-8049420D02*
X14290200Y-8069420D01*
X14292290Y-6353700D02*
X14312290Y-6373700D01*
X14312290Y-6353700D02*
X14292290Y-6373700D01*
X14292740Y-8176420D02*
X14312740Y-8196420D01*
X14312740Y-8176420D02*
X14292740Y-8196420D01*
X14386720Y-8567580D02*
X14406720Y-8587580D01*
X14406720Y-8567580D02*
X14386720Y-8587580D01*
X14490860Y-8567580D02*
X14510860Y-8587580D01*
X14510860Y-8567580D02*
X14490860Y-8587580D01*
X14546740Y-9362600D02*
X14566740Y-9382600D01*
X14566740Y-9362600D02*
X14546740Y-9382600D01*
X14592460Y-7119780D02*
X14612460Y-7139780D01*
X14612460Y-7119780D02*
X14592460Y-7139780D01*
X14592460Y-7320440D02*
X14612460Y-7340440D01*
X14612460Y-7320440D02*
X14592460Y-7340440D01*
X14620000Y-6360000D02*
X14640000Y-6380000D01*
X14640000Y-6360000D02*
X14620000Y-6380000D01*
X14671200Y-9362600D02*
X14691200Y-9382600D01*
X14691200Y-9362600D02*
X14671200Y-9382600D01*
X14683900Y-7541420D02*
X14703900Y-7561420D01*
X14703900Y-7541420D02*
X14683900Y-7561420D01*
X14716920Y-8679340D02*
X14736920Y-8699340D01*
X14736920Y-8679340D02*
X14716920Y-8699340D01*
X14716920Y-8852060D02*
X14736920Y-8872060D01*
X14736920Y-8852060D02*
X14716920Y-8872060D01*
X14718128Y-6081872D02*
X14738128Y-6101872D01*
X14738128Y-6081872D02*
X14718128Y-6101872D01*
X14790580Y-9362600D02*
X14810580Y-9382600D01*
X14810580Y-9362600D02*
X14790580Y-9382600D01*
X14798200Y-5633880D02*
X14818200Y-5653880D01*
X14818200Y-5633880D02*
X14798200Y-5653880D01*
X14815980Y-5725320D02*
X14835980Y-5745320D01*
X14835980Y-5725320D02*
X14815980Y-5745320D01*
X14815980Y-6286660D02*
X14835980Y-6306660D01*
X14835980Y-6286660D02*
X14815980Y-6306660D01*
X14815980Y-7772560D02*
X14835980Y-7792560D01*
X14835980Y-7772560D02*
X14815980Y-7792560D01*
X14864240Y-5590700D02*
X14884240Y-5610700D01*
X14884240Y-5590700D02*
X14864240Y-5610700D01*
X14864240Y-5666900D02*
X14884240Y-5686900D01*
X14884240Y-5666900D02*
X14864240Y-5686900D01*
X14866780Y-7965600D02*
X14886780Y-7985600D01*
X14886780Y-7965600D02*
X14866780Y-7985600D01*
X14866780Y-8039260D02*
X14886780Y-8059260D01*
X14886780Y-8039260D02*
X14866780Y-8059260D01*
X14866780Y-8140860D02*
X14886780Y-8160860D01*
X14886780Y-8140860D02*
X14866780Y-8160860D01*
X14866780Y-8214520D02*
X14886780Y-8234520D01*
X14886780Y-8214520D02*
X14866780Y-8234520D01*
X14904880Y-5730400D02*
X14924880Y-5750400D01*
X14924880Y-5730400D02*
X14904880Y-5750400D01*
X14922660Y-6002180D02*
X14942660Y-6022180D01*
X14942660Y-6002180D02*
X14922660Y-6022180D01*
X14922660Y-6286660D02*
X14942660Y-6306660D01*
X14942660Y-6286660D02*
X14922660Y-6306660D01*
X14940440Y-7965600D02*
X14960440Y-7985600D01*
X14960440Y-7965600D02*
X14940440Y-7985600D01*
X14940440Y-8039260D02*
X14960440Y-8059260D01*
X14960440Y-8039260D02*
X14940440Y-8059260D01*
X14940440Y-8140860D02*
X14960440Y-8160860D01*
X14960440Y-8140860D02*
X14940440Y-8160860D01*
X14940440Y-8214520D02*
X14960440Y-8234520D01*
X14960440Y-8214520D02*
X14940440Y-8234520D01*
X14942980Y-5666900D02*
X14962980Y-5686900D01*
X14962980Y-5666900D02*
X14942980Y-5686900D01*
X14965840Y-7668420D02*
X14985840Y-7688420D01*
X14985840Y-7668420D02*
X14965840Y-7688420D01*
X15014100Y-7722560D02*
X15034100Y-7742560D01*
X15034100Y-7722560D02*
X15014100Y-7742560D01*
X15036960Y-5654200D02*
X15056960Y-5674200D01*
X15056960Y-5654200D02*
X15036960Y-5674200D01*
X15042040Y-7965600D02*
X15062040Y-7985600D01*
X15062040Y-7965600D02*
X15042040Y-7985600D01*
X15042040Y-8039260D02*
X15062040Y-8059260D01*
X15062040Y-8039260D02*
X15042040Y-8059260D01*
X15042040Y-8140860D02*
X15062040Y-8160860D01*
X15062040Y-8140860D02*
X15042040Y-8160860D01*
X15042040Y-8214520D02*
X15062040Y-8234520D01*
X15062040Y-8214520D02*
X15042040Y-8234520D01*
X15062360Y-5694840D02*
X15082360Y-5714840D01*
X15082360Y-5694840D02*
X15062360Y-5714840D01*
X15089460Y-5654200D02*
X15109460Y-5674200D01*
X15109460Y-5654200D02*
X15089460Y-5674200D01*
X15115700Y-7965600D02*
X15135700Y-7985600D01*
X15135700Y-7965600D02*
X15115700Y-7985600D01*
X15115700Y-8039260D02*
X15135700Y-8059260D01*
X15135700Y-8039260D02*
X15115700Y-8059260D01*
X15115700Y-8140860D02*
X15135700Y-8160860D01*
X15135700Y-8140860D02*
X15115700Y-8160860D01*
X15115700Y-8214520D02*
X15135700Y-8234520D01*
X15135700Y-8214520D02*
X15115700Y-8234520D01*
X15141100Y-8638700D02*
X15161100Y-8658700D01*
X15161100Y-8638700D02*
X15141100Y-8658700D01*
X15151260Y-8427880D02*
X15171260Y-8447880D01*
X15171260Y-8427880D02*
X15151260Y-8447880D01*
X15209680Y-8537100D02*
X15229680Y-8557100D01*
X15229680Y-8537100D02*
X15209680Y-8557100D01*
X15233810Y-8645050D02*
X15253810Y-8665050D01*
X15253810Y-8645050D02*
X15233810Y-8665050D01*
X15260480Y-5870100D02*
X15280480Y-5890100D01*
X15280480Y-5870100D02*
X15260480Y-5890100D01*
X15260480Y-6365400D02*
X15280480Y-6385400D01*
X15280480Y-6365400D02*
X15260480Y-6385400D01*
X15275720Y-8791100D02*
X15295720Y-8811100D01*
X15295720Y-8791100D02*
X15275720Y-8811100D01*
X15275720Y-8841900D02*
X15295720Y-8861900D01*
X15295720Y-8841900D02*
X15275720Y-8861900D01*
X15380000Y-7920000D02*
X15400000Y-7940000D01*
X15400000Y-7920000D02*
X15380000Y-7940000D01*
X15392560Y-6908960D02*
X15412560Y-6928960D01*
X15412560Y-6908960D02*
X15392560Y-6928960D01*
X15407800Y-7322980D02*
X15427800Y-7342980D01*
X15427800Y-7322980D02*
X15407800Y-7342980D01*
X15435740Y-8770780D02*
X15455740Y-8790780D01*
X15455740Y-8770780D02*
X15435740Y-8790780D01*
X15436085Y-5755800D02*
X15456085Y-5775800D01*
X15456085Y-5755800D02*
X15436085Y-5775800D01*
X15456060Y-6728620D02*
X15476060Y-6748620D01*
X15476060Y-6728620D02*
X15456060Y-6748620D01*
X15483020Y-8312600D02*
X15503020Y-8332600D01*
X15503020Y-8312600D02*
X15483020Y-8332600D01*
X15509400Y-8961280D02*
X15529400Y-8981280D01*
X15529400Y-8961280D02*
X15509400Y-8981280D01*
X15533100Y-5654200D02*
X15553100Y-5674200D01*
X15553100Y-5654200D02*
X15533100Y-5674200D01*
X15560200Y-5694840D02*
X15580200Y-5714840D01*
X15580200Y-5694840D02*
X15560200Y-5714840D01*
X15562740Y-6489860D02*
X15582740Y-6509860D01*
X15582740Y-6489860D02*
X15562740Y-6509860D01*
X15562740Y-7173120D02*
X15582740Y-7193120D01*
X15582740Y-7173120D02*
X15562740Y-7193120D01*
X15577980Y-8316120D02*
X15597980Y-8336120D01*
X15597980Y-8316120D02*
X15577980Y-8336120D01*
X15577980Y-8780940D02*
X15597980Y-8800940D01*
X15597980Y-8780940D02*
X15577980Y-8800940D01*
X15585600Y-5654200D02*
X15605600Y-5674200D01*
X15605600Y-5654200D02*
X15585600Y-5674200D01*
X15595760Y-7637940D02*
X15615760Y-7657940D01*
X15615760Y-7637940D02*
X15595760Y-7657940D01*
X15598300Y-6444140D02*
X15618300Y-6464140D01*
X15618300Y-6444140D02*
X15598300Y-6464140D01*
X15603380Y-9037480D02*
X15623380Y-9057480D01*
X15623380Y-9037480D02*
X15603380Y-9057480D01*
X15626240Y-7010560D02*
X15646240Y-7030560D01*
X15646240Y-7010560D02*
X15626240Y-7030560D01*
X15633860Y-6489860D02*
X15653860Y-6509860D01*
X15653860Y-6489860D02*
X15633860Y-6509860D01*
X15638940Y-8506620D02*
X15658940Y-8526620D01*
X15658940Y-8506620D02*
X15638940Y-8526620D01*
X15644020Y-7965600D02*
X15664020Y-7985600D01*
X15664020Y-7965600D02*
X15644020Y-7985600D01*
X15646560Y-7858860D02*
X15666560Y-7878860D01*
X15666560Y-7858860D02*
X15646560Y-7878860D01*
X15653260Y-7719220D02*
X15673260Y-7739220D01*
X15673260Y-7719220D02*
X15653260Y-7739220D01*
X15674500Y-6444140D02*
X15694500Y-6464140D01*
X15694500Y-6444140D02*
X15674500Y-6464140D01*
X15682120Y-8882540D02*
X15702120Y-8902540D01*
X15702120Y-8882540D02*
X15682120Y-8902540D01*
X15684660Y-7117240D02*
X15704660Y-7137240D01*
X15704660Y-7117240D02*
X15684660Y-7137240D01*
X15692280Y-6987700D02*
X15712280Y-7007700D01*
X15712280Y-6987700D02*
X15692280Y-7007700D01*
X15692280Y-5669440D02*
X15712280Y-5689440D01*
X15712280Y-5669440D02*
X15692280Y-5689440D01*
X15699900Y-8570120D02*
X15719900Y-8590120D01*
X15719900Y-8570120D02*
X15699900Y-8590120D01*
X15710060Y-7790340D02*
X15730060Y-7810340D01*
X15730060Y-7790340D02*
X15710060Y-7810340D01*
X15727840Y-8054500D02*
X15747840Y-8074500D01*
X15747840Y-8054500D02*
X15727840Y-8074500D01*
X15730380Y-5722780D02*
X15750380Y-5742780D01*
X15750380Y-5722780D02*
X15730380Y-5742780D01*
X15730380Y-7427120D02*
X15750380Y-7447120D01*
X15750380Y-7427120D02*
X15730380Y-7447120D01*
X15740540Y-7117240D02*
X15760540Y-7137240D01*
X15760540Y-7117240D02*
X15740540Y-7137240D01*
X15768480Y-5590700D02*
X15788480Y-5610700D01*
X15788480Y-5590700D02*
X15768480Y-5610700D01*
X15768480Y-5669440D02*
X15788480Y-5689440D01*
X15788480Y-5669440D02*
X15768480Y-5689440D01*
X15768480Y-8250080D02*
X15788480Y-8270080D01*
X15788480Y-8250080D02*
X15768480Y-8270080D01*
X15768480Y-8316120D02*
X15788480Y-8336120D01*
X15788480Y-8316120D02*
X15768480Y-8336120D01*
X15781180Y-6987700D02*
X15801180Y-7007700D01*
X15801180Y-6987700D02*
X15781180Y-7007700D01*
X15791340Y-7427120D02*
X15811340Y-7447120D01*
X15811340Y-7427120D02*
X15791340Y-7447120D01*
X15796420Y-7117240D02*
X15816420Y-7137240D01*
X15816420Y-7117240D02*
X15796420Y-7137240D01*
X15796420Y-8829200D02*
X15816420Y-8849200D01*
X15816420Y-8829200D02*
X15796420Y-8849200D01*
X15796420Y-8933340D02*
X15816420Y-8953340D01*
X15816420Y-8933340D02*
X15796420Y-8953340D01*
X15798960Y-8476140D02*
X15818960Y-8496140D01*
X15818960Y-8476140D02*
X15798960Y-8496140D01*
X15802960Y-8565840D02*
X15822960Y-8585840D01*
X15822960Y-8565840D02*
X15802960Y-8585840D01*
X15814200Y-5938680D02*
X15834200Y-5958680D01*
X15834200Y-5938680D02*
X15814200Y-5958680D01*
X15819280Y-5715160D02*
X15839280Y-5735160D01*
X15839280Y-5715160D02*
X15819280Y-5735160D01*
X15821820Y-5631340D02*
X15841820Y-5651340D01*
X15841820Y-5631340D02*
X15821820Y-5651340D01*
X15829440Y-6411120D02*
X15849440Y-6431120D01*
X15849440Y-6411120D02*
X15829440Y-6431120D01*
X15842140Y-8732680D02*
X15862140Y-8752680D01*
X15862140Y-8732680D02*
X15842140Y-8752680D01*
X15854840Y-7427120D02*
X15874840Y-7447120D01*
X15874840Y-7427120D02*
X15854840Y-7447120D01*
X15858840Y-8489640D02*
X15878840Y-8509640D01*
X15878840Y-8489640D02*
X15858840Y-8509640D01*
X15862460Y-8427880D02*
X15882460Y-8447880D01*
X15882460Y-8427880D02*
X15862460Y-8447880D01*
X15872620Y-6346215D02*
X15892620Y-6366215D01*
X15892620Y-6346215D02*
X15872620Y-6366215D01*
X15893414Y-6698801D02*
X15913414Y-6718801D01*
X15913414Y-6698801D02*
X15893414Y-6718801D01*
X15895480Y-7490620D02*
X15915480Y-7510620D01*
X15915480Y-7490620D02*
X15895480Y-7510620D01*
X15923420Y-7444900D02*
X15943420Y-7464900D01*
X15943420Y-7444900D02*
X15923420Y-7464900D01*
X15931040Y-8674260D02*
X15951040Y-8694260D01*
X15951040Y-8674260D02*
X15931040Y-8694260D01*
X15951360Y-8307100D02*
X15971360Y-8327100D01*
X15971360Y-8307100D02*
X15951360Y-8327100D01*
X15981840Y-5910740D02*
X16001840Y-5930740D01*
X16001840Y-5910740D02*
X15981840Y-5930740D01*
X15992000Y-9029860D02*
X16012000Y-9049860D01*
X16012000Y-9029860D02*
X15992000Y-9049860D01*
X16007240Y-5951380D02*
X16027240Y-5971380D01*
X16027240Y-5951380D02*
X16007240Y-5971380D01*
X16030100Y-8488840D02*
X16050100Y-8508840D01*
X16050100Y-8488840D02*
X16030100Y-8508840D01*
X16037720Y-5910740D02*
X16057720Y-5930740D01*
X16057720Y-5910740D02*
X16037720Y-5930740D01*
X16060580Y-5951380D02*
X16080580Y-5971380D01*
X16080580Y-5951380D02*
X16060580Y-5971380D01*
X16065660Y-8666640D02*
X16085660Y-8686640D01*
X16085660Y-8666640D02*
X16065660Y-8686640D01*
X16073280Y-7701440D02*
X16093280Y-7721440D01*
X16093280Y-7701440D02*
X16073280Y-7721440D01*
X16085980Y-8486300D02*
X16105980Y-8506300D01*
X16105980Y-8486300D02*
X16085980Y-8506300D01*
X16091060Y-5910740D02*
X16111060Y-5930740D01*
X16111060Y-5910740D02*
X16091060Y-5930740D01*
X16091060Y-8735220D02*
X16111060Y-8755220D01*
X16111060Y-8735220D02*
X16091060Y-8755220D01*
X16093600Y-6367940D02*
X16113600Y-6387940D01*
X16113600Y-6367940D02*
X16093600Y-6387940D01*
X16093600Y-6469540D02*
X16113600Y-6489540D01*
X16113600Y-6469540D02*
X16093600Y-6489540D01*
X16098680Y-5664360D02*
X16118680Y-5684360D01*
X16118680Y-5664360D02*
X16098680Y-5684360D01*
X16098680Y-5722780D02*
X16118680Y-5742780D01*
X16118680Y-5722780D02*
X16098680Y-5742780D01*
X16111380Y-7643020D02*
X16131380Y-7663020D01*
X16131380Y-7643020D02*
X16111380Y-7663020D01*
X16111380Y-7759860D02*
X16131380Y-7779860D01*
X16131380Y-7759860D02*
X16111380Y-7779860D01*
X16111380Y-8305960D02*
X16131380Y-8325960D01*
X16131380Y-8305960D02*
X16111380Y-8325960D01*
X16121540Y-8676800D02*
X16141540Y-8696800D01*
X16141540Y-8676800D02*
X16121540Y-8696800D01*
X16144400Y-6418740D02*
X16164400Y-6438740D01*
X16164400Y-6418740D02*
X16144400Y-6438740D01*
X16149480Y-5694840D02*
X16169480Y-5714840D01*
X16169480Y-5694840D02*
X16149480Y-5714840D01*
X16149480Y-5750720D02*
X16169480Y-5770720D01*
X16169480Y-5750720D02*
X16149480Y-5770720D01*
X16149480Y-7701440D02*
X16169480Y-7721440D01*
X16169480Y-7701440D02*
X16149480Y-7721440D01*
X16190120Y-7643020D02*
X16210120Y-7663020D01*
X16210120Y-7643020D02*
X16190120Y-7663020D01*
X16190120Y-7759860D02*
X16210120Y-7779860D01*
X16210120Y-7759860D02*
X16190120Y-7779860D01*
X16195200Y-6367940D02*
X16215200Y-6387940D01*
X16215200Y-6367940D02*
X16195200Y-6387940D01*
X16195200Y-6469540D02*
X16215200Y-6489540D01*
X16215200Y-6469540D02*
X16195200Y-6489540D01*
X16223140Y-7701440D02*
X16243140Y-7721440D01*
X16243140Y-7701440D02*
X16223140Y-7721440D01*
X16235840Y-6807360D02*
X16255840Y-6827360D01*
X16255840Y-6807360D02*
X16235840Y-6827360D01*
X16235840Y-6906420D02*
X16255840Y-6926420D01*
X16255840Y-6906420D02*
X16235840Y-6926420D01*
X16235840Y-8707280D02*
X16255840Y-8727280D01*
X16255840Y-8707280D02*
X16235840Y-8727280D01*
X16251080Y-6667660D02*
X16271080Y-6687660D01*
X16271080Y-6667660D02*
X16251080Y-6687660D01*
X16253620Y-6152040D02*
X16273620Y-6172040D01*
X16273620Y-6152040D02*
X16253620Y-6172040D01*
X16258700Y-8821580D02*
X16278700Y-8841580D01*
X16278700Y-8821580D02*
X16258700Y-8841580D01*
X16263780Y-6756560D02*
X16283780Y-6776560D01*
X16283780Y-6756560D02*
X16263780Y-6776560D01*
X16263780Y-6957220D02*
X16283780Y-6977220D01*
X16283780Y-6957220D02*
X16263780Y-6977220D01*
X16266888Y-8462872D02*
X16286888Y-8482872D01*
X16286888Y-8462872D02*
X16266888Y-8482872D01*
X16273940Y-6571140D02*
X16293940Y-6591140D01*
X16293940Y-6571140D02*
X16273940Y-6591140D01*
X16273940Y-8999380D02*
X16293940Y-9019380D01*
X16293940Y-8999380D02*
X16273940Y-9019380D01*
X16294260Y-6807360D02*
X16314260Y-6827360D01*
X16314260Y-6807360D02*
X16294260Y-6827360D01*
X16294260Y-7028340D02*
X16314260Y-7048340D01*
X16314260Y-7028340D02*
X16294260Y-7048340D01*
X16294260Y-8077360D02*
X16314260Y-8097360D01*
X16314260Y-8077360D02*
X16294260Y-8097360D01*
X16299340Y-6906420D02*
X16319340Y-6926420D01*
X16319340Y-6906420D02*
X16299340Y-6926420D01*
X16301880Y-6279040D02*
X16321880Y-6299040D01*
X16321880Y-6279040D02*
X16301880Y-6299040D01*
X16317120Y-6637180D02*
X16337120Y-6657180D01*
X16337120Y-6637180D02*
X16317120Y-6657180D01*
X16322200Y-6756560D02*
X16342200Y-6776560D01*
X16342200Y-6756560D02*
X16322200Y-6776560D01*
X16322840Y-6957220D02*
X16342840Y-6977220D01*
X16342840Y-6957220D02*
X16322840Y-6977220D01*
X16350140Y-6807360D02*
X16370140Y-6827360D01*
X16370140Y-6807360D02*
X16350140Y-6827360D01*
X16350140Y-7838600D02*
X16370140Y-7858600D01*
X16370140Y-7838600D02*
X16350140Y-7858600D01*
X16352680Y-6898800D02*
X16372680Y-6918800D01*
X16372680Y-6898800D02*
X16352680Y-6918800D01*
X16370920Y-8499460D02*
X16390920Y-8519460D01*
X16390920Y-8499460D02*
X16370920Y-8519460D01*
X16373000Y-5910740D02*
X16393000Y-5930740D01*
X16393000Y-5910740D02*
X16373000Y-5930740D01*
X16373000Y-5966620D02*
X16393000Y-5986620D01*
X16393000Y-5966620D02*
X16373000Y-5986620D01*
X16373000Y-6022500D02*
X16393000Y-6042500D01*
X16393000Y-6022500D02*
X16373000Y-6042500D01*
X16373000Y-6347620D02*
X16393000Y-6367620D01*
X16393000Y-6347620D02*
X16373000Y-6367620D01*
X16373000Y-6576220D02*
X16393000Y-6596220D01*
X16393000Y-6576220D02*
X16373000Y-6596220D01*
X16373000Y-8973980D02*
X16393000Y-8993980D01*
X16393000Y-8973980D02*
X16373000Y-8993980D01*
X16376000Y-8575660D02*
X16396000Y-8595660D01*
X16396000Y-8575660D02*
X16376000Y-8595660D01*
X16378080Y-6660040D02*
X16398080Y-6680040D01*
X16398080Y-6660040D02*
X16378080Y-6680040D01*
X16378080Y-8887620D02*
X16398080Y-8907620D01*
X16398080Y-8887620D02*
X16378080Y-8907620D01*
X16380620Y-7089300D02*
X16400620Y-7109300D01*
X16400620Y-7089300D02*
X16380620Y-7109300D01*
X16380620Y-7165500D02*
X16400620Y-7185500D01*
X16400620Y-7165500D02*
X16380620Y-7185500D01*
X16402840Y-6957220D02*
X16422840Y-6977220D01*
X16422840Y-6957220D02*
X16402840Y-6977220D01*
X16421260Y-5692300D02*
X16441260Y-5712300D01*
X16441260Y-5692300D02*
X16421260Y-5712300D01*
X16421260Y-5753260D02*
X16441260Y-5773260D01*
X16441260Y-5753260D02*
X16421260Y-5773260D01*
X16423800Y-8775860D02*
X16443800Y-8795860D01*
X16443800Y-8775860D02*
X16423800Y-8795860D01*
X16459360Y-7135020D02*
X16479360Y-7155020D01*
X16479360Y-7135020D02*
X16459360Y-7155020D01*
X16472060Y-5664360D02*
X16492060Y-5684360D01*
X16492060Y-5664360D02*
X16472060Y-5684360D01*
X16472060Y-5722780D02*
X16492060Y-5742780D01*
X16492060Y-5722780D02*
X16472060Y-5742780D01*
X16489840Y-6919120D02*
X16509840Y-6939120D01*
X16509840Y-6919120D02*
X16489840Y-6939120D01*
X16507620Y-7729380D02*
X16527620Y-7749380D01*
X16527620Y-7729380D02*
X16507620Y-7749380D01*
X16515240Y-7135020D02*
X16535240Y-7155020D01*
X16535240Y-7135020D02*
X16515240Y-7155020D01*
X16566040Y-7729380D02*
X16586040Y-7749380D01*
X16586040Y-7729380D02*
X16566040Y-7749380D01*
X16571120Y-7135020D02*
X16591120Y-7155020D01*
X16591120Y-7135020D02*
X16571120Y-7155020D01*
X16634620Y-7033420D02*
X16654620Y-7053420D01*
X16654620Y-7033420D02*
X16634620Y-7053420D01*
X16634620Y-7089300D02*
X16654620Y-7109300D01*
X16654620Y-7089300D02*
X16634620Y-7109300D01*
X16654940Y-7317900D02*
X16674940Y-7337900D01*
X16674940Y-7317900D02*
X16654940Y-7337900D01*
X16654940Y-7378860D02*
X16674940Y-7398860D01*
X16674940Y-7378860D02*
X16654940Y-7398860D01*
X16654940Y-7442360D02*
X16674940Y-7462360D01*
X16674940Y-7442360D02*
X16654940Y-7462360D01*
X16654940Y-7505860D02*
X16674940Y-7525860D01*
X16674940Y-7505860D02*
X16654940Y-7525860D01*
X16660020Y-7739540D02*
X16680020Y-7759540D01*
X16680020Y-7739540D02*
X16660020Y-7759540D01*
X16660020Y-7792880D02*
X16680020Y-7812880D01*
X16680020Y-7792880D02*
X16660020Y-7812880D01*
X16660020Y-7848760D02*
X16680020Y-7868760D01*
X16680020Y-7848760D02*
X16660020Y-7868760D01*
X16718440Y-7058820D02*
X16738440Y-7078820D01*
X16738440Y-7058820D02*
X16718440Y-7078820D01*
X16728600Y-6614320D02*
X16748600Y-6634320D01*
X16748600Y-6614320D02*
X16728600Y-6634320D01*
X16728600Y-6830220D02*
X16748600Y-6850220D01*
X16748600Y-6830220D02*
X16728600Y-6850220D01*
X16761620Y-7013100D02*
X16781620Y-7033100D01*
X16781620Y-7013100D02*
X16761620Y-7033100D01*
X16764160Y-6444140D02*
X16784160Y-6464140D01*
X16784160Y-6444140D02*
X16764160Y-6464140D01*
X16601000Y-8091200D02*
G75*
G02*
X16546000Y-8091200I-27500J0D01*
G01*
X16546000Y-8091200D02*
G75*
G02*
X16601000Y-8091200I27500J0D01*
G01*
X16601000Y-8216200D02*
G75*
G02*
X16546000Y-8216200I-27500J0D01*
G01*
X16546000Y-8216200D02*
G75*
G02*
X16601000Y-8216200I27500J0D01*
G01*
X16601000Y-8341200D02*
G75*
G02*
X16546000Y-8341200I-27500J0D01*
G01*
X16546000Y-8341200D02*
G75*
G02*
X16601000Y-8341200I27500J0D01*
G01*
X16601000Y-8466200D02*
G75*
G02*
X16546000Y-8466200I-27500J0D01*
G01*
X16546000Y-8466200D02*
G75*
G02*
X16601000Y-8466200I27500J0D01*
G01*
X16601000Y-8591200D02*
G75*
G02*
X16546000Y-8591200I-27500J0D01*
G01*
X16546000Y-8591200D02*
G75*
G02*
X16601000Y-8591200I27500J0D01*
G01*
X16601000Y-8716200D02*
G75*
G02*
X16546000Y-8716200I-27500J0D01*
G01*
X16546000Y-8716200D02*
G75*
G02*
X16601000Y-8716200I27500J0D01*
G01*
X16601000Y-8841200D02*
G75*
G02*
X16546000Y-8841200I-27500J0D01*
G01*
X16546000Y-8841200D02*
G75*
G02*
X16601000Y-8841200I27500J0D01*
G01*
X16601000Y-8966200D02*
G75*
G02*
X16546000Y-8966200I-27500J0D01*
G01*
X16546000Y-8966200D02*
G75*
G02*
X16601000Y-8966200I27500J0D01*
G01*
X14729085Y-5007500D02*
X14729085Y-5072500D01*
X14696585Y-5040000D02*
X14761585Y-5040000D01*
X14761585Y-5075000D02*
X14761585Y-5005000D01*
X14696585Y-5005000D02*
G75*
G02*
X14761585Y-5005000I32500J0D01*
G01*
X14696585Y-5005000D02*
X14696585Y-5075000D01*
X14696585Y-5075000D02*
G75*
G03*
X14761585Y-5075000I32500J0D01*
G01*
X14856085Y-5439500D02*
X14856085Y-5504500D01*
X14823585Y-5472000D02*
X14888585Y-5472000D01*
X14888585Y-5492000D02*
X14888585Y-5452000D01*
X14823585Y-5452000D02*
G75*
G02*
X14888585Y-5452000I32500J0D01*
G01*
X14823585Y-5452000D02*
X14823585Y-5492000D01*
X14823585Y-5492000D02*
G75*
G03*
X14888585Y-5492000I32500J0D01*
G01*
X15786085Y-5439500D02*
X15786085Y-5504500D01*
X15753585Y-5472000D02*
X15818585Y-5472000D01*
X15818585Y-5492000D02*
X15818585Y-5452000D01*
X15753585Y-5452000D02*
G75*
G02*
X15818585Y-5452000I32500J0D01*
G01*
X15753585Y-5452000D02*
X15753585Y-5492000D01*
X15753585Y-5492000D02*
G75*
G03*
X15818585Y-5492000I32500J0D01*
G01*
X15913085Y-5007500D02*
X15913085Y-5072500D01*
X15880585Y-5040000D02*
X15945585Y-5040000D01*
X15945585Y-5075000D02*
X15945585Y-5005000D01*
X15880585Y-5005000D02*
G75*
G02*
X15945585Y-5005000I32500J0D01*
G01*
X15880585Y-5005000D02*
X15880585Y-5075000D01*
X15880585Y-5075000D02*
G75*
G03*
X15945585Y-5075000I32500J0D01*
G01*
D11*
X14108085Y-10313984D02*
X14108085Y-10113984D01*
X14108085Y-10113984D02*
X14155704Y-10113984D01*
X14155704Y-10113984D02*
X14184275Y-10123508D01*
X14184275Y-10123508D02*
X14203323Y-10142555D01*
X14203323Y-10142555D02*
X14212846Y-10161603D01*
X14212846Y-10161603D02*
X14222370Y-10199698D01*
X14222370Y-10199698D02*
X14222370Y-10228270D01*
X14222370Y-10228270D02*
X14212846Y-10266365D01*
X14212846Y-10266365D02*
X14203323Y-10285412D01*
X14203323Y-10285412D02*
X14184275Y-10304460D01*
X14184275Y-10304460D02*
X14155704Y-10313984D01*
X14155704Y-10313984D02*
X14108085Y-10313984D01*
X14308085Y-10313984D02*
X14308085Y-10180650D01*
X14308085Y-10218746D02*
X14317608Y-10199698D01*
X14317608Y-10199698D02*
X14327132Y-10190174D01*
X14327132Y-10190174D02*
X14346180Y-10180650D01*
X14346180Y-10180650D02*
X14365227Y-10180650D01*
X14431894Y-10313984D02*
X14431894Y-10180650D01*
X14431894Y-10113984D02*
X14422370Y-10123508D01*
X14422370Y-10123508D02*
X14431894Y-10133031D01*
X14431894Y-10133031D02*
X14441418Y-10123508D01*
X14441418Y-10123508D02*
X14431894Y-10113984D01*
X14431894Y-10113984D02*
X14431894Y-10133031D01*
X14555704Y-10313984D02*
X14536656Y-10304460D01*
X14536656Y-10304460D02*
X14527132Y-10285412D01*
X14527132Y-10285412D02*
X14527132Y-10113984D01*
X14660465Y-10313984D02*
X14641418Y-10304460D01*
X14641418Y-10304460D02*
X14631894Y-10285412D01*
X14631894Y-10285412D02*
X14631894Y-10113984D01*
X14889037Y-10313984D02*
X14889037Y-10113984D01*
X14889037Y-10113984D02*
X14955704Y-10256841D01*
X14955704Y-10256841D02*
X15022370Y-10113984D01*
X15022370Y-10113984D02*
X15022370Y-10313984D01*
X15203323Y-10313984D02*
X15203323Y-10209222D01*
X15203323Y-10209222D02*
X15193799Y-10190174D01*
X15193799Y-10190174D02*
X15174751Y-10180650D01*
X15174751Y-10180650D02*
X15136656Y-10180650D01*
X15136656Y-10180650D02*
X15117608Y-10190174D01*
X15203323Y-10304460D02*
X15184275Y-10313984D01*
X15184275Y-10313984D02*
X15136656Y-10313984D01*
X15136656Y-10313984D02*
X15117608Y-10304460D01*
X15117608Y-10304460D02*
X15108085Y-10285412D01*
X15108085Y-10285412D02*
X15108085Y-10266365D01*
X15108085Y-10266365D02*
X15117608Y-10247317D01*
X15117608Y-10247317D02*
X15136656Y-10237793D01*
X15136656Y-10237793D02*
X15184275Y-10237793D01*
X15184275Y-10237793D02*
X15203323Y-10228270D01*
X15298561Y-10180650D02*
X15298561Y-10380650D01*
X15298561Y-10190174D02*
X15317608Y-10180650D01*
X15317608Y-10180650D02*
X15355704Y-10180650D01*
X15355704Y-10180650D02*
X15374751Y-10190174D01*
X15374751Y-10190174D02*
X15384275Y-10199698D01*
X15384275Y-10199698D02*
X15393799Y-10218746D01*
X15393799Y-10218746D02*
X15393799Y-10275889D01*
X15393799Y-10275889D02*
X15384275Y-10294936D01*
X15384275Y-10294936D02*
X15374751Y-10304460D01*
X15374751Y-10304460D02*
X15355704Y-10313984D01*
X15355704Y-10313984D02*
X15317608Y-10313984D01*
X15317608Y-10313984D02*
X15298561Y-10304460D01*
X15479513Y-10294936D02*
X15489037Y-10304460D01*
X15489037Y-10304460D02*
X15479513Y-10313984D01*
X15479513Y-10313984D02*
X15469989Y-10304460D01*
X15469989Y-10304460D02*
X15479513Y-10294936D01*
X15479513Y-10294936D02*
X15479513Y-10313984D01*
X15479513Y-10190174D02*
X15489037Y-10199698D01*
X15489037Y-10199698D02*
X15479513Y-10209222D01*
X15479513Y-10209222D02*
X15469989Y-10199698D01*
X15469989Y-10199698D02*
X15479513Y-10190174D01*
X15479513Y-10190174D02*
X15479513Y-10209222D01*
D12*
X13827308Y-10632500D02*
X13847308Y-10652500D01*
X13847308Y-10632500D02*
X13827308Y-10652500D01*
D11*
X14146180Y-10533984D02*
X14165227Y-10533984D01*
X14165227Y-10533984D02*
X14184275Y-10543508D01*
X14184275Y-10543508D02*
X14193799Y-10553031D01*
X14193799Y-10553031D02*
X14203323Y-10572079D01*
X14203323Y-10572079D02*
X14212846Y-10610174D01*
X14212846Y-10610174D02*
X14212846Y-10657793D01*
X14212846Y-10657793D02*
X14203323Y-10695889D01*
X14203323Y-10695889D02*
X14193799Y-10714936D01*
X14193799Y-10714936D02*
X14184275Y-10724460D01*
X14184275Y-10724460D02*
X14165227Y-10733984D01*
X14165227Y-10733984D02*
X14146180Y-10733984D01*
X14146180Y-10733984D02*
X14127132Y-10724460D01*
X14127132Y-10724460D02*
X14117608Y-10714936D01*
X14117608Y-10714936D02*
X14108085Y-10695889D01*
X14108085Y-10695889D02*
X14098561Y-10657793D01*
X14098561Y-10657793D02*
X14098561Y-10610174D01*
X14098561Y-10610174D02*
X14108085Y-10572079D01*
X14108085Y-10572079D02*
X14117608Y-10553031D01*
X14117608Y-10553031D02*
X14127132Y-10543508D01*
X14127132Y-10543508D02*
X14146180Y-10533984D01*
X14298561Y-10714936D02*
X14308085Y-10724460D01*
X14308085Y-10724460D02*
X14298561Y-10733984D01*
X14298561Y-10733984D02*
X14289037Y-10724460D01*
X14289037Y-10724460D02*
X14298561Y-10714936D01*
X14298561Y-10714936D02*
X14298561Y-10733984D01*
X14384275Y-10553031D02*
X14393799Y-10543508D01*
X14393799Y-10543508D02*
X14412846Y-10533984D01*
X14412846Y-10533984D02*
X14460466Y-10533984D01*
X14460466Y-10533984D02*
X14479513Y-10543508D01*
X14479513Y-10543508D02*
X14489037Y-10553031D01*
X14489037Y-10553031D02*
X14498561Y-10572079D01*
X14498561Y-10572079D02*
X14498561Y-10591127D01*
X14498561Y-10591127D02*
X14489037Y-10619698D01*
X14489037Y-10619698D02*
X14374751Y-10733984D01*
X14374751Y-10733984D02*
X14498561Y-10733984D01*
X14622370Y-10533984D02*
X14641418Y-10533984D01*
X14641418Y-10533984D02*
X14660466Y-10543508D01*
X14660466Y-10543508D02*
X14669989Y-10553031D01*
X14669989Y-10553031D02*
X14679513Y-10572079D01*
X14679513Y-10572079D02*
X14689037Y-10610174D01*
X14689037Y-10610174D02*
X14689037Y-10657793D01*
X14689037Y-10657793D02*
X14679513Y-10695889D01*
X14679513Y-10695889D02*
X14669989Y-10714936D01*
X14669989Y-10714936D02*
X14660466Y-10724460D01*
X14660466Y-10724460D02*
X14641418Y-10733984D01*
X14641418Y-10733984D02*
X14622370Y-10733984D01*
X14622370Y-10733984D02*
X14603323Y-10724460D01*
X14603323Y-10724460D02*
X14593799Y-10714936D01*
X14593799Y-10714936D02*
X14584275Y-10695889D01*
X14584275Y-10695889D02*
X14574751Y-10657793D01*
X14574751Y-10657793D02*
X14574751Y-10610174D01*
X14574751Y-10610174D02*
X14584275Y-10572079D01*
X14584275Y-10572079D02*
X14593799Y-10553031D01*
X14593799Y-10553031D02*
X14603323Y-10543508D01*
X14603323Y-10543508D02*
X14622370Y-10533984D01*
X14812846Y-10533984D02*
X14831894Y-10533984D01*
X14831894Y-10533984D02*
X14850942Y-10543508D01*
X14850942Y-10543508D02*
X14860466Y-10553031D01*
X14860466Y-10553031D02*
X14869989Y-10572079D01*
X14869989Y-10572079D02*
X14879513Y-10610174D01*
X14879513Y-10610174D02*
X14879513Y-10657793D01*
X14879513Y-10657793D02*
X14869989Y-10695889D01*
X14869989Y-10695889D02*
X14860466Y-10714936D01*
X14860466Y-10714936D02*
X14850942Y-10724460D01*
X14850942Y-10724460D02*
X14831894Y-10733984D01*
X14831894Y-10733984D02*
X14812846Y-10733984D01*
X14812846Y-10733984D02*
X14793799Y-10724460D01*
X14793799Y-10724460D02*
X14784275Y-10714936D01*
X14784275Y-10714936D02*
X14774751Y-10695889D01*
X14774751Y-10695889D02*
X14765227Y-10657793D01*
X14765227Y-10657793D02*
X14765227Y-10610174D01*
X14765227Y-10610174D02*
X14774751Y-10572079D01*
X14774751Y-10572079D02*
X14784275Y-10553031D01*
X14784275Y-10553031D02*
X14793799Y-10543508D01*
X14793799Y-10543508D02*
X14812846Y-10533984D01*
X14965227Y-10733984D02*
X14965227Y-10600650D01*
X14965227Y-10619698D02*
X14974751Y-10610174D01*
X14974751Y-10610174D02*
X14993799Y-10600650D01*
X14993799Y-10600650D02*
X15022370Y-10600650D01*
X15022370Y-10600650D02*
X15041418Y-10610174D01*
X15041418Y-10610174D02*
X15050942Y-10629222D01*
X15050942Y-10629222D02*
X15050942Y-10733984D01*
X15050942Y-10629222D02*
X15060466Y-10610174D01*
X15060466Y-10610174D02*
X15079513Y-10600650D01*
X15079513Y-10600650D02*
X15108085Y-10600650D01*
X15108085Y-10600650D02*
X15127132Y-10610174D01*
X15127132Y-10610174D02*
X15136656Y-10629222D01*
X15136656Y-10629222D02*
X15136656Y-10733984D01*
X15231894Y-10733984D02*
X15231894Y-10600650D01*
X15231894Y-10619698D02*
X15241418Y-10610174D01*
X15241418Y-10610174D02*
X15260466Y-10600650D01*
X15260466Y-10600650D02*
X15289037Y-10600650D01*
X15289037Y-10600650D02*
X15308085Y-10610174D01*
X15308085Y-10610174D02*
X15317608Y-10629222D01*
X15317608Y-10629222D02*
X15317608Y-10733984D01*
X15317608Y-10629222D02*
X15327132Y-10610174D01*
X15327132Y-10610174D02*
X15346180Y-10600650D01*
X15346180Y-10600650D02*
X15374751Y-10600650D01*
X15374751Y-10600650D02*
X15393799Y-10610174D01*
X15393799Y-10610174D02*
X15403323Y-10629222D01*
X15403323Y-10629222D02*
X15403323Y-10733984D01*
X15793799Y-10524460D02*
X15622370Y-10781603D01*
X16050942Y-10533984D02*
X16069990Y-10533984D01*
X16069990Y-10533984D02*
X16089037Y-10543508D01*
X16089037Y-10543508D02*
X16098561Y-10553031D01*
X16098561Y-10553031D02*
X16108085Y-10572079D01*
X16108085Y-10572079D02*
X16117609Y-10610174D01*
X16117609Y-10610174D02*
X16117609Y-10657793D01*
X16117609Y-10657793D02*
X16108085Y-10695889D01*
X16108085Y-10695889D02*
X16098561Y-10714936D01*
X16098561Y-10714936D02*
X16089037Y-10724460D01*
X16089037Y-10724460D02*
X16069990Y-10733984D01*
X16069990Y-10733984D02*
X16050942Y-10733984D01*
X16050942Y-10733984D02*
X16031894Y-10724460D01*
X16031894Y-10724460D02*
X16022370Y-10714936D01*
X16022370Y-10714936D02*
X16012847Y-10695889D01*
X16012847Y-10695889D02*
X16003323Y-10657793D01*
X16003323Y-10657793D02*
X16003323Y-10610174D01*
X16003323Y-10610174D02*
X16012847Y-10572079D01*
X16012847Y-10572079D02*
X16022370Y-10553031D01*
X16022370Y-10553031D02*
X16031894Y-10543508D01*
X16031894Y-10543508D02*
X16050942Y-10533984D01*
X16203323Y-10714936D02*
X16212847Y-10724460D01*
X16212847Y-10724460D02*
X16203323Y-10733984D01*
X16203323Y-10733984D02*
X16193799Y-10724460D01*
X16193799Y-10724460D02*
X16203323Y-10714936D01*
X16203323Y-10714936D02*
X16203323Y-10733984D01*
X16336656Y-10533984D02*
X16355704Y-10533984D01*
X16355704Y-10533984D02*
X16374751Y-10543508D01*
X16374751Y-10543508D02*
X16384275Y-10553031D01*
X16384275Y-10553031D02*
X16393799Y-10572079D01*
X16393799Y-10572079D02*
X16403323Y-10610174D01*
X16403323Y-10610174D02*
X16403323Y-10657793D01*
X16403323Y-10657793D02*
X16393799Y-10695889D01*
X16393799Y-10695889D02*
X16384275Y-10714936D01*
X16384275Y-10714936D02*
X16374751Y-10724460D01*
X16374751Y-10724460D02*
X16355704Y-10733984D01*
X16355704Y-10733984D02*
X16336656Y-10733984D01*
X16336656Y-10733984D02*
X16317609Y-10724460D01*
X16317609Y-10724460D02*
X16308085Y-10714936D01*
X16308085Y-10714936D02*
X16298561Y-10695889D01*
X16298561Y-10695889D02*
X16289037Y-10657793D01*
X16289037Y-10657793D02*
X16289037Y-10610174D01*
X16289037Y-10610174D02*
X16298561Y-10572079D01*
X16298561Y-10572079D02*
X16308085Y-10553031D01*
X16308085Y-10553031D02*
X16317609Y-10543508D01*
X16317609Y-10543508D02*
X16336656Y-10533984D01*
X16527132Y-10533984D02*
X16546180Y-10533984D01*
X16546180Y-10533984D02*
X16565228Y-10543508D01*
X16565228Y-10543508D02*
X16574751Y-10553031D01*
X16574751Y-10553031D02*
X16584275Y-10572079D01*
X16584275Y-10572079D02*
X16593799Y-10610174D01*
X16593799Y-10610174D02*
X16593799Y-10657793D01*
X16593799Y-10657793D02*
X16584275Y-10695889D01*
X16584275Y-10695889D02*
X16574751Y-10714936D01*
X16574751Y-10714936D02*
X16565228Y-10724460D01*
X16565228Y-10724460D02*
X16546180Y-10733984D01*
X16546180Y-10733984D02*
X16527132Y-10733984D01*
X16527132Y-10733984D02*
X16508085Y-10724460D01*
X16508085Y-10724460D02*
X16498561Y-10714936D01*
X16498561Y-10714936D02*
X16489037Y-10695889D01*
X16489037Y-10695889D02*
X16479513Y-10657793D01*
X16479513Y-10657793D02*
X16479513Y-10610174D01*
X16479513Y-10610174D02*
X16489037Y-10572079D01*
X16489037Y-10572079D02*
X16498561Y-10553031D01*
X16498561Y-10553031D02*
X16508085Y-10543508D01*
X16508085Y-10543508D02*
X16527132Y-10533984D01*
X16660466Y-10533984D02*
X16793799Y-10533984D01*
X16793799Y-10533984D02*
X16708085Y-10733984D01*
X16879513Y-10733984D02*
X16917609Y-10733984D01*
X16917609Y-10733984D02*
X16936656Y-10724460D01*
X16936656Y-10724460D02*
X16946180Y-10714936D01*
X16946180Y-10714936D02*
X16965228Y-10686365D01*
X16965228Y-10686365D02*
X16974752Y-10648270D01*
X16974752Y-10648270D02*
X16974752Y-10572079D01*
X16974752Y-10572079D02*
X16965228Y-10553031D01*
X16965228Y-10553031D02*
X16955704Y-10543508D01*
X16955704Y-10543508D02*
X16936656Y-10533984D01*
X16936656Y-10533984D02*
X16898561Y-10533984D01*
X16898561Y-10533984D02*
X16879513Y-10543508D01*
X16879513Y-10543508D02*
X16869990Y-10553031D01*
X16869990Y-10553031D02*
X16860466Y-10572079D01*
X16860466Y-10572079D02*
X16860466Y-10619698D01*
X16860466Y-10619698D02*
X16869990Y-10638746D01*
X16869990Y-10638746D02*
X16879513Y-10648270D01*
X16879513Y-10648270D02*
X16898561Y-10657793D01*
X16898561Y-10657793D02*
X16936656Y-10657793D01*
X16936656Y-10657793D02*
X16955704Y-10648270D01*
X16955704Y-10648270D02*
X16965228Y-10638746D01*
X16965228Y-10638746D02*
X16974752Y-10619698D01*
X17050942Y-10533984D02*
X17050942Y-10572079D01*
X17127133Y-10533984D02*
X17127133Y-10572079D01*
X17422371Y-10810174D02*
X17412847Y-10800650D01*
X17412847Y-10800650D02*
X17393799Y-10772079D01*
X17393799Y-10772079D02*
X17384275Y-10753031D01*
X17384275Y-10753031D02*
X17374752Y-10724460D01*
X17374752Y-10724460D02*
X17365228Y-10676841D01*
X17365228Y-10676841D02*
X17365228Y-10638746D01*
X17365228Y-10638746D02*
X17374752Y-10591127D01*
X17374752Y-10591127D02*
X17384275Y-10562555D01*
X17384275Y-10562555D02*
X17393799Y-10543508D01*
X17393799Y-10543508D02*
X17412847Y-10514936D01*
X17412847Y-10514936D02*
X17422371Y-10505412D01*
X17489037Y-10553031D02*
X17498561Y-10543508D01*
X17498561Y-10543508D02*
X17517609Y-10533984D01*
X17517609Y-10533984D02*
X17565228Y-10533984D01*
X17565228Y-10533984D02*
X17584275Y-10543508D01*
X17584275Y-10543508D02*
X17593799Y-10553031D01*
X17593799Y-10553031D02*
X17603323Y-10572079D01*
X17603323Y-10572079D02*
X17603323Y-10591127D01*
X17603323Y-10591127D02*
X17593799Y-10619698D01*
X17593799Y-10619698D02*
X17479514Y-10733984D01*
X17479514Y-10733984D02*
X17603323Y-10733984D01*
X17793799Y-10733984D02*
X17679514Y-10733984D01*
X17736656Y-10733984D02*
X17736656Y-10533984D01*
X17736656Y-10533984D02*
X17717609Y-10562555D01*
X17717609Y-10562555D02*
X17698561Y-10581603D01*
X17698561Y-10581603D02*
X17679514Y-10591127D01*
X17965228Y-10600650D02*
X17965228Y-10733984D01*
X17917609Y-10524460D02*
X17869990Y-10667317D01*
X17869990Y-10667317D02*
X17993799Y-10667317D01*
X18222371Y-10733984D02*
X18222371Y-10533984D01*
X18308085Y-10733984D02*
X18308085Y-10629222D01*
X18308085Y-10629222D02*
X18298561Y-10610174D01*
X18298561Y-10610174D02*
X18279514Y-10600650D01*
X18279514Y-10600650D02*
X18250942Y-10600650D01*
X18250942Y-10600650D02*
X18231895Y-10610174D01*
X18231895Y-10610174D02*
X18222371Y-10619698D01*
X18431895Y-10733984D02*
X18412847Y-10724460D01*
X18412847Y-10724460D02*
X18403323Y-10714936D01*
X18403323Y-10714936D02*
X18393799Y-10695889D01*
X18393799Y-10695889D02*
X18393799Y-10638746D01*
X18393799Y-10638746D02*
X18403323Y-10619698D01*
X18403323Y-10619698D02*
X18412847Y-10610174D01*
X18412847Y-10610174D02*
X18431895Y-10600650D01*
X18431895Y-10600650D02*
X18460466Y-10600650D01*
X18460466Y-10600650D02*
X18479514Y-10610174D01*
X18479514Y-10610174D02*
X18489037Y-10619698D01*
X18489037Y-10619698D02*
X18498561Y-10638746D01*
X18498561Y-10638746D02*
X18498561Y-10695889D01*
X18498561Y-10695889D02*
X18489037Y-10714936D01*
X18489037Y-10714936D02*
X18479514Y-10724460D01*
X18479514Y-10724460D02*
X18460466Y-10733984D01*
X18460466Y-10733984D02*
X18431895Y-10733984D01*
X18612847Y-10733984D02*
X18593799Y-10724460D01*
X18593799Y-10724460D02*
X18584276Y-10705412D01*
X18584276Y-10705412D02*
X18584276Y-10533984D01*
X18765228Y-10724460D02*
X18746180Y-10733984D01*
X18746180Y-10733984D02*
X18708085Y-10733984D01*
X18708085Y-10733984D02*
X18689037Y-10724460D01*
X18689037Y-10724460D02*
X18679514Y-10705412D01*
X18679514Y-10705412D02*
X18679514Y-10629222D01*
X18679514Y-10629222D02*
X18689037Y-10610174D01*
X18689037Y-10610174D02*
X18708085Y-10600650D01*
X18708085Y-10600650D02*
X18746180Y-10600650D01*
X18746180Y-10600650D02*
X18765228Y-10610174D01*
X18765228Y-10610174D02*
X18774752Y-10629222D01*
X18774752Y-10629222D02*
X18774752Y-10648270D01*
X18774752Y-10648270D02*
X18679514Y-10667317D01*
X18850942Y-10724460D02*
X18869990Y-10733984D01*
X18869990Y-10733984D02*
X18908085Y-10733984D01*
X18908085Y-10733984D02*
X18927133Y-10724460D01*
X18927133Y-10724460D02*
X18936657Y-10705412D01*
X18936657Y-10705412D02*
X18936657Y-10695889D01*
X18936657Y-10695889D02*
X18927133Y-10676841D01*
X18927133Y-10676841D02*
X18908085Y-10667317D01*
X18908085Y-10667317D02*
X18879514Y-10667317D01*
X18879514Y-10667317D02*
X18860466Y-10657793D01*
X18860466Y-10657793D02*
X18850942Y-10638746D01*
X18850942Y-10638746D02*
X18850942Y-10629222D01*
X18850942Y-10629222D02*
X18860466Y-10610174D01*
X18860466Y-10610174D02*
X18879514Y-10600650D01*
X18879514Y-10600650D02*
X18908085Y-10600650D01*
X18908085Y-10600650D02*
X18927133Y-10610174D01*
X19003323Y-10810174D02*
X19012847Y-10800650D01*
X19012847Y-10800650D02*
X19031895Y-10772079D01*
X19031895Y-10772079D02*
X19041418Y-10753031D01*
X19041418Y-10753031D02*
X19050942Y-10724460D01*
X19050942Y-10724460D02*
X19060466Y-10676841D01*
X19060466Y-10676841D02*
X19060466Y-10638746D01*
X19060466Y-10638746D02*
X19050942Y-10591127D01*
X19050942Y-10591127D02*
X19041418Y-10562555D01*
X19041418Y-10562555D02*
X19031895Y-10543508D01*
X19031895Y-10543508D02*
X19012847Y-10514936D01*
X19012847Y-10514936D02*
X19003323Y-10505412D01*
D12*
X13847308Y-10906500D02*
G75*
G02*
X13792308Y-10906500I-27500J0D01*
G01*
X13792308Y-10906500D02*
G75*
G02*
X13847308Y-10906500I27500J0D01*
G01*
D11*
X14146180Y-10797984D02*
X14165227Y-10797984D01*
X14165227Y-10797984D02*
X14184275Y-10807508D01*
X14184275Y-10807508D02*
X14193799Y-10817031D01*
X14193799Y-10817031D02*
X14203323Y-10836079D01*
X14203323Y-10836079D02*
X14212846Y-10874174D01*
X14212846Y-10874174D02*
X14212846Y-10921793D01*
X14212846Y-10921793D02*
X14203323Y-10959889D01*
X14203323Y-10959889D02*
X14193799Y-10978936D01*
X14193799Y-10978936D02*
X14184275Y-10988460D01*
X14184275Y-10988460D02*
X14165227Y-10997984D01*
X14165227Y-10997984D02*
X14146180Y-10997984D01*
X14146180Y-10997984D02*
X14127132Y-10988460D01*
X14127132Y-10988460D02*
X14117608Y-10978936D01*
X14117608Y-10978936D02*
X14108085Y-10959889D01*
X14108085Y-10959889D02*
X14098561Y-10921793D01*
X14098561Y-10921793D02*
X14098561Y-10874174D01*
X14098561Y-10874174D02*
X14108085Y-10836079D01*
X14108085Y-10836079D02*
X14117608Y-10817031D01*
X14117608Y-10817031D02*
X14127132Y-10807508D01*
X14127132Y-10807508D02*
X14146180Y-10797984D01*
X14298561Y-10978936D02*
X14308085Y-10988460D01*
X14308085Y-10988460D02*
X14298561Y-10997984D01*
X14298561Y-10997984D02*
X14289037Y-10988460D01*
X14289037Y-10988460D02*
X14298561Y-10978936D01*
X14298561Y-10978936D02*
X14298561Y-10997984D01*
X14489037Y-10797984D02*
X14393799Y-10797984D01*
X14393799Y-10797984D02*
X14384275Y-10893222D01*
X14384275Y-10893222D02*
X14393799Y-10883698D01*
X14393799Y-10883698D02*
X14412846Y-10874174D01*
X14412846Y-10874174D02*
X14460466Y-10874174D01*
X14460466Y-10874174D02*
X14479513Y-10883698D01*
X14479513Y-10883698D02*
X14489037Y-10893222D01*
X14489037Y-10893222D02*
X14498561Y-10912270D01*
X14498561Y-10912270D02*
X14498561Y-10959889D01*
X14498561Y-10959889D02*
X14489037Y-10978936D01*
X14489037Y-10978936D02*
X14479513Y-10988460D01*
X14479513Y-10988460D02*
X14460466Y-10997984D01*
X14460466Y-10997984D02*
X14412846Y-10997984D01*
X14412846Y-10997984D02*
X14393799Y-10988460D01*
X14393799Y-10988460D02*
X14384275Y-10978936D01*
X14679513Y-10797984D02*
X14584275Y-10797984D01*
X14584275Y-10797984D02*
X14574751Y-10893222D01*
X14574751Y-10893222D02*
X14584275Y-10883698D01*
X14584275Y-10883698D02*
X14603323Y-10874174D01*
X14603323Y-10874174D02*
X14650942Y-10874174D01*
X14650942Y-10874174D02*
X14669989Y-10883698D01*
X14669989Y-10883698D02*
X14679513Y-10893222D01*
X14679513Y-10893222D02*
X14689037Y-10912270D01*
X14689037Y-10912270D02*
X14689037Y-10959889D01*
X14689037Y-10959889D02*
X14679513Y-10978936D01*
X14679513Y-10978936D02*
X14669989Y-10988460D01*
X14669989Y-10988460D02*
X14650942Y-10997984D01*
X14650942Y-10997984D02*
X14603323Y-10997984D01*
X14603323Y-10997984D02*
X14584275Y-10988460D01*
X14584275Y-10988460D02*
X14574751Y-10978936D01*
X14812846Y-10797984D02*
X14831894Y-10797984D01*
X14831894Y-10797984D02*
X14850942Y-10807508D01*
X14850942Y-10807508D02*
X14860466Y-10817031D01*
X14860466Y-10817031D02*
X14869989Y-10836079D01*
X14869989Y-10836079D02*
X14879513Y-10874174D01*
X14879513Y-10874174D02*
X14879513Y-10921793D01*
X14879513Y-10921793D02*
X14869989Y-10959889D01*
X14869989Y-10959889D02*
X14860466Y-10978936D01*
X14860466Y-10978936D02*
X14850942Y-10988460D01*
X14850942Y-10988460D02*
X14831894Y-10997984D01*
X14831894Y-10997984D02*
X14812846Y-10997984D01*
X14812846Y-10997984D02*
X14793799Y-10988460D01*
X14793799Y-10988460D02*
X14784275Y-10978936D01*
X14784275Y-10978936D02*
X14774751Y-10959889D01*
X14774751Y-10959889D02*
X14765227Y-10921793D01*
X14765227Y-10921793D02*
X14765227Y-10874174D01*
X14765227Y-10874174D02*
X14774751Y-10836079D01*
X14774751Y-10836079D02*
X14784275Y-10817031D01*
X14784275Y-10817031D02*
X14793799Y-10807508D01*
X14793799Y-10807508D02*
X14812846Y-10797984D01*
X14965227Y-10997984D02*
X14965227Y-10864650D01*
X14965227Y-10883698D02*
X14974751Y-10874174D01*
X14974751Y-10874174D02*
X14993799Y-10864650D01*
X14993799Y-10864650D02*
X15022370Y-10864650D01*
X15022370Y-10864650D02*
X15041418Y-10874174D01*
X15041418Y-10874174D02*
X15050942Y-10893222D01*
X15050942Y-10893222D02*
X15050942Y-10997984D01*
X15050942Y-10893222D02*
X15060466Y-10874174D01*
X15060466Y-10874174D02*
X15079513Y-10864650D01*
X15079513Y-10864650D02*
X15108085Y-10864650D01*
X15108085Y-10864650D02*
X15127132Y-10874174D01*
X15127132Y-10874174D02*
X15136656Y-10893222D01*
X15136656Y-10893222D02*
X15136656Y-10997984D01*
X15231894Y-10997984D02*
X15231894Y-10864650D01*
X15231894Y-10883698D02*
X15241418Y-10874174D01*
X15241418Y-10874174D02*
X15260466Y-10864650D01*
X15260466Y-10864650D02*
X15289037Y-10864650D01*
X15289037Y-10864650D02*
X15308085Y-10874174D01*
X15308085Y-10874174D02*
X15317608Y-10893222D01*
X15317608Y-10893222D02*
X15317608Y-10997984D01*
X15317608Y-10893222D02*
X15327132Y-10874174D01*
X15327132Y-10874174D02*
X15346180Y-10864650D01*
X15346180Y-10864650D02*
X15374751Y-10864650D01*
X15374751Y-10864650D02*
X15393799Y-10874174D01*
X15393799Y-10874174D02*
X15403323Y-10893222D01*
X15403323Y-10893222D02*
X15403323Y-10997984D01*
X15793799Y-10788460D02*
X15622370Y-11045603D01*
X16050942Y-10797984D02*
X16069990Y-10797984D01*
X16069990Y-10797984D02*
X16089037Y-10807508D01*
X16089037Y-10807508D02*
X16098561Y-10817031D01*
X16098561Y-10817031D02*
X16108085Y-10836079D01*
X16108085Y-10836079D02*
X16117609Y-10874174D01*
X16117609Y-10874174D02*
X16117609Y-10921793D01*
X16117609Y-10921793D02*
X16108085Y-10959889D01*
X16108085Y-10959889D02*
X16098561Y-10978936D01*
X16098561Y-10978936D02*
X16089037Y-10988460D01*
X16089037Y-10988460D02*
X16069990Y-10997984D01*
X16069990Y-10997984D02*
X16050942Y-10997984D01*
X16050942Y-10997984D02*
X16031894Y-10988460D01*
X16031894Y-10988460D02*
X16022370Y-10978936D01*
X16022370Y-10978936D02*
X16012847Y-10959889D01*
X16012847Y-10959889D02*
X16003323Y-10921793D01*
X16003323Y-10921793D02*
X16003323Y-10874174D01*
X16003323Y-10874174D02*
X16012847Y-10836079D01*
X16012847Y-10836079D02*
X16022370Y-10817031D01*
X16022370Y-10817031D02*
X16031894Y-10807508D01*
X16031894Y-10807508D02*
X16050942Y-10797984D01*
X16203323Y-10978936D02*
X16212847Y-10988460D01*
X16212847Y-10988460D02*
X16203323Y-10997984D01*
X16203323Y-10997984D02*
X16193799Y-10988460D01*
X16193799Y-10988460D02*
X16203323Y-10978936D01*
X16203323Y-10978936D02*
X16203323Y-10997984D01*
X16336656Y-10797984D02*
X16355704Y-10797984D01*
X16355704Y-10797984D02*
X16374751Y-10807508D01*
X16374751Y-10807508D02*
X16384275Y-10817031D01*
X16384275Y-10817031D02*
X16393799Y-10836079D01*
X16393799Y-10836079D02*
X16403323Y-10874174D01*
X16403323Y-10874174D02*
X16403323Y-10921793D01*
X16403323Y-10921793D02*
X16393799Y-10959889D01*
X16393799Y-10959889D02*
X16384275Y-10978936D01*
X16384275Y-10978936D02*
X16374751Y-10988460D01*
X16374751Y-10988460D02*
X16355704Y-10997984D01*
X16355704Y-10997984D02*
X16336656Y-10997984D01*
X16336656Y-10997984D02*
X16317609Y-10988460D01*
X16317609Y-10988460D02*
X16308085Y-10978936D01*
X16308085Y-10978936D02*
X16298561Y-10959889D01*
X16298561Y-10959889D02*
X16289037Y-10921793D01*
X16289037Y-10921793D02*
X16289037Y-10874174D01*
X16289037Y-10874174D02*
X16298561Y-10836079D01*
X16298561Y-10836079D02*
X16308085Y-10817031D01*
X16308085Y-10817031D02*
X16317609Y-10807508D01*
X16317609Y-10807508D02*
X16336656Y-10797984D01*
X16479513Y-10817031D02*
X16489037Y-10807508D01*
X16489037Y-10807508D02*
X16508085Y-10797984D01*
X16508085Y-10797984D02*
X16555704Y-10797984D01*
X16555704Y-10797984D02*
X16574751Y-10807508D01*
X16574751Y-10807508D02*
X16584275Y-10817031D01*
X16584275Y-10817031D02*
X16593799Y-10836079D01*
X16593799Y-10836079D02*
X16593799Y-10855127D01*
X16593799Y-10855127D02*
X16584275Y-10883698D01*
X16584275Y-10883698D02*
X16469990Y-10997984D01*
X16469990Y-10997984D02*
X16593799Y-10997984D01*
X16784275Y-10997984D02*
X16669990Y-10997984D01*
X16727132Y-10997984D02*
X16727132Y-10797984D01*
X16727132Y-10797984D02*
X16708085Y-10826555D01*
X16708085Y-10826555D02*
X16689037Y-10845603D01*
X16689037Y-10845603D02*
X16669990Y-10855127D01*
X16850942Y-10797984D02*
X16984275Y-10797984D01*
X16984275Y-10797984D02*
X16898561Y-10997984D01*
X17050942Y-10797984D02*
X17050942Y-10836079D01*
X17127133Y-10797984D02*
X17127133Y-10836079D01*
X17422371Y-11074174D02*
X17412847Y-11064650D01*
X17412847Y-11064650D02*
X17393799Y-11036079D01*
X17393799Y-11036079D02*
X17384275Y-11017031D01*
X17384275Y-11017031D02*
X17374752Y-10988460D01*
X17374752Y-10988460D02*
X17365228Y-10940841D01*
X17365228Y-10940841D02*
X17365228Y-10902746D01*
X17365228Y-10902746D02*
X17374752Y-10855127D01*
X17374752Y-10855127D02*
X17384275Y-10826555D01*
X17384275Y-10826555D02*
X17393799Y-10807508D01*
X17393799Y-10807508D02*
X17412847Y-10778936D01*
X17412847Y-10778936D02*
X17422371Y-10769412D01*
X17527133Y-10883698D02*
X17508085Y-10874174D01*
X17508085Y-10874174D02*
X17498561Y-10864650D01*
X17498561Y-10864650D02*
X17489037Y-10845603D01*
X17489037Y-10845603D02*
X17489037Y-10836079D01*
X17489037Y-10836079D02*
X17498561Y-10817031D01*
X17498561Y-10817031D02*
X17508085Y-10807508D01*
X17508085Y-10807508D02*
X17527133Y-10797984D01*
X17527133Y-10797984D02*
X17565228Y-10797984D01*
X17565228Y-10797984D02*
X17584275Y-10807508D01*
X17584275Y-10807508D02*
X17593799Y-10817031D01*
X17593799Y-10817031D02*
X17603323Y-10836079D01*
X17603323Y-10836079D02*
X17603323Y-10845603D01*
X17603323Y-10845603D02*
X17593799Y-10864650D01*
X17593799Y-10864650D02*
X17584275Y-10874174D01*
X17584275Y-10874174D02*
X17565228Y-10883698D01*
X17565228Y-10883698D02*
X17527133Y-10883698D01*
X17527133Y-10883698D02*
X17508085Y-10893222D01*
X17508085Y-10893222D02*
X17498561Y-10902746D01*
X17498561Y-10902746D02*
X17489037Y-10921793D01*
X17489037Y-10921793D02*
X17489037Y-10959889D01*
X17489037Y-10959889D02*
X17498561Y-10978936D01*
X17498561Y-10978936D02*
X17508085Y-10988460D01*
X17508085Y-10988460D02*
X17527133Y-10997984D01*
X17527133Y-10997984D02*
X17565228Y-10997984D01*
X17565228Y-10997984D02*
X17584275Y-10988460D01*
X17584275Y-10988460D02*
X17593799Y-10978936D01*
X17593799Y-10978936D02*
X17603323Y-10959889D01*
X17603323Y-10959889D02*
X17603323Y-10921793D01*
X17603323Y-10921793D02*
X17593799Y-10902746D01*
X17593799Y-10902746D02*
X17584275Y-10893222D01*
X17584275Y-10893222D02*
X17565228Y-10883698D01*
X17841418Y-10997984D02*
X17841418Y-10797984D01*
X17927133Y-10997984D02*
X17927133Y-10893222D01*
X17927133Y-10893222D02*
X17917609Y-10874174D01*
X17917609Y-10874174D02*
X17898561Y-10864650D01*
X17898561Y-10864650D02*
X17869990Y-10864650D01*
X17869990Y-10864650D02*
X17850942Y-10874174D01*
X17850942Y-10874174D02*
X17841418Y-10883698D01*
X18050942Y-10997984D02*
X18031895Y-10988460D01*
X18031895Y-10988460D02*
X18022371Y-10978936D01*
X18022371Y-10978936D02*
X18012847Y-10959889D01*
X18012847Y-10959889D02*
X18012847Y-10902746D01*
X18012847Y-10902746D02*
X18022371Y-10883698D01*
X18022371Y-10883698D02*
X18031895Y-10874174D01*
X18031895Y-10874174D02*
X18050942Y-10864650D01*
X18050942Y-10864650D02*
X18079514Y-10864650D01*
X18079514Y-10864650D02*
X18098561Y-10874174D01*
X18098561Y-10874174D02*
X18108085Y-10883698D01*
X18108085Y-10883698D02*
X18117609Y-10902746D01*
X18117609Y-10902746D02*
X18117609Y-10959889D01*
X18117609Y-10959889D02*
X18108085Y-10978936D01*
X18108085Y-10978936D02*
X18098561Y-10988460D01*
X18098561Y-10988460D02*
X18079514Y-10997984D01*
X18079514Y-10997984D02*
X18050942Y-10997984D01*
X18231895Y-10997984D02*
X18212847Y-10988460D01*
X18212847Y-10988460D02*
X18203323Y-10969412D01*
X18203323Y-10969412D02*
X18203323Y-10797984D01*
X18384276Y-10988460D02*
X18365228Y-10997984D01*
X18365228Y-10997984D02*
X18327133Y-10997984D01*
X18327133Y-10997984D02*
X18308085Y-10988460D01*
X18308085Y-10988460D02*
X18298561Y-10969412D01*
X18298561Y-10969412D02*
X18298561Y-10893222D01*
X18298561Y-10893222D02*
X18308085Y-10874174D01*
X18308085Y-10874174D02*
X18327133Y-10864650D01*
X18327133Y-10864650D02*
X18365228Y-10864650D01*
X18365228Y-10864650D02*
X18384276Y-10874174D01*
X18384276Y-10874174D02*
X18393799Y-10893222D01*
X18393799Y-10893222D02*
X18393799Y-10912270D01*
X18393799Y-10912270D02*
X18298561Y-10931317D01*
X18469990Y-10988460D02*
X18489037Y-10997984D01*
X18489037Y-10997984D02*
X18527133Y-10997984D01*
X18527133Y-10997984D02*
X18546180Y-10988460D01*
X18546180Y-10988460D02*
X18555704Y-10969412D01*
X18555704Y-10969412D02*
X18555704Y-10959889D01*
X18555704Y-10959889D02*
X18546180Y-10940841D01*
X18546180Y-10940841D02*
X18527133Y-10931317D01*
X18527133Y-10931317D02*
X18498561Y-10931317D01*
X18498561Y-10931317D02*
X18479514Y-10921793D01*
X18479514Y-10921793D02*
X18469990Y-10902746D01*
X18469990Y-10902746D02*
X18469990Y-10893222D01*
X18469990Y-10893222D02*
X18479514Y-10874174D01*
X18479514Y-10874174D02*
X18498561Y-10864650D01*
X18498561Y-10864650D02*
X18527133Y-10864650D01*
X18527133Y-10864650D02*
X18546180Y-10874174D01*
X18622371Y-11074174D02*
X18631895Y-11064650D01*
X18631895Y-11064650D02*
X18650942Y-11036079D01*
X18650942Y-11036079D02*
X18660466Y-11017031D01*
X18660466Y-11017031D02*
X18669990Y-10988460D01*
X18669990Y-10988460D02*
X18679514Y-10940841D01*
X18679514Y-10940841D02*
X18679514Y-10902746D01*
X18679514Y-10902746D02*
X18669990Y-10855127D01*
X18669990Y-10855127D02*
X18660466Y-10826555D01*
X18660466Y-10826555D02*
X18650942Y-10807508D01*
X18650942Y-10807508D02*
X18631895Y-10778936D01*
X18631895Y-10778936D02*
X18622371Y-10769412D01*
D12*
X13814808Y-11138000D02*
X13814808Y-11203000D01*
X13782308Y-11170500D02*
X13847308Y-11170500D01*
D11*
X14146180Y-11061984D02*
X14165227Y-11061984D01*
X14165227Y-11061984D02*
X14184275Y-11071508D01*
X14184275Y-11071508D02*
X14193799Y-11081031D01*
X14193799Y-11081031D02*
X14203323Y-11100079D01*
X14203323Y-11100079D02*
X14212846Y-11138174D01*
X14212846Y-11138174D02*
X14212846Y-11185793D01*
X14212846Y-11185793D02*
X14203323Y-11223888D01*
X14203323Y-11223888D02*
X14193799Y-11242936D01*
X14193799Y-11242936D02*
X14184275Y-11252460D01*
X14184275Y-11252460D02*
X14165227Y-11261984D01*
X14165227Y-11261984D02*
X14146180Y-11261984D01*
X14146180Y-11261984D02*
X14127132Y-11252460D01*
X14127132Y-11252460D02*
X14117608Y-11242936D01*
X14117608Y-11242936D02*
X14108085Y-11223888D01*
X14108085Y-11223888D02*
X14098561Y-11185793D01*
X14098561Y-11185793D02*
X14098561Y-11138174D01*
X14098561Y-11138174D02*
X14108085Y-11100079D01*
X14108085Y-11100079D02*
X14117608Y-11081031D01*
X14117608Y-11081031D02*
X14127132Y-11071508D01*
X14127132Y-11071508D02*
X14146180Y-11061984D01*
X14298561Y-11242936D02*
X14308085Y-11252460D01*
X14308085Y-11252460D02*
X14298561Y-11261984D01*
X14298561Y-11261984D02*
X14289037Y-11252460D01*
X14289037Y-11252460D02*
X14298561Y-11242936D01*
X14298561Y-11242936D02*
X14298561Y-11261984D01*
X14479513Y-11061984D02*
X14441418Y-11061984D01*
X14441418Y-11061984D02*
X14422370Y-11071508D01*
X14422370Y-11071508D02*
X14412846Y-11081031D01*
X14412846Y-11081031D02*
X14393799Y-11109603D01*
X14393799Y-11109603D02*
X14384275Y-11147698D01*
X14384275Y-11147698D02*
X14384275Y-11223888D01*
X14384275Y-11223888D02*
X14393799Y-11242936D01*
X14393799Y-11242936D02*
X14403323Y-11252460D01*
X14403323Y-11252460D02*
X14422370Y-11261984D01*
X14422370Y-11261984D02*
X14460466Y-11261984D01*
X14460466Y-11261984D02*
X14479513Y-11252460D01*
X14479513Y-11252460D02*
X14489037Y-11242936D01*
X14489037Y-11242936D02*
X14498561Y-11223888D01*
X14498561Y-11223888D02*
X14498561Y-11176270D01*
X14498561Y-11176270D02*
X14489037Y-11157222D01*
X14489037Y-11157222D02*
X14479513Y-11147698D01*
X14479513Y-11147698D02*
X14460466Y-11138174D01*
X14460466Y-11138174D02*
X14422370Y-11138174D01*
X14422370Y-11138174D02*
X14403323Y-11147698D01*
X14403323Y-11147698D02*
X14393799Y-11157222D01*
X14393799Y-11157222D02*
X14384275Y-11176270D01*
X14679513Y-11061984D02*
X14584275Y-11061984D01*
X14584275Y-11061984D02*
X14574751Y-11157222D01*
X14574751Y-11157222D02*
X14584275Y-11147698D01*
X14584275Y-11147698D02*
X14603323Y-11138174D01*
X14603323Y-11138174D02*
X14650942Y-11138174D01*
X14650942Y-11138174D02*
X14669989Y-11147698D01*
X14669989Y-11147698D02*
X14679513Y-11157222D01*
X14679513Y-11157222D02*
X14689037Y-11176270D01*
X14689037Y-11176270D02*
X14689037Y-11223888D01*
X14689037Y-11223888D02*
X14679513Y-11242936D01*
X14679513Y-11242936D02*
X14669989Y-11252460D01*
X14669989Y-11252460D02*
X14650942Y-11261984D01*
X14650942Y-11261984D02*
X14603323Y-11261984D01*
X14603323Y-11261984D02*
X14584275Y-11252460D01*
X14584275Y-11252460D02*
X14574751Y-11242936D01*
X14812846Y-11061984D02*
X14831894Y-11061984D01*
X14831894Y-11061984D02*
X14850942Y-11071508D01*
X14850942Y-11071508D02*
X14860466Y-11081031D01*
X14860466Y-11081031D02*
X14869989Y-11100079D01*
X14869989Y-11100079D02*
X14879513Y-11138174D01*
X14879513Y-11138174D02*
X14879513Y-11185793D01*
X14879513Y-11185793D02*
X14869989Y-11223888D01*
X14869989Y-11223888D02*
X14860466Y-11242936D01*
X14860466Y-11242936D02*
X14850942Y-11252460D01*
X14850942Y-11252460D02*
X14831894Y-11261984D01*
X14831894Y-11261984D02*
X14812846Y-11261984D01*
X14812846Y-11261984D02*
X14793799Y-11252460D01*
X14793799Y-11252460D02*
X14784275Y-11242936D01*
X14784275Y-11242936D02*
X14774751Y-11223888D01*
X14774751Y-11223888D02*
X14765227Y-11185793D01*
X14765227Y-11185793D02*
X14765227Y-11138174D01*
X14765227Y-11138174D02*
X14774751Y-11100079D01*
X14774751Y-11100079D02*
X14784275Y-11081031D01*
X14784275Y-11081031D02*
X14793799Y-11071508D01*
X14793799Y-11071508D02*
X14812846Y-11061984D01*
X14965227Y-11261984D02*
X14965227Y-11128650D01*
X14965227Y-11147698D02*
X14974751Y-11138174D01*
X14974751Y-11138174D02*
X14993799Y-11128650D01*
X14993799Y-11128650D02*
X15022370Y-11128650D01*
X15022370Y-11128650D02*
X15041418Y-11138174D01*
X15041418Y-11138174D02*
X15050942Y-11157222D01*
X15050942Y-11157222D02*
X15050942Y-11261984D01*
X15050942Y-11157222D02*
X15060466Y-11138174D01*
X15060466Y-11138174D02*
X15079513Y-11128650D01*
X15079513Y-11128650D02*
X15108085Y-11128650D01*
X15108085Y-11128650D02*
X15127132Y-11138174D01*
X15127132Y-11138174D02*
X15136656Y-11157222D01*
X15136656Y-11157222D02*
X15136656Y-11261984D01*
X15231894Y-11261984D02*
X15231894Y-11128650D01*
X15231894Y-11147698D02*
X15241418Y-11138174D01*
X15241418Y-11138174D02*
X15260466Y-11128650D01*
X15260466Y-11128650D02*
X15289037Y-11128650D01*
X15289037Y-11128650D02*
X15308085Y-11138174D01*
X15308085Y-11138174D02*
X15317608Y-11157222D01*
X15317608Y-11157222D02*
X15317608Y-11261984D01*
X15317608Y-11157222D02*
X15327132Y-11138174D01*
X15327132Y-11138174D02*
X15346180Y-11128650D01*
X15346180Y-11128650D02*
X15374751Y-11128650D01*
X15374751Y-11128650D02*
X15393799Y-11138174D01*
X15393799Y-11138174D02*
X15403323Y-11157222D01*
X15403323Y-11157222D02*
X15403323Y-11261984D01*
X15793799Y-11052460D02*
X15622370Y-11309603D01*
X16050942Y-11061984D02*
X16069990Y-11061984D01*
X16069990Y-11061984D02*
X16089037Y-11071508D01*
X16089037Y-11071508D02*
X16098561Y-11081031D01*
X16098561Y-11081031D02*
X16108085Y-11100079D01*
X16108085Y-11100079D02*
X16117609Y-11138174D01*
X16117609Y-11138174D02*
X16117609Y-11185793D01*
X16117609Y-11185793D02*
X16108085Y-11223888D01*
X16108085Y-11223888D02*
X16098561Y-11242936D01*
X16098561Y-11242936D02*
X16089037Y-11252460D01*
X16089037Y-11252460D02*
X16069990Y-11261984D01*
X16069990Y-11261984D02*
X16050942Y-11261984D01*
X16050942Y-11261984D02*
X16031894Y-11252460D01*
X16031894Y-11252460D02*
X16022370Y-11242936D01*
X16022370Y-11242936D02*
X16012847Y-11223888D01*
X16012847Y-11223888D02*
X16003323Y-11185793D01*
X16003323Y-11185793D02*
X16003323Y-11138174D01*
X16003323Y-11138174D02*
X16012847Y-11100079D01*
X16012847Y-11100079D02*
X16022370Y-11081031D01*
X16022370Y-11081031D02*
X16031894Y-11071508D01*
X16031894Y-11071508D02*
X16050942Y-11061984D01*
X16203323Y-11242936D02*
X16212847Y-11252460D01*
X16212847Y-11252460D02*
X16203323Y-11261984D01*
X16203323Y-11261984D02*
X16193799Y-11252460D01*
X16193799Y-11252460D02*
X16203323Y-11242936D01*
X16203323Y-11242936D02*
X16203323Y-11261984D01*
X16336656Y-11061984D02*
X16355704Y-11061984D01*
X16355704Y-11061984D02*
X16374751Y-11071508D01*
X16374751Y-11071508D02*
X16384275Y-11081031D01*
X16384275Y-11081031D02*
X16393799Y-11100079D01*
X16393799Y-11100079D02*
X16403323Y-11138174D01*
X16403323Y-11138174D02*
X16403323Y-11185793D01*
X16403323Y-11185793D02*
X16393799Y-11223888D01*
X16393799Y-11223888D02*
X16384275Y-11242936D01*
X16384275Y-11242936D02*
X16374751Y-11252460D01*
X16374751Y-11252460D02*
X16355704Y-11261984D01*
X16355704Y-11261984D02*
X16336656Y-11261984D01*
X16336656Y-11261984D02*
X16317609Y-11252460D01*
X16317609Y-11252460D02*
X16308085Y-11242936D01*
X16308085Y-11242936D02*
X16298561Y-11223888D01*
X16298561Y-11223888D02*
X16289037Y-11185793D01*
X16289037Y-11185793D02*
X16289037Y-11138174D01*
X16289037Y-11138174D02*
X16298561Y-11100079D01*
X16298561Y-11100079D02*
X16308085Y-11081031D01*
X16308085Y-11081031D02*
X16317609Y-11071508D01*
X16317609Y-11071508D02*
X16336656Y-11061984D01*
X16479513Y-11081031D02*
X16489037Y-11071508D01*
X16489037Y-11071508D02*
X16508085Y-11061984D01*
X16508085Y-11061984D02*
X16555704Y-11061984D01*
X16555704Y-11061984D02*
X16574751Y-11071508D01*
X16574751Y-11071508D02*
X16584275Y-11081031D01*
X16584275Y-11081031D02*
X16593799Y-11100079D01*
X16593799Y-11100079D02*
X16593799Y-11119127D01*
X16593799Y-11119127D02*
X16584275Y-11147698D01*
X16584275Y-11147698D02*
X16469990Y-11261984D01*
X16469990Y-11261984D02*
X16593799Y-11261984D01*
X16774751Y-11061984D02*
X16679513Y-11061984D01*
X16679513Y-11061984D02*
X16669990Y-11157222D01*
X16669990Y-11157222D02*
X16679513Y-11147698D01*
X16679513Y-11147698D02*
X16698561Y-11138174D01*
X16698561Y-11138174D02*
X16746180Y-11138174D01*
X16746180Y-11138174D02*
X16765228Y-11147698D01*
X16765228Y-11147698D02*
X16774751Y-11157222D01*
X16774751Y-11157222D02*
X16784275Y-11176270D01*
X16784275Y-11176270D02*
X16784275Y-11223888D01*
X16784275Y-11223888D02*
X16774751Y-11242936D01*
X16774751Y-11242936D02*
X16765228Y-11252460D01*
X16765228Y-11252460D02*
X16746180Y-11261984D01*
X16746180Y-11261984D02*
X16698561Y-11261984D01*
X16698561Y-11261984D02*
X16679513Y-11252460D01*
X16679513Y-11252460D02*
X16669990Y-11242936D01*
X16955704Y-11061984D02*
X16917609Y-11061984D01*
X16917609Y-11061984D02*
X16898561Y-11071508D01*
X16898561Y-11071508D02*
X16889037Y-11081031D01*
X16889037Y-11081031D02*
X16869990Y-11109603D01*
X16869990Y-11109603D02*
X16860466Y-11147698D01*
X16860466Y-11147698D02*
X16860466Y-11223888D01*
X16860466Y-11223888D02*
X16869990Y-11242936D01*
X16869990Y-11242936D02*
X16879513Y-11252460D01*
X16879513Y-11252460D02*
X16898561Y-11261984D01*
X16898561Y-11261984D02*
X16936656Y-11261984D01*
X16936656Y-11261984D02*
X16955704Y-11252460D01*
X16955704Y-11252460D02*
X16965228Y-11242936D01*
X16965228Y-11242936D02*
X16974752Y-11223888D01*
X16974752Y-11223888D02*
X16974752Y-11176270D01*
X16974752Y-11176270D02*
X16965228Y-11157222D01*
X16965228Y-11157222D02*
X16955704Y-11147698D01*
X16955704Y-11147698D02*
X16936656Y-11138174D01*
X16936656Y-11138174D02*
X16898561Y-11138174D01*
X16898561Y-11138174D02*
X16879513Y-11147698D01*
X16879513Y-11147698D02*
X16869990Y-11157222D01*
X16869990Y-11157222D02*
X16860466Y-11176270D01*
X17050942Y-11061984D02*
X17050942Y-11100079D01*
X17127133Y-11061984D02*
X17127133Y-11100079D01*
X17422371Y-11338174D02*
X17412847Y-11328650D01*
X17412847Y-11328650D02*
X17393799Y-11300079D01*
X17393799Y-11300079D02*
X17384275Y-11281031D01*
X17384275Y-11281031D02*
X17374752Y-11252460D01*
X17374752Y-11252460D02*
X17365228Y-11204841D01*
X17365228Y-11204841D02*
X17365228Y-11166746D01*
X17365228Y-11166746D02*
X17374752Y-11119127D01*
X17374752Y-11119127D02*
X17384275Y-11090555D01*
X17384275Y-11090555D02*
X17393799Y-11071508D01*
X17393799Y-11071508D02*
X17412847Y-11042936D01*
X17412847Y-11042936D02*
X17422371Y-11033412D01*
X17536656Y-11061984D02*
X17555704Y-11061984D01*
X17555704Y-11061984D02*
X17574752Y-11071508D01*
X17574752Y-11071508D02*
X17584275Y-11081031D01*
X17584275Y-11081031D02*
X17593799Y-11100079D01*
X17593799Y-11100079D02*
X17603323Y-11138174D01*
X17603323Y-11138174D02*
X17603323Y-11185793D01*
X17603323Y-11185793D02*
X17593799Y-11223888D01*
X17593799Y-11223888D02*
X17584275Y-11242936D01*
X17584275Y-11242936D02*
X17574752Y-11252460D01*
X17574752Y-11252460D02*
X17555704Y-11261984D01*
X17555704Y-11261984D02*
X17536656Y-11261984D01*
X17536656Y-11261984D02*
X17517609Y-11252460D01*
X17517609Y-11252460D02*
X17508085Y-11242936D01*
X17508085Y-11242936D02*
X17498561Y-11223888D01*
X17498561Y-11223888D02*
X17489037Y-11185793D01*
X17489037Y-11185793D02*
X17489037Y-11138174D01*
X17489037Y-11138174D02*
X17498561Y-11100079D01*
X17498561Y-11100079D02*
X17508085Y-11081031D01*
X17508085Y-11081031D02*
X17517609Y-11071508D01*
X17517609Y-11071508D02*
X17536656Y-11061984D01*
X17841418Y-11261984D02*
X17841418Y-11061984D01*
X17927133Y-11261984D02*
X17927133Y-11157222D01*
X17927133Y-11157222D02*
X17917609Y-11138174D01*
X17917609Y-11138174D02*
X17898561Y-11128650D01*
X17898561Y-11128650D02*
X17869990Y-11128650D01*
X17869990Y-11128650D02*
X17850942Y-11138174D01*
X17850942Y-11138174D02*
X17841418Y-11147698D01*
X18050942Y-11261984D02*
X18031895Y-11252460D01*
X18031895Y-11252460D02*
X18022371Y-11242936D01*
X18022371Y-11242936D02*
X18012847Y-11223888D01*
X18012847Y-11223888D02*
X18012847Y-11166746D01*
X18012847Y-11166746D02*
X18022371Y-11147698D01*
X18022371Y-11147698D02*
X18031895Y-11138174D01*
X18031895Y-11138174D02*
X18050942Y-11128650D01*
X18050942Y-11128650D02*
X18079514Y-11128650D01*
X18079514Y-11128650D02*
X18098561Y-11138174D01*
X18098561Y-11138174D02*
X18108085Y-11147698D01*
X18108085Y-11147698D02*
X18117609Y-11166746D01*
X18117609Y-11166746D02*
X18117609Y-11223888D01*
X18117609Y-11223888D02*
X18108085Y-11242936D01*
X18108085Y-11242936D02*
X18098561Y-11252460D01*
X18098561Y-11252460D02*
X18079514Y-11261984D01*
X18079514Y-11261984D02*
X18050942Y-11261984D01*
X18231895Y-11261984D02*
X18212847Y-11252460D01*
X18212847Y-11252460D02*
X18203323Y-11233412D01*
X18203323Y-11233412D02*
X18203323Y-11061984D01*
X18384276Y-11252460D02*
X18365228Y-11261984D01*
X18365228Y-11261984D02*
X18327133Y-11261984D01*
X18327133Y-11261984D02*
X18308085Y-11252460D01*
X18308085Y-11252460D02*
X18298561Y-11233412D01*
X18298561Y-11233412D02*
X18298561Y-11157222D01*
X18298561Y-11157222D02*
X18308085Y-11138174D01*
X18308085Y-11138174D02*
X18327133Y-11128650D01*
X18327133Y-11128650D02*
X18365228Y-11128650D01*
X18365228Y-11128650D02*
X18384276Y-11138174D01*
X18384276Y-11138174D02*
X18393799Y-11157222D01*
X18393799Y-11157222D02*
X18393799Y-11176270D01*
X18393799Y-11176270D02*
X18298561Y-11195317D01*
X18469990Y-11252460D02*
X18489037Y-11261984D01*
X18489037Y-11261984D02*
X18527133Y-11261984D01*
X18527133Y-11261984D02*
X18546180Y-11252460D01*
X18546180Y-11252460D02*
X18555704Y-11233412D01*
X18555704Y-11233412D02*
X18555704Y-11223888D01*
X18555704Y-11223888D02*
X18546180Y-11204841D01*
X18546180Y-11204841D02*
X18527133Y-11195317D01*
X18527133Y-11195317D02*
X18498561Y-11195317D01*
X18498561Y-11195317D02*
X18479514Y-11185793D01*
X18479514Y-11185793D02*
X18469990Y-11166746D01*
X18469990Y-11166746D02*
X18469990Y-11157222D01*
X18469990Y-11157222D02*
X18479514Y-11138174D01*
X18479514Y-11138174D02*
X18498561Y-11128650D01*
X18498561Y-11128650D02*
X18527133Y-11128650D01*
X18527133Y-11128650D02*
X18546180Y-11138174D01*
X18793799Y-11185793D02*
X18946180Y-11185793D01*
X18869990Y-11261984D02*
X18869990Y-11109603D01*
X19279514Y-11128650D02*
X19279514Y-11261984D01*
X19231895Y-11052460D02*
X19184276Y-11195317D01*
X19184276Y-11195317D02*
X19308085Y-11195317D01*
X19527133Y-11252460D02*
X19546180Y-11261984D01*
X19546180Y-11261984D02*
X19584276Y-11261984D01*
X19584276Y-11261984D02*
X19603323Y-11252460D01*
X19603323Y-11252460D02*
X19612847Y-11233412D01*
X19612847Y-11233412D02*
X19612847Y-11223888D01*
X19612847Y-11223888D02*
X19603323Y-11204841D01*
X19603323Y-11204841D02*
X19584276Y-11195317D01*
X19584276Y-11195317D02*
X19555704Y-11195317D01*
X19555704Y-11195317D02*
X19536657Y-11185793D01*
X19536657Y-11185793D02*
X19527133Y-11166746D01*
X19527133Y-11166746D02*
X19527133Y-11157222D01*
X19527133Y-11157222D02*
X19536657Y-11138174D01*
X19536657Y-11138174D02*
X19555704Y-11128650D01*
X19555704Y-11128650D02*
X19584276Y-11128650D01*
X19584276Y-11128650D02*
X19603323Y-11138174D01*
X19727133Y-11261984D02*
X19708085Y-11252460D01*
X19708085Y-11252460D02*
X19698561Y-11233412D01*
X19698561Y-11233412D02*
X19698561Y-11061984D01*
X19831895Y-11261984D02*
X19812847Y-11252460D01*
X19812847Y-11252460D02*
X19803323Y-11242936D01*
X19803323Y-11242936D02*
X19793800Y-11223888D01*
X19793800Y-11223888D02*
X19793800Y-11166746D01*
X19793800Y-11166746D02*
X19803323Y-11147698D01*
X19803323Y-11147698D02*
X19812847Y-11138174D01*
X19812847Y-11138174D02*
X19831895Y-11128650D01*
X19831895Y-11128650D02*
X19860466Y-11128650D01*
X19860466Y-11128650D02*
X19879514Y-11138174D01*
X19879514Y-11138174D02*
X19889038Y-11147698D01*
X19889038Y-11147698D02*
X19898561Y-11166746D01*
X19898561Y-11166746D02*
X19898561Y-11223888D01*
X19898561Y-11223888D02*
X19889038Y-11242936D01*
X19889038Y-11242936D02*
X19879514Y-11252460D01*
X19879514Y-11252460D02*
X19860466Y-11261984D01*
X19860466Y-11261984D02*
X19831895Y-11261984D01*
X19955704Y-11128650D02*
X20031895Y-11128650D01*
X19984276Y-11061984D02*
X19984276Y-11233412D01*
X19984276Y-11233412D02*
X19993800Y-11252460D01*
X19993800Y-11252460D02*
X20012847Y-11261984D01*
X20012847Y-11261984D02*
X20031895Y-11261984D01*
X20089038Y-11252460D02*
X20108085Y-11261984D01*
X20108085Y-11261984D02*
X20146180Y-11261984D01*
X20146180Y-11261984D02*
X20165228Y-11252460D01*
X20165228Y-11252460D02*
X20174752Y-11233412D01*
X20174752Y-11233412D02*
X20174752Y-11223888D01*
X20174752Y-11223888D02*
X20165228Y-11204841D01*
X20165228Y-11204841D02*
X20146180Y-11195317D01*
X20146180Y-11195317D02*
X20117609Y-11195317D01*
X20117609Y-11195317D02*
X20098561Y-11185793D01*
X20098561Y-11185793D02*
X20089038Y-11166746D01*
X20089038Y-11166746D02*
X20089038Y-11157222D01*
X20089038Y-11157222D02*
X20098561Y-11138174D01*
X20098561Y-11138174D02*
X20117609Y-11128650D01*
X20117609Y-11128650D02*
X20146180Y-11128650D01*
X20146180Y-11128650D02*
X20165228Y-11138174D01*
X20241419Y-11338174D02*
X20250942Y-11328650D01*
X20250942Y-11328650D02*
X20269990Y-11300079D01*
X20269990Y-11300079D02*
X20279514Y-11281031D01*
X20279514Y-11281031D02*
X20289038Y-11252460D01*
X20289038Y-11252460D02*
X20298561Y-11204841D01*
X20298561Y-11204841D02*
X20298561Y-11166746D01*
X20298561Y-11166746D02*
X20289038Y-11119127D01*
X20289038Y-11119127D02*
X20279514Y-11090555D01*
X20279514Y-11090555D02*
X20269990Y-11071508D01*
X20269990Y-11071508D02*
X20250942Y-11042936D01*
X20250942Y-11042936D02*
X20241419Y-11033412D01*
M02*
