%TF.GenerationSoftware,KiCad,Pcbnew,8.0.3*%
%TF.CreationDate,2024-09-21T17:28:31+02:00*%
%TF.ProjectId,SynchGaze_Transmiter,53796e63-6847-4617-9a65-5f5472616e73,1.0*%
%TF.SameCoordinates,Original*%
%TF.FileFunction,Copper,L4,Bot*%
%TF.FilePolarity,Positive*%
%FSLAX46Y46*%
G04 Gerber Fmt 4.6, Leading zero omitted, Abs format (unit mm)*
G04 Created by KiCad (PCBNEW 8.0.3) date 2024-09-21 17:28:31*
%MOMM*%
%LPD*%
G01*
G04 APERTURE LIST*
%TA.AperFunction,ComponentPad*%
%ADD10R,1.058000X1.058000*%
%TD*%
%TA.AperFunction,ComponentPad*%
%ADD11C,1.058000*%
%TD*%
%TA.AperFunction,ComponentPad*%
%ADD12O,0.900000X1.600000*%
%TD*%
%TA.AperFunction,ComponentPad*%
%ADD13O,0.900000X1.300000*%
%TD*%
%TA.AperFunction,ViaPad*%
%ADD14C,0.350000*%
%TD*%
%TA.AperFunction,Conductor*%
%ADD15C,0.200000*%
%TD*%
%TA.AperFunction,Conductor*%
%ADD16C,0.250000*%
%TD*%
%TA.AperFunction,Conductor*%
%ADD17C,0.400000*%
%TD*%
%TA.AperFunction,Conductor*%
%ADD18C,0.600000*%
%TD*%
G04 APERTURE END LIST*
D10*
%TO.P,J202,1,Pin_1*%
%TO.N,+3V3*%
X165735000Y-80912000D03*
D11*
%TO.P,J202,2,Pin_2*%
%TO.N,GND*%
X165735000Y-82162000D03*
%TO.P,J202,3,Pin_3*%
%TO.N,/MCU/FSPI_CLK*%
X165735000Y-83412000D03*
%TO.P,J202,4,Pin_4*%
%TO.N,/MCU/FSPI_Q*%
X165735000Y-84662000D03*
%TO.P,J202,5,Pin_5*%
%TO.N,/MCU/FSPI_D*%
X165735000Y-85912000D03*
%TO.P,J202,6,Pin_6*%
%TO.N,/MCU/IMU_NCS*%
X165735000Y-87162000D03*
%TO.P,J202,7,Pin_7*%
%TO.N,/MCU/INTER_ACC*%
X165735000Y-88412000D03*
%TO.P,J202,8,Pin_8*%
%TO.N,/MCU/INTER_GYR{slash}BOOT*%
X165735000Y-89662000D03*
%TD*%
D12*
%TO.P,J201,S1,SHELL_GND*%
%TO.N,unconnected-(J201-SHELL_GND-PadS1)_0*%
X159130850Y-50400000D03*
%TO.P,J201,S2,SHELL_GND*%
%TO.N,unconnected-(J201-SHELL_GND-PadS2)_0*%
X147290850Y-50400000D03*
D13*
%TO.P,J201,S3,SHELL_GND*%
%TO.N,unconnected-(J201-SHELL_GND-PadS1)*%
X157860850Y-54720000D03*
%TO.P,J201,S4,SHELL_GND*%
%TO.N,unconnected-(J201-SHELL_GND-PadS2)*%
X148560850Y-54720000D03*
%TD*%
D14*
%TO.N,GND*%
X157505400Y-71272400D03*
X148742400Y-56769000D03*
X149504400Y-79756000D03*
X167386000Y-68402200D03*
X155194000Y-89712800D03*
X161036000Y-64795400D03*
X161315400Y-86868000D03*
X156946599Y-71272400D03*
X148767800Y-82245200D03*
X166700200Y-78028800D03*
X141046200Y-82931000D03*
X155727400Y-71831200D03*
X163880800Y-66700400D03*
X152704800Y-63754000D03*
X151257000Y-79756000D03*
X162839400Y-90093800D03*
X161594800Y-77114400D03*
X146939000Y-75514200D03*
X164693599Y-71450200D03*
X163906200Y-71755000D03*
X151257000Y-82245200D03*
X163830000Y-59766200D03*
X159410400Y-86842600D03*
X148767800Y-80492600D03*
X166700200Y-77495400D03*
X145008600Y-85775800D03*
X161010600Y-87452200D03*
X150520400Y-80492600D03*
X163830000Y-60325000D03*
X166700200Y-78587601D03*
X155879800Y-83261200D03*
X157784800Y-56007000D03*
X163830000Y-65862200D03*
X164128400Y-69672200D03*
X163042600Y-80873600D03*
X163906200Y-70993000D03*
X158064200Y-89433400D03*
X142976600Y-51943000D03*
X162052000Y-63779400D03*
X155879800Y-87909400D03*
X148005800Y-93726000D03*
X143027400Y-81864200D03*
X162052000Y-64795400D03*
X158064200Y-88392000D03*
X163271200Y-66471800D03*
X160832800Y-77114400D03*
X151257000Y-81508599D03*
X146812000Y-93726000D03*
X142875000Y-85775800D03*
X152438100Y-86550500D03*
X162001200Y-76530200D03*
X162331400Y-77114400D03*
X158292800Y-57251600D03*
X157022800Y-69977000D03*
X150520400Y-81508599D03*
X163830000Y-89839800D03*
X151257000Y-80492600D03*
X148742400Y-56007000D03*
X156540200Y-79756000D03*
X150520400Y-82245200D03*
X165811200Y-71450200D03*
X141528800Y-69951600D03*
X163118800Y-62890400D03*
X160959800Y-84963000D03*
X158242000Y-59486800D03*
X163880800Y-88976200D03*
X158064200Y-71272400D03*
X158318200Y-56413400D03*
X160401000Y-84988400D03*
X167386000Y-66243200D03*
X149148800Y-57404000D03*
X149504400Y-80492600D03*
X149529800Y-56769000D03*
X147269200Y-88620600D03*
X164338000Y-87858600D03*
X156489400Y-85166200D03*
X149504400Y-81508600D03*
X165252400Y-71450200D03*
X158688400Y-84996400D03*
X157911800Y-69977000D03*
X162610800Y-66776600D03*
X143022900Y-63636999D03*
X150520400Y-79756000D03*
X167716200Y-70231000D03*
X148259800Y-57353200D03*
X148767800Y-79756000D03*
X156632600Y-77292200D03*
X147269200Y-86893400D03*
X151511000Y-86487000D03*
X165760400Y-77393800D03*
X165176200Y-77393800D03*
X148259800Y-62966600D03*
X156133800Y-90474800D03*
X161544000Y-64287400D03*
X149326600Y-62966600D03*
X161213800Y-77698600D03*
X162458400Y-87172800D03*
X156921200Y-88925400D03*
X143967200Y-85775800D03*
X167741600Y-64541400D03*
X158521400Y-87426800D03*
X163830000Y-59207400D03*
X160756600Y-86766400D03*
X162001200Y-77698600D03*
X157099000Y-85801200D03*
X156362400Y-70205600D03*
X149504400Y-82245200D03*
X158089600Y-84861400D03*
X162839400Y-65811400D03*
X143002000Y-80594200D03*
X167284400Y-70688200D03*
X161036000Y-63779400D03*
X154025600Y-69189600D03*
X148767800Y-81508599D03*
X166446200Y-70993000D03*
X157022801Y-56794400D03*
X145567400Y-93726000D03*
X161213800Y-76530200D03*
X148082000Y-56438800D03*
X166446200Y-70434200D03*
X157403800Y-57327800D03*
X157784800Y-56794400D03*
%TO.N,/MCU/INTER_GYR{slash}BOOT*%
X153900000Y-79300000D03*
X158129600Y-85758400D03*
X143000000Y-71400000D03*
X157200600Y-78003400D03*
%TO.N,/MCU/INTER_ACC*%
X162768876Y-84728724D03*
X157784800Y-82600800D03*
%TO.N,/MCU/FSPI_D*%
X163860000Y-85856600D03*
X157378400Y-80645000D03*
X158724600Y-84378800D03*
%TO.N,/MCU/SPI_DO*%
X154178000Y-73329800D03*
X148259800Y-77825600D03*
%TO.N,/MCU/SPI_NWP*%
X150241000Y-77325600D03*
X146024600Y-73304400D03*
%TO.N,/MCU/FSPI_Q*%
X163809200Y-85094600D03*
X159613600Y-83171000D03*
%TO.N,/MCU/SPI_NCS0*%
X149758400Y-76784200D03*
X146024600Y-71297800D03*
%TO.N,/MCU/IMU_NCS*%
X157784800Y-83261200D03*
X161213800Y-83159600D03*
%TO.N,+3V3*%
X146300000Y-63700000D03*
X166649400Y-74523600D03*
X166649400Y-73279000D03*
X160020000Y-90398600D03*
X156565600Y-78688600D03*
X142036800Y-83591400D03*
X142036800Y-84048600D03*
X154457400Y-87807800D03*
X152857200Y-88011000D03*
X162687000Y-88315800D03*
X154930200Y-83226000D03*
X163601400Y-78486000D03*
X166649400Y-75158600D03*
X152857200Y-88519000D03*
X166649400Y-73888600D03*
X156057600Y-76479400D03*
%TO.N,VBUS*%
X155702000Y-57048400D03*
X155430997Y-56642000D03*
X150994603Y-56642000D03*
X150723600Y-57048400D03*
X158826200Y-63562152D03*
X152704800Y-58801000D03*
X164998400Y-69291200D03*
X163042600Y-70383400D03*
X150469600Y-56642000D03*
X155956000Y-56642000D03*
X159034138Y-67088014D03*
%TO.N,/MCU/CHIP_EN*%
X140800000Y-52700000D03*
X141500000Y-74300000D03*
X143000000Y-74300000D03*
X151612600Y-84378800D03*
X152196800Y-85471000D03*
%TO.N,/MCU/CC2*%
X154460850Y-57658000D03*
X149326600Y-60121800D03*
%TO.N,VCC*%
X159054800Y-75006200D03*
X159334200Y-74549000D03*
X147281281Y-60918719D03*
X161010600Y-59207400D03*
X158648400Y-74371200D03*
X160477200Y-59207400D03*
X159918400Y-59207400D03*
X160172400Y-59613800D03*
X160705800Y-59613800D03*
X158013400Y-74371200D03*
X157403800Y-74371200D03*
%TO.N,/Power/~{CRG}*%
X143000000Y-57300000D03*
X162636200Y-61620400D03*
%TO.N,/Power/~{PG}*%
X163830000Y-63576200D03*
X141900000Y-59700000D03*
%TO.N,/Power/TMR*%
X154660600Y-67386200D03*
X158394400Y-64211200D03*
%TO.N,/Power/BAT*%
X162737800Y-67665600D03*
X163601400Y-68173600D03*
X163042600Y-68173600D03*
X163322000Y-67665600D03*
X164820600Y-56743600D03*
X162458400Y-68173600D03*
X164312600Y-57023000D03*
X164820600Y-57327800D03*
X164312600Y-57632600D03*
%TO.N,GNDPWR*%
X162737800Y-69672200D03*
X163093400Y-69164200D03*
X161086800Y-57327800D03*
X156438600Y-64998600D03*
X163626800Y-69088000D03*
X156083000Y-64541400D03*
X161086800Y-56743600D03*
X162458400Y-69164200D03*
X156845000Y-64541400D03*
X161594800Y-57048400D03*
X161594800Y-57607201D03*
X163328400Y-69672200D03*
X155727400Y-64998600D03*
%TD*%
D15*
%TO.N,/MCU/INTER_GYR{slash}BOOT*%
X153900000Y-79300000D02*
X152850600Y-78250600D01*
X148063048Y-78300600D02*
X143000000Y-73237552D01*
X150050000Y-78300600D02*
X148063048Y-78300600D01*
X152850600Y-78250600D02*
X150100000Y-78250600D01*
X156845000Y-80122952D02*
X156845000Y-84473800D01*
X156845000Y-84473800D02*
X158129600Y-85758400D01*
X143000000Y-73237552D02*
X143000000Y-71400000D01*
X157200600Y-79767352D02*
X156845000Y-80122952D01*
X150100000Y-78250600D02*
X150050000Y-78300600D01*
X157200600Y-78003400D02*
X157200600Y-79767352D01*
%TO.N,/MCU/INTER_ACC*%
X162768876Y-84728724D02*
X162768876Y-84663876D01*
X161021952Y-82296000D02*
X158089600Y-82296000D01*
X158089600Y-82296000D02*
X157784800Y-82600800D01*
X162768876Y-84663876D02*
X161688800Y-83583800D01*
X161688800Y-82962848D02*
X161021952Y-82296000D01*
X161688800Y-83583800D02*
X161688800Y-82962848D01*
%TO.N,/MCU/FSPI_D*%
X160521114Y-83718400D02*
X162437514Y-85634800D01*
X162659315Y-85856600D02*
X163860000Y-85856600D01*
X159385000Y-83718400D02*
X160521114Y-83718400D01*
X158230648Y-84378800D02*
X157309800Y-83457952D01*
X157309800Y-83457952D02*
X157309800Y-80713600D01*
X162437515Y-85634800D02*
X162659315Y-85856600D01*
X158724600Y-84378800D02*
X159385000Y-83718400D01*
X162437514Y-85634800D02*
X162437515Y-85634800D01*
X158724600Y-84378800D02*
X158230648Y-84378800D01*
X157309800Y-80713600D02*
X157378400Y-80645000D01*
D16*
%TO.N,/MCU/SPI_DO*%
X151790400Y-77825600D02*
X154178000Y-75438000D01*
X148259800Y-77825600D02*
X151790400Y-77825600D01*
X154178000Y-75438000D02*
X154178000Y-73329800D01*
%TO.N,/MCU/SPI_NWP*%
X146024600Y-73304400D02*
X146050000Y-73329800D01*
X146024600Y-73761600D02*
X149588600Y-77325600D01*
X149588600Y-77325600D02*
X150241000Y-77325600D01*
X146024600Y-73304400D02*
X146024600Y-73761600D01*
D15*
%TO.N,/MCU/FSPI_Q*%
X162603200Y-85234800D02*
X160539400Y-83171000D01*
X163809200Y-85094600D02*
X163669000Y-85234800D01*
X160539400Y-83171000D02*
X159613600Y-83171000D01*
X163669000Y-85234800D02*
X162603200Y-85234800D01*
D16*
%TO.N,/MCU/SPI_NCS0*%
X146024600Y-71297800D02*
X146024600Y-71831200D01*
X149758400Y-75565000D02*
X149758400Y-76784200D01*
X146024600Y-71831200D02*
X149758400Y-75565000D01*
D15*
%TO.N,/MCU/IMU_NCS*%
X161213800Y-83159600D02*
X160750200Y-82696000D01*
X160750200Y-82696000D02*
X158361352Y-82696000D01*
X157796152Y-83261200D02*
X157784800Y-83261200D01*
X158361352Y-82696000D02*
X157796152Y-83261200D01*
D17*
%TO.N,+3V3*%
X147091400Y-84048600D02*
X151053800Y-88011000D01*
X160451427Y-76479400D02*
X162407227Y-74523600D01*
X146300000Y-65500000D02*
X146300000Y-63700000D01*
X164490400Y-86512400D02*
X164490400Y-84607400D01*
X152857200Y-88519000D02*
X153746200Y-88519000D01*
X142036800Y-84048600D02*
X142036800Y-83591400D01*
X142036800Y-84048600D02*
X147091400Y-84048600D01*
X142036800Y-83591400D02*
X142240000Y-83388200D01*
X158961200Y-90381200D02*
X157030800Y-90381200D01*
X154930200Y-83226000D02*
X154457400Y-83698800D01*
X160020000Y-90398600D02*
X160020000Y-90158827D01*
X164276400Y-80848200D02*
X164515800Y-80848200D01*
X164276400Y-77379200D02*
X166497000Y-75158600D01*
X164276400Y-80848200D02*
X164276400Y-77379200D01*
X164579600Y-80912000D02*
X165735000Y-80912000D01*
X156565600Y-78688600D02*
X156565600Y-78181200D01*
X157030800Y-90381200D02*
X154457400Y-87807800D01*
X142240000Y-83388200D02*
X142240000Y-69560000D01*
X164515800Y-80848200D02*
X164579600Y-80912000D01*
X154457400Y-83698800D02*
X154457400Y-87807800D01*
X153746200Y-88519000D02*
X154457400Y-87807800D01*
X162687000Y-88315800D02*
X164490400Y-86512400D01*
X156057600Y-77673200D02*
X156057600Y-76479400D01*
X164276400Y-84393400D02*
X164276400Y-80848200D01*
X160020000Y-90398600D02*
X158978600Y-90398600D01*
X154930200Y-80324000D02*
X156565600Y-78688600D01*
X156057600Y-76479400D02*
X160451427Y-76479400D01*
X156565600Y-78181200D02*
X156057600Y-77673200D01*
D15*
X163601400Y-78486000D02*
X163652200Y-78536800D01*
D17*
X166649400Y-74523600D02*
X166649400Y-75158600D01*
X166649400Y-73279000D02*
X166649400Y-75158600D01*
X161863027Y-88315800D02*
X162687000Y-88315800D01*
X160020000Y-90158827D02*
X161863027Y-88315800D01*
X151053800Y-88011000D02*
X152857200Y-88011000D01*
X154930200Y-83226000D02*
X154930200Y-80324000D01*
X162407227Y-74523600D02*
X166649400Y-74523600D01*
X166497000Y-75158600D02*
X166649400Y-75158600D01*
X142240000Y-69560000D02*
X146300000Y-65500000D01*
X164490400Y-84607400D02*
X164276400Y-84393400D01*
X158978600Y-90398600D02*
X158961200Y-90381200D01*
D15*
X163652200Y-78536800D02*
X164276400Y-78536800D01*
%TO.N,VBUS*%
X158877000Y-66930876D02*
X158877000Y-63612952D01*
X164998400Y-69473952D02*
X164088952Y-70383400D01*
D17*
X154787600Y-58801000D02*
X155702000Y-57886600D01*
D15*
X164998400Y-69291200D02*
X164998400Y-69473952D01*
X159034138Y-67088014D02*
X158877000Y-66930876D01*
D17*
X155702000Y-57886600D02*
X155702000Y-57048400D01*
X152704800Y-58801000D02*
X154787600Y-58801000D01*
D15*
X164088952Y-70383400D02*
X163042600Y-70383400D01*
X158877000Y-63612952D02*
X158826200Y-63562152D01*
%TO.N,/MCU/CHIP_EN*%
X150139400Y-82905600D02*
X151612600Y-84378800D01*
X141025000Y-52925000D02*
X140800000Y-52700000D01*
X143000000Y-74300000D02*
X143000000Y-76248800D01*
X152196800Y-85471000D02*
X152196800Y-84963000D01*
X141500000Y-74300000D02*
X141025000Y-73825000D01*
X145545301Y-79694453D02*
X148756448Y-82905600D01*
X152196800Y-84963000D02*
X151612600Y-84378800D01*
X148756448Y-82905600D02*
X150139400Y-82905600D01*
X141025000Y-73825000D02*
X141025000Y-52925000D01*
X143000000Y-76248800D02*
X145545301Y-78794101D01*
X145545301Y-78794101D02*
X145545301Y-79694453D01*
%TO.N,/MCU/CC2*%
X154460850Y-57658000D02*
X154308450Y-57810400D01*
X151638000Y-57810400D02*
X149326600Y-60121800D01*
X154308450Y-57810400D02*
X151638000Y-57810400D01*
%TO.N,VCC*%
X157367486Y-59961800D02*
X155829286Y-61500000D01*
X147862562Y-61500000D02*
X147281281Y-60918719D01*
X148200000Y-61500000D02*
X147862562Y-61500000D01*
X159918400Y-59207400D02*
X159164000Y-59961800D01*
X159164000Y-59961800D02*
X157367486Y-59961800D01*
X155829286Y-61500000D02*
X148200000Y-61500000D01*
%TO.N,/Power/~{CRG}*%
X141425000Y-59925000D02*
X141425000Y-58875000D01*
X141675000Y-60175000D02*
X141425000Y-59925000D01*
X161257714Y-58648600D02*
X158115000Y-58648600D01*
X141425000Y-58875000D02*
X143000000Y-57300000D01*
X162636200Y-61620400D02*
X161544000Y-60528200D01*
X155663600Y-61100000D02*
X148134314Y-61100000D01*
X161544000Y-58934886D02*
X161257714Y-58648600D01*
X147209314Y-60175000D02*
X141675000Y-60175000D01*
X148134314Y-61100000D02*
X147209314Y-60175000D01*
X161544000Y-60528200D02*
X161544000Y-58934886D01*
X158115000Y-58648600D02*
X155663600Y-61100000D01*
%TO.N,/Power/~{PG}*%
X163830000Y-63576200D02*
X163830000Y-62091552D01*
X155497914Y-60700000D02*
X148300000Y-60700000D01*
X157949314Y-58248600D02*
X155497914Y-60700000D01*
X161423400Y-58248600D02*
X157949314Y-58248600D01*
X162001200Y-58826400D02*
X161423400Y-58248600D01*
X162001200Y-60262752D02*
X162001200Y-58826400D01*
X148300000Y-60700000D02*
X147300000Y-59700000D01*
X147300000Y-59700000D02*
X141900000Y-59700000D01*
X163830000Y-62091552D02*
X162001200Y-60262752D01*
%TO.N,/Power/TMR*%
X155651200Y-67386200D02*
X158394400Y-64643000D01*
X154660600Y-67386200D02*
X155651200Y-67386200D01*
X158394400Y-64643000D02*
X158394400Y-64211200D01*
D18*
%TO.N,/Power/BAT*%
X164312600Y-57023000D02*
X164312600Y-57683400D01*
X164109400Y-67665600D02*
X163601400Y-68173600D01*
X162737800Y-67665600D02*
X164109400Y-67665600D01*
X164820600Y-58572400D02*
X164820600Y-66954400D01*
X164312600Y-57683400D02*
X164820600Y-58191400D01*
X164820600Y-66954400D02*
X164109400Y-67665600D01*
X164820600Y-56743600D02*
X164820600Y-58572400D01*
X164820600Y-56743600D02*
X164592000Y-56743600D01*
X164820600Y-58191400D02*
X164820600Y-58572400D01*
X163601400Y-68173600D02*
X162458400Y-68173600D01*
X164592000Y-56743600D02*
X164312600Y-57023000D01*
%TO.N,GNDPWR*%
X161594800Y-57607201D02*
X161594800Y-56210200D01*
X162179000Y-55626000D02*
X162458400Y-55626000D01*
X161594800Y-57607201D02*
X161366201Y-57607201D01*
X163848805Y-68997200D02*
X163328400Y-69517605D01*
X161086800Y-57327800D02*
X161086800Y-56718200D01*
X162458400Y-69164200D02*
X163550600Y-69164200D01*
X164922200Y-55626000D02*
X165620600Y-56324400D01*
X163550600Y-69164200D02*
X163626800Y-69088000D01*
X163328400Y-69517605D02*
X163328400Y-69672200D01*
X163328400Y-69672200D02*
X162737800Y-69672200D01*
X163920800Y-68997200D02*
X163848805Y-68997200D01*
X161366201Y-57607201D02*
X161086800Y-57327800D01*
X165620600Y-67297400D02*
X163920800Y-68997200D01*
X161086800Y-56718200D02*
X162179000Y-55626000D01*
X165620600Y-56324400D02*
X165620600Y-67297400D01*
X162179000Y-55626000D02*
X164922200Y-55626000D01*
X161594800Y-56210200D02*
X162179000Y-55626000D01*
%TD*%
%TA.AperFunction,Conductor*%
%TO.N,GNDPWR*%
G36*
X162648405Y-55858330D02*
G01*
X162762069Y-55905412D01*
X162788587Y-55931930D01*
X162835670Y-56045595D01*
X162839400Y-56064347D01*
X162839400Y-57651452D01*
X162835670Y-57670204D01*
X162788587Y-57783869D01*
X162762069Y-57810387D01*
X162648405Y-57857470D01*
X162629653Y-57861200D01*
X161088400Y-57861200D01*
X161053752Y-57846848D01*
X161040471Y-57822387D01*
X161038862Y-57814821D01*
X161038862Y-57814819D01*
X161017610Y-57783896D01*
X160965177Y-57707602D01*
X160935424Y-57684771D01*
X160935422Y-57684770D01*
X160935421Y-57684769D01*
X160935416Y-57684766D01*
X160860127Y-57647636D01*
X160835400Y-57619440D01*
X160832800Y-57603690D01*
X160832800Y-56064347D01*
X160836530Y-56045595D01*
X160883612Y-55931930D01*
X160910130Y-55905412D01*
X161023795Y-55858330D01*
X161042547Y-55854600D01*
X162629653Y-55854600D01*
X162648405Y-55858330D01*
G37*
%TD.AperFunction*%
%TD*%
%TA.AperFunction,Conductor*%
%TO.N,/Power/BAT*%
G36*
X164729238Y-56140852D02*
G01*
X165105748Y-56517362D01*
X165120100Y-56552010D01*
X165120100Y-57664247D01*
X165116370Y-57682999D01*
X165074587Y-57783869D01*
X165048069Y-57810387D01*
X164934405Y-57857470D01*
X164915653Y-57861200D01*
X163328547Y-57861200D01*
X163309795Y-57857470D01*
X163196130Y-57810387D01*
X163169612Y-57783869D01*
X163122530Y-57670204D01*
X163118800Y-57651452D01*
X163118800Y-56175500D01*
X163133152Y-56140852D01*
X163167800Y-56126500D01*
X164694590Y-56126500D01*
X164729238Y-56140852D01*
G37*
%TD.AperFunction*%
%TD*%
%TA.AperFunction,Conductor*%
%TO.N,VBUS*%
G36*
X155993605Y-56417130D02*
G01*
X156107269Y-56464212D01*
X156133787Y-56490730D01*
X156180870Y-56604395D01*
X156184600Y-56623147D01*
X156184600Y-57041852D01*
X156180870Y-57060604D01*
X156133787Y-57174269D01*
X156107269Y-57200787D01*
X155993605Y-57247870D01*
X155974853Y-57251600D01*
X150450747Y-57251600D01*
X150431995Y-57247870D01*
X150318330Y-57200787D01*
X150291812Y-57174269D01*
X150244730Y-57060604D01*
X150241000Y-57041852D01*
X150241000Y-56623147D01*
X150244730Y-56604395D01*
X150291812Y-56490730D01*
X150318330Y-56464212D01*
X150431995Y-56417130D01*
X150450747Y-56413400D01*
X155974853Y-56413400D01*
X155993605Y-56417130D01*
G37*
%TD.AperFunction*%
%TD*%
%TA.AperFunction,Conductor*%
%TO.N,/Power/BAT*%
G36*
X164729238Y-56140852D02*
G01*
X165105748Y-56517362D01*
X165120100Y-56552010D01*
X165120100Y-57664247D01*
X165116370Y-57682999D01*
X165074587Y-57783869D01*
X165048069Y-57810387D01*
X164934405Y-57857470D01*
X164915653Y-57861200D01*
X163328547Y-57861200D01*
X163309795Y-57857470D01*
X163196130Y-57810387D01*
X163169612Y-57783869D01*
X163122530Y-57670204D01*
X163118800Y-57651452D01*
X163118800Y-56175500D01*
X163133152Y-56140852D01*
X163167800Y-56126500D01*
X164694590Y-56126500D01*
X164729238Y-56140852D01*
G37*
%TD.AperFunction*%
%TD*%
%TA.AperFunction,Conductor*%
%TO.N,VCC*%
G36*
X161147595Y-58963452D02*
G01*
X161229148Y-59045005D01*
X161243500Y-59079653D01*
X161243500Y-60587973D01*
X161265145Y-60640227D01*
X161289249Y-60698420D01*
X161289250Y-60698421D01*
X161289250Y-60698422D01*
X161842440Y-61251611D01*
X161856792Y-61286238D01*
X161857720Y-63425376D01*
X161843383Y-63460030D01*
X161829981Y-63469544D01*
X161811860Y-63478270D01*
X161811859Y-63478271D01*
X161704986Y-63612285D01*
X161704984Y-63612289D01*
X161666843Y-63779398D01*
X161666843Y-63779401D01*
X161683435Y-63852096D01*
X161677153Y-63889070D01*
X161646568Y-63910771D01*
X161635226Y-63910771D01*
X161635226Y-63911900D01*
X161452774Y-63911900D01*
X161452774Y-63908996D01*
X161426248Y-63904478D01*
X161404559Y-63873883D01*
X161404564Y-63852096D01*
X161404748Y-63851293D01*
X161421157Y-63779400D01*
X161404199Y-63705102D01*
X161383015Y-63612289D01*
X161383013Y-63612285D01*
X161276142Y-63478273D01*
X161276141Y-63478272D01*
X161238261Y-63460030D01*
X161121709Y-63403901D01*
X161121706Y-63403900D01*
X161121705Y-63403900D01*
X160950295Y-63403900D01*
X160950294Y-63403900D01*
X160950290Y-63403901D01*
X160795862Y-63478270D01*
X160795857Y-63478273D01*
X160688986Y-63612285D01*
X160688984Y-63612289D01*
X160650843Y-63779398D01*
X160650843Y-63779401D01*
X160688984Y-63946510D01*
X160688986Y-63946514D01*
X160766798Y-64044087D01*
X160795859Y-64080528D01*
X160872890Y-64117624D01*
X160950290Y-64154898D01*
X160950292Y-64154898D01*
X160950295Y-64154900D01*
X160950297Y-64154900D01*
X161127226Y-64154900D01*
X161127226Y-64157823D01*
X161153641Y-64162251D01*
X161175411Y-64192789D01*
X161175436Y-64214702D01*
X161158843Y-64287401D01*
X161175435Y-64360096D01*
X161169153Y-64397070D01*
X161138568Y-64418771D01*
X161127226Y-64418771D01*
X161127226Y-64419900D01*
X161121705Y-64419900D01*
X160950295Y-64419900D01*
X160950294Y-64419900D01*
X160950290Y-64419901D01*
X160795862Y-64494270D01*
X160795857Y-64494273D01*
X160688986Y-64628285D01*
X160688984Y-64628289D01*
X160650843Y-64795398D01*
X160650843Y-64795401D01*
X160688984Y-64962510D01*
X160688986Y-64962514D01*
X160795857Y-65096526D01*
X160795859Y-65096528D01*
X160872793Y-65133577D01*
X160950290Y-65170898D01*
X160950292Y-65170898D01*
X160950295Y-65170900D01*
X160950297Y-65170900D01*
X161121703Y-65170900D01*
X161121705Y-65170900D01*
X161276141Y-65096528D01*
X161383014Y-64962513D01*
X161400508Y-64885871D01*
X161421157Y-64795401D01*
X161421157Y-64795398D01*
X161404564Y-64722703D01*
X161410845Y-64685730D01*
X161441431Y-64664028D01*
X161452774Y-64664037D01*
X161452774Y-64662900D01*
X161635226Y-64662900D01*
X161635226Y-64665823D01*
X161661641Y-64670251D01*
X161683411Y-64700789D01*
X161683436Y-64722702D01*
X161666844Y-64795398D01*
X161666843Y-64795401D01*
X161704984Y-64962510D01*
X161704986Y-64962514D01*
X161758422Y-65029520D01*
X161811859Y-65096528D01*
X161830729Y-65105615D01*
X161855719Y-65133577D01*
X161858469Y-65149741D01*
X161860999Y-70981608D01*
X161860999Y-70981830D01*
X161860993Y-70983290D01*
X161860990Y-70983611D01*
X161860977Y-70984832D01*
X161860974Y-70985099D01*
X161860815Y-70994975D01*
X161860811Y-70995182D01*
X161860786Y-70996412D01*
X161860777Y-70996777D01*
X161860742Y-70998037D01*
X161860735Y-70998269D01*
X161859986Y-71021292D01*
X161859980Y-71021482D01*
X161859934Y-71022745D01*
X161859918Y-71023126D01*
X161859852Y-71024600D01*
X161859369Y-71034474D01*
X161859281Y-71036122D01*
X161859180Y-71037768D01*
X161854494Y-71109254D01*
X161854451Y-71109850D01*
X161854141Y-71113834D01*
X161854033Y-71115039D01*
X161853629Y-71118973D01*
X161853564Y-71119569D01*
X161850261Y-71148273D01*
X161850188Y-71148870D01*
X161849683Y-71152830D01*
X161849518Y-71154014D01*
X161848907Y-71158023D01*
X161848811Y-71158623D01*
X161837747Y-71225631D01*
X161837648Y-71226214D01*
X161836946Y-71230168D01*
X161836720Y-71231353D01*
X161835913Y-71235327D01*
X161835789Y-71235919D01*
X161829717Y-71264036D01*
X161829585Y-71264631D01*
X161828674Y-71268609D01*
X161828396Y-71269758D01*
X161827413Y-71273620D01*
X161827257Y-71274215D01*
X161789876Y-71413721D01*
X161789662Y-71414497D01*
X161788187Y-71419661D01*
X161787724Y-71421185D01*
X161786084Y-71426292D01*
X161785830Y-71427062D01*
X161773491Y-71463409D01*
X161773226Y-71464170D01*
X161771413Y-71469235D01*
X161770849Y-71470731D01*
X161768892Y-71475683D01*
X161768592Y-71476426D01*
X161733945Y-71560070D01*
X161733632Y-71560807D01*
X161731513Y-71565695D01*
X161730853Y-71567154D01*
X161728559Y-71572005D01*
X161728209Y-71572729D01*
X161711217Y-71607186D01*
X161710859Y-71607896D01*
X161708421Y-71612644D01*
X161707658Y-71614073D01*
X161705061Y-71618744D01*
X161704670Y-71619433D01*
X161633291Y-71743065D01*
X161632885Y-71743755D01*
X161630143Y-71748330D01*
X161629306Y-71749677D01*
X161626443Y-71754121D01*
X161626007Y-71754787D01*
X161604795Y-71786566D01*
X161604382Y-71787173D01*
X161601361Y-71791543D01*
X161600436Y-71792835D01*
X161597268Y-71797114D01*
X161596789Y-71797751D01*
X161542163Y-71869079D01*
X161541677Y-71869703D01*
X161538384Y-71873862D01*
X161537373Y-71875097D01*
X161533896Y-71879206D01*
X161533376Y-71879810D01*
X161508317Y-71908465D01*
X161507793Y-71909055D01*
X161504242Y-71912986D01*
X161503149Y-71914158D01*
X161499448Y-71917995D01*
X161498894Y-71918560D01*
X160052700Y-73370234D01*
X160009443Y-73435263D01*
X159994393Y-73511898D01*
X159997594Y-74748423D01*
X159997594Y-74748662D01*
X159997591Y-74749980D01*
X159997588Y-74750372D01*
X159997575Y-74751635D01*
X159997573Y-74751839D01*
X159997426Y-74762010D01*
X159997422Y-74762231D01*
X159997398Y-74763496D01*
X159997390Y-74763866D01*
X159997355Y-74765186D01*
X159997348Y-74765428D01*
X159996599Y-74789236D01*
X159996592Y-74789426D01*
X159996548Y-74790671D01*
X159996531Y-74791097D01*
X159996473Y-74792413D01*
X159996464Y-74792624D01*
X159995974Y-74802751D01*
X159995963Y-74802958D01*
X159995891Y-74804326D01*
X159995870Y-74804692D01*
X159995776Y-74806226D01*
X159991094Y-74877655D01*
X159991054Y-74878220D01*
X159990739Y-74882263D01*
X159990634Y-74883425D01*
X159990227Y-74887392D01*
X159990162Y-74887993D01*
X159986857Y-74916710D01*
X159986786Y-74917294D01*
X159986289Y-74921199D01*
X159986120Y-74922404D01*
X159985504Y-74926441D01*
X159985410Y-74927033D01*
X159974346Y-74994041D01*
X159974246Y-74994629D01*
X159973543Y-74998586D01*
X159973315Y-74999778D01*
X159972509Y-75003742D01*
X159972388Y-75004324D01*
X159966308Y-75032474D01*
X159966175Y-75033070D01*
X159965286Y-75036951D01*
X159965008Y-75038099D01*
X159963996Y-75042074D01*
X159963841Y-75042667D01*
X159926475Y-75182116D01*
X159926261Y-75182891D01*
X159924783Y-75188066D01*
X159924320Y-75189591D01*
X159922687Y-75194676D01*
X159922434Y-75195444D01*
X159910076Y-75231850D01*
X159909812Y-75232608D01*
X159908019Y-75237619D01*
X159907454Y-75239119D01*
X159905494Y-75244079D01*
X159905193Y-75244823D01*
X159870555Y-75328446D01*
X159870243Y-75329183D01*
X159868115Y-75334092D01*
X159867454Y-75335551D01*
X159865160Y-75340402D01*
X159864810Y-75341126D01*
X159847820Y-75375578D01*
X159847458Y-75376297D01*
X159845010Y-75381062D01*
X159844262Y-75382461D01*
X159841679Y-75387112D01*
X159841277Y-75387822D01*
X159769924Y-75511407D01*
X159769517Y-75512100D01*
X159766753Y-75516711D01*
X159765909Y-75518068D01*
X159762979Y-75522613D01*
X159762537Y-75523285D01*
X159741238Y-75555162D01*
X159740789Y-75555824D01*
X159737742Y-75560227D01*
X159736806Y-75561533D01*
X159733619Y-75565830D01*
X159733137Y-75566469D01*
X159678011Y-75638312D01*
X159677513Y-75638950D01*
X159674208Y-75643113D01*
X159673201Y-75644340D01*
X159669750Y-75648409D01*
X159669219Y-75649024D01*
X159643889Y-75677906D01*
X159643361Y-75678498D01*
X159639753Y-75682480D01*
X159638650Y-75683658D01*
X159634938Y-75687493D01*
X159634378Y-75688062D01*
X159533462Y-75788978D01*
X159532893Y-75789538D01*
X159529058Y-75793250D01*
X159527880Y-75794353D01*
X159523898Y-75797961D01*
X159523306Y-75798489D01*
X159494424Y-75823819D01*
X159493809Y-75824350D01*
X159489740Y-75827801D01*
X159488513Y-75828808D01*
X159486005Y-75830798D01*
X159484317Y-75832138D01*
X159483712Y-75832611D01*
X159411869Y-75887737D01*
X159411230Y-75888219D01*
X159406933Y-75891406D01*
X159405627Y-75892342D01*
X159401224Y-75895389D01*
X159400562Y-75895838D01*
X159368685Y-75917137D01*
X159368013Y-75917579D01*
X159363468Y-75920509D01*
X159362111Y-75921353D01*
X159357500Y-75924117D01*
X159356807Y-75924524D01*
X159233222Y-75995877D01*
X159232512Y-75996279D01*
X159227861Y-75998862D01*
X159226462Y-75999610D01*
X159221697Y-76002058D01*
X159220978Y-76002420D01*
X159186526Y-76019410D01*
X159185802Y-76019760D01*
X159180951Y-76022054D01*
X159179492Y-76022715D01*
X159174583Y-76024843D01*
X159173846Y-76025155D01*
X159090223Y-76059793D01*
X159089479Y-76060094D01*
X159084519Y-76062054D01*
X159083018Y-76062619D01*
X159077969Y-76064425D01*
X159077251Y-76064675D01*
X159043009Y-76076299D01*
X159027258Y-76078900D01*
X158167942Y-76078900D01*
X158152192Y-76076300D01*
X158133231Y-76069864D01*
X158117948Y-76064676D01*
X158117284Y-76064444D01*
X158112161Y-76062611D01*
X158110680Y-76062054D01*
X158105656Y-76060068D01*
X158105038Y-76059818D01*
X158021340Y-76025149D01*
X158020616Y-76024843D01*
X158015707Y-76022715D01*
X158014248Y-76022054D01*
X158009397Y-76019760D01*
X158008673Y-76019410D01*
X157974221Y-76002420D01*
X157973502Y-76002058D01*
X157968737Y-75999610D01*
X157967338Y-75998862D01*
X157965291Y-75997725D01*
X157962635Y-75996249D01*
X157962017Y-75995900D01*
X157895773Y-75957653D01*
X157838392Y-75924524D01*
X157837699Y-75924117D01*
X157833088Y-75921353D01*
X157831731Y-75920509D01*
X157827186Y-75917579D01*
X157826514Y-75917137D01*
X157794637Y-75895838D01*
X157794012Y-75895414D01*
X157789557Y-75892331D01*
X157788266Y-75891406D01*
X157783969Y-75888219D01*
X157783330Y-75887737D01*
X157711487Y-75832611D01*
X157710885Y-75832141D01*
X157706684Y-75828806D01*
X157705459Y-75827801D01*
X157701328Y-75824296D01*
X157700775Y-75823819D01*
X157671893Y-75798489D01*
X157671301Y-75797961D01*
X157667319Y-75794353D01*
X157666141Y-75793250D01*
X157662306Y-75789538D01*
X157661737Y-75788978D01*
X157560821Y-75688062D01*
X157560261Y-75687493D01*
X157556549Y-75683658D01*
X157555446Y-75682480D01*
X157551838Y-75678498D01*
X157551310Y-75677906D01*
X157525980Y-75649024D01*
X157525510Y-75648480D01*
X157521990Y-75644331D01*
X157520991Y-75643113D01*
X157517645Y-75638898D01*
X157517188Y-75638312D01*
X157462062Y-75566469D01*
X157461580Y-75565830D01*
X157458393Y-75561533D01*
X157457476Y-75560254D01*
X157454369Y-75555763D01*
X157453961Y-75555162D01*
X157432662Y-75523285D01*
X157432220Y-75522613D01*
X157429290Y-75518068D01*
X157428446Y-75516711D01*
X157425682Y-75512100D01*
X157425275Y-75511407D01*
X157353877Y-75387743D01*
X157353572Y-75387205D01*
X157350936Y-75382460D01*
X157350189Y-75381062D01*
X157347741Y-75376297D01*
X157347379Y-75375578D01*
X157330389Y-75341126D01*
X157330063Y-75340451D01*
X157327740Y-75335540D01*
X157327098Y-75334124D01*
X157324926Y-75329112D01*
X157324676Y-75328522D01*
X157289956Y-75244699D01*
X157289756Y-75244207D01*
X157287731Y-75239083D01*
X157287198Y-75237667D01*
X157285358Y-75232526D01*
X157285123Y-75231850D01*
X157272765Y-75195444D01*
X157272512Y-75194676D01*
X157270879Y-75189591D01*
X157270416Y-75188066D01*
X157268938Y-75182891D01*
X157268724Y-75182116D01*
X157231782Y-75044249D01*
X157231583Y-75043484D01*
X157230277Y-75038272D01*
X157229926Y-75036767D01*
X157228996Y-75032474D01*
X157228800Y-75031570D01*
X157228642Y-75030806D01*
X157221206Y-74993547D01*
X157221056Y-74992765D01*
X157220099Y-74987528D01*
X157219841Y-74985972D01*
X157219051Y-74980693D01*
X157218939Y-74979900D01*
X157207121Y-74891019D01*
X157207050Y-74890457D01*
X157206411Y-74884975D01*
X157206264Y-74883503D01*
X157205822Y-74878222D01*
X157205762Y-74877435D01*
X157203199Y-74839457D01*
X157203153Y-74838672D01*
X157202880Y-74833359D01*
X157202825Y-74831796D01*
X157202726Y-74826524D01*
X157202717Y-74825734D01*
X157197606Y-72850977D01*
X157197606Y-72850776D01*
X157197609Y-72849270D01*
X157197627Y-72847563D01*
X157197774Y-72837361D01*
X157197806Y-72835666D01*
X157197852Y-72833972D01*
X157198601Y-72810164D01*
X157198603Y-72810164D01*
X157198605Y-72810025D01*
X157198661Y-72808470D01*
X157198736Y-72806777D01*
X157199229Y-72796584D01*
X157199319Y-72794878D01*
X157199424Y-72793174D01*
X157204111Y-72721655D01*
X157204134Y-72721327D01*
X157204467Y-72717051D01*
X157204558Y-72716044D01*
X157204988Y-72711852D01*
X157205021Y-72711548D01*
X157208346Y-72682653D01*
X157208400Y-72682204D01*
X157208926Y-72678079D01*
X157209072Y-72677039D01*
X157209701Y-72672919D01*
X157209765Y-72672516D01*
X157220869Y-72605258D01*
X157220931Y-72604898D01*
X157221672Y-72600729D01*
X157221884Y-72599621D01*
X157222690Y-72595657D01*
X157222782Y-72595213D01*
X157228957Y-72566627D01*
X157229926Y-72562393D01*
X157230191Y-72561300D01*
X157231203Y-72557325D01*
X157231321Y-72556873D01*
X157268746Y-72417202D01*
X157268922Y-72416562D01*
X157270420Y-72411318D01*
X157270879Y-72409808D01*
X157272512Y-72404723D01*
X157272743Y-72404021D01*
X157285141Y-72367494D01*
X157285345Y-72366909D01*
X157287205Y-72361712D01*
X157287723Y-72360336D01*
X157289774Y-72355149D01*
X157289938Y-72354742D01*
X157324695Y-72270830D01*
X157324908Y-72270329D01*
X157327108Y-72265252D01*
X157327729Y-72263882D01*
X157330084Y-72258902D01*
X157330342Y-72258369D01*
X157347401Y-72223776D01*
X157347741Y-72223102D01*
X157350189Y-72218337D01*
X157350941Y-72216931D01*
X157353525Y-72212280D01*
X157353923Y-72211577D01*
X157425342Y-72087876D01*
X157425673Y-72087312D01*
X157428480Y-72082629D01*
X157429262Y-72081371D01*
X157432192Y-72076822D01*
X157432564Y-72076254D01*
X157453790Y-72044457D01*
X157454232Y-72043806D01*
X157457263Y-72039420D01*
X157458164Y-72038163D01*
X157461332Y-72033884D01*
X157461771Y-72033299D01*
X157516471Y-71961875D01*
X157516923Y-71961295D01*
X157520238Y-71957108D01*
X157521230Y-71955898D01*
X157524678Y-71951824D01*
X157525194Y-71951223D01*
X157550327Y-71922482D01*
X157550782Y-71921969D01*
X157554395Y-71917972D01*
X157555458Y-71916834D01*
X157559151Y-71913005D01*
X157559654Y-71912490D01*
X157848995Y-71622052D01*
X157883613Y-71607637D01*
X157904963Y-71612489D01*
X157978495Y-71647900D01*
X157978497Y-71647900D01*
X158149903Y-71647900D01*
X158149905Y-71647900D01*
X158304341Y-71573528D01*
X158411214Y-71439513D01*
X158415398Y-71421185D01*
X158449357Y-71272401D01*
X158449357Y-71272398D01*
X158411214Y-71105287D01*
X158410820Y-71104468D01*
X158410752Y-71103262D01*
X158409986Y-71099905D01*
X158410556Y-71099774D01*
X158408718Y-71067024D01*
X158420250Y-71048630D01*
X159007498Y-70459157D01*
X159050674Y-70394326D01*
X159065809Y-70317917D01*
X159064593Y-67512535D01*
X159078930Y-67477881D01*
X159113572Y-67463514D01*
X159119841Y-67463514D01*
X159119843Y-67463514D01*
X159274279Y-67389142D01*
X159381152Y-67255127D01*
X159419295Y-67088014D01*
X159419295Y-67088012D01*
X159381153Y-66920903D01*
X159381151Y-66920899D01*
X159274278Y-66786885D01*
X159205239Y-66753637D01*
X159180250Y-66725673D01*
X159177500Y-66709490D01*
X159177500Y-63716006D01*
X159178729Y-63705102D01*
X159211357Y-63562153D01*
X159211357Y-63562150D01*
X159173215Y-63395041D01*
X159173213Y-63395037D01*
X159073430Y-63269913D01*
X159062740Y-63239385D01*
X159061001Y-59225592D01*
X159061007Y-59223946D01*
X159061026Y-59222301D01*
X159061185Y-59212425D01*
X159061218Y-59210778D01*
X159061265Y-59209132D01*
X159062014Y-59186089D01*
X159062074Y-59184444D01*
X159062148Y-59182800D01*
X159062631Y-59172926D01*
X159062719Y-59171278D01*
X159062820Y-59169632D01*
X159067511Y-59098055D01*
X159067534Y-59097727D01*
X159067867Y-59093451D01*
X159067958Y-59092444D01*
X159068388Y-59088252D01*
X159068421Y-59087948D01*
X159071746Y-59059053D01*
X159071800Y-59058604D01*
X159072326Y-59054479D01*
X159072472Y-59053439D01*
X159073101Y-59049319D01*
X159073165Y-59048916D01*
X159082873Y-58990116D01*
X159102677Y-58958270D01*
X159131218Y-58949100D01*
X161112947Y-58949100D01*
X161147595Y-58963452D01*
G37*
%TD.AperFunction*%
%TD*%
M02*
