%TF.GenerationSoftware,KiCad,Pcbnew,8.0.3*%
%TF.CreationDate,2024-09-21T17:28:31+02:00*%
%TF.ProjectId,SynchGaze_Transmiter,53796e63-6847-4617-9a65-5f5472616e73,1.0*%
%TF.SameCoordinates,Original*%
%TF.FileFunction,Copper,L2,Inr*%
%TF.FilePolarity,Positive*%
%FSLAX46Y46*%
G04 Gerber Fmt 4.6, Leading zero omitted, Abs format (unit mm)*
G04 Created by KiCad (PCBNEW 8.0.3) date 2024-09-21 17:28:31*
%MOMM*%
%LPD*%
G01*
G04 APERTURE LIST*
%TA.AperFunction,ComponentPad*%
%ADD10R,1.058000X1.058000*%
%TD*%
%TA.AperFunction,ComponentPad*%
%ADD11C,1.058000*%
%TD*%
%TA.AperFunction,ComponentPad*%
%ADD12O,0.900000X1.600000*%
%TD*%
%TA.AperFunction,ComponentPad*%
%ADD13O,0.900000X1.300000*%
%TD*%
%TA.AperFunction,ViaPad*%
%ADD14C,0.350000*%
%TD*%
G04 APERTURE END LIST*
D10*
%TO.N,+3V3*%
%TO.C,J202*%
X165735000Y-80912000D03*
D11*
%TO.N,GND*%
X165735000Y-82162000D03*
%TO.N,/MCU/FSPI_CLK*%
X165735000Y-83412000D03*
%TO.N,/MCU/FSPI_Q*%
X165735000Y-84662000D03*
%TO.N,/MCU/FSPI_D*%
X165735000Y-85912000D03*
%TO.N,/MCU/IMU_NCS*%
X165735000Y-87162000D03*
%TO.N,/MCU/INTER_ACC*%
X165735000Y-88412000D03*
%TO.N,/MCU/INTER_GYR{slash}BOOT*%
X165735000Y-89662000D03*
%TD*%
D12*
%TO.N,unconnected-(J201-SHELL_GND-PadS1)_0*%
%TO.C,J201*%
X159130850Y-50400000D03*
%TO.N,unconnected-(J201-SHELL_GND-PadS2)_0*%
X147290850Y-50400000D03*
D13*
%TO.N,unconnected-(J201-SHELL_GND-PadS1)*%
X157860850Y-54720000D03*
%TO.N,unconnected-(J201-SHELL_GND-PadS2)*%
X148560850Y-54720000D03*
%TD*%
D14*
%TO.N,GND*%
X157505400Y-71272400D03*
X148742400Y-56769000D03*
X149504400Y-79756000D03*
X167386000Y-68402200D03*
X155194000Y-89712800D03*
X161036000Y-64795400D03*
X161315400Y-86868000D03*
X156946599Y-71272400D03*
X148767800Y-82245200D03*
X166700200Y-78028800D03*
X141046200Y-82931000D03*
X155727400Y-71831200D03*
X163880800Y-66700400D03*
X152704800Y-63754000D03*
X151257000Y-79756000D03*
X162839400Y-90093800D03*
X161594800Y-77114400D03*
X146939000Y-75514200D03*
X164693599Y-71450200D03*
X163906200Y-71755000D03*
X151257000Y-82245200D03*
X163830000Y-59766200D03*
X159410400Y-86842600D03*
X148767800Y-80492600D03*
X166700200Y-77495400D03*
X145008600Y-85775800D03*
X161010600Y-87452200D03*
X150520400Y-80492600D03*
X163830000Y-60325000D03*
X166700200Y-78587601D03*
X155879800Y-83261200D03*
X157784800Y-56007000D03*
X163830000Y-65862200D03*
X164128400Y-69672200D03*
X163042600Y-80873600D03*
X163906200Y-70993000D03*
X158064200Y-89433400D03*
X142976600Y-51943000D03*
X162052000Y-63779400D03*
X155879800Y-87909400D03*
X148005800Y-93726000D03*
X143027400Y-81864200D03*
X162052000Y-64795400D03*
X158064200Y-88392000D03*
X163271200Y-66471800D03*
X160832800Y-77114400D03*
X151257000Y-81508599D03*
X146812000Y-93726000D03*
X142875000Y-85775800D03*
X152438100Y-86550500D03*
X162001200Y-76530200D03*
X162331400Y-77114400D03*
X158292800Y-57251600D03*
X157022800Y-69977000D03*
X150520400Y-81508599D03*
X163830000Y-89839800D03*
X151257000Y-80492600D03*
X148742400Y-56007000D03*
X156540200Y-79756000D03*
X150520400Y-82245200D03*
X165811200Y-71450200D03*
X141528800Y-69951600D03*
X163118800Y-62890400D03*
X160959800Y-84963000D03*
X158242000Y-59486800D03*
X163880800Y-88976200D03*
X158064200Y-71272400D03*
X158318200Y-56413400D03*
X160401000Y-84988400D03*
X167386000Y-66243200D03*
X149148800Y-57404000D03*
X149504400Y-80492600D03*
X149529800Y-56769000D03*
X147269200Y-88620600D03*
X164338000Y-87858600D03*
X156489400Y-85166200D03*
X149504400Y-81508600D03*
X165252400Y-71450200D03*
X158688400Y-84996400D03*
X157911800Y-69977000D03*
X162610800Y-66776600D03*
X143022900Y-63636999D03*
X150520400Y-79756000D03*
X167716200Y-70231000D03*
X148259800Y-57353200D03*
X148767800Y-79756000D03*
X156632600Y-77292200D03*
X147269200Y-86893400D03*
X151511000Y-86487000D03*
X165760400Y-77393800D03*
X165176200Y-77393800D03*
X148259800Y-62966600D03*
X156133800Y-90474800D03*
X161544000Y-64287400D03*
X149326600Y-62966600D03*
X161213800Y-77698600D03*
X162458400Y-87172800D03*
X156921200Y-88925400D03*
X143967200Y-85775800D03*
X167741600Y-64541400D03*
X158521400Y-87426800D03*
X163830000Y-59207400D03*
X160756600Y-86766400D03*
X162001200Y-77698600D03*
X157099000Y-85801200D03*
X156362400Y-70205600D03*
X149504400Y-82245200D03*
X158089600Y-84861400D03*
X162839400Y-65811400D03*
X143002000Y-80594200D03*
X167284400Y-70688200D03*
X161036000Y-63779400D03*
X154025600Y-69189600D03*
X148767800Y-81508599D03*
X166446200Y-70993000D03*
X157022801Y-56794400D03*
X145567400Y-93726000D03*
X161213800Y-76530200D03*
X148082000Y-56438800D03*
X166446200Y-70434200D03*
X157403800Y-57327800D03*
X157784800Y-56794400D03*
%TO.N,/MCU/INTER_GYR{slash}BOOT*%
X153900000Y-79300000D03*
X158129600Y-85758400D03*
X143000000Y-71400000D03*
X157200600Y-78003400D03*
%TO.N,/MCU/INTER_ACC*%
X162768876Y-84728724D03*
X157784800Y-82600800D03*
%TO.N,/MCU/FSPI_D*%
X163860000Y-85856600D03*
X157378400Y-80645000D03*
X158724600Y-84378800D03*
%TO.N,/MCU/SPI_DO*%
X154178000Y-73329800D03*
X148259800Y-77825600D03*
%TO.N,/MCU/SPI_NWP*%
X150241000Y-77325600D03*
X146024600Y-73304400D03*
%TO.N,/MCU/FSPI_Q*%
X163809200Y-85094600D03*
X159613600Y-83171000D03*
%TO.N,/MCU/SPI_NCS0*%
X149758400Y-76784200D03*
X146024600Y-71297800D03*
%TO.N,/MCU/IMU_NCS*%
X157784800Y-83261200D03*
X161213800Y-83159600D03*
%TO.N,+3V3*%
X146300000Y-63700000D03*
X166649400Y-74523600D03*
X166649400Y-73279000D03*
X160020000Y-90398600D03*
X156565600Y-78688600D03*
X142036800Y-83591400D03*
X142036800Y-84048600D03*
X154457400Y-87807800D03*
X152857200Y-88011000D03*
X162687000Y-88315800D03*
X154930200Y-83226000D03*
X163601400Y-78486000D03*
X166649400Y-75158600D03*
X152857200Y-88519000D03*
X166649400Y-73888600D03*
X156057600Y-76479400D03*
%TO.N,VBUS*%
X155702000Y-57048400D03*
X155430997Y-56642000D03*
X150994603Y-56642000D03*
X150723600Y-57048400D03*
X158826200Y-63562152D03*
X152704800Y-58801000D03*
X164998400Y-69291200D03*
X163042600Y-70383400D03*
X150469600Y-56642000D03*
X155956000Y-56642000D03*
X159034138Y-67088014D03*
%TO.N,/MCU/CHIP_EN*%
X140800000Y-52700000D03*
X141500000Y-74300000D03*
X143000000Y-74300000D03*
X151612600Y-84378800D03*
X152196800Y-85471000D03*
%TO.N,/MCU/CC2*%
X154460850Y-57658000D03*
X149326600Y-60121800D03*
%TO.N,VCC*%
X159054800Y-75006200D03*
X159334200Y-74549000D03*
X147281281Y-60918719D03*
X161010600Y-59207400D03*
X158648400Y-74371200D03*
X160477200Y-59207400D03*
X159918400Y-59207400D03*
X160172400Y-59613800D03*
X160705800Y-59613800D03*
X158013400Y-74371200D03*
X157403800Y-74371200D03*
%TO.N,/Power/~{CRG}*%
X143000000Y-57300000D03*
X162636200Y-61620400D03*
%TO.N,/Power/~{PG}*%
X163830000Y-63576200D03*
X141900000Y-59700000D03*
%TO.N,/Power/TMR*%
X154660600Y-67386200D03*
X158394400Y-64211200D03*
%TO.N,/Power/BAT*%
X162737800Y-67665600D03*
X163601400Y-68173600D03*
X163042600Y-68173600D03*
X163322000Y-67665600D03*
X164820600Y-56743600D03*
X162458400Y-68173600D03*
X164312600Y-57023000D03*
X164820600Y-57327800D03*
X164312600Y-57632600D03*
%TO.N,GNDPWR*%
X162737800Y-69672200D03*
X163093400Y-69164200D03*
X161086800Y-57327800D03*
X156438600Y-64998600D03*
X163626800Y-69088000D03*
X156083000Y-64541400D03*
X161086800Y-56743600D03*
X162458400Y-69164200D03*
X156845000Y-64541400D03*
X161594800Y-57048400D03*
X161594800Y-57607201D03*
X163328400Y-69672200D03*
X155727400Y-64998600D03*
%TD*%
%TA.AperFunction,Conductor*%
%TO.N,GND*%
G36*
X141192281Y-49500573D02*
G01*
X141268950Y-49503522D01*
X141268950Y-49503521D01*
X141268951Y-49503522D01*
X141268951Y-49503521D01*
X141277532Y-49502347D01*
X141277627Y-49503042D01*
X141293866Y-49500500D01*
X146685499Y-49500500D01*
X146755503Y-49529496D01*
X146784499Y-49599500D01*
X146771235Y-49649000D01*
X146684682Y-49798911D01*
X146684681Y-49798916D01*
X146640350Y-49964360D01*
X146640350Y-50835640D01*
X146668115Y-50939258D01*
X146684682Y-51001088D01*
X146770317Y-51149411D01*
X146770319Y-51149413D01*
X146770321Y-51149416D01*
X146891434Y-51270529D01*
X146891436Y-51270530D01*
X146891438Y-51270532D01*
X147039762Y-51356167D01*
X147039763Y-51356167D01*
X147039766Y-51356169D01*
X147205210Y-51400500D01*
X147205211Y-51400500D01*
X147376489Y-51400500D01*
X147376490Y-51400500D01*
X147541934Y-51356169D01*
X147541936Y-51356167D01*
X147541938Y-51356167D01*
X147690261Y-51270532D01*
X147690261Y-51270531D01*
X147690266Y-51270529D01*
X147742349Y-51218445D01*
X147812351Y-51189449D01*
X147882355Y-51218445D01*
X147911352Y-51288448D01*
X147911352Y-51288501D01*
X147910399Y-53102949D01*
X147910349Y-53103533D01*
X147910349Y-53200052D01*
X147910292Y-53308468D01*
X147910399Y-53309552D01*
X147910399Y-53312722D01*
X147960561Y-53532514D01*
X148058370Y-53735630D01*
X148058373Y-53735636D01*
X148058405Y-53735676D01*
X148165987Y-53870592D01*
X148186960Y-53943403D01*
X148158587Y-54002317D01*
X148040321Y-54120583D01*
X148040317Y-54120588D01*
X147954682Y-54268911D01*
X147910350Y-54434360D01*
X147910350Y-55005639D01*
X147954682Y-55171088D01*
X148040317Y-55319411D01*
X148040319Y-55319413D01*
X148040321Y-55319416D01*
X148161434Y-55440529D01*
X148161436Y-55440530D01*
X148161438Y-55440532D01*
X148309762Y-55526167D01*
X148309763Y-55526167D01*
X148309766Y-55526169D01*
X148475210Y-55570500D01*
X148475211Y-55570500D01*
X148646489Y-55570500D01*
X148646490Y-55570500D01*
X148811934Y-55526169D01*
X148811936Y-55526167D01*
X148811938Y-55526167D01*
X148960261Y-55440532D01*
X148960261Y-55440531D01*
X148960266Y-55440529D01*
X149081379Y-55319416D01*
X149167019Y-55171084D01*
X149211350Y-55005640D01*
X149211350Y-54797617D01*
X149240346Y-54727613D01*
X149310350Y-54698617D01*
X149359850Y-54711881D01*
X149488711Y-54786279D01*
X149488709Y-54786279D01*
X149488713Y-54786280D01*
X149488715Y-54786281D01*
X149635084Y-54825500D01*
X149635086Y-54825500D01*
X149786614Y-54825500D01*
X149786616Y-54825500D01*
X149932985Y-54786281D01*
X149932987Y-54786279D01*
X149932989Y-54786279D01*
X150064210Y-54710518D01*
X150064210Y-54710517D01*
X150064215Y-54710515D01*
X150171365Y-54603365D01*
X150247131Y-54472135D01*
X150286350Y-54325766D01*
X150286350Y-54299464D01*
X150315346Y-54229460D01*
X150385346Y-54200464D01*
X156036348Y-54200334D01*
X156106352Y-54229329D01*
X156135350Y-54299332D01*
X156135350Y-54325766D01*
X156164447Y-54434360D01*
X156174570Y-54472139D01*
X156250331Y-54603360D01*
X156250333Y-54603362D01*
X156250335Y-54603365D01*
X156357485Y-54710515D01*
X156357487Y-54710516D01*
X156357489Y-54710518D01*
X156488711Y-54786279D01*
X156488709Y-54786279D01*
X156488713Y-54786280D01*
X156488715Y-54786281D01*
X156635084Y-54825500D01*
X156635086Y-54825500D01*
X156786614Y-54825500D01*
X156786616Y-54825500D01*
X156932985Y-54786281D01*
X156932987Y-54786279D01*
X156932989Y-54786279D01*
X157061850Y-54711881D01*
X157136973Y-54701990D01*
X157197086Y-54748117D01*
X157210350Y-54797617D01*
X157210350Y-55005639D01*
X157254682Y-55171088D01*
X157340317Y-55319411D01*
X157340319Y-55319413D01*
X157340321Y-55319416D01*
X157461434Y-55440529D01*
X157461436Y-55440530D01*
X157461438Y-55440532D01*
X157609762Y-55526167D01*
X157609763Y-55526167D01*
X157609766Y-55526169D01*
X157775210Y-55570500D01*
X157775211Y-55570500D01*
X157946489Y-55570500D01*
X157946490Y-55570500D01*
X158111934Y-55526169D01*
X158111936Y-55526167D01*
X158111938Y-55526167D01*
X158260261Y-55440532D01*
X158260261Y-55440531D01*
X158260266Y-55440529D01*
X158381379Y-55319416D01*
X158467019Y-55171084D01*
X158511350Y-55005640D01*
X158511350Y-54434360D01*
X158467019Y-54268916D01*
X158467017Y-54268913D01*
X158467017Y-54268911D01*
X158381382Y-54120588D01*
X158381380Y-54120586D01*
X158381379Y-54120584D01*
X158263126Y-54002331D01*
X158234131Y-53932329D01*
X158255732Y-53870602D01*
X158363347Y-53735670D01*
X158461177Y-53532539D01*
X158511350Y-53312731D01*
X158511350Y-53309360D01*
X158511407Y-53308777D01*
X158511402Y-53299295D01*
X158511403Y-53299293D01*
X158511351Y-53199491D01*
X158511351Y-53111748D01*
X158511351Y-53103425D01*
X158511299Y-53102837D01*
X158511175Y-52867111D01*
X158510345Y-51288497D01*
X158539305Y-51218480D01*
X158609293Y-51189447D01*
X158679312Y-51218407D01*
X158731434Y-51270529D01*
X158731436Y-51270530D01*
X158731438Y-51270532D01*
X158879762Y-51356167D01*
X158879763Y-51356167D01*
X158879766Y-51356169D01*
X159045210Y-51400500D01*
X159045211Y-51400500D01*
X159216489Y-51400500D01*
X159216490Y-51400500D01*
X159381934Y-51356169D01*
X159381936Y-51356167D01*
X159381938Y-51356167D01*
X159530261Y-51270532D01*
X159530261Y-51270531D01*
X159530266Y-51270529D01*
X159651379Y-51149416D01*
X159737019Y-51001084D01*
X159781350Y-50835640D01*
X159781350Y-49964360D01*
X159737019Y-49798916D01*
X159737017Y-49798913D01*
X159737017Y-49798911D01*
X159650465Y-49649000D01*
X159640574Y-49573877D01*
X159686701Y-49513764D01*
X159736201Y-49500500D01*
X161400500Y-49500500D01*
X161470504Y-49529496D01*
X161499500Y-49599500D01*
X161499500Y-50111748D01*
X161499500Y-50200000D01*
X161499500Y-50357709D01*
X161538918Y-50543157D01*
X161565078Y-50666230D01*
X161565080Y-50666236D01*
X161693367Y-50954376D01*
X161693369Y-50954379D01*
X161693371Y-50954383D01*
X161835071Y-51149416D01*
X161878772Y-51209565D01*
X161878773Y-51209566D01*
X162113166Y-51420614D01*
X162113167Y-51420615D01*
X162113170Y-51420617D01*
X162301814Y-51529529D01*
X162386326Y-51578323D01*
X162386327Y-51578323D01*
X162386330Y-51578325D01*
X162686310Y-51675795D01*
X163000000Y-51708765D01*
X163313690Y-51675795D01*
X163613670Y-51578325D01*
X163886830Y-51420617D01*
X163974730Y-51341471D01*
X164121226Y-51209566D01*
X164121227Y-51209565D01*
X164121227Y-51209563D01*
X164121231Y-51209561D01*
X164306629Y-50954383D01*
X164434921Y-50666234D01*
X164500500Y-50357709D01*
X164500500Y-50200000D01*
X164500500Y-50111748D01*
X164500500Y-49599500D01*
X164529496Y-49529496D01*
X164599500Y-49500500D01*
X165811748Y-49500500D01*
X165895681Y-49500500D01*
X165904309Y-49500877D01*
X166255949Y-49531641D01*
X166272929Y-49534634D01*
X166609713Y-49624875D01*
X166625921Y-49630775D01*
X166941897Y-49778118D01*
X166956842Y-49786746D01*
X166974223Y-49798916D01*
X167199733Y-49956820D01*
X167242434Y-49986719D01*
X167255654Y-49997811D01*
X167502188Y-50244345D01*
X167513280Y-50257565D01*
X167713253Y-50543157D01*
X167721881Y-50558102D01*
X167869222Y-50874074D01*
X167875125Y-50890290D01*
X167965363Y-51227063D01*
X167968359Y-51244058D01*
X167999123Y-51595690D01*
X167999500Y-51604318D01*
X167999500Y-91395681D01*
X167999123Y-91404309D01*
X167968359Y-91755941D01*
X167965363Y-91772936D01*
X167875125Y-92109709D01*
X167869222Y-92125925D01*
X167721881Y-92441897D01*
X167713253Y-92456842D01*
X167513280Y-92742434D01*
X167502188Y-92755654D01*
X167255654Y-93002188D01*
X167242434Y-93013280D01*
X166956842Y-93213253D01*
X166941897Y-93221881D01*
X166625925Y-93369222D01*
X166609709Y-93375125D01*
X166272936Y-93465363D01*
X166255941Y-93468359D01*
X165904309Y-93499123D01*
X165895681Y-93499500D01*
X162752211Y-93499500D01*
X162462320Y-93557164D01*
X162462318Y-93557164D01*
X162189251Y-93670271D01*
X162189239Y-93670277D01*
X161943487Y-93834486D01*
X161943483Y-93834489D01*
X161826969Y-93951004D01*
X161756965Y-93980000D01*
X161204542Y-93980000D01*
X161166660Y-93972465D01*
X161159501Y-93969500D01*
X145959501Y-93969500D01*
X145740499Y-93969500D01*
X145733339Y-93972465D01*
X145695458Y-93980000D01*
X145143035Y-93980000D01*
X145073031Y-93951004D01*
X144956516Y-93834489D01*
X144956513Y-93834486D01*
X144886501Y-93787705D01*
X144710760Y-93670277D01*
X144710748Y-93670271D01*
X144437680Y-93557164D01*
X144147788Y-93499500D01*
X144147786Y-93499500D01*
X144099556Y-93499500D01*
X141293866Y-93499500D01*
X141277627Y-93496957D01*
X141277532Y-93497653D01*
X141268950Y-93496477D01*
X141192281Y-93499427D01*
X141188476Y-93499500D01*
X141176043Y-93499500D01*
X141171000Y-93499371D01*
X140814871Y-93481207D01*
X140797367Y-93478734D01*
X140449267Y-93397315D01*
X140432482Y-93391768D01*
X140104417Y-93249739D01*
X140088886Y-93241296D01*
X140046764Y-93213253D01*
X139791300Y-93043176D01*
X139777525Y-93032110D01*
X139519922Y-92784225D01*
X139508331Y-92770881D01*
X139497326Y-92755654D01*
X139298928Y-92481139D01*
X139289893Y-92465944D01*
X139135357Y-92143574D01*
X139129169Y-92127014D01*
X139034432Y-91782300D01*
X139031289Y-91764910D01*
X138998972Y-91404403D01*
X138998578Y-91395564D01*
X138998620Y-90699726D01*
X138998638Y-90398600D01*
X159634843Y-90398600D01*
X159672985Y-90565711D01*
X159672986Y-90565713D01*
X159779859Y-90699728D01*
X159857077Y-90736914D01*
X159934294Y-90774100D01*
X159934295Y-90774100D01*
X160105705Y-90774100D01*
X160260141Y-90699728D01*
X160367014Y-90565713D01*
X160405157Y-90398600D01*
X160367014Y-90231487D01*
X160260141Y-90097472D01*
X160257358Y-90096132D01*
X160105705Y-90023100D01*
X159934295Y-90023100D01*
X159779860Y-90097471D01*
X159779858Y-90097473D01*
X159672985Y-90231488D01*
X159634843Y-90398600D01*
X138998638Y-90398600D01*
X138998783Y-88011000D01*
X152472043Y-88011000D01*
X152510185Y-88178113D01*
X152530252Y-88203276D01*
X152551227Y-88276086D01*
X152530252Y-88326724D01*
X152510185Y-88351886D01*
X152472043Y-88519000D01*
X152510185Y-88686111D01*
X152510186Y-88686113D01*
X152617059Y-88820128D01*
X152694277Y-88857314D01*
X152771494Y-88894500D01*
X152771495Y-88894500D01*
X152942905Y-88894500D01*
X153097341Y-88820128D01*
X153204214Y-88686113D01*
X153242357Y-88519000D01*
X153204214Y-88351887D01*
X153184147Y-88326724D01*
X153181000Y-88315800D01*
X162301843Y-88315800D01*
X162339985Y-88482911D01*
X162339986Y-88482913D01*
X162446859Y-88616928D01*
X162495263Y-88640238D01*
X162601294Y-88691300D01*
X162601295Y-88691300D01*
X162772705Y-88691300D01*
X162927141Y-88616928D01*
X163034014Y-88482913D01*
X163072157Y-88315800D01*
X163034014Y-88148687D01*
X162927141Y-88014672D01*
X162772705Y-87940300D01*
X162601295Y-87940300D01*
X162446860Y-88014671D01*
X162446858Y-88014673D01*
X162339985Y-88148688D01*
X162301843Y-88315800D01*
X153181000Y-88315800D01*
X153163171Y-88253916D01*
X153184147Y-88203276D01*
X153204214Y-88178113D01*
X153242357Y-88011000D01*
X153204214Y-87843887D01*
X153175436Y-87807800D01*
X154072243Y-87807800D01*
X154110385Y-87974911D01*
X154110386Y-87974913D01*
X154217259Y-88108928D01*
X154294477Y-88146114D01*
X154371694Y-88183300D01*
X154371695Y-88183300D01*
X154543105Y-88183300D01*
X154697541Y-88108928D01*
X154804414Y-87974913D01*
X154842557Y-87807800D01*
X154804414Y-87640687D01*
X154697541Y-87506672D01*
X154543105Y-87432300D01*
X154371695Y-87432300D01*
X154217260Y-87506671D01*
X154217258Y-87506673D01*
X154110385Y-87640688D01*
X154072243Y-87807800D01*
X153175436Y-87807800D01*
X153097341Y-87709872D01*
X152942905Y-87635500D01*
X152771495Y-87635500D01*
X152617060Y-87709871D01*
X152617058Y-87709873D01*
X152510185Y-87843888D01*
X152472043Y-88011000D01*
X138998783Y-88011000D01*
X138998937Y-85471000D01*
X151811643Y-85471000D01*
X151849785Y-85638111D01*
X151849786Y-85638113D01*
X151956659Y-85772128D01*
X152033877Y-85809314D01*
X152111094Y-85846500D01*
X152111095Y-85846500D01*
X152282505Y-85846500D01*
X152436941Y-85772128D01*
X152447889Y-85758400D01*
X157744443Y-85758400D01*
X157782585Y-85925511D01*
X157782586Y-85925513D01*
X157889459Y-86059528D01*
X157966677Y-86096714D01*
X158043894Y-86133900D01*
X158043895Y-86133900D01*
X158215305Y-86133900D01*
X158369741Y-86059528D01*
X158476614Y-85925513D01*
X158514757Y-85758400D01*
X158476614Y-85591287D01*
X158369741Y-85457272D01*
X158215305Y-85382900D01*
X158043895Y-85382900D01*
X157889460Y-85457271D01*
X157889458Y-85457273D01*
X157782585Y-85591288D01*
X157744443Y-85758400D01*
X152447889Y-85758400D01*
X152543814Y-85638113D01*
X152581957Y-85471000D01*
X152543814Y-85303887D01*
X152436941Y-85169872D01*
X152282505Y-85095500D01*
X152111095Y-85095500D01*
X151956660Y-85169871D01*
X151956658Y-85169873D01*
X151849785Y-85303888D01*
X151811643Y-85471000D01*
X138998937Y-85471000D01*
X138999051Y-83591400D01*
X141651643Y-83591400D01*
X141689786Y-83758515D01*
X141694624Y-83768560D01*
X141692812Y-83769432D01*
X141710571Y-83831091D01*
X141693985Y-83871132D01*
X141694624Y-83871440D01*
X141689786Y-83881484D01*
X141651643Y-84048600D01*
X141689785Y-84215711D01*
X141689786Y-84215713D01*
X141796659Y-84349728D01*
X141803919Y-84353224D01*
X141951094Y-84424100D01*
X141951095Y-84424100D01*
X142122505Y-84424100D01*
X142216572Y-84378800D01*
X151227443Y-84378800D01*
X151265585Y-84545911D01*
X151265586Y-84545913D01*
X151372459Y-84679928D01*
X151449677Y-84717114D01*
X151526894Y-84754300D01*
X151526895Y-84754300D01*
X151698305Y-84754300D01*
X151852741Y-84679928D01*
X151959614Y-84545913D01*
X151997757Y-84378800D01*
X158339443Y-84378800D01*
X158377585Y-84545911D01*
X158377586Y-84545913D01*
X158484459Y-84679928D01*
X158561677Y-84717114D01*
X158638894Y-84754300D01*
X158638895Y-84754300D01*
X158810305Y-84754300D01*
X158863414Y-84728724D01*
X162383719Y-84728724D01*
X162421861Y-84895835D01*
X162421862Y-84895837D01*
X162528735Y-85029852D01*
X162605953Y-85067038D01*
X162683170Y-85104224D01*
X162683171Y-85104224D01*
X162854581Y-85104224D01*
X162874566Y-85094600D01*
X163424043Y-85094600D01*
X163462185Y-85261711D01*
X163462186Y-85261713D01*
X163569059Y-85395728D01*
X163585957Y-85403865D01*
X163636447Y-85460362D01*
X163632200Y-85536014D01*
X163620405Y-85554786D01*
X163512985Y-85689488D01*
X163474843Y-85856600D01*
X163512985Y-86023711D01*
X163512986Y-86023713D01*
X163619859Y-86157728D01*
X163697077Y-86194914D01*
X163774294Y-86232100D01*
X163774295Y-86232100D01*
X163945705Y-86232100D01*
X164100141Y-86157728D01*
X164207014Y-86023713D01*
X164245157Y-85856600D01*
X164207014Y-85689487D01*
X164100141Y-85555472D01*
X164083240Y-85547333D01*
X164032752Y-85490835D01*
X164037000Y-85415183D01*
X164048795Y-85396413D01*
X164156214Y-85261713D01*
X164156711Y-85259534D01*
X164194357Y-85094600D01*
X164156214Y-84927487D01*
X164049341Y-84793472D01*
X163894905Y-84719100D01*
X163723495Y-84719100D01*
X163569060Y-84793471D01*
X163569058Y-84793473D01*
X163462185Y-84927488D01*
X163424043Y-85094600D01*
X162874566Y-85094600D01*
X163009017Y-85029852D01*
X163115890Y-84895837D01*
X163154033Y-84728724D01*
X163115890Y-84561611D01*
X163009017Y-84427596D01*
X163001757Y-84424100D01*
X162854581Y-84353224D01*
X162683171Y-84353224D01*
X162528736Y-84427595D01*
X162528734Y-84427597D01*
X162421861Y-84561612D01*
X162383719Y-84728724D01*
X158863414Y-84728724D01*
X158964741Y-84679928D01*
X159071614Y-84545913D01*
X159109757Y-84378800D01*
X159071614Y-84211687D01*
X158964741Y-84077672D01*
X158810305Y-84003300D01*
X158638895Y-84003300D01*
X158484460Y-84077671D01*
X158484458Y-84077673D01*
X158377585Y-84211688D01*
X158339443Y-84378800D01*
X151997757Y-84378800D01*
X151959614Y-84211687D01*
X151852741Y-84077672D01*
X151698305Y-84003300D01*
X151526895Y-84003300D01*
X151372460Y-84077671D01*
X151372458Y-84077673D01*
X151265585Y-84211688D01*
X151227443Y-84378800D01*
X142216572Y-84378800D01*
X142276941Y-84349728D01*
X142383814Y-84215713D01*
X142421957Y-84048600D01*
X142383814Y-83881487D01*
X142383813Y-83881486D01*
X142383813Y-83881485D01*
X142378975Y-83871438D01*
X142380789Y-83870564D01*
X142363027Y-83808921D01*
X142379616Y-83768870D01*
X142378975Y-83768562D01*
X142383813Y-83758514D01*
X142383812Y-83758514D01*
X142383814Y-83758513D01*
X142421957Y-83591400D01*
X142383814Y-83424287D01*
X142276941Y-83290272D01*
X142143478Y-83226000D01*
X154545043Y-83226000D01*
X154583185Y-83393111D01*
X154583186Y-83393113D01*
X154690059Y-83527128D01*
X154730286Y-83546500D01*
X154844494Y-83601500D01*
X154844495Y-83601500D01*
X155015905Y-83601500D01*
X155170341Y-83527128D01*
X155277214Y-83393113D01*
X155315357Y-83226000D01*
X155277214Y-83058887D01*
X155170341Y-82924872D01*
X155015905Y-82850500D01*
X154844495Y-82850500D01*
X154690060Y-82924871D01*
X154690058Y-82924873D01*
X154583185Y-83058888D01*
X154545043Y-83226000D01*
X142143478Y-83226000D01*
X142122505Y-83215900D01*
X141951095Y-83215900D01*
X141796660Y-83290271D01*
X141796658Y-83290273D01*
X141689785Y-83424288D01*
X141651643Y-83591400D01*
X138999051Y-83591400D01*
X138999111Y-82600800D01*
X157399643Y-82600800D01*
X157437785Y-82767911D01*
X157437786Y-82767913D01*
X157450695Y-82784100D01*
X157518619Y-82869275D01*
X157539594Y-82942085D01*
X157518619Y-82992725D01*
X157437785Y-83094088D01*
X157399643Y-83261200D01*
X157437785Y-83428311D01*
X157437786Y-83428313D01*
X157544659Y-83562328D01*
X157605028Y-83591400D01*
X157699094Y-83636700D01*
X157699095Y-83636700D01*
X157870505Y-83636700D01*
X158024941Y-83562328D01*
X158131814Y-83428313D01*
X158169957Y-83261200D01*
X158149369Y-83171000D01*
X159228443Y-83171000D01*
X159266585Y-83338111D01*
X159266586Y-83338113D01*
X159373459Y-83472128D01*
X159450677Y-83509314D01*
X159527894Y-83546500D01*
X159527895Y-83546500D01*
X159699305Y-83546500D01*
X159853741Y-83472128D01*
X159960614Y-83338113D01*
X159998757Y-83171000D01*
X159996155Y-83159600D01*
X160828643Y-83159600D01*
X160866785Y-83326711D01*
X160866786Y-83326713D01*
X160973659Y-83460728D01*
X161050877Y-83497914D01*
X161128094Y-83535100D01*
X161128095Y-83535100D01*
X161299505Y-83535100D01*
X161453941Y-83460728D01*
X161492801Y-83411999D01*
X164996407Y-83411999D01*
X164996407Y-83412000D01*
X165032556Y-83640239D01*
X165097940Y-83768560D01*
X165137466Y-83846134D01*
X165258329Y-83966997D01*
X165287325Y-84037000D01*
X165258329Y-84107002D01*
X165153645Y-84211687D01*
X165137465Y-84227867D01*
X165032556Y-84433760D01*
X164996407Y-84661999D01*
X164996407Y-84662000D01*
X165032556Y-84890239D01*
X165051535Y-84927487D01*
X165137466Y-85096134D01*
X165258329Y-85216997D01*
X165287325Y-85287000D01*
X165258329Y-85357002D01*
X165158061Y-85457271D01*
X165137465Y-85477867D01*
X165032556Y-85683760D01*
X164996407Y-85911999D01*
X164996407Y-85912000D01*
X165032556Y-86140239D01*
X165079362Y-86232100D01*
X165137466Y-86346134D01*
X165258329Y-86466997D01*
X165287325Y-86537000D01*
X165258329Y-86607002D01*
X165137466Y-86727866D01*
X165137465Y-86727867D01*
X165032556Y-86933760D01*
X164996407Y-87161999D01*
X164996407Y-87162000D01*
X165032556Y-87390239D01*
X165091883Y-87506673D01*
X165137466Y-87596134D01*
X165258329Y-87716997D01*
X165287325Y-87787000D01*
X165258329Y-87857002D01*
X165175032Y-87940300D01*
X165137465Y-87977867D01*
X165032556Y-88183760D01*
X164996407Y-88411999D01*
X164996407Y-88412000D01*
X165032556Y-88640239D01*
X165124214Y-88820126D01*
X165137466Y-88846134D01*
X165258329Y-88966997D01*
X165287325Y-89037000D01*
X165258329Y-89107002D01*
X165137466Y-89227866D01*
X165137465Y-89227867D01*
X165032556Y-89433760D01*
X164996407Y-89661999D01*
X164996407Y-89662000D01*
X165032556Y-89890239D01*
X165100253Y-90023100D01*
X165137466Y-90096134D01*
X165300866Y-90259534D01*
X165506762Y-90364444D01*
X165692046Y-90393789D01*
X165734999Y-90400593D01*
X165735000Y-90400593D01*
X165735001Y-90400593D01*
X165771150Y-90394867D01*
X165963238Y-90364444D01*
X166169134Y-90259534D01*
X166332534Y-90096134D01*
X166437444Y-89890238D01*
X166473593Y-89662000D01*
X166437444Y-89433762D01*
X166332534Y-89227866D01*
X166211670Y-89107002D01*
X166182675Y-89037000D01*
X166211670Y-88966997D01*
X166332534Y-88846134D01*
X166437444Y-88640238D01*
X166473593Y-88412000D01*
X166437444Y-88183762D01*
X166332534Y-87977866D01*
X166211670Y-87857002D01*
X166182675Y-87787000D01*
X166211670Y-87716997D01*
X166332534Y-87596134D01*
X166437444Y-87390238D01*
X166473593Y-87162000D01*
X166437444Y-86933762D01*
X166332534Y-86727866D01*
X166211670Y-86607002D01*
X166182675Y-86537000D01*
X166211670Y-86466997D01*
X166332534Y-86346134D01*
X166437444Y-86140238D01*
X166473593Y-85912000D01*
X166437444Y-85683762D01*
X166332534Y-85477866D01*
X166211670Y-85357002D01*
X166182675Y-85287000D01*
X166211670Y-85216997D01*
X166332534Y-85096134D01*
X166437444Y-84890238D01*
X166473593Y-84662000D01*
X166437444Y-84433762D01*
X166332534Y-84227866D01*
X166211670Y-84107002D01*
X166182675Y-84037000D01*
X166211670Y-83966997D01*
X166332534Y-83846134D01*
X166437444Y-83640238D01*
X166473593Y-83412000D01*
X166437444Y-83183762D01*
X166332534Y-82977866D01*
X166169134Y-82814466D01*
X165963238Y-82709556D01*
X165963239Y-82709556D01*
X165954329Y-82708145D01*
X165899813Y-82680367D01*
X165735000Y-82515553D01*
X165570183Y-82680368D01*
X165515671Y-82708145D01*
X165506759Y-82709556D01*
X165300867Y-82814465D01*
X165137465Y-82977867D01*
X165032556Y-83183760D01*
X164996407Y-83411999D01*
X161492801Y-83411999D01*
X161560814Y-83326713D01*
X161598957Y-83159600D01*
X161560814Y-82992487D01*
X161453941Y-82858472D01*
X161323177Y-82795500D01*
X161299505Y-82784100D01*
X161128095Y-82784100D01*
X160973660Y-82858471D01*
X160973658Y-82858473D01*
X160866785Y-82992488D01*
X160828643Y-83159600D01*
X159996155Y-83159600D01*
X159960614Y-83003887D01*
X159853741Y-82869872D01*
X159699305Y-82795500D01*
X159527895Y-82795500D01*
X159373460Y-82869871D01*
X159373458Y-82869873D01*
X159266585Y-83003888D01*
X159228443Y-83171000D01*
X158149369Y-83171000D01*
X158131814Y-83094087D01*
X158131814Y-83094086D01*
X158050981Y-82992725D01*
X158030005Y-82919915D01*
X158050981Y-82869275D01*
X158131814Y-82767913D01*
X158131814Y-82767911D01*
X158169957Y-82600800D01*
X158131814Y-82433687D01*
X158024941Y-82299672D01*
X157870505Y-82225300D01*
X157699095Y-82225300D01*
X157544660Y-82299671D01*
X157544658Y-82299673D01*
X157437785Y-82433688D01*
X157399643Y-82600800D01*
X138999111Y-82600800D01*
X138999138Y-82161999D01*
X164697121Y-82161999D01*
X164697121Y-82162000D01*
X164732485Y-82430619D01*
X164732487Y-82430627D01*
X164836168Y-82680936D01*
X164836173Y-82680945D01*
X164847603Y-82695840D01*
X165381444Y-82161999D01*
X165326744Y-82107299D01*
X165460000Y-82107299D01*
X165460000Y-82216701D01*
X165501866Y-82317775D01*
X165579225Y-82395134D01*
X165680299Y-82437000D01*
X165789701Y-82437000D01*
X165890775Y-82395134D01*
X165968134Y-82317775D01*
X166010000Y-82216701D01*
X166010000Y-82161999D01*
X166088553Y-82161999D01*
X166622395Y-82695840D01*
X166633830Y-82680938D01*
X166633832Y-82680935D01*
X166737512Y-82430627D01*
X166737514Y-82430619D01*
X166772879Y-82162000D01*
X166772879Y-82161999D01*
X166737514Y-81893380D01*
X166737512Y-81893374D01*
X166633829Y-81643061D01*
X166622394Y-81628157D01*
X166602907Y-81647645D01*
X166532903Y-81676641D01*
X166483181Y-81656044D01*
X166497740Y-81729213D01*
X166470645Y-81779907D01*
X166088553Y-82161999D01*
X166010000Y-82161999D01*
X166010000Y-82107299D01*
X165968134Y-82006225D01*
X165890775Y-81928866D01*
X165789701Y-81887000D01*
X165680299Y-81887000D01*
X165579225Y-81928866D01*
X165501866Y-82006225D01*
X165460000Y-82107299D01*
X165326744Y-82107299D01*
X164999351Y-81779906D01*
X164970355Y-81709902D01*
X164990946Y-81660189D01*
X164917783Y-81674742D01*
X164867093Y-81647648D01*
X164847603Y-81628158D01*
X164836171Y-81643057D01*
X164836168Y-81643063D01*
X164732487Y-81893372D01*
X164732485Y-81893380D01*
X164697121Y-82161999D01*
X138999138Y-82161999D01*
X138999230Y-80645000D01*
X156993243Y-80645000D01*
X157031385Y-80812111D01*
X157031386Y-80812113D01*
X157138259Y-80946128D01*
X157215477Y-80983314D01*
X157292694Y-81020500D01*
X157292695Y-81020500D01*
X157464105Y-81020500D01*
X157618541Y-80946128D01*
X157725414Y-80812113D01*
X157763557Y-80645000D01*
X157725414Y-80477887D01*
X157633997Y-80363253D01*
X165005500Y-80363253D01*
X165005500Y-81460746D01*
X165005501Y-81460758D01*
X165017132Y-81519227D01*
X165017133Y-81519231D01*
X165017134Y-81519232D01*
X165019413Y-81522643D01*
X165020213Y-81526665D01*
X165020866Y-81528242D01*
X165020552Y-81528371D01*
X165034195Y-81596958D01*
X165007857Y-81636374D01*
X165069355Y-81610902D01*
X165124355Y-81627586D01*
X165127769Y-81629867D01*
X165172231Y-81638711D01*
X165186241Y-81641498D01*
X165186246Y-81641498D01*
X165186252Y-81641500D01*
X165186253Y-81641500D01*
X165527046Y-81641500D01*
X165597049Y-81670496D01*
X165735000Y-81808446D01*
X165872951Y-81670496D01*
X165942954Y-81641500D01*
X166283747Y-81641500D01*
X166283748Y-81641500D01*
X166342231Y-81629867D01*
X166345636Y-81627591D01*
X166349651Y-81626792D01*
X166351242Y-81626134D01*
X166351372Y-81626450D01*
X166419950Y-81612805D01*
X166459381Y-81639149D01*
X166433904Y-81577640D01*
X166450592Y-81522635D01*
X166452867Y-81519231D01*
X166464500Y-81460748D01*
X166464500Y-80363252D01*
X166452867Y-80304769D01*
X166408552Y-80238448D01*
X166408548Y-80238445D01*
X166342233Y-80194134D01*
X166342231Y-80194133D01*
X166342228Y-80194132D01*
X166342227Y-80194132D01*
X166283758Y-80182501D01*
X166283748Y-80182500D01*
X165186252Y-80182500D01*
X165186251Y-80182500D01*
X165186241Y-80182501D01*
X165127772Y-80194132D01*
X165127766Y-80194134D01*
X165061451Y-80238445D01*
X165061445Y-80238451D01*
X165017134Y-80304766D01*
X165017132Y-80304772D01*
X165005501Y-80363241D01*
X165005500Y-80363253D01*
X157633997Y-80363253D01*
X157618541Y-80343872D01*
X157464105Y-80269500D01*
X157292695Y-80269500D01*
X157138260Y-80343871D01*
X157138258Y-80343873D01*
X157031385Y-80477888D01*
X156993243Y-80645000D01*
X138999230Y-80645000D01*
X138999311Y-79300000D01*
X153514843Y-79300000D01*
X153552985Y-79467111D01*
X153552986Y-79467113D01*
X153659859Y-79601128D01*
X153737077Y-79638314D01*
X153814294Y-79675500D01*
X153814295Y-79675500D01*
X153985705Y-79675500D01*
X154140141Y-79601128D01*
X154247014Y-79467113D01*
X154285157Y-79300000D01*
X154247014Y-79132887D01*
X154140141Y-78998872D01*
X153985705Y-78924500D01*
X153814295Y-78924500D01*
X153659860Y-78998871D01*
X153659858Y-78998873D01*
X153552985Y-79132888D01*
X153514843Y-79300000D01*
X138999311Y-79300000D01*
X138999348Y-78688600D01*
X156180443Y-78688600D01*
X156218585Y-78855711D01*
X156218586Y-78855713D01*
X156325459Y-78989728D01*
X156402677Y-79026914D01*
X156479894Y-79064100D01*
X156479895Y-79064100D01*
X156651305Y-79064100D01*
X156805741Y-78989728D01*
X156912614Y-78855713D01*
X156950757Y-78688600D01*
X156912614Y-78521487D01*
X156884314Y-78486000D01*
X163216243Y-78486000D01*
X163254385Y-78653111D01*
X163254386Y-78653113D01*
X163361259Y-78787128D01*
X163438477Y-78824314D01*
X163515694Y-78861500D01*
X163515695Y-78861500D01*
X163687105Y-78861500D01*
X163841541Y-78787128D01*
X163948414Y-78653113D01*
X163986557Y-78486000D01*
X163948414Y-78318887D01*
X163841541Y-78184872D01*
X163687105Y-78110500D01*
X163515695Y-78110500D01*
X163361260Y-78184871D01*
X163361258Y-78184873D01*
X163254385Y-78318888D01*
X163216243Y-78486000D01*
X156884314Y-78486000D01*
X156872323Y-78470964D01*
X156851349Y-78398155D01*
X156871239Y-78362165D01*
X156805388Y-78381136D01*
X156773519Y-78371955D01*
X156651305Y-78313100D01*
X156479895Y-78313100D01*
X156325460Y-78387471D01*
X156325458Y-78387473D01*
X156218585Y-78521488D01*
X156180443Y-78688600D01*
X138999348Y-78688600D01*
X138999400Y-77825600D01*
X147874643Y-77825600D01*
X147912785Y-77992711D01*
X147912786Y-77992713D01*
X148019659Y-78126728D01*
X148096877Y-78163914D01*
X148174094Y-78201100D01*
X148174095Y-78201100D01*
X148345505Y-78201100D01*
X148499941Y-78126728D01*
X148598291Y-78003400D01*
X156815443Y-78003400D01*
X156853585Y-78170511D01*
X156853586Y-78170513D01*
X156865037Y-78184872D01*
X156893875Y-78221034D01*
X156914850Y-78293844D01*
X156894959Y-78329833D01*
X156960811Y-78310863D01*
X156992674Y-78320042D01*
X157114895Y-78378900D01*
X157114896Y-78378900D01*
X157286305Y-78378900D01*
X157440741Y-78304528D01*
X157547614Y-78170513D01*
X157585757Y-78003400D01*
X157547614Y-77836287D01*
X157440741Y-77702272D01*
X157286305Y-77627900D01*
X157114895Y-77627900D01*
X156960460Y-77702271D01*
X156960458Y-77702273D01*
X156853585Y-77836288D01*
X156815443Y-78003400D01*
X148598291Y-78003400D01*
X148606814Y-77992713D01*
X148644957Y-77825600D01*
X148606814Y-77658487D01*
X148499941Y-77524472D01*
X148345505Y-77450100D01*
X148174095Y-77450100D01*
X148019660Y-77524471D01*
X148019658Y-77524473D01*
X147912785Y-77658488D01*
X147874643Y-77825600D01*
X138999400Y-77825600D01*
X138999463Y-76784200D01*
X149373243Y-76784200D01*
X149411385Y-76951311D01*
X149411386Y-76951313D01*
X149518259Y-77085328D01*
X149593284Y-77121458D01*
X149672694Y-77159700D01*
X149769567Y-77159700D01*
X149839571Y-77188696D01*
X149868567Y-77258700D01*
X149866085Y-77280724D01*
X149855843Y-77325600D01*
X149893985Y-77492711D01*
X149893986Y-77492713D01*
X150000859Y-77626728D01*
X150066808Y-77658487D01*
X150155294Y-77701100D01*
X150155295Y-77701100D01*
X150326705Y-77701100D01*
X150481141Y-77626728D01*
X150588014Y-77492713D01*
X150626157Y-77325600D01*
X150588014Y-77158487D01*
X150481141Y-77024472D01*
X150326705Y-76950100D01*
X150229833Y-76950100D01*
X150159829Y-76921104D01*
X150130833Y-76851100D01*
X150133314Y-76829075D01*
X150143557Y-76784200D01*
X150105414Y-76617087D01*
X149998541Y-76483072D01*
X149990916Y-76479400D01*
X155672443Y-76479400D01*
X155710585Y-76646511D01*
X155710586Y-76646513D01*
X155817459Y-76780528D01*
X155894677Y-76817714D01*
X155971894Y-76854900D01*
X155971895Y-76854900D01*
X156143305Y-76854900D01*
X156297741Y-76780528D01*
X156404614Y-76646513D01*
X156442757Y-76479400D01*
X156404614Y-76312287D01*
X156297741Y-76178272D01*
X156143305Y-76103900D01*
X155971895Y-76103900D01*
X155817460Y-76178271D01*
X155817458Y-76178273D01*
X155710585Y-76312288D01*
X155672443Y-76479400D01*
X149990916Y-76479400D01*
X149844105Y-76408700D01*
X149672695Y-76408700D01*
X149518260Y-76483071D01*
X149518258Y-76483073D01*
X149411385Y-76617088D01*
X149373243Y-76784200D01*
X138999463Y-76784200D01*
X138999614Y-74300000D01*
X141114843Y-74300000D01*
X141152985Y-74467111D01*
X141152986Y-74467113D01*
X141259859Y-74601128D01*
X141322531Y-74631309D01*
X141414294Y-74675500D01*
X141414295Y-74675500D01*
X141585705Y-74675500D01*
X141740141Y-74601128D01*
X141847014Y-74467113D01*
X141885157Y-74300000D01*
X142614843Y-74300000D01*
X142652985Y-74467111D01*
X142652986Y-74467113D01*
X142759859Y-74601128D01*
X142822531Y-74631309D01*
X142914294Y-74675500D01*
X142914295Y-74675500D01*
X143085705Y-74675500D01*
X143240141Y-74601128D01*
X143347014Y-74467113D01*
X143368906Y-74371200D01*
X157018643Y-74371200D01*
X157056785Y-74538311D01*
X157056786Y-74538313D01*
X157163659Y-74672328D01*
X157240877Y-74709514D01*
X157318094Y-74746700D01*
X157318095Y-74746700D01*
X157489505Y-74746700D01*
X157643941Y-74672328D01*
X157643944Y-74672323D01*
X157646873Y-74669989D01*
X157651664Y-74668608D01*
X157653991Y-74667488D01*
X157654181Y-74667883D01*
X157719682Y-74649011D01*
X157770327Y-74669989D01*
X157773257Y-74672325D01*
X157773259Y-74672328D01*
X157850477Y-74709514D01*
X157927694Y-74746700D01*
X157927695Y-74746700D01*
X158099105Y-74746700D01*
X158253541Y-74672328D01*
X158253544Y-74672323D01*
X158262263Y-74665372D01*
X158263461Y-74666875D01*
X158319812Y-74635729D01*
X158392623Y-74656703D01*
X158408201Y-74672281D01*
X158408257Y-74672325D01*
X158408259Y-74672328D01*
X158485477Y-74709514D01*
X158562694Y-74746700D01*
X158604730Y-74746700D01*
X158674734Y-74775696D01*
X158703730Y-74845700D01*
X158701248Y-74867730D01*
X158669643Y-75006199D01*
X158707785Y-75173311D01*
X158707786Y-75173313D01*
X158814659Y-75307328D01*
X158891877Y-75344514D01*
X158969094Y-75381700D01*
X158969095Y-75381700D01*
X159140505Y-75381700D01*
X159294941Y-75307328D01*
X159401814Y-75173313D01*
X159439957Y-75006200D01*
X159438738Y-75000859D01*
X159451430Y-74926159D01*
X159492298Y-74889636D01*
X159574341Y-74850128D01*
X159681214Y-74716113D01*
X159719357Y-74549000D01*
X159681214Y-74381887D01*
X159574341Y-74247872D01*
X159419905Y-74173500D01*
X159248495Y-74173500D01*
X159119145Y-74235791D01*
X159043493Y-74240039D01*
X158998789Y-74208320D01*
X158995414Y-74204088D01*
X158995414Y-74204087D01*
X158888541Y-74070072D01*
X158734105Y-73995700D01*
X158562695Y-73995700D01*
X158408257Y-74070072D01*
X158399537Y-74077027D01*
X158398339Y-74075525D01*
X158341981Y-74106671D01*
X158269172Y-74085692D01*
X158253593Y-74070113D01*
X158253542Y-74070072D01*
X158099105Y-73995700D01*
X157927695Y-73995700D01*
X157773254Y-74070074D01*
X157770319Y-74072415D01*
X157765529Y-74073794D01*
X157763209Y-74074912D01*
X157763019Y-74074517D01*
X157697508Y-74093386D01*
X157646881Y-74072415D01*
X157643945Y-74070074D01*
X157489505Y-73995700D01*
X157318095Y-73995700D01*
X157163660Y-74070071D01*
X157163658Y-74070073D01*
X157056785Y-74204088D01*
X157018643Y-74371200D01*
X143368906Y-74371200D01*
X143385157Y-74300000D01*
X143347014Y-74132887D01*
X143240141Y-73998872D01*
X143085705Y-73924500D01*
X142914295Y-73924500D01*
X142759860Y-73998871D01*
X142759858Y-73998873D01*
X142652985Y-74132888D01*
X142614843Y-74300000D01*
X141885157Y-74300000D01*
X141847014Y-74132887D01*
X141740141Y-73998872D01*
X141585705Y-73924500D01*
X141414295Y-73924500D01*
X141259860Y-73998871D01*
X141259858Y-73998873D01*
X141152985Y-74132888D01*
X141114843Y-74300000D01*
X138999614Y-74300000D01*
X138999674Y-73304400D01*
X145639443Y-73304400D01*
X145677585Y-73471511D01*
X145677586Y-73471513D01*
X145784459Y-73605528D01*
X145837199Y-73630926D01*
X145938894Y-73679900D01*
X145938895Y-73679900D01*
X146110305Y-73679900D01*
X146264741Y-73605528D01*
X146371614Y-73471513D01*
X146403960Y-73329800D01*
X153792843Y-73329800D01*
X153830985Y-73496911D01*
X153830986Y-73496913D01*
X153937859Y-73630928D01*
X154015077Y-73668114D01*
X154092294Y-73705300D01*
X154092295Y-73705300D01*
X154263705Y-73705300D01*
X154418141Y-73630928D01*
X154525014Y-73496913D01*
X154563157Y-73329800D01*
X154551562Y-73279000D01*
X166264243Y-73279000D01*
X166302385Y-73446111D01*
X166302386Y-73446113D01*
X166322640Y-73471511D01*
X166362963Y-73522075D01*
X166383938Y-73594886D01*
X166362963Y-73645525D01*
X166302385Y-73721488D01*
X166264243Y-73888600D01*
X166302385Y-74055711D01*
X166302386Y-74055713D01*
X166348187Y-74113146D01*
X166373091Y-74144375D01*
X166394066Y-74217185D01*
X166373091Y-74267825D01*
X166302385Y-74356488D01*
X166264243Y-74523600D01*
X166302385Y-74690711D01*
X166302386Y-74690713D01*
X166317508Y-74709675D01*
X166373091Y-74779375D01*
X166394066Y-74852185D01*
X166373091Y-74902825D01*
X166302385Y-74991488D01*
X166264243Y-75158600D01*
X166302385Y-75325711D01*
X166302386Y-75325713D01*
X166409259Y-75459728D01*
X166486477Y-75496914D01*
X166563694Y-75534100D01*
X166563695Y-75534100D01*
X166735105Y-75534100D01*
X166889541Y-75459728D01*
X166996414Y-75325713D01*
X167034557Y-75158600D01*
X166999772Y-75006199D01*
X166996414Y-74991486D01*
X166925709Y-74902825D01*
X166904733Y-74830015D01*
X166925709Y-74779375D01*
X166996414Y-74690713D01*
X167002198Y-74665372D01*
X167034557Y-74523600D01*
X167002212Y-74381888D01*
X166996414Y-74356486D01*
X166925709Y-74267825D01*
X166904733Y-74195015D01*
X166925709Y-74144375D01*
X166996414Y-74055713D01*
X166996414Y-74055711D01*
X167034557Y-73888600D01*
X166996414Y-73721487D01*
X166935835Y-73645523D01*
X166914859Y-73572716D01*
X166935834Y-73522077D01*
X166996414Y-73446113D01*
X167034557Y-73279000D01*
X166996414Y-73111887D01*
X166889541Y-72977872D01*
X166735105Y-72903500D01*
X166563695Y-72903500D01*
X166409260Y-72977871D01*
X166409258Y-72977873D01*
X166302385Y-73111888D01*
X166264243Y-73279000D01*
X154551562Y-73279000D01*
X154525014Y-73162687D01*
X154418141Y-73028672D01*
X154263705Y-72954300D01*
X154092295Y-72954300D01*
X153937860Y-73028671D01*
X153937858Y-73028673D01*
X153830985Y-73162688D01*
X153792843Y-73329800D01*
X146403960Y-73329800D01*
X146409757Y-73304400D01*
X146371614Y-73137287D01*
X146264741Y-73003272D01*
X146110305Y-72928900D01*
X145938895Y-72928900D01*
X145784460Y-73003271D01*
X145784458Y-73003273D01*
X145677585Y-73137288D01*
X145639443Y-73304400D01*
X138999674Y-73304400D01*
X138999790Y-71400000D01*
X142614843Y-71400000D01*
X142652985Y-71567111D01*
X142652986Y-71567113D01*
X142759859Y-71701128D01*
X142837077Y-71738314D01*
X142914294Y-71775500D01*
X142914295Y-71775500D01*
X143085705Y-71775500D01*
X143240141Y-71701128D01*
X143347014Y-71567113D01*
X143385157Y-71400000D01*
X143361830Y-71297800D01*
X145639443Y-71297800D01*
X145677585Y-71464911D01*
X145677586Y-71464913D01*
X145784459Y-71598928D01*
X145861677Y-71636114D01*
X145938894Y-71673300D01*
X145938895Y-71673300D01*
X146110305Y-71673300D01*
X146264741Y-71598928D01*
X146371614Y-71464913D01*
X146409757Y-71297800D01*
X146371614Y-71130687D01*
X146264741Y-70996672D01*
X146110305Y-70922300D01*
X145938895Y-70922300D01*
X145784460Y-70996671D01*
X145784458Y-70996673D01*
X145677585Y-71130688D01*
X145639443Y-71297800D01*
X143361830Y-71297800D01*
X143347014Y-71232887D01*
X143240141Y-71098872D01*
X143085705Y-71024500D01*
X142914295Y-71024500D01*
X142759860Y-71098871D01*
X142759858Y-71098873D01*
X142652985Y-71232888D01*
X142614843Y-71400000D01*
X138999790Y-71400000D01*
X138999985Y-68173600D01*
X162073243Y-68173600D01*
X162111385Y-68340711D01*
X162111386Y-68340713D01*
X162218259Y-68474728D01*
X162295477Y-68511914D01*
X162372694Y-68549100D01*
X162372695Y-68549100D01*
X162544104Y-68549100D01*
X162544105Y-68549100D01*
X162698541Y-68474728D01*
X162698542Y-68474726D01*
X162707545Y-68470391D01*
X162783198Y-68466143D01*
X162793455Y-68470391D01*
X162802457Y-68474726D01*
X162802459Y-68474728D01*
X162956895Y-68549100D01*
X162956896Y-68549100D01*
X163128304Y-68549100D01*
X163128305Y-68549100D01*
X163279047Y-68476506D01*
X163354698Y-68472259D01*
X163364947Y-68476504D01*
X163512828Y-68547719D01*
X163563318Y-68604217D01*
X163559070Y-68679869D01*
X163512829Y-68726111D01*
X163386657Y-68786873D01*
X163377237Y-68798686D01*
X163310919Y-68835337D01*
X163256883Y-68826155D01*
X163179106Y-68788700D01*
X163179105Y-68788700D01*
X163007695Y-68788700D01*
X162853257Y-68863072D01*
X162844537Y-68870027D01*
X162843339Y-68868525D01*
X162786981Y-68899671D01*
X162714172Y-68878692D01*
X162698593Y-68863113D01*
X162698542Y-68863072D01*
X162544105Y-68788700D01*
X162372695Y-68788700D01*
X162218260Y-68863071D01*
X162218258Y-68863073D01*
X162111385Y-68997088D01*
X162073243Y-69164200D01*
X162111385Y-69331311D01*
X162111386Y-69331313D01*
X162218259Y-69465328D01*
X162261146Y-69485981D01*
X162310744Y-69509866D01*
X162361234Y-69566364D01*
X162364308Y-69621091D01*
X162352643Y-69672199D01*
X162390785Y-69839311D01*
X162390786Y-69839313D01*
X162497659Y-69973328D01*
X162652095Y-70047700D01*
X162662145Y-70052540D01*
X162660791Y-70055351D01*
X162710814Y-70090839D01*
X162723511Y-70165539D01*
X162704396Y-70205238D01*
X162695585Y-70216286D01*
X162657443Y-70383400D01*
X162695585Y-70550511D01*
X162695586Y-70550513D01*
X162802459Y-70684528D01*
X162879677Y-70721714D01*
X162956894Y-70758900D01*
X162956895Y-70758900D01*
X163128305Y-70758900D01*
X163282741Y-70684528D01*
X163389614Y-70550513D01*
X163427757Y-70383400D01*
X163389614Y-70216287D01*
X163376671Y-70200057D01*
X163355695Y-70127249D01*
X163392347Y-70060932D01*
X163411119Y-70049137D01*
X163414103Y-70047700D01*
X163414105Y-70047700D01*
X163568541Y-69973328D01*
X163675414Y-69839313D01*
X163713557Y-69672200D01*
X163688103Y-69560681D01*
X163700795Y-69485981D01*
X163741666Y-69449456D01*
X163866941Y-69389128D01*
X163945036Y-69291200D01*
X164613243Y-69291200D01*
X164651385Y-69458311D01*
X164651386Y-69458313D01*
X164758259Y-69592328D01*
X164835477Y-69629514D01*
X164912694Y-69666700D01*
X164912695Y-69666700D01*
X165084105Y-69666700D01*
X165238541Y-69592328D01*
X165345414Y-69458313D01*
X165383557Y-69291200D01*
X165345414Y-69124087D01*
X165238541Y-68990072D01*
X165084105Y-68915700D01*
X164912695Y-68915700D01*
X164758260Y-68990071D01*
X164758258Y-68990073D01*
X164651385Y-69124088D01*
X164613243Y-69291200D01*
X163945036Y-69291200D01*
X163973814Y-69255113D01*
X164011957Y-69088000D01*
X163973814Y-68920887D01*
X163866941Y-68786872D01*
X163715371Y-68713880D01*
X163664881Y-68657382D01*
X163669129Y-68581730D01*
X163715371Y-68535488D01*
X163727707Y-68529547D01*
X163841541Y-68474728D01*
X163948414Y-68340713D01*
X163986557Y-68173600D01*
X163948414Y-68006487D01*
X163841541Y-67872472D01*
X163749053Y-67827932D01*
X163698564Y-67771434D01*
X163695491Y-67716709D01*
X163707157Y-67665600D01*
X163669014Y-67498487D01*
X163562141Y-67364472D01*
X163407705Y-67290100D01*
X163236295Y-67290100D01*
X163072854Y-67368808D01*
X162997202Y-67373056D01*
X162986946Y-67368808D01*
X162823505Y-67290100D01*
X162652095Y-67290100D01*
X162497660Y-67364471D01*
X162497658Y-67364473D01*
X162390785Y-67498488D01*
X162352643Y-67665600D01*
X162364308Y-67716707D01*
X162351616Y-67791408D01*
X162310745Y-67827933D01*
X162218259Y-67872472D01*
X162218258Y-67872473D01*
X162111385Y-68006488D01*
X162073243Y-68173600D01*
X138999985Y-68173600D01*
X139000033Y-67386200D01*
X154275443Y-67386200D01*
X154313585Y-67553311D01*
X154313586Y-67553313D01*
X154420459Y-67687328D01*
X154497677Y-67724514D01*
X154574894Y-67761700D01*
X154574895Y-67761700D01*
X154746305Y-67761700D01*
X154900741Y-67687328D01*
X155007614Y-67553313D01*
X155045757Y-67386200D01*
X155007614Y-67219087D01*
X154903087Y-67088014D01*
X158648981Y-67088014D01*
X158687123Y-67255125D01*
X158687124Y-67255127D01*
X158793997Y-67389142D01*
X158871215Y-67426328D01*
X158948432Y-67463514D01*
X158948433Y-67463514D01*
X159119843Y-67463514D01*
X159274279Y-67389142D01*
X159381152Y-67255127D01*
X159419295Y-67088014D01*
X159381152Y-66920901D01*
X159274279Y-66786886D01*
X159119843Y-66712514D01*
X158948433Y-66712514D01*
X158793998Y-66786885D01*
X158793996Y-66786887D01*
X158687123Y-66920902D01*
X158648981Y-67088014D01*
X154903087Y-67088014D01*
X154900741Y-67085072D01*
X154746305Y-67010700D01*
X154574895Y-67010700D01*
X154420460Y-67085071D01*
X154420458Y-67085073D01*
X154313585Y-67219088D01*
X154275443Y-67386200D01*
X139000033Y-67386200D01*
X139000177Y-64998600D01*
X155342243Y-64998600D01*
X155380385Y-65165711D01*
X155380386Y-65165713D01*
X155487259Y-65299728D01*
X155564477Y-65336914D01*
X155641694Y-65374100D01*
X155641695Y-65374100D01*
X155813105Y-65374100D01*
X155967541Y-65299728D01*
X156005599Y-65252004D01*
X156071915Y-65215353D01*
X156144725Y-65236328D01*
X156160398Y-65252001D01*
X156198459Y-65299728D01*
X156275677Y-65336914D01*
X156352894Y-65374100D01*
X156352895Y-65374100D01*
X156524305Y-65374100D01*
X156678741Y-65299728D01*
X156785614Y-65165713D01*
X156823757Y-64998600D01*
X156823756Y-64998599D01*
X156824836Y-64993871D01*
X156868683Y-64932074D01*
X156921354Y-64916900D01*
X156930705Y-64916900D01*
X157085141Y-64842528D01*
X157192014Y-64708513D01*
X157230157Y-64541400D01*
X157192014Y-64374287D01*
X157085141Y-64240272D01*
X157024772Y-64211200D01*
X158009243Y-64211200D01*
X158047385Y-64378311D01*
X158047386Y-64378313D01*
X158154259Y-64512328D01*
X158214628Y-64541400D01*
X158308694Y-64586700D01*
X158308695Y-64586700D01*
X158480105Y-64586700D01*
X158634541Y-64512328D01*
X158741414Y-64378313D01*
X158779557Y-64211200D01*
X158744745Y-64058681D01*
X158757437Y-63983981D01*
X158819233Y-63940134D01*
X158841263Y-63937652D01*
X158911905Y-63937652D01*
X159066341Y-63863280D01*
X159173214Y-63729265D01*
X159208151Y-63576200D01*
X163444843Y-63576200D01*
X163482985Y-63743311D01*
X163482986Y-63743313D01*
X163589859Y-63877328D01*
X163657851Y-63910071D01*
X163744294Y-63951700D01*
X163744295Y-63951700D01*
X163915705Y-63951700D01*
X164070141Y-63877328D01*
X164177014Y-63743313D01*
X164215157Y-63576200D01*
X164177014Y-63409087D01*
X164070141Y-63275072D01*
X163915705Y-63200700D01*
X163744295Y-63200700D01*
X163589860Y-63275071D01*
X163589858Y-63275073D01*
X163482985Y-63409088D01*
X163444843Y-63576200D01*
X159208151Y-63576200D01*
X159211357Y-63562152D01*
X159173214Y-63395039D01*
X159066341Y-63261024D01*
X158911905Y-63186652D01*
X158740495Y-63186652D01*
X158586060Y-63261023D01*
X158586058Y-63261025D01*
X158479185Y-63395040D01*
X158447722Y-63532888D01*
X158441043Y-63562152D01*
X158472506Y-63700000D01*
X158475855Y-63714670D01*
X158463163Y-63789371D01*
X158401367Y-63833218D01*
X158379337Y-63835700D01*
X158308695Y-63835700D01*
X158154260Y-63910071D01*
X158154258Y-63910073D01*
X158047385Y-64044088D01*
X158009243Y-64211200D01*
X157024772Y-64211200D01*
X156930705Y-64165900D01*
X156759295Y-64165900D01*
X156604860Y-64240271D01*
X156604855Y-64240275D01*
X156541401Y-64319845D01*
X156475085Y-64356497D01*
X156402275Y-64335521D01*
X156386599Y-64319845D01*
X156323144Y-64240275D01*
X156323142Y-64240273D01*
X156323141Y-64240272D01*
X156168705Y-64165900D01*
X155997295Y-64165900D01*
X155842860Y-64240271D01*
X155842858Y-64240273D01*
X155735985Y-64374288D01*
X155695361Y-64552275D01*
X155690657Y-64551201D01*
X155668847Y-64603858D01*
X155641798Y-64623050D01*
X155487258Y-64697472D01*
X155487258Y-64697473D01*
X155380385Y-64831488D01*
X155342243Y-64998600D01*
X139000177Y-64998600D01*
X139000256Y-63700000D01*
X145914843Y-63700000D01*
X145952985Y-63867111D01*
X145952986Y-63867113D01*
X146059859Y-64001128D01*
X146137077Y-64038314D01*
X146214294Y-64075500D01*
X146214295Y-64075500D01*
X146385705Y-64075500D01*
X146540141Y-64001128D01*
X146647014Y-63867113D01*
X146685157Y-63700000D01*
X146647014Y-63532887D01*
X146540141Y-63398872D01*
X146385705Y-63324500D01*
X146214295Y-63324500D01*
X146059860Y-63398871D01*
X146059858Y-63398873D01*
X145952985Y-63532888D01*
X145914843Y-63700000D01*
X139000256Y-63700000D01*
X139000382Y-61620400D01*
X162251043Y-61620400D01*
X162289185Y-61787511D01*
X162289186Y-61787513D01*
X162396059Y-61921528D01*
X162473277Y-61958714D01*
X162550494Y-61995900D01*
X162550495Y-61995900D01*
X162721905Y-61995900D01*
X162876341Y-61921528D01*
X162983214Y-61787513D01*
X163021357Y-61620400D01*
X162983214Y-61453287D01*
X162876341Y-61319272D01*
X162721905Y-61244900D01*
X162550495Y-61244900D01*
X162396060Y-61319271D01*
X162396058Y-61319273D01*
X162289185Y-61453288D01*
X162251043Y-61620400D01*
X139000382Y-61620400D01*
X139000425Y-60918719D01*
X146896124Y-60918719D01*
X146934266Y-61085830D01*
X146934267Y-61085832D01*
X147041140Y-61219847D01*
X147118358Y-61257033D01*
X147195575Y-61294219D01*
X147195576Y-61294219D01*
X147366986Y-61294219D01*
X147521422Y-61219847D01*
X147628295Y-61085832D01*
X147666438Y-60918719D01*
X147628295Y-60751606D01*
X147521422Y-60617591D01*
X147366986Y-60543219D01*
X147195576Y-60543219D01*
X147041141Y-60617590D01*
X147041139Y-60617592D01*
X146934266Y-60751607D01*
X146896124Y-60918719D01*
X139000425Y-60918719D01*
X139000473Y-60121800D01*
X148941443Y-60121800D01*
X148979585Y-60288911D01*
X148979586Y-60288913D01*
X149086459Y-60422928D01*
X149163677Y-60460114D01*
X149240894Y-60497300D01*
X149240895Y-60497300D01*
X149412305Y-60497300D01*
X149566741Y-60422928D01*
X149673614Y-60288913D01*
X149711757Y-60121800D01*
X149673614Y-59954687D01*
X149566741Y-59820672D01*
X149412305Y-59746300D01*
X149240895Y-59746300D01*
X149086460Y-59820671D01*
X149086458Y-59820673D01*
X148979585Y-59954688D01*
X148941443Y-60121800D01*
X139000473Y-60121800D01*
X139000492Y-59809670D01*
X139000525Y-59809345D01*
X139000522Y-59799439D01*
X139000524Y-59799437D01*
X139000500Y-59700000D01*
X141514843Y-59700000D01*
X141552985Y-59867111D01*
X141552986Y-59867113D01*
X141659859Y-60001128D01*
X141737077Y-60038314D01*
X141814294Y-60075500D01*
X141814295Y-60075500D01*
X141985705Y-60075500D01*
X142140141Y-60001128D01*
X142247014Y-59867113D01*
X142285157Y-59700000D01*
X142247014Y-59532887D01*
X142140141Y-59398872D01*
X141985705Y-59324500D01*
X141814295Y-59324500D01*
X141659860Y-59398871D01*
X141659858Y-59398873D01*
X141552985Y-59532888D01*
X141514843Y-59700000D01*
X139000500Y-59700000D01*
X139000500Y-59698556D01*
X139000506Y-59600474D01*
X139000505Y-59600472D01*
X139000506Y-59590741D01*
X139000473Y-59590415D01*
X139000382Y-59207400D01*
X159533243Y-59207400D01*
X159571385Y-59374511D01*
X159571386Y-59374513D01*
X159678259Y-59508528D01*
X159731197Y-59534021D01*
X159781687Y-59590519D01*
X159783831Y-59603137D01*
X159784761Y-59602925D01*
X159825385Y-59780911D01*
X159825386Y-59780913D01*
X159932259Y-59914928D01*
X160009477Y-59952114D01*
X160086694Y-59989300D01*
X160086695Y-59989300D01*
X160258104Y-59989300D01*
X160258105Y-59989300D01*
X160396146Y-59922822D01*
X160471798Y-59918575D01*
X160482042Y-59922817D01*
X160620095Y-59989300D01*
X160620096Y-59989300D01*
X160791505Y-59989300D01*
X160945941Y-59914928D01*
X161052814Y-59780913D01*
X161087611Y-59628457D01*
X161131458Y-59566661D01*
X161141162Y-59561297D01*
X161250741Y-59508528D01*
X161357614Y-59374513D01*
X161395757Y-59207400D01*
X161357614Y-59040287D01*
X161250741Y-58906272D01*
X161096305Y-58831900D01*
X160924895Y-58831900D01*
X160786854Y-58898376D01*
X160711202Y-58902624D01*
X160700946Y-58898376D01*
X160562905Y-58831900D01*
X160391495Y-58831900D01*
X160240754Y-58904492D01*
X160165102Y-58908740D01*
X160154846Y-58904492D01*
X160004105Y-58831900D01*
X159832695Y-58831900D01*
X159678260Y-58906271D01*
X159678258Y-58906273D01*
X159571385Y-59040288D01*
X159533243Y-59207400D01*
X139000382Y-59207400D01*
X139000286Y-58801000D01*
X152319643Y-58801000D01*
X152357785Y-58968111D01*
X152357786Y-58968113D01*
X152464659Y-59102128D01*
X152541877Y-59139314D01*
X152619094Y-59176500D01*
X152619095Y-59176500D01*
X152790505Y-59176500D01*
X152944941Y-59102128D01*
X153051814Y-58968113D01*
X153089957Y-58801000D01*
X153051814Y-58633887D01*
X152944941Y-58499872D01*
X152790505Y-58425500D01*
X152619095Y-58425500D01*
X152464660Y-58499871D01*
X152464658Y-58499873D01*
X152357785Y-58633888D01*
X152319643Y-58801000D01*
X139000286Y-58801000D01*
X138999930Y-57300000D01*
X142614843Y-57300000D01*
X142652985Y-57467111D01*
X142652986Y-57467113D01*
X142759859Y-57601128D01*
X142817587Y-57628928D01*
X142914294Y-57675500D01*
X142914295Y-57675500D01*
X143085705Y-57675500D01*
X143122044Y-57658000D01*
X154075693Y-57658000D01*
X154113835Y-57825111D01*
X154113836Y-57825113D01*
X154220709Y-57959128D01*
X154297927Y-57996314D01*
X154375144Y-58033500D01*
X154375145Y-58033500D01*
X154546555Y-58033500D01*
X154700991Y-57959128D01*
X154807864Y-57825113D01*
X154846007Y-57658000D01*
X154807864Y-57490887D01*
X154700991Y-57356872D01*
X154663642Y-57338886D01*
X154546555Y-57282500D01*
X154375145Y-57282500D01*
X154220710Y-57356871D01*
X154220708Y-57356873D01*
X154113835Y-57490888D01*
X154075693Y-57658000D01*
X143122044Y-57658000D01*
X143240141Y-57601128D01*
X143347014Y-57467113D01*
X143385157Y-57300000D01*
X143347014Y-57132887D01*
X143240141Y-56998872D01*
X143188439Y-56973974D01*
X143085705Y-56924500D01*
X142914295Y-56924500D01*
X142759860Y-56998871D01*
X142759858Y-56998873D01*
X142652985Y-57132888D01*
X142614843Y-57300000D01*
X138999930Y-57300000D01*
X138999774Y-56642000D01*
X150084443Y-56642000D01*
X150122585Y-56809111D01*
X150122586Y-56809113D01*
X150229459Y-56943128D01*
X150282397Y-56968621D01*
X150332887Y-57025119D01*
X150335031Y-57037737D01*
X150335961Y-57037525D01*
X150376585Y-57215511D01*
X150376586Y-57215513D01*
X150483459Y-57349528D01*
X150560677Y-57386714D01*
X150637894Y-57423900D01*
X150637895Y-57423900D01*
X150809305Y-57423900D01*
X150963741Y-57349528D01*
X151070614Y-57215513D01*
X151108757Y-57048400D01*
X151108756Y-57048397D01*
X151109584Y-57044772D01*
X151153430Y-56982976D01*
X151163124Y-56977617D01*
X151234744Y-56943128D01*
X151341617Y-56809113D01*
X151379760Y-56642000D01*
X155045840Y-56642000D01*
X155083982Y-56809111D01*
X155083983Y-56809113D01*
X155190856Y-56943128D01*
X155262450Y-56977605D01*
X155312941Y-57034102D01*
X155316015Y-57044771D01*
X155354985Y-57215511D01*
X155354986Y-57215513D01*
X155461859Y-57349528D01*
X155539077Y-57386714D01*
X155616294Y-57423900D01*
X155616295Y-57423900D01*
X155787705Y-57423900D01*
X155942141Y-57349528D01*
X156049014Y-57215513D01*
X156087157Y-57048400D01*
X156087156Y-57048399D01*
X156089639Y-57037525D01*
X156095050Y-57038760D01*
X156116153Y-56987813D01*
X156143203Y-56968621D01*
X156196141Y-56943128D01*
X156303014Y-56809113D01*
X156317967Y-56743600D01*
X160701643Y-56743600D01*
X160739785Y-56910713D01*
X160790235Y-56973976D01*
X160811210Y-57046786D01*
X160790235Y-57097424D01*
X160739785Y-57160686D01*
X160701643Y-57327800D01*
X160739785Y-57494911D01*
X160739786Y-57494913D01*
X160846659Y-57628928D01*
X160907028Y-57658000D01*
X161001094Y-57703300D01*
X161152627Y-57703300D01*
X161222631Y-57732296D01*
X161240855Y-57765268D01*
X161242944Y-57764262D01*
X161247782Y-57774309D01*
X161247786Y-57774314D01*
X161354659Y-57908329D01*
X161407397Y-57933726D01*
X161509094Y-57982701D01*
X161509095Y-57982701D01*
X161680505Y-57982701D01*
X161834941Y-57908329D01*
X161941814Y-57774314D01*
X161979957Y-57607201D01*
X161941814Y-57440088D01*
X161901490Y-57389523D01*
X161880516Y-57316715D01*
X161901492Y-57266075D01*
X161941814Y-57215513D01*
X161979957Y-57048400D01*
X161974160Y-57023000D01*
X163927443Y-57023000D01*
X163965585Y-57190111D01*
X163965586Y-57190113D01*
X163985840Y-57215511D01*
X164026163Y-57266075D01*
X164047138Y-57338886D01*
X164026163Y-57389525D01*
X163965585Y-57465488D01*
X163927443Y-57632600D01*
X163965585Y-57799711D01*
X163965586Y-57799713D01*
X164072459Y-57933728D01*
X164125199Y-57959126D01*
X164226894Y-58008100D01*
X164226895Y-58008100D01*
X164398305Y-58008100D01*
X164552741Y-57933728D01*
X164659614Y-57799713D01*
X164664051Y-57780271D01*
X164707896Y-57718475D01*
X164760569Y-57703300D01*
X164906305Y-57703300D01*
X165060741Y-57628928D01*
X165167614Y-57494913D01*
X165205757Y-57327800D01*
X165167614Y-57160687D01*
X165167614Y-57160686D01*
X165117165Y-57097426D01*
X165096188Y-57024616D01*
X165117165Y-56973974D01*
X165167614Y-56910713D01*
X165174330Y-56881287D01*
X165205757Y-56743600D01*
X165167614Y-56576487D01*
X165060741Y-56442472D01*
X164906305Y-56368100D01*
X164734895Y-56368100D01*
X164580460Y-56442471D01*
X164580455Y-56442475D01*
X164473586Y-56576485D01*
X164468745Y-56586538D01*
X164464902Y-56584687D01*
X164431090Y-56632331D01*
X164378427Y-56647500D01*
X164226895Y-56647500D01*
X164072460Y-56721871D01*
X164072458Y-56721873D01*
X163965585Y-56855888D01*
X163927443Y-57023000D01*
X161974160Y-57023000D01*
X161941814Y-56881287D01*
X161834941Y-56747272D01*
X161680505Y-56672900D01*
X161534770Y-56672900D01*
X161464766Y-56643904D01*
X161438252Y-56595931D01*
X161433814Y-56576487D01*
X161433812Y-56576485D01*
X161326941Y-56442472D01*
X161172505Y-56368100D01*
X161001095Y-56368100D01*
X160846660Y-56442471D01*
X160846658Y-56442473D01*
X160739785Y-56576488D01*
X160701643Y-56743600D01*
X156317967Y-56743600D01*
X156341157Y-56642000D01*
X156303014Y-56474887D01*
X156196141Y-56340872D01*
X156041705Y-56266500D01*
X155870295Y-56266500D01*
X155870294Y-56266500D01*
X155736452Y-56330954D01*
X155660800Y-56335202D01*
X155650544Y-56330954D01*
X155516702Y-56266500D01*
X155345292Y-56266500D01*
X155190857Y-56340871D01*
X155190855Y-56340873D01*
X155083982Y-56474888D01*
X155045840Y-56642000D01*
X151379760Y-56642000D01*
X151341617Y-56474887D01*
X151234744Y-56340872D01*
X151080308Y-56266500D01*
X150908898Y-56266500D01*
X150908897Y-56266500D01*
X150775055Y-56330954D01*
X150699403Y-56335202D01*
X150689147Y-56330954D01*
X150555305Y-56266500D01*
X150383895Y-56266500D01*
X150229460Y-56340871D01*
X150229458Y-56340873D01*
X150122585Y-56474888D01*
X150084443Y-56642000D01*
X138999774Y-56642000D01*
X138998839Y-52700000D01*
X140414843Y-52700000D01*
X140452985Y-52867111D01*
X140452986Y-52867113D01*
X140559859Y-53001128D01*
X140637077Y-53038314D01*
X140714294Y-53075500D01*
X140714295Y-53075500D01*
X140885705Y-53075500D01*
X141040141Y-53001128D01*
X141147014Y-52867113D01*
X141185157Y-52700000D01*
X141147014Y-52532887D01*
X141040141Y-52398872D01*
X140885705Y-52324500D01*
X140714295Y-52324500D01*
X140559860Y-52398871D01*
X140559858Y-52398873D01*
X140452985Y-52532888D01*
X140414843Y-52700000D01*
X138998839Y-52700000D01*
X138998579Y-51604441D01*
X138998974Y-51595581D01*
X139000521Y-51578323D01*
X139031289Y-51235087D01*
X139034430Y-51217706D01*
X139129170Y-50872981D01*
X139135357Y-50856425D01*
X139145321Y-50835640D01*
X139289895Y-50534050D01*
X139298924Y-50518865D01*
X139508337Y-50229109D01*
X139519917Y-50215779D01*
X139777531Y-49967883D01*
X139791292Y-49956828D01*
X140088893Y-49758698D01*
X140104408Y-49750264D01*
X140432484Y-49608230D01*
X140449265Y-49602684D01*
X140797378Y-49521263D01*
X140814860Y-49518793D01*
X141171000Y-49500629D01*
X141176043Y-49500500D01*
X141188476Y-49500500D01*
X141192281Y-49500573D01*
G37*
%TD.AperFunction*%
%TD*%
M02*
