M48
; DRILL file {KiCad 8.0.3} date 2024-09-21T17:28:28+0200
; FORMAT={-:-/ absolute / inch / decimal}
; #@! TF.CreationDate,2024-09-21T17:28:28+02:00
; #@! TF.GenerationSoftware,Kicad,Pcbnew,8.0.3
; #@! TF.FileFunction,Plated,1,4,PTH
FMAT,2
INCH
; #@! TA.AperFunction,Plated,PTH,ViaDrill
T1C0.0079
; #@! TA.AperFunction,Plated,PTH,ComponentDrill
T2C0.0217
; #@! TA.AperFunction,Plated,PTH,ComponentDrill
T3C0.0256
%
G90
G05
T1
X5.5433Y-2.0748
X5.553Y-3.265
X5.5709Y-2.9252
X5.572Y-2.754
X5.5866Y-2.3504
X5.592Y-3.291
X5.592Y-3.309
X5.625Y-3.377
X5.629Y-2.045
X5.6299Y-2.2559
X5.6299Y-2.811
X5.6299Y-2.9252
X5.63Y-3.173
X5.6308Y-2.5054
X5.631Y-3.223
X5.668Y-3.377
X5.709Y-3.377
X5.731Y-3.69
X5.749Y-2.807
X5.749Y-2.886
X5.7598Y-2.5079
X5.78Y-3.69
X5.785Y-2.973
X5.798Y-3.421
X5.798Y-3.489
X5.7985Y-2.3984
X5.827Y-3.69
X5.83Y-2.222
X5.837Y-2.258
X5.837Y-2.479
X5.837Y-3.064
X5.856Y-2.205
X5.856Y-2.235
X5.857Y-3.14
X5.857Y-3.169
X5.857Y-3.209
X5.857Y-3.238
X5.872Y-2.26
X5.879Y-2.367
X5.879Y-2.479
X5.886Y-3.14
X5.886Y-3.169
X5.886Y-3.209
X5.886Y-3.238
X5.887Y-2.235
X5.896Y-3.023
X5.915Y-3.0443
X5.924Y-2.23
X5.926Y-3.14
X5.926Y-3.169
X5.926Y-3.209
X5.926Y-3.238
X5.934Y-2.246
X5.9447Y-2.23
X5.955Y-3.14
X5.955Y-3.169
X5.955Y-3.209
X5.955Y-3.238
X5.965Y-3.405
X5.969Y-3.322
X5.992Y-3.365
X6.0015Y-3.4075
X6.012Y-2.315
X6.012Y-2.51
X6.018Y-3.465
X6.018Y-3.485
X6.0591Y-3.122
X6.064Y-2.724
X6.07Y-2.887
X6.081Y-3.457
X6.0811Y-2.27
X6.089Y-2.653
X6.0996Y-3.2766
X6.11Y-3.532
X6.1193Y-2.23
X6.13Y-2.246
X6.131Y-2.559
X6.131Y-2.828
X6.137Y-3.278
X6.137Y-3.461
X6.14Y-2.23
X6.144Y-3.011
X6.145Y-2.541
X6.147Y-3.562
X6.156Y-2.764
X6.159Y-2.559
X6.161Y-3.353
X6.163Y-3.14
X6.164Y-3.098
X6.1666Y-3.043
X6.175Y-2.541
X6.178Y-3.501
X6.179Y-2.806
X6.182Y-2.755
X6.182Y-2.236
X6.185Y-3.378
X6.189Y-3.071
X6.196Y-3.175
X6.197Y-2.257
X6.197Y-2.928
X6.201Y-2.806
X6.212Y-2.205
X6.212Y-2.236
X6.212Y-3.252
X6.212Y-3.278
X6.217Y-2.755
X6.221Y-2.928
X6.223Y-2.806
X6.223Y-3.48
X6.223Y-3.521
X6.224Y-3.341
X6.2256Y-3.3763
X6.23Y-2.342
X6.232Y-2.254
X6.233Y-2.221
X6.236Y-2.528
X6.241Y-3.442
X6.246Y-2.928
X6.2476Y-3.3463
X6.249Y-3.322
X6.253Y-2.5024
X6.2612Y-2.6413
X6.262Y-2.953
X6.273Y-2.935
X6.276Y-3.419
X6.284Y-3.2744
X6.296Y-2.331
X6.3Y-3.559
X6.306Y-2.347
X6.315Y-3.346
X6.318Y-2.331
X6.327Y-2.347
X6.329Y-3.416
X6.332Y-3.036
X6.337Y-3.345
X6.339Y-2.331
X6.339Y-3.443
X6.34Y-2.511
X6.34Y-2.551
X6.342Y-2.234
X6.342Y-2.257
X6.347Y-3.013
X6.347Y-3.059
X6.347Y-3.274
X6.351Y-3.42
X6.36Y-2.531
X6.362Y-2.246
X6.362Y-2.268
X6.362Y-3.036
X6.378Y-3.013
X6.378Y-3.059
X6.38Y-2.511
X6.38Y-2.551
X6.391Y-3.036
X6.396Y-2.684
X6.396Y-2.723
X6.396Y-3.432
X6.402Y-2.629
X6.403Y-2.426
X6.405Y-3.477
X6.407Y-2.664
X6.407Y-2.743
X6.4082Y-3.3358
X6.411Y-2.591
X6.411Y-3.547
X6.419Y-2.684
X6.419Y-2.771
X6.419Y-3.184
X6.421Y-2.723
X6.422Y-2.476
X6.428Y-2.617
X6.43Y-2.664
X6.4303Y-2.743
X6.441Y-2.684
X6.441Y-3.09
X6.442Y-2.72
X6.4492Y-3.3502
X6.45Y-2.331
X6.45Y-2.353
X6.45Y-2.375
X6.45Y-2.503
X6.45Y-2.593
X6.45Y-3.537
X6.4512Y-3.3802
X6.452Y-2.626
X6.452Y-3.503
X6.453Y-2.795
X6.453Y-2.825
X6.4617Y-2.743
X6.469Y-2.245
X6.469Y-2.269
X6.47Y-3.459
X6.484Y-2.813
X6.489Y-2.234
X6.489Y-2.257
X6.496Y-2.728
X6.503Y-3.047
X6.506Y-2.813
X6.526Y-3.047
X6.528Y-2.813
X6.553Y-2.773
X6.553Y-2.795
X6.561Y-2.885
X6.561Y-2.909
X6.561Y-2.934
X6.561Y-2.959
X6.563Y-3.051
X6.563Y-3.072
X6.563Y-3.094
X6.586Y-2.783
X6.59Y-2.608
X6.59Y-2.693
X6.603Y-2.765
X6.604Y-2.541
T2
X6.525Y-3.1855
X6.525Y-3.2347
X6.525Y-3.2839
X6.525Y-3.3331
X6.525Y-3.3824
X6.525Y-3.4316
X6.525Y-3.4808
X6.525Y-3.53
T3
G00X5.7989Y-1.998
M15
G01X5.7989Y-1.9705
M16
G05
G00X5.8489Y-2.1622
M15
G01X5.8489Y-2.1465
M16
G05
G00X6.215Y-2.1622
M15
G01X6.215Y-2.1465
M16
G05
G00X6.265Y-1.998
M15
G01X6.265Y-1.9705
M16
G05
M30
