ISO-10303-21;
HEADER;
FILE_DESCRIPTION(('STEP AP242'),'1');
FILE_NAME('p70-2300045r.stp','2023-09-14T08:01:00',('TraceParts'),('TraceParts S.A.'),'Spatial InterOp 3D',' ',' ');
FILE_SCHEMA(('AP242_MANAGED_MODEL_BASED_3D_ENGINEERING_MIM_LF  {1 0 10303 442 1 1 4}'));
ENDSEC;
DATA;
#1=MECHANICAL_DESIGN_GEOMETRIC_PRESENTATION_REPRESENTATION(' ',(#10),#6);
#2=PRODUCT_DEFINITION_CONTEXT('',#11,'design');
#3=APPLICATION_PROTOCOL_DEFINITION('INTERNATIONAL STANDARD','ap242_managed_model_based_3d_engineering',2014,#11);
#4=PRODUCT_CATEGORY_RELATIONSHIP('NONE','NONE',#12,#13);
#5=SHAPE_DEFINITION_REPRESENTATION(#14,#15);
#6= (GEOMETRIC_REPRESENTATION_CONTEXT(3)GLOBAL_UNCERTAINTY_ASSIGNED_CONTEXT((#18))GLOBAL_UNIT_ASSIGNED_CONTEXT((#20,#21,#22))REPRESENTATION_CONTEXT('NONE','WORKSPACE'));
#10=STYLED_ITEM('',(#24),#25);
#11=APPLICATION_CONTEXT('managed model based 3d engineering');
#12=PRODUCT_CATEGORY('part','NONE');
#13=PRODUCT_RELATED_PRODUCT_CATEGORY('detail',' ',(#26));
#14=PRODUCT_DEFINITION_SHAPE('NONE','NONE',#27);
#15=ADVANCED_BREP_SHAPE_REPRESENTATION('p70-2300045r',(#25,#28),#6);
#18=UNCERTAINTY_MEASURE_WITH_UNIT(LENGTH_MEASURE(1.0E-06),#20,'','');
#20= (CONVERSION_BASED_UNIT('MILLIMETRE',#31)LENGTH_UNIT()NAMED_UNIT(#34));
#21= (NAMED_UNIT(#36)PLANE_ANGLE_UNIT()SI_UNIT($,.RADIAN.));
#22= (NAMED_UNIT(#36)SOLID_ANGLE_UNIT()SI_UNIT($,.STERADIAN.));
#24=PRESENTATION_STYLE_ASSIGNMENT((#42));
#25=MANIFOLD_SOLID_BREP('p70-2300045r',#43);
#26=PRODUCT('p70-2300045r','','PART--DESC',(#44));
#27=PRODUCT_DEFINITION('','NONE',#45,#2);
#28=AXIS2_PLACEMENT_3D('',#46,#47,#48);
#31=LENGTH_MEASURE_WITH_UNIT(LENGTH_MEASURE(1.0),#49);
#34=DIMENSIONAL_EXPONENTS(1.0,0.0,0.0,0.0,0.0,0.0,0.0);
#36=DIMENSIONAL_EXPONENTS(0.0,0.0,0.0,0.0,0.0,0.0,0.0);
#42=SURFACE_STYLE_USAGE(.BOTH.,#50);
#43=CLOSED_SHELL('',(#51,#52,#53,#54,#55,#56,#57,#58,#59,#60,#61,#62,#63));
#44=PRODUCT_CONTEXT('',#11,'mechanical');
#45=PRODUCT_DEFINITION_FORMATION_WITH_SPECIFIED_SOURCE(' ','NONE',#26,.NOT_KNOWN.);
#46=CARTESIAN_POINT('',(0.0,0.0,0.0));
#47=DIRECTION('',(0.0,0.0,1.0));
#48=DIRECTION('',(1.0,0.0,0.0));
#49= (NAMED_UNIT(#34)LENGTH_UNIT()SI_UNIT(.MILLI.,.METRE.));
#50=SURFACE_SIDE_STYLE('',(#65));
#51=ADVANCED_FACE('',(#66),#67,.T.);
#52=ADVANCED_FACE('',(#68),#69,.T.);
#53=ADVANCED_FACE('',(#70),#71,.T.);
#54=ADVANCED_FACE('',(#72),#73,.T.);
#55=ADVANCED_FACE('',(#74),#75,.T.);
#56=ADVANCED_FACE('',(#76,#77),#78,.F.);
#57=ADVANCED_FACE('',(#79),#80,.T.);
#58=ADVANCED_FACE('',(#81),#82,.F.);
#59=ADVANCED_FACE('',(#83),#84,.T.);
#60=ADVANCED_FACE('',(#85),#86,.T.);
#61=ADVANCED_FACE('',(#87,#88),#89,.T.);
#62=ADVANCED_FACE('',(#90),#91,.T.);
#63=ADVANCED_FACE('',(#92),#93,.T.);
#65=SURFACE_STYLE_FILL_AREA(#94);
#66=FACE_OUTER_BOUND('',#95,.T.);
#67=SPHERICAL_SURFACE('',#96,0.45);
#68=FACE_OUTER_BOUND('',#97,.T.);
#69=CYLINDRICAL_SURFACE('',#98,0.45);
#70=FACE_OUTER_BOUND('',#99,.T.);
#71=TOROIDAL_SURFACE('',#100,0.55,0.2);
#72=FACE_OUTER_BOUND('',#101,.T.);
#73=CYLINDRICAL_SURFACE('',#102,0.75);
#74=FACE_OUTER_BOUND('',#103,.T.);
#75=CYLINDRICAL_SURFACE('',#104,0.35);
#76=FACE_OUTER_BOUND('',#105,.T.);
#77=FACE_BOUND('',#106,.T.);
#78=PLANE('',#107);
#79=FACE_OUTER_BOUND('',#108,.T.);
#80=CYLINDRICAL_SURFACE('',#109,0.35);
#81=FACE_OUTER_BOUND('',#110,.T.);
#82=PLANE('',#111);
#83=FACE_OUTER_BOUND('',#112,.T.);
#84=CYLINDRICAL_SURFACE('',#113,0.75);
#85=FACE_OUTER_BOUND('',#114,.T.);
#86=TOROIDAL_SURFACE('',#115,0.55,0.2);
#87=FACE_OUTER_BOUND('',#116,.T.);
#88=FACE_BOUND('',#117,.T.);
#89=PLANE('',#118);
#90=FACE_OUTER_BOUND('',#119,.T.);
#91=CYLINDRICAL_SURFACE('',#120,0.45);
#92=FACE_OUTER_BOUND('',#121,.T.);
#93=SPHERICAL_SURFACE('',#122,0.45);
#94=FILL_AREA_STYLE('',(#123));
#95=EDGE_LOOP('',(#124,#125,#126));
#96=AXIS2_PLACEMENT_3D('',#127,#128,#129);
#97=EDGE_LOOP('',(#130,#131,#132,#133));
#98=AXIS2_PLACEMENT_3D('',#134,#135,#136);
#99=EDGE_LOOP('',(#137,#138,#139,#140));
#100=AXIS2_PLACEMENT_3D('',#141,#142,#143);
#101=EDGE_LOOP('',(#144,#145,#146,#147));
#102=AXIS2_PLACEMENT_3D('',#148,#149,#150);
#103=EDGE_LOOP('',(#151,#152,#153,#154));
#104=AXIS2_PLACEMENT_3D('',#155,#156,#157);
#105=EDGE_LOOP('',(#158,#159));
#106=EDGE_LOOP('',(#160,#161));
#107=AXIS2_PLACEMENT_3D('',#162,#163,#164);
#108=EDGE_LOOP('',(#165,#166,#167,#168));
#109=AXIS2_PLACEMENT_3D('',#169,#170,#171);
#110=EDGE_LOOP('',(#172,#173));
#111=AXIS2_PLACEMENT_3D('',#174,#175,#176);
#112=EDGE_LOOP('',(#177,#178,#179,#180));
#113=AXIS2_PLACEMENT_3D('',#181,#182,#183);
#114=EDGE_LOOP('',(#184,#185,#186,#187));
#115=AXIS2_PLACEMENT_3D('',#188,#189,#190);
#116=EDGE_LOOP('',(#191,#192));
#117=EDGE_LOOP('',(#193,#194));
#118=AXIS2_PLACEMENT_3D('',#195,#196,#197);
#119=EDGE_LOOP('',(#198,#199,#200,#201));
#120=AXIS2_PLACEMENT_3D('',#202,#203,#204);
#121=EDGE_LOOP('',(#205,#206,#207));
#122=AXIS2_PLACEMENT_3D('',#208,#209,#210);
#123=FILL_AREA_STYLE_COLOUR('',#211);
#124=ORIENTED_EDGE('',*,*,#212,.F.);
#125=ORIENTED_EDGE('',*,*,#213,.F.);
#126=ORIENTED_EDGE('',*,*,#214,.F.);
#127=CARTESIAN_POINT('',(0.0,5.75,0.0));
#128=DIRECTION('',(0.0,1.0,0.0));
#129=DIRECTION('',(1.0,0.0,0.0));
#130=ORIENTED_EDGE('',*,*,#215,.F.);
#131=ORIENTED_EDGE('',*,*,#216,.T.);
#132=ORIENTED_EDGE('',*,*,#217,.F.);
#133=ORIENTED_EDGE('',*,*,#213,.T.);
#134=CARTESIAN_POINT('',(0.0,-2.62,0.0));
#135=DIRECTION('',(0.0,-1.0,0.0));
#136=DIRECTION('',(1.0,0.0,0.0));
#137=ORIENTED_EDGE('',*,*,#218,.F.);
#138=ORIENTED_EDGE('',*,*,#219,.F.);
#139=ORIENTED_EDGE('',*,*,#220,.F.);
#140=ORIENTED_EDGE('',*,*,#221,.T.);
#141=CARTESIAN_POINT('',(0.0,4.2,0.0));
#142=DIRECTION('',(-0.0,1.0,0.0));
#143=DIRECTION('',(1.0,0.0,0.0));
#144=ORIENTED_EDGE('',*,*,#222,.F.);
#145=ORIENTED_EDGE('',*,*,#223,.F.);
#146=ORIENTED_EDGE('',*,*,#224,.F.);
#147=ORIENTED_EDGE('',*,*,#219,.T.);
#148=CARTESIAN_POINT('',(0.0,-2.62,0.0));
#149=DIRECTION('',(0.0,-1.0,0.0));
#150=DIRECTION('',(1.0,0.0,0.0));
#151=ORIENTED_EDGE('',*,*,#225,.F.);
#152=ORIENTED_EDGE('',*,*,#226,.T.);
#153=ORIENTED_EDGE('',*,*,#227,.F.);
#154=ORIENTED_EDGE('',*,*,#228,.F.);
#155=CARTESIAN_POINT('',(0.0,-2.62,0.0));
#156=DIRECTION('',(0.0,-1.0,0.0));
#157=DIRECTION('',(1.0,0.0,0.0));
#158=ORIENTED_EDGE('',*,*,#223,.T.);
#159=ORIENTED_EDGE('',*,*,#229,.T.);
#160=ORIENTED_EDGE('',*,*,#230,.T.);
#161=ORIENTED_EDGE('',*,*,#228,.T.);
#162=CARTESIAN_POINT('',(0.0,0.0,0.0));
#163=DIRECTION('',(-0.0,1.0,0.0));
#164=DIRECTION('',(1.0,0.0,0.0));
#165=ORIENTED_EDGE('',*,*,#225,.T.);
#166=ORIENTED_EDGE('',*,*,#230,.F.);
#167=ORIENTED_EDGE('',*,*,#227,.T.);
#168=ORIENTED_EDGE('',*,*,#231,.T.);
#169=CARTESIAN_POINT('',(0.0,-2.62,0.0));
#170=DIRECTION('',(0.0,-1.0,0.0));
#171=DIRECTION('',(1.0,0.0,0.0));
#172=ORIENTED_EDGE('',*,*,#231,.F.);
#173=ORIENTED_EDGE('',*,*,#226,.F.);
#174=CARTESIAN_POINT('',(0.0,-2.2,0.0));
#175=DIRECTION('',(-0.0,1.0,0.0));
#176=DIRECTION('',(1.0,0.0,0.0));
#177=ORIENTED_EDGE('',*,*,#222,.T.);
#178=ORIENTED_EDGE('',*,*,#232,.T.);
#179=ORIENTED_EDGE('',*,*,#224,.T.);
#180=ORIENTED_EDGE('',*,*,#229,.F.);
#181=CARTESIAN_POINT('',(0.0,-2.62,0.0));
#182=DIRECTION('',(0.0,-1.0,0.0));
#183=DIRECTION('',(1.0,0.0,0.0));
#184=ORIENTED_EDGE('',*,*,#218,.T.);
#185=ORIENTED_EDGE('',*,*,#233,.T.);
#186=ORIENTED_EDGE('',*,*,#220,.T.);
#187=ORIENTED_EDGE('',*,*,#232,.F.);
#188=CARTESIAN_POINT('',(0.0,4.2,0.0));
#189=DIRECTION('',(-0.0,1.0,0.0));
#190=DIRECTION('',(1.0,0.0,0.0));
#191=ORIENTED_EDGE('',*,*,#221,.F.);
#192=ORIENTED_EDGE('',*,*,#233,.F.);
#193=ORIENTED_EDGE('',*,*,#234,.F.);
#194=ORIENTED_EDGE('',*,*,#216,.F.);
#195=CARTESIAN_POINT('',(0.0,4.4,0.0));
#196=DIRECTION('',(-0.0,1.0,0.0));
#197=DIRECTION('',(1.0,0.0,0.0));
#198=ORIENTED_EDGE('',*,*,#215,.T.);
#199=ORIENTED_EDGE('',*,*,#235,.T.);
#200=ORIENTED_EDGE('',*,*,#217,.T.);
#201=ORIENTED_EDGE('',*,*,#234,.T.);
#202=CARTESIAN_POINT('',(0.0,-2.62,0.0));
#203=DIRECTION('',(0.0,-1.0,0.0));
#204=DIRECTION('',(1.0,0.0,0.0));
#205=ORIENTED_EDGE('',*,*,#212,.T.);
#206=ORIENTED_EDGE('',*,*,#214,.T.);
#207=ORIENTED_EDGE('',*,*,#235,.F.);
#208=CARTESIAN_POINT('',(0.0,5.75,0.0));
#209=DIRECTION('',(0.0,1.0,0.0));
#210=DIRECTION('',(1.0,0.0,0.0));
#211=COLOUR_RGB('',0.960784316062927,0.760784327983856,0.168627455830574);
#212=EDGE_CURVE('',#236,#237,#238,.T.);
#213=EDGE_CURVE('',#239,#236,#240,.T.);
#214=EDGE_CURVE('',#237,#239,#241,.T.);
#215=EDGE_CURVE('',#242,#236,#243,.T.);
#216=EDGE_CURVE('',#242,#244,#245,.T.);
#217=EDGE_CURVE('',#239,#244,#246,.T.);
#218=EDGE_CURVE('',#247,#248,#249,.T.);
#219=EDGE_CURVE('',#250,#247,#251,.T.);
#220=EDGE_CURVE('',#252,#250,#253,.T.);
#221=EDGE_CURVE('',#252,#248,#254,.T.);
#222=EDGE_CURVE('',#255,#247,#256,.T.);
#223=EDGE_CURVE('',#257,#255,#258,.T.);
#224=EDGE_CURVE('',#250,#257,#259,.T.);
#225=EDGE_CURVE('',#260,#261,#262,.T.);
#226=EDGE_CURVE('',#260,#263,#264,.T.);
#227=EDGE_CURVE('',#265,#263,#266,.T.);
#228=EDGE_CURVE('',#261,#265,#267,.T.);
#229=EDGE_CURVE('',#255,#257,#268,.T.);
#230=EDGE_CURVE('',#265,#261,#269,.T.);
#231=EDGE_CURVE('',#263,#260,#270,.T.);
#232=EDGE_CURVE('',#247,#250,#271,.T.);
#233=EDGE_CURVE('',#248,#252,#272,.T.);
#234=EDGE_CURVE('',#244,#242,#273,.T.);
#235=EDGE_CURVE('',#236,#239,#274,.T.);
#236=VERTEX_POINT('',#275);
#237=VERTEX_POINT('',#276);
#238=CIRCLE('',#277,0.45);
#239=VERTEX_POINT('',#278);
#240=CIRCLE('',#279,0.45);
#241=CIRCLE('',#280,0.45);
#242=VERTEX_POINT('',#281);
#243=LINE('',#282,#283);
#244=VERTEX_POINT('',#284);
#245=CIRCLE('',#285,0.45);
#246=LINE('',#286,#287);
#247=VERTEX_POINT('',#288);
#248=VERTEX_POINT('',#289);
#249=CIRCLE('',#290,0.2);
#250=VERTEX_POINT('',#291);
#251=CIRCLE('',#292,0.75);
#252=VERTEX_POINT('',#293);
#253=CIRCLE('',#294,0.2);
#254=CIRCLE('',#295,0.55);
#255=VERTEX_POINT('',#296);
#256=LINE('',#297,#298);
#257=VERTEX_POINT('',#299);
#258=CIRCLE('',#300,0.75);
#259=LINE('',#301,#302);
#260=VERTEX_POINT('',#303);
#261=VERTEX_POINT('',#304);
#262=LINE('',#305,#306);
#263=VERTEX_POINT('',#307);
#264=CIRCLE('',#308,0.35);
#265=VERTEX_POINT('',#309);
#266=LINE('',#310,#311);
#267=CIRCLE('',#312,0.35);
#268=CIRCLE('',#313,0.75);
#269=CIRCLE('',#314,0.35);
#270=CIRCLE('',#315,0.35);
#271=CIRCLE('',#316,0.75);
#272=CIRCLE('',#317,0.55);
#273=CIRCLE('',#318,0.45);
#274=CIRCLE('',#319,0.45);
#275=CARTESIAN_POINT('',(0.45,5.75,-5.5107285922007E-17));
#276=CARTESIAN_POINT('',(-2.75545529808155E-17,6.2,3.37445951098918E-33));
#277=AXIS2_PLACEMENT_3D('',#320,#321,#322);
#278=CARTESIAN_POINT('',(-0.45,5.75,0.0));
#279=AXIS2_PLACEMENT_3D('',#323,#324,#325);
#280=AXIS2_PLACEMENT_3D('',#326,#327,#328);
#281=CARTESIAN_POINT('',(0.45,4.4,-5.5107285922007E-17));
#282=CARTESIAN_POINT('',(0.45,5.075,-5.5107285922007E-17));
#283=VECTOR('',#329,1.0);
#284=CARTESIAN_POINT('',(-0.45,4.4,0.0));
#285=AXIS2_PLACEMENT_3D('',#330,#331,#332);
#286=CARTESIAN_POINT('',(-0.45,-2.62,5.51091059616309E-17));
#287=VECTOR('',#333,0.45);
#288=CARTESIAN_POINT('',(0.75,4.2,-9.18454765366783E-17));
#289=CARTESIAN_POINT('',(0.55,4.4,6.73533494602308E-17));
#290=AXIS2_PLACEMENT_3D('',#334,#335,#336);
#291=CARTESIAN_POINT('',(-0.75,4.2,0.0));
#292=AXIS2_PLACEMENT_3D('',#337,#338,#339);
#293=CARTESIAN_POINT('',(-0.55,4.4,0.0));
#294=AXIS2_PLACEMENT_3D('',#340,#341,#342);
#295=AXIS2_PLACEMENT_3D('',#343,#344,#345);
#296=CARTESIAN_POINT('',(0.75,0.0,-9.18454765366783E-17));
#297=CARTESIAN_POINT('',(0.75,2.1,-9.18454765366783E-17));
#298=VECTOR('',#346,1.0);
#299=CARTESIAN_POINT('',(-0.75,0.0,0.0));
#300=AXIS2_PLACEMENT_3D('',#347,#348,#349);
#301=CARTESIAN_POINT('',(-0.75,-2.62,9.18485099360515E-17));
#302=VECTOR('',#350,0.75);
#303=CARTESIAN_POINT('',(0.35,-2.2,-4.28612223837832E-17));
#304=CARTESIAN_POINT('',(0.35,0.0,-4.28612223837832E-17));
#305=CARTESIAN_POINT('',(0.35,-1.1,-4.28612223837832E-17));
#306=VECTOR('',#351,1.0);
#307=CARTESIAN_POINT('',(-0.35,-2.2,0.0));
#308=AXIS2_PLACEMENT_3D('',#352,#353,#354);
#309=CARTESIAN_POINT('',(-0.35,0.0,0.0));
#310=CARTESIAN_POINT('',(-0.35,-2.62,4.28626379701574E-17));
#311=VECTOR('',#355,0.35);
#312=AXIS2_PLACEMENT_3D('',#356,#357,#358);
#313=AXIS2_PLACEMENT_3D('',#359,#360,#361);
#314=AXIS2_PLACEMENT_3D('',#362,#363,#364);
#315=AXIS2_PLACEMENT_3D('',#365,#366,#367);
#316=AXIS2_PLACEMENT_3D('',#368,#369,#370);
#317=AXIS2_PLACEMENT_3D('',#371,#372,#373);
#318=AXIS2_PLACEMENT_3D('',#374,#375,#376);
#319=AXIS2_PLACEMENT_3D('',#377,#378,#379);
#320=CARTESIAN_POINT('',(0.0,5.75,0.0));
#321=DIRECTION('',(-1.22460635382238E-16,7.49855125712042E-33,1.0));
#322=DIRECTION('',(0.0,1.0,-7.49855125712042E-33));
#323=CARTESIAN_POINT('',(0.0,5.75,0.0));
#324=DIRECTION('',(0.0,-1.0,0.0));
#325=DIRECTION('',(1.0,0.0,0.0));
#326=CARTESIAN_POINT('',(0.0,5.75,0.0));
#327=DIRECTION('',(1.22464679914735E-16,0.0,1.0));
#328=DIRECTION('',(-1.0,0.0,1.22464679914735E-16));
#329=DIRECTION('',(-0.0,1.0,-0.0));
#330=CARTESIAN_POINT('',(0.0,4.4,0.0));
#331=DIRECTION('',(-0.0,1.0,0.0));
#332=DIRECTION('',(1.0,0.0,0.0));
#333=DIRECTION('',(0.0,-1.0,0.0));
#334=CARTESIAN_POINT('',(0.55,4.2,6.73533494602308E-17));
#335=DIRECTION('',(-1.22460635382238E-16,-0.0,1.0));
#336=DIRECTION('',(1.0,0.0,1.22460635382238E-16));
#337=CARTESIAN_POINT('',(0.0,4.2,0.0));
#338=DIRECTION('',(0.0,-1.0,0.0));
#339=DIRECTION('',(1.0,0.0,0.0));
#340=CARTESIAN_POINT('',(-0.55,4.2,6.73555739531044E-17));
#341=DIRECTION('',(1.22464679914735E-16,0.0,1.0));
#342=DIRECTION('',(-1.0,0.0,1.22464679914735E-16));
#343=CARTESIAN_POINT('',(0.0,4.4,0.0));
#344=DIRECTION('',(0.0,-1.0,0.0));
#345=DIRECTION('',(1.0,0.0,0.0));
#346=DIRECTION('',(-0.0,1.0,-0.0));
#347=CARTESIAN_POINT('',(0.0,0.0,0.0));
#348=DIRECTION('',(0.0,-1.0,0.0));
#349=DIRECTION('',(1.0,0.0,0.0));
#350=DIRECTION('',(0.0,-1.0,0.0));
#351=DIRECTION('',(-0.0,1.0,-0.0));
#352=CARTESIAN_POINT('',(0.0,-2.2,0.0));
#353=DIRECTION('',(-0.0,1.0,0.0));
#354=DIRECTION('',(1.0,0.0,0.0));
#355=DIRECTION('',(0.0,-1.0,0.0));
#356=CARTESIAN_POINT('',(0.0,0.0,0.0));
#357=DIRECTION('',(-0.0,1.0,0.0));
#358=DIRECTION('',(1.0,0.0,0.0));
#359=CARTESIAN_POINT('',(0.0,0.0,0.0));
#360=DIRECTION('',(0.0,-1.0,0.0));
#361=DIRECTION('',(1.0,0.0,0.0));
#362=CARTESIAN_POINT('',(0.0,0.0,0.0));
#363=DIRECTION('',(-0.0,1.0,0.0));
#364=DIRECTION('',(1.0,0.0,0.0));
#365=CARTESIAN_POINT('',(0.0,-2.2,0.0));
#366=DIRECTION('',(-0.0,1.0,0.0));
#367=DIRECTION('',(1.0,0.0,0.0));
#368=CARTESIAN_POINT('',(0.0,4.2,0.0));
#369=DIRECTION('',(0.0,-1.0,0.0));
#370=DIRECTION('',(1.0,0.0,0.0));
#371=CARTESIAN_POINT('',(0.0,4.4,0.0));
#372=DIRECTION('',(0.0,-1.0,0.0));
#373=DIRECTION('',(1.0,0.0,0.0));
#374=CARTESIAN_POINT('',(0.0,4.4,0.0));
#375=DIRECTION('',(-0.0,1.0,0.0));
#376=DIRECTION('',(1.0,0.0,0.0));
#377=CARTESIAN_POINT('',(0.0,5.75,0.0));
#378=DIRECTION('',(0.0,-1.0,0.0));
#379=DIRECTION('',(1.0,0.0,0.0));
ENDSEC;
END-ISO-10303-21;
