%TF.GenerationSoftware,KiCad,Pcbnew,8.0.3*%
%TF.CreationDate,2024-09-21T15:41:29+02:00*%
%TF.ProjectId,POV_Motor_crtl,504f565f-4d6f-4746-9f72-5f6372746c2e,rev?*%
%TF.SameCoordinates,Original*%
%TF.FileFunction,Soldermask,Top*%
%TF.FilePolarity,Negative*%
%FSLAX46Y46*%
G04 Gerber Fmt 4.6, Leading zero omitted, Abs format (unit mm)*
G04 Created by KiCad (PCBNEW 8.0.3) date 2024-09-21 15:41:29*
%MOMM*%
%LPD*%
G01*
G04 APERTURE LIST*
G04 Aperture macros list*
%AMRoundRect*
0 Rectangle with rounded corners*
0 $1 Rounding radius*
0 $2 $3 $4 $5 $6 $7 $8 $9 X,Y pos of 4 corners*
0 Add a 4 corners polygon primitive as box body*
4,1,4,$2,$3,$4,$5,$6,$7,$8,$9,$2,$3,0*
0 Add four circle primitives for the rounded corners*
1,1,$1+$1,$2,$3*
1,1,$1+$1,$4,$5*
1,1,$1+$1,$6,$7*
1,1,$1+$1,$8,$9*
0 Add four rect primitives between the rounded corners*
20,1,$1+$1,$2,$3,$4,$5,0*
20,1,$1+$1,$4,$5,$6,$7,0*
20,1,$1+$1,$6,$7,$8,$9,0*
20,1,$1+$1,$8,$9,$2,$3,0*%
%AMRotRect*
0 Rectangle, with rotation*
0 The origin of the aperture is its center*
0 $1 length*
0 $2 width*
0 $3 Rotation angle, in degrees counterclockwise*
0 Add horizontal line*
21,1,$1,$2,0,0,$3*%
G04 Aperture macros list end*
%ADD10RoundRect,0.102000X0.350000X0.375000X-0.350000X0.375000X-0.350000X-0.375000X0.350000X-0.375000X0*%
%ADD11RoundRect,0.140000X0.140000X0.170000X-0.140000X0.170000X-0.140000X-0.170000X0.140000X-0.170000X0*%
%ADD12RoundRect,0.250000X0.325000X0.650000X-0.325000X0.650000X-0.325000X-0.650000X0.325000X-0.650000X0*%
%ADD13RoundRect,0.135000X0.185000X-0.135000X0.185000X0.135000X-0.185000X0.135000X-0.185000X-0.135000X0*%
%ADD14C,5.600000*%
%ADD15RoundRect,0.080500X0.241500X-0.541500X0.241500X0.541500X-0.241500X0.541500X-0.241500X-0.541500X0*%
%ADD16RoundRect,0.102000X2.150000X-1.700000X2.150000X1.700000X-2.150000X1.700000X-2.150000X-1.700000X0*%
%ADD17RoundRect,0.135000X0.135000X0.185000X-0.135000X0.185000X-0.135000X-0.185000X0.135000X-0.185000X0*%
%ADD18RoundRect,0.140000X-0.170000X0.140000X-0.170000X-0.140000X0.170000X-0.140000X0.170000X0.140000X0*%
%ADD19RoundRect,0.135000X-0.185000X0.135000X-0.185000X-0.135000X0.185000X-0.135000X0.185000X0.135000X0*%
%ADD20RoundRect,0.250000X1.075000X-0.375000X1.075000X0.375000X-1.075000X0.375000X-1.075000X-0.375000X0*%
%ADD21RoundRect,0.140000X0.170000X-0.140000X0.170000X0.140000X-0.170000X0.140000X-0.170000X-0.140000X0*%
%ADD22RoundRect,0.056750X0.456437X-0.215668X-0.215668X0.456437X-0.456437X0.215668X0.215668X-0.456437X0*%
%ADD23RoundRect,0.056750X0.456437X0.215668X0.215668X0.456437X-0.456437X-0.215668X-0.215668X-0.456437X0*%
%ADD24RoundRect,0.102000X2.474874X0.000000X0.000000X2.474874X-2.474874X0.000000X0.000000X-2.474874X0*%
%ADD25RoundRect,0.162500X-0.447500X-0.162500X0.447500X-0.162500X0.447500X0.162500X-0.447500X0.162500X0*%
%ADD26R,1.905000X1.905000*%
%ADD27C,1.905000*%
%ADD28RoundRect,0.300000X0.300000X0.600000X-0.300000X0.600000X-0.300000X-0.600000X0.300000X-0.600000X0*%
%ADD29RoundRect,0.150000X0.150000X0.625000X-0.150000X0.625000X-0.150000X-0.625000X0.150000X-0.625000X0*%
%ADD30RoundRect,0.218750X0.218750X0.256250X-0.218750X0.256250X-0.218750X-0.256250X0.218750X-0.256250X0*%
%ADD31RoundRect,0.140000X-0.140000X-0.170000X0.140000X-0.170000X0.140000X0.170000X-0.140000X0.170000X0*%
%ADD32RoundRect,0.218750X-0.218750X-0.256250X0.218750X-0.256250X0.218750X0.256250X-0.218750X0.256250X0*%
%ADD33RoundRect,0.250000X-0.650000X0.325000X-0.650000X-0.325000X0.650000X-0.325000X0.650000X0.325000X0*%
%ADD34RoundRect,0.135000X0.226274X0.035355X0.035355X0.226274X-0.226274X-0.035355X-0.035355X-0.226274X0*%
%ADD35RoundRect,0.076200X0.529000X0.529000X-0.529000X0.529000X-0.529000X-0.529000X0.529000X-0.529000X0*%
%ADD36C,1.210400*%
%ADD37RotRect,1.150000X1.000000X315.000000*%
%ADD38RoundRect,0.140000X-0.219203X-0.021213X-0.021213X-0.219203X0.219203X0.021213X0.021213X0.219203X0*%
%ADD39RoundRect,0.058000X0.474000X0.174000X-0.474000X0.174000X-0.474000X-0.174000X0.474000X-0.174000X0*%
%ADD40RoundRect,0.058000X0.174000X0.474000X-0.174000X0.474000X-0.174000X-0.474000X0.174000X-0.474000X0*%
%ADD41RoundRect,0.102000X0.840000X0.840000X-0.840000X0.840000X-0.840000X-0.840000X0.840000X-0.840000X0*%
%ADD42RoundRect,0.140000X0.021213X-0.219203X0.219203X-0.021213X-0.021213X0.219203X-0.219203X0.021213X0*%
%ADD43R,0.812800X0.254000*%
%ADD44R,0.254000X0.812800*%
%ADD45R,3.810000X5.791200*%
%ADD46RoundRect,0.135000X-0.135000X-0.185000X0.135000X-0.185000X0.135000X0.185000X-0.135000X0.185000X0*%
%ADD47R,2.000000X1.500000*%
%ADD48R,0.990600X0.711200*%
%ADD49RoundRect,0.147500X-0.147500X-0.172500X0.147500X-0.172500X0.147500X0.172500X-0.147500X0.172500X0*%
%ADD50RoundRect,0.055580X0.651420X0.341420X-0.651420X0.341420X-0.651420X-0.341420X0.651420X-0.341420X0*%
%ADD51RoundRect,0.059250X0.447750X0.177750X-0.447750X0.177750X-0.447750X-0.177750X0.447750X-0.177750X0*%
%ADD52RoundRect,0.059250X0.177750X0.447750X-0.177750X0.447750X-0.177750X-0.447750X0.177750X-0.447750X0*%
%ADD53RoundRect,0.102000X1.850000X1.850000X-1.850000X1.850000X-1.850000X-1.850000X1.850000X-1.850000X0*%
%ADD54RoundRect,0.140000X0.219203X0.021213X0.021213X0.219203X-0.219203X-0.021213X-0.021213X-0.219203X0*%
%ADD55C,1.295400*%
%ADD56R,1.498600X1.498600*%
%ADD57C,1.498600*%
%ADD58RoundRect,0.102000X0.525000X-0.500000X0.525000X0.500000X-0.525000X0.500000X-0.525000X-0.500000X0*%
%ADD59RoundRect,0.102000X1.100000X-0.525000X1.100000X0.525000X-1.100000X0.525000X-1.100000X-0.525000X0*%
%ADD60C,0.650000*%
%ADD61RoundRect,0.102000X0.300000X0.575000X-0.300000X0.575000X-0.300000X-0.575000X0.300000X-0.575000X0*%
%ADD62RoundRect,0.102000X0.150000X0.575000X-0.150000X0.575000X-0.150000X-0.575000X0.150000X-0.575000X0*%
%ADD63O,1.204000X2.304000*%
%ADD64RoundRect,0.301000X0.301000X0.701000X-0.301000X0.701000X-0.301000X-0.701000X0.301000X-0.701000X0*%
%ADD65RoundRect,0.140000X-0.021213X0.219203X-0.219203X0.021213X0.021213X-0.219203X0.219203X-0.021213X0*%
%ADD66RoundRect,0.135000X-0.035355X0.226274X-0.226274X0.035355X0.035355X-0.226274X0.226274X-0.035355X0*%
G04 APERTURE END LIST*
D10*
%TO.C,X201*%
X75722040Y-108261841D03*
X75722040Y-106911841D03*
X74722042Y-106911841D03*
X74722042Y-108261841D03*
%TD*%
D11*
%TO.C,C302*%
X36844000Y-130424200D03*
X35884000Y-130424200D03*
%TD*%
D12*
%TO.C,C308*%
X35883200Y-132176800D03*
X32933200Y-132176800D03*
%TD*%
D13*
%TO.C,R302*%
X44009400Y-122882400D03*
X44009400Y-121862400D03*
%TD*%
%TO.C,R408*%
X47675800Y-103125999D03*
X47675800Y-102106001D03*
%TD*%
D14*
%TO.C,REF\u002A\u002A*%
X32100000Y-89100000D03*
%TD*%
D15*
%TO.C,U201*%
X65798640Y-101745040D03*
X67068640Y-101745040D03*
X68338640Y-101745040D03*
X69608640Y-101745040D03*
X69608640Y-96055040D03*
X68338640Y-96055040D03*
X67068640Y-96055040D03*
X65798640Y-96055040D03*
D16*
X67703640Y-98900040D03*
%TD*%
D17*
%TO.C,R401*%
X39117999Y-94997200D03*
X38098001Y-94997200D03*
%TD*%
D13*
%TO.C,R503*%
X81931400Y-122882399D03*
X81931400Y-121862401D03*
%TD*%
D18*
%TO.C,C503*%
X75124200Y-132204800D03*
X75124200Y-133164800D03*
%TD*%
D19*
%TO.C,R406*%
X45542200Y-102108001D03*
X45542200Y-103127999D03*
%TD*%
D20*
%TO.C,L601*%
X52176800Y-129233400D03*
X52176800Y-126433400D03*
%TD*%
D21*
%TO.C,C206*%
X72072441Y-93944440D03*
X72072441Y-92984440D03*
%TD*%
D22*
%TO.C,U204*%
X64365368Y-114084242D03*
X64718922Y-113730688D03*
X65072475Y-113377135D03*
X65426028Y-113023582D03*
X65779582Y-112670028D03*
X66133135Y-112316475D03*
X66486688Y-111962922D03*
X66840242Y-111609368D03*
D23*
X66840242Y-110640632D03*
X66486688Y-110287078D03*
X66133135Y-109933525D03*
X65779582Y-109579972D03*
X65426028Y-109226418D03*
X65072475Y-108872865D03*
X64718922Y-108519312D03*
X64365368Y-108165758D03*
D22*
X63396632Y-108165758D03*
X63043078Y-108519312D03*
X62689525Y-108872865D03*
X62335972Y-109226418D03*
X61982418Y-109579972D03*
X61628865Y-109933525D03*
X61275312Y-110287078D03*
X60921758Y-110640632D03*
D23*
X60921758Y-111609368D03*
X61275312Y-111962922D03*
X61628865Y-112316475D03*
X61982418Y-112670028D03*
X62335972Y-113023582D03*
X62689525Y-113377135D03*
X63043078Y-113730688D03*
X63396632Y-114084242D03*
D24*
X63881000Y-111125000D03*
%TD*%
D25*
%TO.C,Q401*%
X41412801Y-99913400D03*
X41412801Y-101813400D03*
X44032800Y-100863400D03*
%TD*%
D18*
%TO.C,C605*%
X56774200Y-125451000D03*
X56774200Y-126411000D03*
%TD*%
D11*
%TO.C,C301*%
X38317200Y-129306600D03*
X37357200Y-129306600D03*
%TD*%
D21*
%TO.C,C207*%
X76784200Y-93926600D03*
X76784200Y-92966600D03*
%TD*%
D26*
%TO.C,M501*%
X83577200Y-142743200D03*
D27*
X80077200Y-142743200D03*
X76577200Y-142743200D03*
%TD*%
D28*
%TO.C,J203*%
X70940200Y-87208000D03*
X63340200Y-87208000D03*
D29*
X64640199Y-89733000D03*
X65640200Y-89733000D03*
X66640200Y-89733000D03*
X67640200Y-89733000D03*
X68640200Y-89732999D03*
X69640200Y-89733000D03*
%TD*%
D13*
%TO.C,R409*%
X48742601Y-103125999D03*
X48742601Y-102106001D03*
%TD*%
D18*
%TO.C,C211*%
X79921040Y-100629840D03*
X79921040Y-101589840D03*
%TD*%
D21*
%TO.C,C607*%
X54539000Y-126408400D03*
X54539000Y-125448400D03*
%TD*%
D26*
%TO.C,M601*%
X65227201Y-142743200D03*
D27*
X61727200Y-142743200D03*
X58227200Y-142743200D03*
%TD*%
D30*
%TO.C,D301*%
X40055901Y-121183400D03*
X38480899Y-121183400D03*
%TD*%
D31*
%TO.C,C202*%
X66852800Y-93522800D03*
X67812800Y-93522800D03*
%TD*%
D32*
%TO.C,D401*%
X34848699Y-94996000D03*
X36423701Y-94996000D03*
%TD*%
D31*
%TO.C,C204*%
X78221840Y-103827639D03*
X79181840Y-103827639D03*
%TD*%
D18*
%TO.C,C606*%
X55707400Y-125448400D03*
X55707400Y-126408400D03*
%TD*%
D13*
%TO.C,R304*%
X36550600Y-122328399D03*
X36550600Y-121308401D03*
%TD*%
D33*
%TO.C,C401*%
X41579800Y-112342399D03*
X41579800Y-115292401D03*
%TD*%
D34*
%TO.C,R203*%
X60975166Y-107081282D03*
X60253918Y-106360034D03*
%TD*%
D21*
%TO.C,C215*%
X78930440Y-93944440D03*
X78930440Y-92984440D03*
%TD*%
D13*
%TO.C,R603*%
X63581400Y-122882400D03*
X63581400Y-121862400D03*
%TD*%
D12*
%TO.C,C304*%
X35883200Y-134564400D03*
X32933200Y-134564400D03*
%TD*%
D18*
%TO.C,C212*%
X83299240Y-100629840D03*
X83299240Y-101589840D03*
%TD*%
D19*
%TO.C,R404*%
X48260000Y-106142601D03*
X48260000Y-107162599D03*
%TD*%
D11*
%TO.C,C213*%
X76667241Y-104919840D03*
X75707241Y-104919840D03*
%TD*%
D13*
%TO.C,R301*%
X31461800Y-127124200D03*
X31461800Y-126104200D03*
%TD*%
D19*
%TO.C,R402*%
X49352200Y-106144601D03*
X49352200Y-107164599D03*
%TD*%
D35*
%TO.C,J202*%
X84867600Y-87383200D03*
D36*
X83617600Y-87383200D03*
X82367600Y-87383200D03*
X81117600Y-87383200D03*
X79867600Y-87383200D03*
X78617600Y-87383200D03*
X77367600Y-87383200D03*
X76117600Y-87383200D03*
%TD*%
D37*
%TO.C,X202*%
X68514671Y-118149540D03*
X69752108Y-119386977D03*
X70742057Y-118397028D03*
X69504620Y-117159591D03*
%TD*%
D38*
%TO.C,C223*%
X68480730Y-113497626D03*
X69159552Y-114176448D03*
%TD*%
D11*
%TO.C,C602*%
X55323800Y-130424200D03*
X54363800Y-130424200D03*
%TD*%
D13*
%TO.C,R504*%
X74701400Y-122099799D03*
X74701400Y-121079801D03*
%TD*%
D12*
%TO.C,C604*%
X54363000Y-134564400D03*
X51413000Y-134564400D03*
%TD*%
D18*
%TO.C,C506*%
X75124200Y-125451000D03*
X75124200Y-126411000D03*
%TD*%
D39*
%TO.C,U401*%
X47663000Y-111824200D03*
X47663000Y-111324200D03*
X47663000Y-110824200D03*
X47663000Y-110324200D03*
D40*
X46978000Y-109639200D03*
X46478000Y-109639200D03*
X45978000Y-109639200D03*
X45478000Y-109639200D03*
D39*
X44793000Y-110324200D03*
X44793000Y-110824200D03*
X44793000Y-111324200D03*
X44793000Y-111824200D03*
D40*
X45478000Y-112509200D03*
X45978000Y-112509200D03*
X46478000Y-112509200D03*
X46978000Y-112509200D03*
D41*
X46228000Y-111074200D03*
%TD*%
D11*
%TO.C,C201*%
X65806200Y-93522800D03*
X64846200Y-93522800D03*
%TD*%
D42*
%TO.C,C219*%
X61727577Y-106273823D03*
X62406399Y-105595001D03*
%TD*%
D12*
%TO.C,C404*%
X48846001Y-118059200D03*
X45895999Y-118059200D03*
%TD*%
D13*
%TO.C,R601*%
X49941600Y-127124200D03*
X49941600Y-126104200D03*
%TD*%
%TO.C,R303*%
X45101600Y-122882400D03*
X45101600Y-121862400D03*
%TD*%
D26*
%TO.C,M301*%
X46747401Y-142743200D03*
D27*
X43247400Y-142743200D03*
X39747400Y-142743200D03*
%TD*%
D31*
%TO.C,C214*%
X73751439Y-104919840D03*
X74711439Y-104919840D03*
%TD*%
D43*
%TO.C,U601*%
X59288800Y-126065814D03*
X59288800Y-126565940D03*
X59288800Y-127066066D03*
X59288800Y-127566192D03*
X59288800Y-128066318D03*
X59288800Y-128566444D03*
X59288800Y-129066570D03*
X59288800Y-129566696D03*
X59288800Y-130066822D03*
X59288800Y-130566948D03*
X59288800Y-131067074D03*
X59288800Y-131567200D03*
D44*
X59989459Y-132270907D03*
X60489585Y-132270907D03*
X60989711Y-132270907D03*
X61489837Y-132270907D03*
X61989963Y-132270907D03*
X62490089Y-132270907D03*
X62990215Y-132270907D03*
X63490341Y-132270907D03*
D43*
X64191000Y-131567200D03*
X64191000Y-131067074D03*
X64191000Y-130566948D03*
X64191000Y-130066822D03*
X64191000Y-129566696D03*
X64191000Y-129066570D03*
X64191000Y-128566444D03*
X64191000Y-128066318D03*
X64191000Y-127566192D03*
X64191000Y-127066066D03*
X64191000Y-126565940D03*
X64191000Y-126065814D03*
D44*
X63490341Y-125362107D03*
X62990215Y-125362107D03*
X62490089Y-125362107D03*
X61989963Y-125362107D03*
X61489837Y-125362107D03*
X60989711Y-125362107D03*
X60489585Y-125362107D03*
X59989459Y-125362107D03*
D45*
X61739900Y-128816507D03*
%TD*%
D46*
%TO.C,R209*%
X43457400Y-96951800D03*
X44477400Y-96951800D03*
%TD*%
D18*
%TO.C,C303*%
X38294400Y-132204800D03*
X38294400Y-133164800D03*
%TD*%
D43*
%TO.C,U501*%
X77638800Y-126065814D03*
X77638800Y-126565940D03*
X77638800Y-127066066D03*
X77638800Y-127566192D03*
X77638800Y-128066318D03*
X77638800Y-128566444D03*
X77638800Y-129066570D03*
X77638800Y-129566696D03*
X77638800Y-130066822D03*
X77638800Y-130566948D03*
X77638800Y-131067074D03*
X77638800Y-131567200D03*
D44*
X78339459Y-132270907D03*
X78839585Y-132270907D03*
X79339711Y-132270907D03*
X79839837Y-132270907D03*
X80339963Y-132270907D03*
X80840089Y-132270907D03*
X81340215Y-132270907D03*
X81840341Y-132270907D03*
D43*
X82541000Y-131567200D03*
X82541000Y-131067074D03*
X82541000Y-130566948D03*
X82541000Y-130066822D03*
X82541000Y-129566696D03*
X82541000Y-129066570D03*
X82541000Y-128566444D03*
X82541000Y-128066318D03*
X82541000Y-127566192D03*
X82541000Y-127066066D03*
X82541000Y-126565940D03*
X82541000Y-126065814D03*
D44*
X81840341Y-125362107D03*
X81340215Y-125362107D03*
X80840089Y-125362107D03*
X80339963Y-125362107D03*
X79839837Y-125362107D03*
X79339711Y-125362107D03*
X78839585Y-125362107D03*
X78339459Y-125362107D03*
D45*
X80089900Y-128816507D03*
%TD*%
D21*
%TO.C,C216*%
X74206041Y-93944440D03*
X74206041Y-92984440D03*
%TD*%
D47*
%TO.C,L401*%
X51612800Y-111526800D03*
X51612800Y-114226800D03*
%TD*%
D11*
%TO.C,C210*%
X82077440Y-96512439D03*
X81117440Y-96512439D03*
%TD*%
D38*
%TO.C,C218*%
X66325468Y-106564868D03*
X67004290Y-107243690D03*
%TD*%
D48*
%TO.C,SW201*%
X40550001Y-89574999D03*
X40550001Y-87425001D03*
X36049999Y-89574999D03*
X36049999Y-87425001D03*
%TD*%
D18*
%TO.C,C603*%
X56774200Y-132204800D03*
X56774200Y-133164800D03*
%TD*%
D13*
%TO.C,R210*%
X73139240Y-93974439D03*
X73139240Y-92954441D03*
%TD*%
%TO.C,R602*%
X62489200Y-122882400D03*
X62489200Y-121862400D03*
%TD*%
D21*
%TO.C,C508*%
X72889000Y-126408400D03*
X72889000Y-125448400D03*
%TD*%
D31*
%TO.C,C203*%
X78221840Y-105961240D03*
X79181840Y-105961240D03*
%TD*%
%TO.C,C205*%
X78221840Y-104894440D03*
X79181840Y-104894440D03*
%TD*%
D13*
%TO.C,R604*%
X56591200Y-122099800D03*
X56591200Y-121079800D03*
%TD*%
D32*
%TO.C,D402*%
X34841500Y-97155000D03*
X36416502Y-97155000D03*
%TD*%
D17*
%TO.C,R207*%
X58264399Y-101269800D03*
X57244401Y-101269800D03*
%TD*%
D13*
%TO.C,R502*%
X80839200Y-122882399D03*
X80839200Y-121862401D03*
%TD*%
D46*
%TO.C,R208*%
X43454600Y-98036800D03*
X44474600Y-98036800D03*
%TD*%
D11*
%TO.C,C502*%
X73673800Y-130424200D03*
X72713800Y-130424200D03*
%TD*%
D14*
%TO.C,REF\u002A\u002A*%
X90900000Y-142900000D03*
%TD*%
D31*
%TO.C,C402*%
X44630400Y-107111801D03*
X45590400Y-107111801D03*
%TD*%
D18*
%TO.C,C305*%
X38294400Y-125451000D03*
X38294400Y-126411000D03*
%TD*%
D49*
%TO.C,L202*%
X81112441Y-100627240D03*
X82082441Y-100627240D03*
%TD*%
D50*
%TO.C,U203*%
X54081800Y-101686399D03*
X54081800Y-100736400D03*
X54081800Y-99786401D03*
X51571800Y-99786401D03*
X51571800Y-100736400D03*
X51571800Y-101686399D03*
%TD*%
D30*
%TO.C,D601*%
X59588501Y-121234200D03*
X58013499Y-121234200D03*
%TD*%
D51*
%TO.C,U202*%
X77418040Y-100624639D03*
X77418040Y-100124640D03*
X77418041Y-99624640D03*
X77418040Y-99124640D03*
X77418040Y-98624640D03*
X77418041Y-98124640D03*
X77418040Y-97624640D03*
X77418040Y-97124641D03*
D52*
X76718039Y-96424640D03*
X76218040Y-96424640D03*
X75718040Y-96424639D03*
X75218040Y-96424640D03*
X74718040Y-96424640D03*
X74218040Y-96424639D03*
X73718040Y-96424640D03*
X73218041Y-96424640D03*
D51*
X72518040Y-97124641D03*
X72518040Y-97624640D03*
X72518039Y-98124640D03*
X72518040Y-98624640D03*
X72518040Y-99124640D03*
X72518039Y-99624640D03*
X72518040Y-100124640D03*
X72518040Y-100624639D03*
D52*
X73218041Y-101324640D03*
X73718040Y-101324640D03*
X74218040Y-101324641D03*
X74718040Y-101324640D03*
X75218040Y-101324640D03*
X75718040Y-101324641D03*
X76218040Y-101324640D03*
X76718039Y-101324640D03*
D53*
X74968040Y-98874640D03*
%TD*%
D13*
%TO.C,R405*%
X47167800Y-107162599D03*
X47167800Y-106142601D03*
%TD*%
%TO.C,R205*%
X79997240Y-93974439D03*
X79997240Y-92954441D03*
%TD*%
D54*
%TO.C,C217*%
X62442320Y-116690920D03*
X61763498Y-116012098D03*
%TD*%
D55*
%TO.C,J402*%
X30988201Y-104470401D03*
D56*
X32588200Y-106070400D03*
D57*
X32588200Y-108570400D03*
X32588200Y-111070400D03*
X32588200Y-113570400D03*
X32588200Y-116070400D03*
%TD*%
D11*
%TO.C,C209*%
X82077441Y-97579240D03*
X81117441Y-97579240D03*
%TD*%
D13*
%TO.C,R501*%
X68291600Y-127124199D03*
X68291600Y-126104201D03*
%TD*%
D25*
%TO.C,Q402*%
X41412801Y-103387299D03*
X41412801Y-105287299D03*
X44032800Y-104337299D03*
%TD*%
D12*
%TO.C,C403*%
X48846001Y-115697000D03*
X45895999Y-115697000D03*
%TD*%
D34*
%TO.C,R202*%
X60203024Y-107853424D03*
X59481776Y-107132176D03*
%TD*%
D12*
%TO.C,C505*%
X72713001Y-132176800D03*
X69762999Y-132176800D03*
%TD*%
D11*
%TO.C,C501*%
X75147000Y-129306600D03*
X74187000Y-129306600D03*
%TD*%
D12*
%TO.C,C504*%
X72713001Y-134564400D03*
X69762999Y-134564400D03*
%TD*%
D21*
%TO.C,C208*%
X79921040Y-98668840D03*
X79921040Y-97708840D03*
%TD*%
D43*
%TO.C,U301*%
X40809000Y-126065814D03*
X40809000Y-126565940D03*
X40809000Y-127066066D03*
X40809000Y-127566192D03*
X40809000Y-128066318D03*
X40809000Y-128566444D03*
X40809000Y-129066570D03*
X40809000Y-129566696D03*
X40809000Y-130066822D03*
X40809000Y-130566948D03*
X40809000Y-131067074D03*
X40809000Y-131567200D03*
D44*
X41509659Y-132270907D03*
X42009785Y-132270907D03*
X42509911Y-132270907D03*
X43010037Y-132270907D03*
X43510163Y-132270907D03*
X44010289Y-132270907D03*
X44510415Y-132270907D03*
X45010541Y-132270907D03*
D43*
X45711200Y-131567200D03*
X45711200Y-131067074D03*
X45711200Y-130566948D03*
X45711200Y-130066822D03*
X45711200Y-129566696D03*
X45711200Y-129066570D03*
X45711200Y-128566444D03*
X45711200Y-128066318D03*
X45711200Y-127566192D03*
X45711200Y-127066066D03*
X45711200Y-126565940D03*
X45711200Y-126065814D03*
D44*
X45010541Y-125362107D03*
X44510415Y-125362107D03*
X44010289Y-125362107D03*
X43510163Y-125362107D03*
X43010037Y-125362107D03*
X42509911Y-125362107D03*
X42009785Y-125362107D03*
X41509659Y-125362107D03*
D45*
X43260100Y-128816507D03*
%TD*%
D14*
%TO.C,REF\u002A\u002A*%
X32100000Y-142900000D03*
%TD*%
D42*
%TO.C,C221*%
X66449212Y-117158035D03*
X67128034Y-116479213D03*
%TD*%
D21*
%TO.C,C307*%
X36059200Y-126408400D03*
X36059200Y-125448400D03*
%TD*%
D12*
%TO.C,C608*%
X54363000Y-132176800D03*
X51413000Y-132176800D03*
%TD*%
D58*
%TO.C,J204*%
X87611700Y-100634800D03*
D59*
X89136700Y-102109801D03*
D58*
X90661700Y-100634800D03*
D59*
X89136700Y-99159799D03*
%TD*%
D60*
%TO.C,J201*%
X50997601Y-92376800D03*
X45217599Y-92376800D03*
D61*
X51307600Y-93451800D03*
X50507600Y-93451800D03*
D62*
X49357600Y-93451800D03*
X48357600Y-93451800D03*
X47857600Y-93451800D03*
X46857600Y-93451800D03*
D61*
X45707600Y-93451800D03*
X44907600Y-93451800D03*
D62*
X46357600Y-93451800D03*
X47357600Y-93451800D03*
X48857600Y-93451800D03*
X49857600Y-93451800D03*
D63*
X52427600Y-92876800D03*
X43787600Y-92876800D03*
D64*
X52427600Y-88696800D03*
X43787600Y-88696800D03*
%TD*%
D18*
%TO.C,C507*%
X74057400Y-125448400D03*
X74057400Y-126408400D03*
%TD*%
D65*
%TO.C,C222*%
X68510994Y-115096253D03*
X67832172Y-115775075D03*
%TD*%
D17*
%TO.C,R206*%
X58264399Y-100177600D03*
X57244401Y-100177600D03*
%TD*%
D11*
%TO.C,C601*%
X56797000Y-129306600D03*
X55837000Y-129306600D03*
%TD*%
D20*
%TO.C,L501*%
X70526800Y-129233399D03*
X70526800Y-126433401D03*
%TD*%
D18*
%TO.C,C306*%
X37227600Y-125448400D03*
X37227600Y-126408400D03*
%TD*%
D17*
%TO.C,R403*%
X39117999Y-97155000D03*
X38098001Y-97155000D03*
%TD*%
D42*
%TO.C,C220*%
X60973236Y-105519481D03*
X61652058Y-104840659D03*
%TD*%
D49*
%TO.C,L201*%
X81112440Y-98646039D03*
X82082440Y-98646039D03*
%TD*%
D66*
%TO.C,R211*%
X67759905Y-114302737D03*
X67038657Y-115023985D03*
%TD*%
D14*
%TO.C,REF\u002A\u002A*%
X90900000Y-89100000D03*
%TD*%
D17*
%TO.C,R204*%
X76697239Y-103853040D03*
X75677241Y-103853040D03*
%TD*%
D13*
%TO.C,R201*%
X75704640Y-93949039D03*
X75704640Y-92929041D03*
%TD*%
D19*
%TO.C,R407*%
X46608999Y-102106001D03*
X46608999Y-103125999D03*
%TD*%
D20*
%TO.C,L301*%
X33697000Y-129233400D03*
X33697000Y-126433400D03*
%TD*%
D48*
%TO.C,SW202*%
X60150001Y-89574999D03*
X60150001Y-87425001D03*
X55649999Y-89574999D03*
X55649999Y-87425001D03*
%TD*%
D30*
%TO.C,D501*%
X78054301Y-121234200D03*
X76479299Y-121234200D03*
%TD*%
M02*
