%TF.GenerationSoftware,KiCad,Pcbnew,8.0.3*%
%TF.CreationDate,2024-09-21T15:41:23+02:00*%
%TF.ProjectId,POV_Motor_crtl,504f565f-4d6f-4746-9f72-5f6372746c2e,rev?*%
%TF.SameCoordinates,Original*%
%TF.FileFunction,Drillmap*%
%TF.FilePolarity,Positive*%
%FSLAX45Y45*%
G04 Gerber Fmt 4.5, Leading zero omitted, Abs format (unit mm)*
G04 Created by KiCad (PCBNEW 8.0.3) date 2024-09-21 15:41:23*
%MOMM*%
%LPD*%
G01*
G04 APERTURE LIST*
%ADD10C,0.050000*%
%ADD11C,0.200000*%
%ADD12C,0.100000*%
%ADD13C,0.129540*%
G04 APERTURE END LIST*
D10*
X3210000Y-8600000D02*
X9090000Y-8600000D01*
X9400000Y-8910000D02*
X9400000Y-14290000D01*
X3210000Y-14600000D02*
G75*
G02*
X2900000Y-14290000I0J310000D01*
G01*
X2900000Y-8910000D02*
G75*
G02*
X3210000Y-8600000I310000J0D01*
G01*
X9400000Y-14290000D02*
G75*
G02*
X9090000Y-14600000I-310000J0D01*
G01*
X2900000Y-14290000D02*
X2900000Y-8910000D01*
X9090000Y-8600000D02*
G75*
G02*
X9400000Y-8910000I0J-310000D01*
G01*
X9090000Y-14600000D02*
X3210000Y-14600000D01*
D11*
D12*
X4489260Y-9205180D02*
X4554260Y-9270180D01*
X4554260Y-9205180D02*
X4489260Y-9270180D01*
X5067260Y-9205180D02*
X5132260Y-9270180D01*
X5132260Y-9205180D02*
X5067260Y-9270180D01*
D13*
X3163590Y-10447040D02*
G75*
G02*
X3034050Y-10447040I-64770J0D01*
G01*
X3034050Y-10447040D02*
G75*
G02*
X3163590Y-10447040I64770J0D01*
G01*
D11*
X3158277Y-14913984D02*
X3158277Y-14713984D01*
X3158277Y-14713984D02*
X3205896Y-14713984D01*
X3205896Y-14713984D02*
X3234467Y-14723508D01*
X3234467Y-14723508D02*
X3253515Y-14742555D01*
X3253515Y-14742555D02*
X3263039Y-14761603D01*
X3263039Y-14761603D02*
X3272562Y-14799698D01*
X3272562Y-14799698D02*
X3272562Y-14828269D01*
X3272562Y-14828269D02*
X3263039Y-14866365D01*
X3263039Y-14866365D02*
X3253515Y-14885412D01*
X3253515Y-14885412D02*
X3234467Y-14904460D01*
X3234467Y-14904460D02*
X3205896Y-14913984D01*
X3205896Y-14913984D02*
X3158277Y-14913984D01*
X3358277Y-14913984D02*
X3358277Y-14780650D01*
X3358277Y-14818746D02*
X3367801Y-14799698D01*
X3367801Y-14799698D02*
X3377324Y-14790174D01*
X3377324Y-14790174D02*
X3396372Y-14780650D01*
X3396372Y-14780650D02*
X3415420Y-14780650D01*
X3482086Y-14913984D02*
X3482086Y-14780650D01*
X3482086Y-14713984D02*
X3472562Y-14723508D01*
X3472562Y-14723508D02*
X3482086Y-14733031D01*
X3482086Y-14733031D02*
X3491610Y-14723508D01*
X3491610Y-14723508D02*
X3482086Y-14713984D01*
X3482086Y-14713984D02*
X3482086Y-14733031D01*
X3605896Y-14913984D02*
X3586848Y-14904460D01*
X3586848Y-14904460D02*
X3577324Y-14885412D01*
X3577324Y-14885412D02*
X3577324Y-14713984D01*
X3710658Y-14913984D02*
X3691610Y-14904460D01*
X3691610Y-14904460D02*
X3682086Y-14885412D01*
X3682086Y-14885412D02*
X3682086Y-14713984D01*
X3939229Y-14913984D02*
X3939229Y-14713984D01*
X3939229Y-14713984D02*
X4005896Y-14856841D01*
X4005896Y-14856841D02*
X4072562Y-14713984D01*
X4072562Y-14713984D02*
X4072562Y-14913984D01*
X4253515Y-14913984D02*
X4253515Y-14809222D01*
X4253515Y-14809222D02*
X4243991Y-14790174D01*
X4243991Y-14790174D02*
X4224944Y-14780650D01*
X4224944Y-14780650D02*
X4186848Y-14780650D01*
X4186848Y-14780650D02*
X4167801Y-14790174D01*
X4253515Y-14904460D02*
X4234467Y-14913984D01*
X4234467Y-14913984D02*
X4186848Y-14913984D01*
X4186848Y-14913984D02*
X4167801Y-14904460D01*
X4167801Y-14904460D02*
X4158277Y-14885412D01*
X4158277Y-14885412D02*
X4158277Y-14866365D01*
X4158277Y-14866365D02*
X4167801Y-14847317D01*
X4167801Y-14847317D02*
X4186848Y-14837793D01*
X4186848Y-14837793D02*
X4234467Y-14837793D01*
X4234467Y-14837793D02*
X4253515Y-14828269D01*
X4348753Y-14780650D02*
X4348753Y-14980650D01*
X4348753Y-14790174D02*
X4367801Y-14780650D01*
X4367801Y-14780650D02*
X4405896Y-14780650D01*
X4405896Y-14780650D02*
X4424944Y-14790174D01*
X4424944Y-14790174D02*
X4434467Y-14799698D01*
X4434467Y-14799698D02*
X4443991Y-14818746D01*
X4443991Y-14818746D02*
X4443991Y-14875888D01*
X4443991Y-14875888D02*
X4434467Y-14894936D01*
X4434467Y-14894936D02*
X4424944Y-14904460D01*
X4424944Y-14904460D02*
X4405896Y-14913984D01*
X4405896Y-14913984D02*
X4367801Y-14913984D01*
X4367801Y-14913984D02*
X4348753Y-14904460D01*
X4529705Y-14894936D02*
X4539229Y-14904460D01*
X4539229Y-14904460D02*
X4529705Y-14913984D01*
X4529705Y-14913984D02*
X4520182Y-14904460D01*
X4520182Y-14904460D02*
X4529705Y-14894936D01*
X4529705Y-14894936D02*
X4529705Y-14913984D01*
X4529705Y-14790174D02*
X4539229Y-14799698D01*
X4539229Y-14799698D02*
X4529705Y-14809222D01*
X4529705Y-14809222D02*
X4520182Y-14799698D01*
X4520182Y-14799698D02*
X4529705Y-14790174D01*
X4529705Y-14790174D02*
X4529705Y-14809222D01*
D12*
X2832500Y-15210000D02*
X2897500Y-15275000D01*
X2897500Y-15210000D02*
X2832500Y-15275000D01*
D11*
X3196372Y-15133984D02*
X3215420Y-15133984D01*
X3215420Y-15133984D02*
X3234467Y-15143508D01*
X3234467Y-15143508D02*
X3243991Y-15153031D01*
X3243991Y-15153031D02*
X3253515Y-15172079D01*
X3253515Y-15172079D02*
X3263039Y-15210174D01*
X3263039Y-15210174D02*
X3263039Y-15257793D01*
X3263039Y-15257793D02*
X3253515Y-15295888D01*
X3253515Y-15295888D02*
X3243991Y-15314936D01*
X3243991Y-15314936D02*
X3234467Y-15324460D01*
X3234467Y-15324460D02*
X3215420Y-15333984D01*
X3215420Y-15333984D02*
X3196372Y-15333984D01*
X3196372Y-15333984D02*
X3177324Y-15324460D01*
X3177324Y-15324460D02*
X3167801Y-15314936D01*
X3167801Y-15314936D02*
X3158277Y-15295888D01*
X3158277Y-15295888D02*
X3148753Y-15257793D01*
X3148753Y-15257793D02*
X3148753Y-15210174D01*
X3148753Y-15210174D02*
X3158277Y-15172079D01*
X3158277Y-15172079D02*
X3167801Y-15153031D01*
X3167801Y-15153031D02*
X3177324Y-15143508D01*
X3177324Y-15143508D02*
X3196372Y-15133984D01*
X3348753Y-15314936D02*
X3358277Y-15324460D01*
X3358277Y-15324460D02*
X3348753Y-15333984D01*
X3348753Y-15333984D02*
X3339229Y-15324460D01*
X3339229Y-15324460D02*
X3348753Y-15314936D01*
X3348753Y-15314936D02*
X3348753Y-15333984D01*
X3529705Y-15133984D02*
X3491610Y-15133984D01*
X3491610Y-15133984D02*
X3472562Y-15143508D01*
X3472562Y-15143508D02*
X3463039Y-15153031D01*
X3463039Y-15153031D02*
X3443991Y-15181603D01*
X3443991Y-15181603D02*
X3434467Y-15219698D01*
X3434467Y-15219698D02*
X3434467Y-15295888D01*
X3434467Y-15295888D02*
X3443991Y-15314936D01*
X3443991Y-15314936D02*
X3453515Y-15324460D01*
X3453515Y-15324460D02*
X3472562Y-15333984D01*
X3472562Y-15333984D02*
X3510658Y-15333984D01*
X3510658Y-15333984D02*
X3529705Y-15324460D01*
X3529705Y-15324460D02*
X3539229Y-15314936D01*
X3539229Y-15314936D02*
X3548753Y-15295888D01*
X3548753Y-15295888D02*
X3548753Y-15248269D01*
X3548753Y-15248269D02*
X3539229Y-15229222D01*
X3539229Y-15229222D02*
X3529705Y-15219698D01*
X3529705Y-15219698D02*
X3510658Y-15210174D01*
X3510658Y-15210174D02*
X3472562Y-15210174D01*
X3472562Y-15210174D02*
X3453515Y-15219698D01*
X3453515Y-15219698D02*
X3443991Y-15229222D01*
X3443991Y-15229222D02*
X3434467Y-15248269D01*
X3729705Y-15133984D02*
X3634467Y-15133984D01*
X3634467Y-15133984D02*
X3624943Y-15229222D01*
X3624943Y-15229222D02*
X3634467Y-15219698D01*
X3634467Y-15219698D02*
X3653515Y-15210174D01*
X3653515Y-15210174D02*
X3701134Y-15210174D01*
X3701134Y-15210174D02*
X3720182Y-15219698D01*
X3720182Y-15219698D02*
X3729705Y-15229222D01*
X3729705Y-15229222D02*
X3739229Y-15248269D01*
X3739229Y-15248269D02*
X3739229Y-15295888D01*
X3739229Y-15295888D02*
X3729705Y-15314936D01*
X3729705Y-15314936D02*
X3720182Y-15324460D01*
X3720182Y-15324460D02*
X3701134Y-15333984D01*
X3701134Y-15333984D02*
X3653515Y-15333984D01*
X3653515Y-15333984D02*
X3634467Y-15324460D01*
X3634467Y-15324460D02*
X3624943Y-15314936D01*
X3863039Y-15133984D02*
X3882086Y-15133984D01*
X3882086Y-15133984D02*
X3901134Y-15143508D01*
X3901134Y-15143508D02*
X3910658Y-15153031D01*
X3910658Y-15153031D02*
X3920182Y-15172079D01*
X3920182Y-15172079D02*
X3929705Y-15210174D01*
X3929705Y-15210174D02*
X3929705Y-15257793D01*
X3929705Y-15257793D02*
X3920182Y-15295888D01*
X3920182Y-15295888D02*
X3910658Y-15314936D01*
X3910658Y-15314936D02*
X3901134Y-15324460D01*
X3901134Y-15324460D02*
X3882086Y-15333984D01*
X3882086Y-15333984D02*
X3863039Y-15333984D01*
X3863039Y-15333984D02*
X3843991Y-15324460D01*
X3843991Y-15324460D02*
X3834467Y-15314936D01*
X3834467Y-15314936D02*
X3824943Y-15295888D01*
X3824943Y-15295888D02*
X3815420Y-15257793D01*
X3815420Y-15257793D02*
X3815420Y-15210174D01*
X3815420Y-15210174D02*
X3824943Y-15172079D01*
X3824943Y-15172079D02*
X3834467Y-15153031D01*
X3834467Y-15153031D02*
X3843991Y-15143508D01*
X3843991Y-15143508D02*
X3863039Y-15133984D01*
X4015420Y-15333984D02*
X4015420Y-15200650D01*
X4015420Y-15219698D02*
X4024943Y-15210174D01*
X4024943Y-15210174D02*
X4043991Y-15200650D01*
X4043991Y-15200650D02*
X4072563Y-15200650D01*
X4072563Y-15200650D02*
X4091610Y-15210174D01*
X4091610Y-15210174D02*
X4101134Y-15229222D01*
X4101134Y-15229222D02*
X4101134Y-15333984D01*
X4101134Y-15229222D02*
X4110658Y-15210174D01*
X4110658Y-15210174D02*
X4129705Y-15200650D01*
X4129705Y-15200650D02*
X4158277Y-15200650D01*
X4158277Y-15200650D02*
X4177324Y-15210174D01*
X4177324Y-15210174D02*
X4186848Y-15229222D01*
X4186848Y-15229222D02*
X4186848Y-15333984D01*
X4282086Y-15333984D02*
X4282086Y-15200650D01*
X4282086Y-15219698D02*
X4291610Y-15210174D01*
X4291610Y-15210174D02*
X4310658Y-15200650D01*
X4310658Y-15200650D02*
X4339229Y-15200650D01*
X4339229Y-15200650D02*
X4358277Y-15210174D01*
X4358277Y-15210174D02*
X4367801Y-15229222D01*
X4367801Y-15229222D02*
X4367801Y-15333984D01*
X4367801Y-15229222D02*
X4377325Y-15210174D01*
X4377325Y-15210174D02*
X4396372Y-15200650D01*
X4396372Y-15200650D02*
X4424944Y-15200650D01*
X4424944Y-15200650D02*
X4443991Y-15210174D01*
X4443991Y-15210174D02*
X4453515Y-15229222D01*
X4453515Y-15229222D02*
X4453515Y-15333984D01*
X4843991Y-15124460D02*
X4672563Y-15381603D01*
X5101134Y-15133984D02*
X5120182Y-15133984D01*
X5120182Y-15133984D02*
X5139229Y-15143508D01*
X5139229Y-15143508D02*
X5148753Y-15153031D01*
X5148753Y-15153031D02*
X5158277Y-15172079D01*
X5158277Y-15172079D02*
X5167801Y-15210174D01*
X5167801Y-15210174D02*
X5167801Y-15257793D01*
X5167801Y-15257793D02*
X5158277Y-15295888D01*
X5158277Y-15295888D02*
X5148753Y-15314936D01*
X5148753Y-15314936D02*
X5139229Y-15324460D01*
X5139229Y-15324460D02*
X5120182Y-15333984D01*
X5120182Y-15333984D02*
X5101134Y-15333984D01*
X5101134Y-15333984D02*
X5082087Y-15324460D01*
X5082087Y-15324460D02*
X5072563Y-15314936D01*
X5072563Y-15314936D02*
X5063039Y-15295888D01*
X5063039Y-15295888D02*
X5053515Y-15257793D01*
X5053515Y-15257793D02*
X5053515Y-15210174D01*
X5053515Y-15210174D02*
X5063039Y-15172079D01*
X5063039Y-15172079D02*
X5072563Y-15153031D01*
X5072563Y-15153031D02*
X5082087Y-15143508D01*
X5082087Y-15143508D02*
X5101134Y-15133984D01*
X5253515Y-15314936D02*
X5263039Y-15324460D01*
X5263039Y-15324460D02*
X5253515Y-15333984D01*
X5253515Y-15333984D02*
X5243991Y-15324460D01*
X5243991Y-15324460D02*
X5253515Y-15314936D01*
X5253515Y-15314936D02*
X5253515Y-15333984D01*
X5386848Y-15133984D02*
X5405896Y-15133984D01*
X5405896Y-15133984D02*
X5424944Y-15143508D01*
X5424944Y-15143508D02*
X5434468Y-15153031D01*
X5434468Y-15153031D02*
X5443991Y-15172079D01*
X5443991Y-15172079D02*
X5453515Y-15210174D01*
X5453515Y-15210174D02*
X5453515Y-15257793D01*
X5453515Y-15257793D02*
X5443991Y-15295888D01*
X5443991Y-15295888D02*
X5434468Y-15314936D01*
X5434468Y-15314936D02*
X5424944Y-15324460D01*
X5424944Y-15324460D02*
X5405896Y-15333984D01*
X5405896Y-15333984D02*
X5386848Y-15333984D01*
X5386848Y-15333984D02*
X5367801Y-15324460D01*
X5367801Y-15324460D02*
X5358277Y-15314936D01*
X5358277Y-15314936D02*
X5348753Y-15295888D01*
X5348753Y-15295888D02*
X5339229Y-15257793D01*
X5339229Y-15257793D02*
X5339229Y-15210174D01*
X5339229Y-15210174D02*
X5348753Y-15172079D01*
X5348753Y-15172079D02*
X5358277Y-15153031D01*
X5358277Y-15153031D02*
X5367801Y-15143508D01*
X5367801Y-15143508D02*
X5386848Y-15133984D01*
X5529706Y-15153031D02*
X5539229Y-15143508D01*
X5539229Y-15143508D02*
X5558277Y-15133984D01*
X5558277Y-15133984D02*
X5605896Y-15133984D01*
X5605896Y-15133984D02*
X5624944Y-15143508D01*
X5624944Y-15143508D02*
X5634467Y-15153031D01*
X5634467Y-15153031D02*
X5643991Y-15172079D01*
X5643991Y-15172079D02*
X5643991Y-15191127D01*
X5643991Y-15191127D02*
X5634467Y-15219698D01*
X5634467Y-15219698D02*
X5520182Y-15333984D01*
X5520182Y-15333984D02*
X5643991Y-15333984D01*
X5824944Y-15133984D02*
X5729706Y-15133984D01*
X5729706Y-15133984D02*
X5720182Y-15229222D01*
X5720182Y-15229222D02*
X5729706Y-15219698D01*
X5729706Y-15219698D02*
X5748753Y-15210174D01*
X5748753Y-15210174D02*
X5796372Y-15210174D01*
X5796372Y-15210174D02*
X5815420Y-15219698D01*
X5815420Y-15219698D02*
X5824944Y-15229222D01*
X5824944Y-15229222D02*
X5834467Y-15248269D01*
X5834467Y-15248269D02*
X5834467Y-15295888D01*
X5834467Y-15295888D02*
X5824944Y-15314936D01*
X5824944Y-15314936D02*
X5815420Y-15324460D01*
X5815420Y-15324460D02*
X5796372Y-15333984D01*
X5796372Y-15333984D02*
X5748753Y-15333984D01*
X5748753Y-15333984D02*
X5729706Y-15324460D01*
X5729706Y-15324460D02*
X5720182Y-15314936D01*
X6005896Y-15133984D02*
X5967801Y-15133984D01*
X5967801Y-15133984D02*
X5948753Y-15143508D01*
X5948753Y-15143508D02*
X5939229Y-15153031D01*
X5939229Y-15153031D02*
X5920182Y-15181603D01*
X5920182Y-15181603D02*
X5910658Y-15219698D01*
X5910658Y-15219698D02*
X5910658Y-15295888D01*
X5910658Y-15295888D02*
X5920182Y-15314936D01*
X5920182Y-15314936D02*
X5929706Y-15324460D01*
X5929706Y-15324460D02*
X5948753Y-15333984D01*
X5948753Y-15333984D02*
X5986848Y-15333984D01*
X5986848Y-15333984D02*
X6005896Y-15324460D01*
X6005896Y-15324460D02*
X6015420Y-15314936D01*
X6015420Y-15314936D02*
X6024944Y-15295888D01*
X6024944Y-15295888D02*
X6024944Y-15248269D01*
X6024944Y-15248269D02*
X6015420Y-15229222D01*
X6015420Y-15229222D02*
X6005896Y-15219698D01*
X6005896Y-15219698D02*
X5986848Y-15210174D01*
X5986848Y-15210174D02*
X5948753Y-15210174D01*
X5948753Y-15210174D02*
X5929706Y-15219698D01*
X5929706Y-15219698D02*
X5920182Y-15229222D01*
X5920182Y-15229222D02*
X5910658Y-15248269D01*
X6101134Y-15133984D02*
X6101134Y-15172079D01*
X6177325Y-15133984D02*
X6177325Y-15172079D01*
X6472563Y-15410174D02*
X6463039Y-15400650D01*
X6463039Y-15400650D02*
X6443991Y-15372079D01*
X6443991Y-15372079D02*
X6434468Y-15353031D01*
X6434468Y-15353031D02*
X6424944Y-15324460D01*
X6424944Y-15324460D02*
X6415420Y-15276841D01*
X6415420Y-15276841D02*
X6415420Y-15238746D01*
X6415420Y-15238746D02*
X6424944Y-15191127D01*
X6424944Y-15191127D02*
X6434468Y-15162555D01*
X6434468Y-15162555D02*
X6443991Y-15143508D01*
X6443991Y-15143508D02*
X6463039Y-15114936D01*
X6463039Y-15114936D02*
X6472563Y-15105412D01*
X6539229Y-15153031D02*
X6548753Y-15143508D01*
X6548753Y-15143508D02*
X6567801Y-15133984D01*
X6567801Y-15133984D02*
X6615420Y-15133984D01*
X6615420Y-15133984D02*
X6634468Y-15143508D01*
X6634468Y-15143508D02*
X6643991Y-15153031D01*
X6643991Y-15153031D02*
X6653515Y-15172079D01*
X6653515Y-15172079D02*
X6653515Y-15191127D01*
X6653515Y-15191127D02*
X6643991Y-15219698D01*
X6643991Y-15219698D02*
X6529706Y-15333984D01*
X6529706Y-15333984D02*
X6653515Y-15333984D01*
X6891610Y-15333984D02*
X6891610Y-15133984D01*
X6977325Y-15333984D02*
X6977325Y-15229222D01*
X6977325Y-15229222D02*
X6967801Y-15210174D01*
X6967801Y-15210174D02*
X6948753Y-15200650D01*
X6948753Y-15200650D02*
X6920182Y-15200650D01*
X6920182Y-15200650D02*
X6901134Y-15210174D01*
X6901134Y-15210174D02*
X6891610Y-15219698D01*
X7101134Y-15333984D02*
X7082087Y-15324460D01*
X7082087Y-15324460D02*
X7072563Y-15314936D01*
X7072563Y-15314936D02*
X7063039Y-15295888D01*
X7063039Y-15295888D02*
X7063039Y-15238746D01*
X7063039Y-15238746D02*
X7072563Y-15219698D01*
X7072563Y-15219698D02*
X7082087Y-15210174D01*
X7082087Y-15210174D02*
X7101134Y-15200650D01*
X7101134Y-15200650D02*
X7129706Y-15200650D01*
X7129706Y-15200650D02*
X7148753Y-15210174D01*
X7148753Y-15210174D02*
X7158277Y-15219698D01*
X7158277Y-15219698D02*
X7167801Y-15238746D01*
X7167801Y-15238746D02*
X7167801Y-15295888D01*
X7167801Y-15295888D02*
X7158277Y-15314936D01*
X7158277Y-15314936D02*
X7148753Y-15324460D01*
X7148753Y-15324460D02*
X7129706Y-15333984D01*
X7129706Y-15333984D02*
X7101134Y-15333984D01*
X7282087Y-15333984D02*
X7263039Y-15324460D01*
X7263039Y-15324460D02*
X7253515Y-15305412D01*
X7253515Y-15305412D02*
X7253515Y-15133984D01*
X7434468Y-15324460D02*
X7415420Y-15333984D01*
X7415420Y-15333984D02*
X7377325Y-15333984D01*
X7377325Y-15333984D02*
X7358277Y-15324460D01*
X7358277Y-15324460D02*
X7348753Y-15305412D01*
X7348753Y-15305412D02*
X7348753Y-15229222D01*
X7348753Y-15229222D02*
X7358277Y-15210174D01*
X7358277Y-15210174D02*
X7377325Y-15200650D01*
X7377325Y-15200650D02*
X7415420Y-15200650D01*
X7415420Y-15200650D02*
X7434468Y-15210174D01*
X7434468Y-15210174D02*
X7443991Y-15229222D01*
X7443991Y-15229222D02*
X7443991Y-15248269D01*
X7443991Y-15248269D02*
X7348753Y-15267317D01*
X7520182Y-15324460D02*
X7539230Y-15333984D01*
X7539230Y-15333984D02*
X7577325Y-15333984D01*
X7577325Y-15333984D02*
X7596372Y-15324460D01*
X7596372Y-15324460D02*
X7605896Y-15305412D01*
X7605896Y-15305412D02*
X7605896Y-15295888D01*
X7605896Y-15295888D02*
X7596372Y-15276841D01*
X7596372Y-15276841D02*
X7577325Y-15267317D01*
X7577325Y-15267317D02*
X7548753Y-15267317D01*
X7548753Y-15267317D02*
X7529706Y-15257793D01*
X7529706Y-15257793D02*
X7520182Y-15238746D01*
X7520182Y-15238746D02*
X7520182Y-15229222D01*
X7520182Y-15229222D02*
X7529706Y-15210174D01*
X7529706Y-15210174D02*
X7548753Y-15200650D01*
X7548753Y-15200650D02*
X7577325Y-15200650D01*
X7577325Y-15200650D02*
X7596372Y-15210174D01*
X7672563Y-15410174D02*
X7682087Y-15400650D01*
X7682087Y-15400650D02*
X7701134Y-15372079D01*
X7701134Y-15372079D02*
X7710658Y-15353031D01*
X7710658Y-15353031D02*
X7720182Y-15324460D01*
X7720182Y-15324460D02*
X7729706Y-15276841D01*
X7729706Y-15276841D02*
X7729706Y-15238746D01*
X7729706Y-15238746D02*
X7720182Y-15191127D01*
X7720182Y-15191127D02*
X7710658Y-15162555D01*
X7710658Y-15162555D02*
X7701134Y-15143508D01*
X7701134Y-15143508D02*
X7682087Y-15114936D01*
X7682087Y-15114936D02*
X7672563Y-15105412D01*
X8034468Y-15410174D02*
X8024944Y-15400650D01*
X8024944Y-15400650D02*
X8005896Y-15372079D01*
X8005896Y-15372079D02*
X7996372Y-15353031D01*
X7996372Y-15353031D02*
X7986849Y-15324460D01*
X7986849Y-15324460D02*
X7977325Y-15276841D01*
X7977325Y-15276841D02*
X7977325Y-15238746D01*
X7977325Y-15238746D02*
X7986849Y-15191127D01*
X7986849Y-15191127D02*
X7996372Y-15162555D01*
X7996372Y-15162555D02*
X8005896Y-15143508D01*
X8005896Y-15143508D02*
X8024944Y-15114936D01*
X8024944Y-15114936D02*
X8034468Y-15105412D01*
X8110658Y-15200650D02*
X8110658Y-15333984D01*
X8110658Y-15219698D02*
X8120182Y-15210174D01*
X8120182Y-15210174D02*
X8139230Y-15200650D01*
X8139230Y-15200650D02*
X8167801Y-15200650D01*
X8167801Y-15200650D02*
X8186849Y-15210174D01*
X8186849Y-15210174D02*
X8196372Y-15229222D01*
X8196372Y-15229222D02*
X8196372Y-15333984D01*
X8320182Y-15333984D02*
X8301134Y-15324460D01*
X8301134Y-15324460D02*
X8291611Y-15314936D01*
X8291611Y-15314936D02*
X8282087Y-15295888D01*
X8282087Y-15295888D02*
X8282087Y-15238746D01*
X8282087Y-15238746D02*
X8291611Y-15219698D01*
X8291611Y-15219698D02*
X8301134Y-15210174D01*
X8301134Y-15210174D02*
X8320182Y-15200650D01*
X8320182Y-15200650D02*
X8348753Y-15200650D01*
X8348753Y-15200650D02*
X8367801Y-15210174D01*
X8367801Y-15210174D02*
X8377325Y-15219698D01*
X8377325Y-15219698D02*
X8386849Y-15238746D01*
X8386849Y-15238746D02*
X8386849Y-15295888D01*
X8386849Y-15295888D02*
X8377325Y-15314936D01*
X8377325Y-15314936D02*
X8367801Y-15324460D01*
X8367801Y-15324460D02*
X8348753Y-15333984D01*
X8348753Y-15333984D02*
X8320182Y-15333984D01*
X8443992Y-15200650D02*
X8520182Y-15200650D01*
X8472563Y-15133984D02*
X8472563Y-15305412D01*
X8472563Y-15305412D02*
X8482087Y-15324460D01*
X8482087Y-15324460D02*
X8501134Y-15333984D01*
X8501134Y-15333984D02*
X8520182Y-15333984D01*
X8739230Y-15200650D02*
X8739230Y-15400650D01*
X8739230Y-15210174D02*
X8758277Y-15200650D01*
X8758277Y-15200650D02*
X8796373Y-15200650D01*
X8796373Y-15200650D02*
X8815420Y-15210174D01*
X8815420Y-15210174D02*
X8824944Y-15219698D01*
X8824944Y-15219698D02*
X8834468Y-15238746D01*
X8834468Y-15238746D02*
X8834468Y-15295888D01*
X8834468Y-15295888D02*
X8824944Y-15314936D01*
X8824944Y-15314936D02*
X8815420Y-15324460D01*
X8815420Y-15324460D02*
X8796373Y-15333984D01*
X8796373Y-15333984D02*
X8758277Y-15333984D01*
X8758277Y-15333984D02*
X8739230Y-15324460D01*
X8948754Y-15333984D02*
X8929706Y-15324460D01*
X8929706Y-15324460D02*
X8920182Y-15305412D01*
X8920182Y-15305412D02*
X8920182Y-15133984D01*
X9110658Y-15333984D02*
X9110658Y-15229222D01*
X9110658Y-15229222D02*
X9101135Y-15210174D01*
X9101135Y-15210174D02*
X9082087Y-15200650D01*
X9082087Y-15200650D02*
X9043992Y-15200650D01*
X9043992Y-15200650D02*
X9024944Y-15210174D01*
X9110658Y-15324460D02*
X9091611Y-15333984D01*
X9091611Y-15333984D02*
X9043992Y-15333984D01*
X9043992Y-15333984D02*
X9024944Y-15324460D01*
X9024944Y-15324460D02*
X9015420Y-15305412D01*
X9015420Y-15305412D02*
X9015420Y-15286365D01*
X9015420Y-15286365D02*
X9024944Y-15267317D01*
X9024944Y-15267317D02*
X9043992Y-15257793D01*
X9043992Y-15257793D02*
X9091611Y-15257793D01*
X9091611Y-15257793D02*
X9110658Y-15248269D01*
X9177325Y-15200650D02*
X9253515Y-15200650D01*
X9205896Y-15133984D02*
X9205896Y-15305412D01*
X9205896Y-15305412D02*
X9215420Y-15324460D01*
X9215420Y-15324460D02*
X9234468Y-15333984D01*
X9234468Y-15333984D02*
X9253515Y-15333984D01*
X9396373Y-15324460D02*
X9377325Y-15333984D01*
X9377325Y-15333984D02*
X9339230Y-15333984D01*
X9339230Y-15333984D02*
X9320182Y-15324460D01*
X9320182Y-15324460D02*
X9310658Y-15305412D01*
X9310658Y-15305412D02*
X9310658Y-15229222D01*
X9310658Y-15229222D02*
X9320182Y-15210174D01*
X9320182Y-15210174D02*
X9339230Y-15200650D01*
X9339230Y-15200650D02*
X9377325Y-15200650D01*
X9377325Y-15200650D02*
X9396373Y-15210174D01*
X9396373Y-15210174D02*
X9405896Y-15229222D01*
X9405896Y-15229222D02*
X9405896Y-15248269D01*
X9405896Y-15248269D02*
X9310658Y-15267317D01*
X9577325Y-15333984D02*
X9577325Y-15133984D01*
X9577325Y-15324460D02*
X9558277Y-15333984D01*
X9558277Y-15333984D02*
X9520182Y-15333984D01*
X9520182Y-15333984D02*
X9501135Y-15324460D01*
X9501135Y-15324460D02*
X9491611Y-15314936D01*
X9491611Y-15314936D02*
X9482087Y-15295888D01*
X9482087Y-15295888D02*
X9482087Y-15238746D01*
X9482087Y-15238746D02*
X9491611Y-15219698D01*
X9491611Y-15219698D02*
X9501135Y-15210174D01*
X9501135Y-15210174D02*
X9520182Y-15200650D01*
X9520182Y-15200650D02*
X9558277Y-15200650D01*
X9558277Y-15200650D02*
X9577325Y-15210174D01*
X9653516Y-15410174D02*
X9663039Y-15400650D01*
X9663039Y-15400650D02*
X9682087Y-15372079D01*
X9682087Y-15372079D02*
X9691611Y-15353031D01*
X9691611Y-15353031D02*
X9701135Y-15324460D01*
X9701135Y-15324460D02*
X9710658Y-15276841D01*
X9710658Y-15276841D02*
X9710658Y-15238746D01*
X9710658Y-15238746D02*
X9701135Y-15191127D01*
X9701135Y-15191127D02*
X9691611Y-15162555D01*
X9691611Y-15162555D02*
X9682087Y-15143508D01*
X9682087Y-15143508D02*
X9663039Y-15114936D01*
X9663039Y-15114936D02*
X9653516Y-15105412D01*
D13*
X2897500Y-15506500D02*
G75*
G02*
X2767960Y-15506500I-64770J0D01*
G01*
X2767960Y-15506500D02*
G75*
G02*
X2897500Y-15506500I64770J0D01*
G01*
D11*
X3263039Y-15597984D02*
X3148753Y-15597984D01*
X3205896Y-15597984D02*
X3205896Y-15397984D01*
X3205896Y-15397984D02*
X3186848Y-15426555D01*
X3186848Y-15426555D02*
X3167801Y-15445603D01*
X3167801Y-15445603D02*
X3148753Y-15455127D01*
X3348753Y-15578936D02*
X3358277Y-15588460D01*
X3358277Y-15588460D02*
X3348753Y-15597984D01*
X3348753Y-15597984D02*
X3339229Y-15588460D01*
X3339229Y-15588460D02*
X3348753Y-15578936D01*
X3348753Y-15578936D02*
X3348753Y-15597984D01*
X3434467Y-15417031D02*
X3443991Y-15407508D01*
X3443991Y-15407508D02*
X3463039Y-15397984D01*
X3463039Y-15397984D02*
X3510658Y-15397984D01*
X3510658Y-15397984D02*
X3529705Y-15407508D01*
X3529705Y-15407508D02*
X3539229Y-15417031D01*
X3539229Y-15417031D02*
X3548753Y-15436079D01*
X3548753Y-15436079D02*
X3548753Y-15455127D01*
X3548753Y-15455127D02*
X3539229Y-15483698D01*
X3539229Y-15483698D02*
X3424943Y-15597984D01*
X3424943Y-15597984D02*
X3548753Y-15597984D01*
X3643991Y-15597984D02*
X3682086Y-15597984D01*
X3682086Y-15597984D02*
X3701134Y-15588460D01*
X3701134Y-15588460D02*
X3710658Y-15578936D01*
X3710658Y-15578936D02*
X3729705Y-15550365D01*
X3729705Y-15550365D02*
X3739229Y-15512269D01*
X3739229Y-15512269D02*
X3739229Y-15436079D01*
X3739229Y-15436079D02*
X3729705Y-15417031D01*
X3729705Y-15417031D02*
X3720182Y-15407508D01*
X3720182Y-15407508D02*
X3701134Y-15397984D01*
X3701134Y-15397984D02*
X3663039Y-15397984D01*
X3663039Y-15397984D02*
X3643991Y-15407508D01*
X3643991Y-15407508D02*
X3634467Y-15417031D01*
X3634467Y-15417031D02*
X3624943Y-15436079D01*
X3624943Y-15436079D02*
X3624943Y-15483698D01*
X3624943Y-15483698D02*
X3634467Y-15502746D01*
X3634467Y-15502746D02*
X3643991Y-15512269D01*
X3643991Y-15512269D02*
X3663039Y-15521793D01*
X3663039Y-15521793D02*
X3701134Y-15521793D01*
X3701134Y-15521793D02*
X3720182Y-15512269D01*
X3720182Y-15512269D02*
X3729705Y-15502746D01*
X3729705Y-15502746D02*
X3739229Y-15483698D01*
X3920182Y-15397984D02*
X3824943Y-15397984D01*
X3824943Y-15397984D02*
X3815420Y-15493222D01*
X3815420Y-15493222D02*
X3824943Y-15483698D01*
X3824943Y-15483698D02*
X3843991Y-15474174D01*
X3843991Y-15474174D02*
X3891610Y-15474174D01*
X3891610Y-15474174D02*
X3910658Y-15483698D01*
X3910658Y-15483698D02*
X3920182Y-15493222D01*
X3920182Y-15493222D02*
X3929705Y-15512269D01*
X3929705Y-15512269D02*
X3929705Y-15559888D01*
X3929705Y-15559888D02*
X3920182Y-15578936D01*
X3920182Y-15578936D02*
X3910658Y-15588460D01*
X3910658Y-15588460D02*
X3891610Y-15597984D01*
X3891610Y-15597984D02*
X3843991Y-15597984D01*
X3843991Y-15597984D02*
X3824943Y-15588460D01*
X3824943Y-15588460D02*
X3815420Y-15578936D01*
X4015420Y-15597984D02*
X4015420Y-15464650D01*
X4015420Y-15483698D02*
X4024943Y-15474174D01*
X4024943Y-15474174D02*
X4043991Y-15464650D01*
X4043991Y-15464650D02*
X4072563Y-15464650D01*
X4072563Y-15464650D02*
X4091610Y-15474174D01*
X4091610Y-15474174D02*
X4101134Y-15493222D01*
X4101134Y-15493222D02*
X4101134Y-15597984D01*
X4101134Y-15493222D02*
X4110658Y-15474174D01*
X4110658Y-15474174D02*
X4129705Y-15464650D01*
X4129705Y-15464650D02*
X4158277Y-15464650D01*
X4158277Y-15464650D02*
X4177324Y-15474174D01*
X4177324Y-15474174D02*
X4186848Y-15493222D01*
X4186848Y-15493222D02*
X4186848Y-15597984D01*
X4282086Y-15597984D02*
X4282086Y-15464650D01*
X4282086Y-15483698D02*
X4291610Y-15474174D01*
X4291610Y-15474174D02*
X4310658Y-15464650D01*
X4310658Y-15464650D02*
X4339229Y-15464650D01*
X4339229Y-15464650D02*
X4358277Y-15474174D01*
X4358277Y-15474174D02*
X4367801Y-15493222D01*
X4367801Y-15493222D02*
X4367801Y-15597984D01*
X4367801Y-15493222D02*
X4377325Y-15474174D01*
X4377325Y-15474174D02*
X4396372Y-15464650D01*
X4396372Y-15464650D02*
X4424944Y-15464650D01*
X4424944Y-15464650D02*
X4443991Y-15474174D01*
X4443991Y-15474174D02*
X4453515Y-15493222D01*
X4453515Y-15493222D02*
X4453515Y-15597984D01*
X4843991Y-15388460D02*
X4672563Y-15645603D01*
X5101134Y-15397984D02*
X5120182Y-15397984D01*
X5120182Y-15397984D02*
X5139229Y-15407508D01*
X5139229Y-15407508D02*
X5148753Y-15417031D01*
X5148753Y-15417031D02*
X5158277Y-15436079D01*
X5158277Y-15436079D02*
X5167801Y-15474174D01*
X5167801Y-15474174D02*
X5167801Y-15521793D01*
X5167801Y-15521793D02*
X5158277Y-15559888D01*
X5158277Y-15559888D02*
X5148753Y-15578936D01*
X5148753Y-15578936D02*
X5139229Y-15588460D01*
X5139229Y-15588460D02*
X5120182Y-15597984D01*
X5120182Y-15597984D02*
X5101134Y-15597984D01*
X5101134Y-15597984D02*
X5082087Y-15588460D01*
X5082087Y-15588460D02*
X5072563Y-15578936D01*
X5072563Y-15578936D02*
X5063039Y-15559888D01*
X5063039Y-15559888D02*
X5053515Y-15521793D01*
X5053515Y-15521793D02*
X5053515Y-15474174D01*
X5053515Y-15474174D02*
X5063039Y-15436079D01*
X5063039Y-15436079D02*
X5072563Y-15417031D01*
X5072563Y-15417031D02*
X5082087Y-15407508D01*
X5082087Y-15407508D02*
X5101134Y-15397984D01*
X5253515Y-15578936D02*
X5263039Y-15588460D01*
X5263039Y-15588460D02*
X5253515Y-15597984D01*
X5253515Y-15597984D02*
X5243991Y-15588460D01*
X5243991Y-15588460D02*
X5253515Y-15578936D01*
X5253515Y-15578936D02*
X5253515Y-15597984D01*
X5386848Y-15397984D02*
X5405896Y-15397984D01*
X5405896Y-15397984D02*
X5424944Y-15407508D01*
X5424944Y-15407508D02*
X5434468Y-15417031D01*
X5434468Y-15417031D02*
X5443991Y-15436079D01*
X5443991Y-15436079D02*
X5453515Y-15474174D01*
X5453515Y-15474174D02*
X5453515Y-15521793D01*
X5453515Y-15521793D02*
X5443991Y-15559888D01*
X5443991Y-15559888D02*
X5434468Y-15578936D01*
X5434468Y-15578936D02*
X5424944Y-15588460D01*
X5424944Y-15588460D02*
X5405896Y-15597984D01*
X5405896Y-15597984D02*
X5386848Y-15597984D01*
X5386848Y-15597984D02*
X5367801Y-15588460D01*
X5367801Y-15588460D02*
X5358277Y-15578936D01*
X5358277Y-15578936D02*
X5348753Y-15559888D01*
X5348753Y-15559888D02*
X5339229Y-15521793D01*
X5339229Y-15521793D02*
X5339229Y-15474174D01*
X5339229Y-15474174D02*
X5348753Y-15436079D01*
X5348753Y-15436079D02*
X5358277Y-15417031D01*
X5358277Y-15417031D02*
X5367801Y-15407508D01*
X5367801Y-15407508D02*
X5386848Y-15397984D01*
X5634467Y-15397984D02*
X5539229Y-15397984D01*
X5539229Y-15397984D02*
X5529706Y-15493222D01*
X5529706Y-15493222D02*
X5539229Y-15483698D01*
X5539229Y-15483698D02*
X5558277Y-15474174D01*
X5558277Y-15474174D02*
X5605896Y-15474174D01*
X5605896Y-15474174D02*
X5624944Y-15483698D01*
X5624944Y-15483698D02*
X5634467Y-15493222D01*
X5634467Y-15493222D02*
X5643991Y-15512269D01*
X5643991Y-15512269D02*
X5643991Y-15559888D01*
X5643991Y-15559888D02*
X5634467Y-15578936D01*
X5634467Y-15578936D02*
X5624944Y-15588460D01*
X5624944Y-15588460D02*
X5605896Y-15597984D01*
X5605896Y-15597984D02*
X5558277Y-15597984D01*
X5558277Y-15597984D02*
X5539229Y-15588460D01*
X5539229Y-15588460D02*
X5529706Y-15578936D01*
X5834467Y-15597984D02*
X5720182Y-15597984D01*
X5777325Y-15597984D02*
X5777325Y-15397984D01*
X5777325Y-15397984D02*
X5758277Y-15426555D01*
X5758277Y-15426555D02*
X5739229Y-15445603D01*
X5739229Y-15445603D02*
X5720182Y-15455127D01*
X5958277Y-15397984D02*
X5977325Y-15397984D01*
X5977325Y-15397984D02*
X5996372Y-15407508D01*
X5996372Y-15407508D02*
X6005896Y-15417031D01*
X6005896Y-15417031D02*
X6015420Y-15436079D01*
X6015420Y-15436079D02*
X6024944Y-15474174D01*
X6024944Y-15474174D02*
X6024944Y-15521793D01*
X6024944Y-15521793D02*
X6015420Y-15559888D01*
X6015420Y-15559888D02*
X6005896Y-15578936D01*
X6005896Y-15578936D02*
X5996372Y-15588460D01*
X5996372Y-15588460D02*
X5977325Y-15597984D01*
X5977325Y-15597984D02*
X5958277Y-15597984D01*
X5958277Y-15597984D02*
X5939229Y-15588460D01*
X5939229Y-15588460D02*
X5929706Y-15578936D01*
X5929706Y-15578936D02*
X5920182Y-15559888D01*
X5920182Y-15559888D02*
X5910658Y-15521793D01*
X5910658Y-15521793D02*
X5910658Y-15474174D01*
X5910658Y-15474174D02*
X5920182Y-15436079D01*
X5920182Y-15436079D02*
X5929706Y-15417031D01*
X5929706Y-15417031D02*
X5939229Y-15407508D01*
X5939229Y-15407508D02*
X5958277Y-15397984D01*
X6101134Y-15397984D02*
X6101134Y-15436079D01*
X6177325Y-15397984D02*
X6177325Y-15436079D01*
X6472563Y-15674174D02*
X6463039Y-15664650D01*
X6463039Y-15664650D02*
X6443991Y-15636079D01*
X6443991Y-15636079D02*
X6434468Y-15617031D01*
X6434468Y-15617031D02*
X6424944Y-15588460D01*
X6424944Y-15588460D02*
X6415420Y-15540841D01*
X6415420Y-15540841D02*
X6415420Y-15502746D01*
X6415420Y-15502746D02*
X6424944Y-15455127D01*
X6424944Y-15455127D02*
X6434468Y-15426555D01*
X6434468Y-15426555D02*
X6443991Y-15407508D01*
X6443991Y-15407508D02*
X6463039Y-15378936D01*
X6463039Y-15378936D02*
X6472563Y-15369412D01*
X6653515Y-15597984D02*
X6539229Y-15597984D01*
X6596372Y-15597984D02*
X6596372Y-15397984D01*
X6596372Y-15397984D02*
X6577325Y-15426555D01*
X6577325Y-15426555D02*
X6558277Y-15445603D01*
X6558277Y-15445603D02*
X6539229Y-15455127D01*
X6891610Y-15597984D02*
X6891610Y-15397984D01*
X6977325Y-15597984D02*
X6977325Y-15493222D01*
X6977325Y-15493222D02*
X6967801Y-15474174D01*
X6967801Y-15474174D02*
X6948753Y-15464650D01*
X6948753Y-15464650D02*
X6920182Y-15464650D01*
X6920182Y-15464650D02*
X6901134Y-15474174D01*
X6901134Y-15474174D02*
X6891610Y-15483698D01*
X7101134Y-15597984D02*
X7082087Y-15588460D01*
X7082087Y-15588460D02*
X7072563Y-15578936D01*
X7072563Y-15578936D02*
X7063039Y-15559888D01*
X7063039Y-15559888D02*
X7063039Y-15502746D01*
X7063039Y-15502746D02*
X7072563Y-15483698D01*
X7072563Y-15483698D02*
X7082087Y-15474174D01*
X7082087Y-15474174D02*
X7101134Y-15464650D01*
X7101134Y-15464650D02*
X7129706Y-15464650D01*
X7129706Y-15464650D02*
X7148753Y-15474174D01*
X7148753Y-15474174D02*
X7158277Y-15483698D01*
X7158277Y-15483698D02*
X7167801Y-15502746D01*
X7167801Y-15502746D02*
X7167801Y-15559888D01*
X7167801Y-15559888D02*
X7158277Y-15578936D01*
X7158277Y-15578936D02*
X7148753Y-15588460D01*
X7148753Y-15588460D02*
X7129706Y-15597984D01*
X7129706Y-15597984D02*
X7101134Y-15597984D01*
X7282087Y-15597984D02*
X7263039Y-15588460D01*
X7263039Y-15588460D02*
X7253515Y-15569412D01*
X7253515Y-15569412D02*
X7253515Y-15397984D01*
X7434468Y-15588460D02*
X7415420Y-15597984D01*
X7415420Y-15597984D02*
X7377325Y-15597984D01*
X7377325Y-15597984D02*
X7358277Y-15588460D01*
X7358277Y-15588460D02*
X7348753Y-15569412D01*
X7348753Y-15569412D02*
X7348753Y-15493222D01*
X7348753Y-15493222D02*
X7358277Y-15474174D01*
X7358277Y-15474174D02*
X7377325Y-15464650D01*
X7377325Y-15464650D02*
X7415420Y-15464650D01*
X7415420Y-15464650D02*
X7434468Y-15474174D01*
X7434468Y-15474174D02*
X7443991Y-15493222D01*
X7443991Y-15493222D02*
X7443991Y-15512269D01*
X7443991Y-15512269D02*
X7348753Y-15531317D01*
X7510658Y-15674174D02*
X7520182Y-15664650D01*
X7520182Y-15664650D02*
X7539230Y-15636079D01*
X7539230Y-15636079D02*
X7548753Y-15617031D01*
X7548753Y-15617031D02*
X7558277Y-15588460D01*
X7558277Y-15588460D02*
X7567801Y-15540841D01*
X7567801Y-15540841D02*
X7567801Y-15502746D01*
X7567801Y-15502746D02*
X7558277Y-15455127D01*
X7558277Y-15455127D02*
X7548753Y-15426555D01*
X7548753Y-15426555D02*
X7539230Y-15407508D01*
X7539230Y-15407508D02*
X7520182Y-15378936D01*
X7520182Y-15378936D02*
X7510658Y-15369412D01*
X7872563Y-15674174D02*
X7863039Y-15664650D01*
X7863039Y-15664650D02*
X7843991Y-15636079D01*
X7843991Y-15636079D02*
X7834468Y-15617031D01*
X7834468Y-15617031D02*
X7824944Y-15588460D01*
X7824944Y-15588460D02*
X7815420Y-15540841D01*
X7815420Y-15540841D02*
X7815420Y-15502746D01*
X7815420Y-15502746D02*
X7824944Y-15455127D01*
X7824944Y-15455127D02*
X7834468Y-15426555D01*
X7834468Y-15426555D02*
X7843991Y-15407508D01*
X7843991Y-15407508D02*
X7863039Y-15378936D01*
X7863039Y-15378936D02*
X7872563Y-15369412D01*
X7948753Y-15464650D02*
X7948753Y-15597984D01*
X7948753Y-15483698D02*
X7958277Y-15474174D01*
X7958277Y-15474174D02*
X7977325Y-15464650D01*
X7977325Y-15464650D02*
X8005896Y-15464650D01*
X8005896Y-15464650D02*
X8024944Y-15474174D01*
X8024944Y-15474174D02*
X8034468Y-15493222D01*
X8034468Y-15493222D02*
X8034468Y-15597984D01*
X8158277Y-15597984D02*
X8139230Y-15588460D01*
X8139230Y-15588460D02*
X8129706Y-15578936D01*
X8129706Y-15578936D02*
X8120182Y-15559888D01*
X8120182Y-15559888D02*
X8120182Y-15502746D01*
X8120182Y-15502746D02*
X8129706Y-15483698D01*
X8129706Y-15483698D02*
X8139230Y-15474174D01*
X8139230Y-15474174D02*
X8158277Y-15464650D01*
X8158277Y-15464650D02*
X8186849Y-15464650D01*
X8186849Y-15464650D02*
X8205896Y-15474174D01*
X8205896Y-15474174D02*
X8215420Y-15483698D01*
X8215420Y-15483698D02*
X8224944Y-15502746D01*
X8224944Y-15502746D02*
X8224944Y-15559888D01*
X8224944Y-15559888D02*
X8215420Y-15578936D01*
X8215420Y-15578936D02*
X8205896Y-15588460D01*
X8205896Y-15588460D02*
X8186849Y-15597984D01*
X8186849Y-15597984D02*
X8158277Y-15597984D01*
X8282087Y-15464650D02*
X8358277Y-15464650D01*
X8310658Y-15397984D02*
X8310658Y-15569412D01*
X8310658Y-15569412D02*
X8320182Y-15588460D01*
X8320182Y-15588460D02*
X8339230Y-15597984D01*
X8339230Y-15597984D02*
X8358277Y-15597984D01*
X8577325Y-15464650D02*
X8577325Y-15664650D01*
X8577325Y-15474174D02*
X8596373Y-15464650D01*
X8596373Y-15464650D02*
X8634468Y-15464650D01*
X8634468Y-15464650D02*
X8653515Y-15474174D01*
X8653515Y-15474174D02*
X8663039Y-15483698D01*
X8663039Y-15483698D02*
X8672563Y-15502746D01*
X8672563Y-15502746D02*
X8672563Y-15559888D01*
X8672563Y-15559888D02*
X8663039Y-15578936D01*
X8663039Y-15578936D02*
X8653515Y-15588460D01*
X8653515Y-15588460D02*
X8634468Y-15597984D01*
X8634468Y-15597984D02*
X8596373Y-15597984D01*
X8596373Y-15597984D02*
X8577325Y-15588460D01*
X8786849Y-15597984D02*
X8767801Y-15588460D01*
X8767801Y-15588460D02*
X8758277Y-15569412D01*
X8758277Y-15569412D02*
X8758277Y-15397984D01*
X8948754Y-15597984D02*
X8948754Y-15493222D01*
X8948754Y-15493222D02*
X8939230Y-15474174D01*
X8939230Y-15474174D02*
X8920182Y-15464650D01*
X8920182Y-15464650D02*
X8882087Y-15464650D01*
X8882087Y-15464650D02*
X8863039Y-15474174D01*
X8948754Y-15588460D02*
X8929706Y-15597984D01*
X8929706Y-15597984D02*
X8882087Y-15597984D01*
X8882087Y-15597984D02*
X8863039Y-15588460D01*
X8863039Y-15588460D02*
X8853515Y-15569412D01*
X8853515Y-15569412D02*
X8853515Y-15550365D01*
X8853515Y-15550365D02*
X8863039Y-15531317D01*
X8863039Y-15531317D02*
X8882087Y-15521793D01*
X8882087Y-15521793D02*
X8929706Y-15521793D01*
X8929706Y-15521793D02*
X8948754Y-15512269D01*
X9015420Y-15464650D02*
X9091611Y-15464650D01*
X9043992Y-15397984D02*
X9043992Y-15569412D01*
X9043992Y-15569412D02*
X9053515Y-15588460D01*
X9053515Y-15588460D02*
X9072563Y-15597984D01*
X9072563Y-15597984D02*
X9091611Y-15597984D01*
X9234468Y-15588460D02*
X9215420Y-15597984D01*
X9215420Y-15597984D02*
X9177325Y-15597984D01*
X9177325Y-15597984D02*
X9158277Y-15588460D01*
X9158277Y-15588460D02*
X9148754Y-15569412D01*
X9148754Y-15569412D02*
X9148754Y-15493222D01*
X9148754Y-15493222D02*
X9158277Y-15474174D01*
X9158277Y-15474174D02*
X9177325Y-15464650D01*
X9177325Y-15464650D02*
X9215420Y-15464650D01*
X9215420Y-15464650D02*
X9234468Y-15474174D01*
X9234468Y-15474174D02*
X9243992Y-15493222D01*
X9243992Y-15493222D02*
X9243992Y-15512269D01*
X9243992Y-15512269D02*
X9148754Y-15531317D01*
X9415420Y-15597984D02*
X9415420Y-15397984D01*
X9415420Y-15588460D02*
X9396373Y-15597984D01*
X9396373Y-15597984D02*
X9358277Y-15597984D01*
X9358277Y-15597984D02*
X9339230Y-15588460D01*
X9339230Y-15588460D02*
X9329706Y-15578936D01*
X9329706Y-15578936D02*
X9320182Y-15559888D01*
X9320182Y-15559888D02*
X9320182Y-15502746D01*
X9320182Y-15502746D02*
X9329706Y-15483698D01*
X9329706Y-15483698D02*
X9339230Y-15474174D01*
X9339230Y-15474174D02*
X9358277Y-15464650D01*
X9358277Y-15464650D02*
X9396373Y-15464650D01*
X9396373Y-15464650D02*
X9415420Y-15474174D01*
X9491611Y-15674174D02*
X9501135Y-15664650D01*
X9501135Y-15664650D02*
X9520182Y-15636079D01*
X9520182Y-15636079D02*
X9529706Y-15617031D01*
X9529706Y-15617031D02*
X9539230Y-15588460D01*
X9539230Y-15588460D02*
X9548754Y-15540841D01*
X9548754Y-15540841D02*
X9548754Y-15502746D01*
X9548754Y-15502746D02*
X9539230Y-15455127D01*
X9539230Y-15455127D02*
X9529706Y-15426555D01*
X9529706Y-15426555D02*
X9520182Y-15407508D01*
X9520182Y-15407508D02*
X9501135Y-15378936D01*
X9501135Y-15378936D02*
X9491611Y-15369412D01*
M02*
