M48
; DRILL file {KiCad 8.0.3} date 2024-09-21T17:26:52+0200
; FORMAT={-:-/ absolute / inch / decimal}
; #@! TF.CreationDate,2024-09-21T17:26:52+02:00
; #@! TF.GenerationSoftware,Kicad,Pcbnew,8.0.3
; #@! TF.FileFunction,Plated,1,4,PTH
FMAT,2
INCH
; #@! TA.AperFunction,Plated,PTH,ViaDrill
T1C0.0079
; #@! TA.AperFunction,Plated,PTH,ViaDrill
T2C0.0138
; #@! TA.AperFunction,Plated,PTH,ComponentDrill
T3C0.0217
; #@! TA.AperFunction,Plated,PTH,ComponentDrill
T4C0.0236
; #@! TA.AperFunction,Plated,PTH,ComponentDrill
T5C0.0390
; #@! TA.AperFunction,Plated,PTH,ComponentDrill
T6C0.0550
; #@! TA.AperFunction,Plated,PTH,ComponentDrill
T7C0.1260
%
G90
G05
T1
X1.34Y-5.313
X1.341Y-5.218
X1.341Y-5.282
X1.3677Y-5.1718
X1.3677Y-5.2028
X1.3677Y-5.2348
X1.3677Y-5.2658
X1.3677Y-5.2968
X1.3677Y-5.3288
X1.374Y-3.685
X1.4197Y-4.907
X1.4967Y-5.4198
X1.5097Y-5.7178
X1.5667Y-5.3558
X1.567Y-3.741
X1.569Y-4.817
X1.5977Y-5.2518
X1.602Y-4.586
X1.619Y-4.601
X1.631Y-3.526
X1.6347Y-5.5118
X1.6347Y-5.6508
X1.637Y-4.586
X1.6537Y-4.9828
X1.6537Y-5.0228
X1.6537Y-5.0618
X1.6537Y-5.1008
X1.6537Y-5.1408
X1.655Y-4.601
X1.67Y-4.071
X1.672Y-4.586
X1.6737Y-5.2938
X1.6738Y-3.8742
X1.683Y-4.108
X1.6837Y-5.0028
X1.6837Y-5.0428
X1.6837Y-5.0818
X1.6837Y-5.1208
X1.6837Y-5.1608
X1.691Y-3.817
X1.7227Y-4.9828
X1.7227Y-5.0228
X1.7227Y-5.0618
X1.7227Y-5.1008
X1.7227Y-5.1408
X1.727Y-3.76
X1.7327Y-5.2938
X1.7327Y-4.8718
X1.733Y-4.773
X1.7336Y-3.9404
X1.734Y-4.556
X1.734Y-4.651
X1.743Y-3.735
X1.746Y-3.792
X1.75Y-4.063
X1.752Y-4.538
X1.752Y-4.574
X1.752Y-4.631
X1.752Y-4.669
X1.7527Y-5.0028
X1.7527Y-5.0428
X1.7527Y-5.0818
X1.7527Y-5.1208
X1.7527Y-5.1608
X1.759Y-3.76
X1.7717Y-5.5118
X1.7717Y-5.6508
X1.776Y-4.773
X1.779Y-4.476
X1.782Y-3.86
X1.79Y-4.282
X1.795Y-3.733
X1.795Y-3.76
X1.795Y-4.19
X1.8Y-4.353
X1.8Y-4.393
X1.81Y-4.271
X1.8127Y-5.2518
X1.814Y-3.905
X1.82Y-4.373
X1.822Y-4.872
X1.823Y-3.733
X1.823Y-3.76
X1.8251Y-3.642
X1.828Y-5.18
X1.831Y-4.472
X1.833Y-3.857
X1.835Y-3.994
X1.84Y-4.353
X1.84Y-4.393
X1.8427Y-5.3528
X1.857Y-4.153
X1.859Y-4.472
X1.8777Y-5.7228
X1.878Y-4.451
X1.9037Y-5.4188
X1.9147Y-4.9633
X1.9177Y-5.5628
X1.9414Y-3.7906
X1.946Y-4.06
X1.948Y-5.045
X1.949Y-5.085
X1.953Y-5.143
X1.954Y-4.036
X1.964Y-3.733
X1.964Y-3.76
X1.978Y-4.877
X1.9802Y-5.2298
X1.9802Y-5.2658
X1.9812Y-5.1748
X1.9812Y-5.3288
X1.984Y-4.179
X1.988Y-3.966
X1.992Y-3.733
X1.992Y-3.76
X1.998Y-4.583
X1.998Y-4.614
X1.998Y-4.651
X2.0082Y-5.3708
X2.025Y-4.598
X2.025Y-4.636
X2.025Y-4.667
X2.035Y-3.76
X2.051Y-3.735
X2.052Y-4.583
X2.052Y-4.614
X2.052Y-4.651
X2.0522Y-5.3708
X2.067Y-3.76
X2.069Y-5.219
X2.069Y-5.281
X2.069Y-5.313
X2.0952Y-5.1718
X2.0952Y-5.2028
X2.0952Y-5.2348
X2.0952Y-5.2658
X2.0952Y-5.2968
X2.0952Y-5.3288
X2.147Y-4.881
X2.172Y-3.966
X2.172Y-4.604
X2.1845Y-4.8115
X2.2041Y-4.502
X2.2176Y-4.072
X2.2198Y-4.482
X2.2247Y-5.4198
X2.234Y-4.394
X2.2356Y-4.462
X2.2363Y-4.054
X2.2372Y-5.7178
X2.244Y-4.343
X2.255Y-3.876
X2.255Y-4.033
X2.27Y-4.438
X2.2737Y-3.887
X2.2781Y-4.6746
X2.2887Y-4.413
X2.2887Y-4.501
X2.2924Y-3.871
X2.2947Y-5.3558
X2.3211Y-4.1911
X2.3252Y-5.2518
X2.3425Y-4.707
X2.3491Y-4.1631
X2.3622Y-5.5118
X2.3622Y-5.6508
X2.369Y-4.379
X2.373Y-4.4823
X2.379Y-4.133
X2.3794Y-4.2826
X2.3799Y-4.637
X2.3812Y-4.9828
X2.3812Y-5.0228
X2.3812Y-5.0618
X2.3812Y-5.1008
X2.3812Y-5.1408
X2.3967Y-4.4807
X2.4Y-3.526
X2.4012Y-5.2938
X2.4051Y-4.2819
X2.4055Y-4.6361
X2.408Y-4.107
X2.4112Y-5.0028
X2.4112Y-5.0428
X2.4112Y-5.0818
X2.4112Y-5.1208
X2.4112Y-5.1608
X2.412Y-4.587
X2.413Y-3.442
X2.416Y-3.887
X2.427Y-4.274
X2.4328Y-4.251
X2.4376Y-4.228
X2.439Y-4.614
X2.4502Y-4.9828
X2.4502Y-5.0228
X2.4502Y-5.0618
X2.4502Y-5.1008
X2.4502Y-5.1408
X2.4602Y-4.7672
X2.4602Y-5.2938
X2.4602Y-4.8718
X2.475Y-4.139
X2.4802Y-5.0028
X2.4802Y-5.0428
X2.4802Y-5.0818
X2.4802Y-5.1208
X2.4802Y-5.1608
X2.4812Y-4.8774
X2.487Y-3.536
X2.4992Y-5.5118
X2.4992Y-5.6508
X2.503Y-4.77
X2.5402Y-5.2518
X2.543Y-4.178
X2.553Y-3.704
X2.556Y-5.18
X2.563Y-4.217
X2.568Y-4.178
X2.5707Y-5.3528
X2.5787Y-5.0487
X2.603Y-4.041
X2.6052Y-5.7228
X2.6203Y-4.2557
X2.623Y-4.565
X2.6246Y-4.8561
X2.6317Y-5.4188
X2.6373Y-4.4473
X2.6452Y-5.5628
X2.6523Y-4.4317
X2.658Y-4.202
X2.6776Y-4.2824
X2.682Y-4.584
X2.69Y-3.743
X2.69Y-4.046
X2.69Y-4.927
X2.692Y-3.6899
X2.7026Y-5.2298
X2.7026Y-5.2658
X2.7036Y-5.1748
X2.7036Y-5.3288
X2.7057Y-4.2807
X2.712Y-4.58
X2.721Y-4.726
X2.7299Y-4.2789
X2.7306Y-5.3708
X2.737Y-4.045
X2.741Y-4.513
X2.742Y-3.575
X2.747Y-4.777
X2.753Y-4.4107
X2.7537Y-4.2773
X2.7746Y-5.3708
X2.792Y-5.218
X2.792Y-5.282
X2.792Y-5.313
X2.797Y-3.72
X2.7977Y-3.8958
X2.7981Y-3.8697
X2.799Y-3.695
X2.806Y-3.661
X2.81Y-3.709
X2.8176Y-5.1718
X2.8176Y-5.2028
X2.8176Y-5.2348
X2.8176Y-5.2658
X2.8176Y-5.2968
X2.8176Y-5.3288
X2.821Y-3.97
X2.8654Y-4.661
X2.87Y-4.913
X2.88Y-3.636
X2.881Y-4.759
X2.8841Y-4.6199
X2.887Y-3.7293
X2.902Y-3.844
X2.902Y-3.873
X2.902Y-3.913
X2.902Y-3.942
X2.9037Y-4.6987
X2.9083Y-4.6177
X2.913Y-4.262
X2.921Y-3.636
X2.9249Y-4.6394
X2.931Y-3.844
X2.931Y-3.873
X2.931Y-3.913
X2.931Y-3.942
X2.942Y-3.757
X2.942Y-4.103
X2.9467Y-5.4208
X2.9596Y-5.7178
X2.968Y-4.157
X2.971Y-3.844
X2.971Y-3.873
X2.971Y-3.913
X2.971Y-3.942
X2.975Y-4.819
X2.98Y-3.632
X2.9827Y-4.5863
X2.989Y-4.177
X3.0Y-3.844
X3.0Y-3.873
X3.0Y-3.913
X3.0Y-3.942
X3.0018Y-4.5706
X3.002Y-4.6552
X3.0167Y-5.3568
X3.023Y-3.635
X3.0256Y-4.6552
X3.0476Y-5.2518
X3.05Y-4.181
X3.0526Y-3.7405
X3.059Y-3.762
X3.059Y-4.202
X3.078Y-3.863
X3.083Y-4.202
X3.0846Y-5.5118
X3.0846Y-5.6508
X3.0882Y-3.8084
X3.092Y-3.5323
X3.092Y-3.616
X3.1036Y-4.9828
X3.1036Y-5.0228
X3.1036Y-5.0618
X3.1036Y-5.1008
X3.1036Y-5.1408
X3.108Y-3.635
X3.117Y-4.2
X3.1236Y-5.2938
X3.1336Y-5.0028
X3.1336Y-5.0428
X3.1336Y-5.0818
X3.1336Y-5.1208
X3.1336Y-5.1608
X3.143Y-4.088
X3.144Y-4.129
X3.147Y-3.82
X3.15Y-3.635
X3.172Y-3.821
X3.1726Y-4.9828
X3.1726Y-5.0228
X3.1726Y-5.0618
X3.1726Y-5.1008
X3.1726Y-5.1408
X3.175Y-4.0
X3.1826Y-5.2938
X3.183Y-4.771
X3.193Y-3.772
X3.2024Y-4.8888
X3.2026Y-5.0028
X3.2026Y-5.0428
X3.2026Y-5.0818
X3.2026Y-5.1208
X3.2026Y-5.1608
X3.2216Y-5.5118
X3.2216Y-5.6508
X3.226Y-4.773
X3.253Y-4.0
X3.257Y-3.799
X3.257Y-3.822
X3.257Y-3.843
X3.2626Y-5.2518
X3.278Y-5.18
X3.2927Y-5.3538
X3.3276Y-5.7228
X3.3467Y-4.9966
X3.3537Y-5.4198
X3.3676Y-5.5628
X3.476Y-3.861
X3.476Y-4.063
X3.509Y-3.861
X3.509Y-4.063
X3.541Y-3.861
X3.541Y-4.063
X3.588Y-3.923
X3.588Y-4.001
T2
X1.2527Y-5.2298
X1.2527Y-5.2658
X1.2537Y-5.1748
X1.2537Y-5.3288
X1.2807Y-5.3708
X1.3247Y-5.3708
T3
X2.9968Y-3.4403
X3.046Y-3.4403
X3.0952Y-3.4403
X3.1444Y-3.4403
X3.1936Y-3.4403
X3.2428Y-3.4403
X3.292Y-3.4403
X3.3412Y-3.4403
T5
X1.283Y-4.176
X1.283Y-4.2744
X1.283Y-4.3729
X1.283Y-4.4713
X1.283Y-4.5697
T6
X1.5649Y-5.6198
X1.7027Y-5.6198
X1.8404Y-5.6198
X2.2924Y-5.6198
X2.4302Y-5.6198
X2.568Y-5.6198
X3.0149Y-5.6198
X3.1526Y-5.6198
X3.2904Y-5.6198
T7
X1.2638Y-3.5079
X1.2638Y-5.626
X3.5787Y-3.5079
X3.5787Y-5.626
T4
G00X1.7239Y-3.5077
M15
G01X1.7239Y-3.4763
M16
G05
G00X1.7239Y-3.6782
M15
G01X1.7239Y-3.6349
M16
G05
G00X2.0641Y-3.5077
M15
G01X2.0641Y-3.4763
M16
G05
G00X2.0641Y-3.6782
M15
G01X2.0641Y-3.6349
M16
G05
M30
