%TF.GenerationSoftware,KiCad,Pcbnew,8.0.3*%
%TF.CreationDate,2024-09-21T17:26:54+02:00*%
%TF.ProjectId,SynchGaze_Motor_Control,53796e63-6847-4617-9a65-5f4d6f746f72,1.0*%
%TF.SameCoordinates,Original*%
%TF.FileFunction,Legend,Bot*%
%TF.FilePolarity,Positive*%
%FSLAX46Y46*%
G04 Gerber Fmt 4.6, Leading zero omitted, Abs format (unit mm)*
G04 Created by KiCad (PCBNEW 8.0.3) date 2024-09-21 17:26:54*
%MOMM*%
%LPD*%
G01*
G04 APERTURE LIST*
%ADD10C,0.150000*%
%ADD11C,0.120000*%
G04 APERTURE END LIST*
D10*
G36*
X51215987Y-127600193D02*
G01*
X51251317Y-127634473D01*
X51272773Y-127716491D01*
X51273990Y-127897768D01*
X51252744Y-127986861D01*
X51220035Y-128020573D01*
X51188662Y-128036986D01*
X51109777Y-128037868D01*
X51079496Y-128023416D01*
X51044165Y-127989136D01*
X51022710Y-127907119D01*
X51021493Y-127725841D01*
X51042738Y-127636748D01*
X51075447Y-127603037D01*
X51106822Y-127586623D01*
X51185707Y-127585741D01*
X51215987Y-127600193D01*
G37*
G36*
X52987589Y-127751532D02*
G01*
X52924394Y-127751906D01*
X52920795Y-127751109D01*
X52915994Y-127751956D01*
X52853002Y-127752329D01*
X52822037Y-127737550D01*
X52809939Y-127726069D01*
X52793935Y-127695479D01*
X52793211Y-127645050D01*
X52807710Y-127614672D01*
X52819192Y-127602572D01*
X52849515Y-127586709D01*
X52987200Y-127585894D01*
X52987589Y-127751532D01*
G37*
G36*
X53212027Y-129227771D02*
G01*
X50284898Y-129227771D01*
X50284898Y-128906342D01*
X50744171Y-128906342D01*
X50745108Y-128953057D01*
X50744760Y-128954104D01*
X50745275Y-128961360D01*
X50745612Y-128978117D01*
X50746643Y-128980606D01*
X50746834Y-128983294D01*
X50752089Y-128997026D01*
X50782141Y-129054472D01*
X50785382Y-129062296D01*
X50787732Y-129065159D01*
X50788492Y-129066612D01*
X50789990Y-129067911D01*
X50794709Y-129073661D01*
X50825504Y-129102885D01*
X50830330Y-129108450D01*
X50833411Y-129110389D01*
X50834646Y-129111561D01*
X50836478Y-129112319D01*
X50842773Y-129116282D01*
X50890916Y-129139259D01*
X50891788Y-129140131D01*
X50899015Y-129143124D01*
X50913647Y-129150108D01*
X50916334Y-129150298D01*
X50918824Y-129151330D01*
X50933456Y-129152771D01*
X51075674Y-129151469D01*
X51085694Y-129152182D01*
X51089377Y-129151344D01*
X51090946Y-129151330D01*
X51092777Y-129150571D01*
X51100031Y-129148922D01*
X51199170Y-129114357D01*
X51221277Y-129095184D01*
X51234364Y-129069010D01*
X51236439Y-129039820D01*
X51227185Y-129012058D01*
X51208011Y-128989951D01*
X51181838Y-128976864D01*
X51152648Y-128974789D01*
X51138311Y-128978049D01*
X51067163Y-129002854D01*
X50952775Y-129003901D01*
X50922038Y-128989231D01*
X50909938Y-128977748D01*
X50893839Y-128946975D01*
X50893396Y-128924915D01*
X50907709Y-128894925D01*
X50919193Y-128882824D01*
X50955578Y-128863789D01*
X51060600Y-128836315D01*
X51067551Y-128835822D01*
X51078489Y-128831636D01*
X51079778Y-128831299D01*
X51080213Y-128830976D01*
X51081283Y-128830567D01*
X51138725Y-128800516D01*
X51146554Y-128797274D01*
X51149418Y-128794922D01*
X51150869Y-128794164D01*
X51152167Y-128792666D01*
X51157919Y-128787946D01*
X51187138Y-128757154D01*
X51192705Y-128752327D01*
X51194647Y-128749241D01*
X51195817Y-128748009D01*
X51196574Y-128746180D01*
X51200538Y-128739884D01*
X51223515Y-128691740D01*
X51224388Y-128690868D01*
X51227385Y-128683632D01*
X51234364Y-128669010D01*
X51234554Y-128666323D01*
X51235587Y-128663832D01*
X51237028Y-128649200D01*
X51236090Y-128602483D01*
X51236439Y-128601437D01*
X51235923Y-128594180D01*
X51235587Y-128577425D01*
X51234556Y-128574936D01*
X51234365Y-128572247D01*
X51229110Y-128558515D01*
X51199059Y-128501076D01*
X51195817Y-128493247D01*
X51193462Y-128490378D01*
X51192705Y-128488930D01*
X51191210Y-128487633D01*
X51186490Y-128481882D01*
X51180394Y-128476097D01*
X51258476Y-128476097D01*
X51263543Y-128504919D01*
X51270182Y-128518037D01*
X51458550Y-128811625D01*
X51459898Y-129092403D01*
X51471097Y-129119439D01*
X51491789Y-129140131D01*
X51518825Y-129151330D01*
X51548089Y-129151330D01*
X51575125Y-129140131D01*
X51595817Y-129119439D01*
X51607016Y-129092403D01*
X51608457Y-129077771D01*
X51607634Y-128906342D01*
X51829886Y-128906342D01*
X51830823Y-128953057D01*
X51830475Y-128954104D01*
X51830990Y-128961360D01*
X51831327Y-128978117D01*
X51832358Y-128980606D01*
X51832549Y-128983294D01*
X51837804Y-128997026D01*
X51867856Y-129054472D01*
X51871097Y-129062296D01*
X51873447Y-129065159D01*
X51874207Y-129066612D01*
X51875705Y-129067911D01*
X51880424Y-129073661D01*
X51911219Y-129102885D01*
X51916045Y-129108450D01*
X51919126Y-129110389D01*
X51920361Y-129111561D01*
X51922193Y-129112319D01*
X51928488Y-129116282D01*
X51976631Y-129139259D01*
X51977503Y-129140131D01*
X51984730Y-129143124D01*
X51999362Y-129150108D01*
X52002049Y-129150298D01*
X52004539Y-129151330D01*
X52019171Y-129152771D01*
X52161389Y-129151469D01*
X52171409Y-129152182D01*
X52175092Y-129151344D01*
X52176661Y-129151330D01*
X52178492Y-129150571D01*
X52185746Y-129148922D01*
X52284885Y-129114357D01*
X52306992Y-129095184D01*
X52320079Y-129069010D01*
X52322154Y-129039820D01*
X52312900Y-129012058D01*
X52293726Y-128989951D01*
X52267553Y-128976864D01*
X52238363Y-128974789D01*
X52224026Y-128978049D01*
X52152878Y-129002854D01*
X52038490Y-129003901D01*
X52007753Y-128989231D01*
X51995653Y-128977748D01*
X51979554Y-128946975D01*
X51979111Y-128924915D01*
X51993424Y-128894925D01*
X52004908Y-128882824D01*
X52041293Y-128863789D01*
X52146315Y-128836315D01*
X52153266Y-128835822D01*
X52164204Y-128831636D01*
X52165493Y-128831299D01*
X52165928Y-128830976D01*
X52166998Y-128830567D01*
X52224440Y-128800516D01*
X52232269Y-128797274D01*
X52235133Y-128794922D01*
X52236584Y-128794164D01*
X52237882Y-128792666D01*
X52243634Y-128787946D01*
X52272853Y-128757154D01*
X52278420Y-128752327D01*
X52280362Y-128749241D01*
X52281532Y-128748009D01*
X52282289Y-128746180D01*
X52286253Y-128739884D01*
X52309230Y-128691740D01*
X52310103Y-128690868D01*
X52313100Y-128683632D01*
X52320079Y-128669010D01*
X52320269Y-128666323D01*
X52321302Y-128663832D01*
X52322743Y-128649200D01*
X52321805Y-128602483D01*
X52322154Y-128601437D01*
X52321638Y-128594180D01*
X52321302Y-128577425D01*
X52320271Y-128574936D01*
X52320080Y-128572247D01*
X52314825Y-128558515D01*
X52284774Y-128501076D01*
X52281532Y-128493247D01*
X52279177Y-128490378D01*
X52278420Y-128488930D01*
X52276925Y-128487633D01*
X52276529Y-128487151D01*
X52344761Y-128487151D01*
X52348021Y-128501488D01*
X52546471Y-129092449D01*
X52546836Y-129097581D01*
X52550973Y-129105855D01*
X52554015Y-129114914D01*
X52557526Y-129118962D01*
X52559922Y-129123754D01*
X52567026Y-129129916D01*
X52573189Y-129137021D01*
X52577981Y-129139417D01*
X52582029Y-129142928D01*
X52590948Y-129145901D01*
X52599362Y-129150108D01*
X52604710Y-129150488D01*
X52609792Y-129152182D01*
X52619164Y-129151515D01*
X52628552Y-129152183D01*
X52633641Y-129150486D01*
X52638982Y-129150107D01*
X52647385Y-129145905D01*
X52656315Y-129142929D01*
X52660366Y-129139415D01*
X52665155Y-129137021D01*
X52671313Y-129129920D01*
X52678422Y-129123755D01*
X52680819Y-129118960D01*
X52684329Y-129114914D01*
X52690323Y-129101488D01*
X52893583Y-128487151D01*
X52891509Y-128457961D01*
X52878422Y-128431787D01*
X52856315Y-128412613D01*
X52828552Y-128403359D01*
X52799362Y-128405434D01*
X52773189Y-128418521D01*
X52754015Y-128440628D01*
X52748021Y-128454053D01*
X52619391Y-128842827D01*
X52484329Y-128440628D01*
X52465155Y-128418521D01*
X52438982Y-128405435D01*
X52409792Y-128403360D01*
X52382029Y-128412614D01*
X52359922Y-128431788D01*
X52346836Y-128457961D01*
X52344761Y-128487151D01*
X52276529Y-128487151D01*
X52272205Y-128481882D01*
X52241411Y-128452657D01*
X52236584Y-128447092D01*
X52233501Y-128445152D01*
X52232269Y-128443982D01*
X52230438Y-128443223D01*
X52224141Y-128439260D01*
X52175996Y-128416282D01*
X52175125Y-128415411D01*
X52167899Y-128412417D01*
X52153266Y-128405434D01*
X52150578Y-128405243D01*
X52148089Y-128404212D01*
X52133457Y-128402771D01*
X51991239Y-128404072D01*
X51981220Y-128403360D01*
X51977536Y-128404197D01*
X51975968Y-128404212D01*
X51974136Y-128404970D01*
X51966883Y-128406620D01*
X51867744Y-128441185D01*
X51845636Y-128460358D01*
X51832550Y-128486532D01*
X51830475Y-128515722D01*
X51839729Y-128543484D01*
X51858902Y-128565592D01*
X51885076Y-128578678D01*
X51914266Y-128580753D01*
X51928603Y-128577493D01*
X51999750Y-128552687D01*
X52114138Y-128551640D01*
X52144874Y-128566309D01*
X52156974Y-128577792D01*
X52173074Y-128608567D01*
X52173517Y-128630625D01*
X52159202Y-128660617D01*
X52147719Y-128672718D01*
X52111335Y-128691752D01*
X52006312Y-128719226D01*
X51999362Y-128719720D01*
X51988423Y-128723905D01*
X51987135Y-128724243D01*
X51986699Y-128724565D01*
X51985630Y-128724975D01*
X51928189Y-128755024D01*
X51920361Y-128758267D01*
X51917494Y-128760619D01*
X51916045Y-128761378D01*
X51914746Y-128762874D01*
X51908996Y-128767595D01*
X51879773Y-128798388D01*
X51874208Y-128803216D01*
X51872267Y-128806298D01*
X51871097Y-128807532D01*
X51870338Y-128809362D01*
X51866375Y-128815659D01*
X51843397Y-128863802D01*
X51842526Y-128864674D01*
X51839532Y-128871901D01*
X51832549Y-128886533D01*
X51832358Y-128889220D01*
X51831327Y-128891710D01*
X51829886Y-128906342D01*
X51607634Y-128906342D01*
X51607199Y-128815737D01*
X51803371Y-128504919D01*
X51808438Y-128476097D01*
X51802090Y-128447531D01*
X51785293Y-128423568D01*
X51760604Y-128407857D01*
X51731783Y-128402790D01*
X51703217Y-128409138D01*
X51679254Y-128425935D01*
X51670182Y-128437505D01*
X51533763Y-128653649D01*
X51387660Y-128425935D01*
X51363697Y-128409138D01*
X51335131Y-128402790D01*
X51306309Y-128407857D01*
X51281621Y-128423568D01*
X51264824Y-128447531D01*
X51258476Y-128476097D01*
X51180394Y-128476097D01*
X51155696Y-128452657D01*
X51150869Y-128447092D01*
X51147786Y-128445152D01*
X51146554Y-128443982D01*
X51144723Y-128443223D01*
X51138426Y-128439260D01*
X51090281Y-128416282D01*
X51089410Y-128415411D01*
X51082184Y-128412417D01*
X51067551Y-128405434D01*
X51064863Y-128405243D01*
X51062374Y-128404212D01*
X51047742Y-128402771D01*
X50905524Y-128404072D01*
X50895505Y-128403360D01*
X50891821Y-128404197D01*
X50890253Y-128404212D01*
X50888421Y-128404970D01*
X50881168Y-128406620D01*
X50782029Y-128441185D01*
X50759921Y-128460358D01*
X50746835Y-128486532D01*
X50744760Y-128515722D01*
X50754014Y-128543484D01*
X50773187Y-128565592D01*
X50799361Y-128578678D01*
X50828551Y-128580753D01*
X50842888Y-128577493D01*
X50914035Y-128552687D01*
X51028423Y-128551640D01*
X51059159Y-128566309D01*
X51071259Y-128577792D01*
X51087359Y-128608567D01*
X51087802Y-128630625D01*
X51073487Y-128660617D01*
X51062004Y-128672718D01*
X51025620Y-128691752D01*
X50920597Y-128719226D01*
X50913647Y-128719720D01*
X50902708Y-128723905D01*
X50901420Y-128724243D01*
X50900984Y-128724565D01*
X50899915Y-128724975D01*
X50842474Y-128755024D01*
X50834646Y-128758267D01*
X50831779Y-128760619D01*
X50830330Y-128761378D01*
X50829031Y-128762874D01*
X50823281Y-128767595D01*
X50794058Y-128798388D01*
X50788493Y-128803216D01*
X50786552Y-128806298D01*
X50785382Y-128807532D01*
X50784623Y-128809362D01*
X50780660Y-128815659D01*
X50757682Y-128863802D01*
X50756811Y-128864674D01*
X50753817Y-128871901D01*
X50746834Y-128886533D01*
X50746643Y-128889220D01*
X50745612Y-128891710D01*
X50744171Y-128906342D01*
X50284898Y-128906342D01*
X50284898Y-127497173D01*
X50359898Y-127497173D01*
X50359898Y-127526437D01*
X50371097Y-127553473D01*
X50391789Y-127574165D01*
X50418825Y-127585364D01*
X50433457Y-127586805D01*
X50530059Y-127586415D01*
X50531326Y-128126437D01*
X50542525Y-128153473D01*
X50563217Y-128174165D01*
X50590253Y-128185364D01*
X50619517Y-128185364D01*
X50646553Y-128174165D01*
X50667245Y-128153473D01*
X50678444Y-128126437D01*
X50679885Y-128111805D01*
X50678947Y-127711805D01*
X50872742Y-127711805D01*
X50874054Y-127907225D01*
X50872830Y-127915450D01*
X50874170Y-127924511D01*
X50874183Y-127926437D01*
X50874605Y-127927457D01*
X50874981Y-127929995D01*
X50902754Y-128036164D01*
X50902754Y-128040722D01*
X50905989Y-128048534D01*
X50908499Y-128058126D01*
X50911818Y-128062606D01*
X50913953Y-128067759D01*
X50923280Y-128079124D01*
X50981582Y-128135691D01*
X50987473Y-128142484D01*
X50990632Y-128144472D01*
X50991788Y-128145594D01*
X50993617Y-128146351D01*
X50999915Y-128150316D01*
X51048059Y-128173293D01*
X51048931Y-128174165D01*
X51056162Y-128177160D01*
X51070791Y-128184142D01*
X51073477Y-128184332D01*
X51075967Y-128185364D01*
X51090599Y-128186805D01*
X51193810Y-128185651D01*
X51195504Y-128186216D01*
X51205250Y-128185523D01*
X51219517Y-128185364D01*
X51222006Y-128184332D01*
X51224694Y-128184142D01*
X51238426Y-128178887D01*
X51295871Y-128148834D01*
X51303696Y-128145594D01*
X51306559Y-128143243D01*
X51308012Y-128142484D01*
X51309311Y-128140985D01*
X51315061Y-128136267D01*
X51365972Y-128083793D01*
X51369562Y-128081640D01*
X51374408Y-128075098D01*
X51381531Y-128067758D01*
X51383664Y-128062607D01*
X51386984Y-128058127D01*
X51391931Y-128044281D01*
X51418312Y-127933650D01*
X51421301Y-127926437D01*
X51422192Y-127917380D01*
X51422653Y-127915451D01*
X51422490Y-127914358D01*
X51422742Y-127911805D01*
X51421429Y-127716378D01*
X51422653Y-127708159D01*
X51421313Y-127699100D01*
X51421301Y-127697173D01*
X51420878Y-127696152D01*
X51420503Y-127693614D01*
X51392729Y-127587444D01*
X51392729Y-127582888D01*
X51389493Y-127575077D01*
X51386984Y-127565483D01*
X51383664Y-127561002D01*
X51381531Y-127555852D01*
X51372204Y-127544487D01*
X51338520Y-127511805D01*
X51529884Y-127511805D01*
X51531325Y-128126437D01*
X51542524Y-128153473D01*
X51563216Y-128174165D01*
X51590252Y-128185364D01*
X51619516Y-128185364D01*
X51646552Y-128174165D01*
X51667244Y-128153473D01*
X51678443Y-128126437D01*
X51679884Y-128111805D01*
X51679261Y-127846199D01*
X51737056Y-127969097D01*
X51740754Y-127979265D01*
X51742982Y-127981698D01*
X51744414Y-127984742D01*
X51752819Y-127992440D01*
X51760518Y-128000846D01*
X51763537Y-128002254D01*
X51765995Y-128004506D01*
X51776704Y-128008400D01*
X51787036Y-128013222D01*
X51790367Y-128013368D01*
X51793496Y-128014506D01*
X51804884Y-128014005D01*
X51816272Y-128014506D01*
X51819400Y-128013368D01*
X51822732Y-128013222D01*
X51833063Y-128008400D01*
X51843773Y-128004506D01*
X51846230Y-128002254D01*
X51849250Y-128000846D01*
X51856948Y-127992440D01*
X51865354Y-127984742D01*
X51867837Y-127980549D01*
X51869014Y-127979265D01*
X51869674Y-127977449D01*
X51872848Y-127972092D01*
X51930670Y-127847225D01*
X51931325Y-128126437D01*
X51942524Y-128153473D01*
X51963216Y-128174165D01*
X51990252Y-128185364D01*
X52019516Y-128185364D01*
X52046552Y-128174165D01*
X52067244Y-128153473D01*
X52078443Y-128126437D01*
X52079884Y-128111805D01*
X52078745Y-127626091D01*
X52644170Y-127626091D01*
X52645245Y-127700966D01*
X52644759Y-127702425D01*
X52645394Y-127711371D01*
X52645611Y-127726437D01*
X52646641Y-127728925D01*
X52646833Y-127731615D01*
X52652088Y-127745346D01*
X52682139Y-127802786D01*
X52685382Y-127810616D01*
X52687735Y-127813483D01*
X52688493Y-127814932D01*
X52689988Y-127816228D01*
X52694709Y-127821981D01*
X52725503Y-127851203D01*
X52730329Y-127856768D01*
X52733411Y-127858708D01*
X52734645Y-127859879D01*
X52736475Y-127860637D01*
X52742772Y-127864601D01*
X52786618Y-127885528D01*
X52650517Y-128081609D01*
X52644188Y-128110180D01*
X52649273Y-128138997D01*
X52665000Y-128163676D01*
X52688974Y-128180458D01*
X52717545Y-128186787D01*
X52746362Y-128181702D01*
X52771041Y-128165975D01*
X52780612Y-128154815D01*
X52957232Y-127900357D01*
X52987937Y-127900175D01*
X52988468Y-128126437D01*
X52999667Y-128153473D01*
X53020359Y-128174165D01*
X53047395Y-128185364D01*
X53076659Y-128185364D01*
X53103695Y-128174165D01*
X53124387Y-128153473D01*
X53135586Y-128126437D01*
X53137027Y-128111805D01*
X53135586Y-127497173D01*
X53124387Y-127470137D01*
X53103695Y-127449445D01*
X53076659Y-127438246D01*
X53062027Y-127436805D01*
X52844929Y-127438091D01*
X52842838Y-127437394D01*
X52831940Y-127438168D01*
X52818824Y-127438246D01*
X52816334Y-127439277D01*
X52813648Y-127439468D01*
X52799916Y-127444723D01*
X52742477Y-127474771D01*
X52734644Y-127478016D01*
X52731777Y-127480368D01*
X52730330Y-127481126D01*
X52729033Y-127482620D01*
X52723279Y-127487344D01*
X52694055Y-127518139D01*
X52688493Y-127522964D01*
X52686552Y-127526046D01*
X52685381Y-127527281D01*
X52684622Y-127529112D01*
X52680660Y-127535407D01*
X52657681Y-127583551D01*
X52656810Y-127584423D01*
X52653818Y-127591645D01*
X52646833Y-127606281D01*
X52646641Y-127608970D01*
X52645611Y-127611459D01*
X52644170Y-127626091D01*
X52078745Y-127626091D01*
X52078479Y-127512595D01*
X52079014Y-127500417D01*
X52078446Y-127498857D01*
X52078443Y-127497173D01*
X52073461Y-127485146D01*
X52069014Y-127472916D01*
X52067884Y-127471682D01*
X52067244Y-127470137D01*
X52058038Y-127460931D01*
X52049250Y-127451335D01*
X52047734Y-127450627D01*
X52046552Y-127449445D01*
X52034530Y-127444465D01*
X52022732Y-127438959D01*
X52021060Y-127438885D01*
X52019516Y-127438246D01*
X52006497Y-127438246D01*
X51993496Y-127437675D01*
X51991926Y-127438246D01*
X51990252Y-127438246D01*
X51978225Y-127443227D01*
X51965995Y-127447675D01*
X51964761Y-127448804D01*
X51963216Y-127449445D01*
X51954010Y-127458650D01*
X51944414Y-127467439D01*
X51943239Y-127469421D01*
X51942524Y-127470137D01*
X51941846Y-127471772D01*
X51936920Y-127480088D01*
X51805135Y-127764674D01*
X51671835Y-127481220D01*
X51667244Y-127470137D01*
X51666071Y-127468964D01*
X51665354Y-127467439D01*
X51655757Y-127458650D01*
X51646552Y-127449445D01*
X51645006Y-127448804D01*
X51643773Y-127447675D01*
X51631542Y-127443227D01*
X51619516Y-127438246D01*
X51617842Y-127438246D01*
X51616272Y-127437675D01*
X51603271Y-127438246D01*
X51590252Y-127438246D01*
X51588707Y-127438885D01*
X51587036Y-127438959D01*
X51575237Y-127444465D01*
X51563216Y-127449445D01*
X51562033Y-127450627D01*
X51560518Y-127451335D01*
X51551729Y-127460931D01*
X51542524Y-127470137D01*
X51541883Y-127471682D01*
X51540754Y-127472916D01*
X51536306Y-127485146D01*
X51531325Y-127497173D01*
X51531098Y-127499468D01*
X51530754Y-127500417D01*
X51530831Y-127502183D01*
X51529884Y-127511805D01*
X51338520Y-127511805D01*
X51313906Y-127487923D01*
X51308012Y-127481126D01*
X51304850Y-127479135D01*
X51303696Y-127478016D01*
X51301868Y-127477258D01*
X51295569Y-127473294D01*
X51247424Y-127450316D01*
X51246553Y-127449445D01*
X51239327Y-127446451D01*
X51224694Y-127439468D01*
X51222006Y-127439277D01*
X51219517Y-127438246D01*
X51204885Y-127436805D01*
X51101674Y-127437958D01*
X51099981Y-127437394D01*
X51090234Y-127438086D01*
X51075967Y-127438246D01*
X51073477Y-127439277D01*
X51070791Y-127439468D01*
X51057059Y-127444723D01*
X50999616Y-127474773D01*
X50991788Y-127478016D01*
X50988922Y-127480367D01*
X50987473Y-127481126D01*
X50986175Y-127482622D01*
X50980423Y-127487343D01*
X50929508Y-127539818D01*
X50925921Y-127541971D01*
X50921076Y-127548508D01*
X50913953Y-127555851D01*
X50911818Y-127561003D01*
X50908499Y-127565484D01*
X50903552Y-127579329D01*
X50877169Y-127689963D01*
X50874183Y-127697173D01*
X50873291Y-127706224D01*
X50872830Y-127708160D01*
X50872993Y-127709255D01*
X50872742Y-127711805D01*
X50678947Y-127711805D01*
X50678651Y-127585816D01*
X50790946Y-127585364D01*
X50817982Y-127574165D01*
X50838674Y-127553473D01*
X50849873Y-127526437D01*
X50849873Y-127497173D01*
X50838674Y-127470137D01*
X50817982Y-127449445D01*
X50790946Y-127438246D01*
X50776314Y-127436805D01*
X50418825Y-127438246D01*
X50391789Y-127449445D01*
X50371097Y-127470137D01*
X50359898Y-127497173D01*
X50284898Y-127497173D01*
X50284898Y-127361805D01*
X53212027Y-127361805D01*
X53212027Y-129227771D01*
G37*
G36*
X32793044Y-127600193D02*
G01*
X32828374Y-127634473D01*
X32849830Y-127716491D01*
X32851047Y-127897768D01*
X32829801Y-127986861D01*
X32797092Y-128020573D01*
X32765719Y-128036986D01*
X32686834Y-128037868D01*
X32656553Y-128023416D01*
X32621222Y-127989136D01*
X32599767Y-127907119D01*
X32598550Y-127725841D01*
X32619795Y-127636748D01*
X32652504Y-127603037D01*
X32683879Y-127586623D01*
X32762764Y-127585741D01*
X32793044Y-127600193D01*
G37*
G36*
X34789066Y-129227771D02*
G01*
X31861955Y-129227771D01*
X31861955Y-128906342D01*
X32278371Y-128906342D01*
X32279308Y-128953057D01*
X32278960Y-128954104D01*
X32279475Y-128961360D01*
X32279812Y-128978117D01*
X32280843Y-128980606D01*
X32281034Y-128983294D01*
X32286289Y-128997026D01*
X32316341Y-129054472D01*
X32319582Y-129062296D01*
X32321932Y-129065159D01*
X32322692Y-129066612D01*
X32324190Y-129067911D01*
X32328909Y-129073661D01*
X32359704Y-129102885D01*
X32364530Y-129108450D01*
X32367611Y-129110389D01*
X32368846Y-129111561D01*
X32370678Y-129112319D01*
X32376973Y-129116282D01*
X32425116Y-129139259D01*
X32425988Y-129140131D01*
X32433215Y-129143124D01*
X32447847Y-129150108D01*
X32450534Y-129150298D01*
X32453024Y-129151330D01*
X32467656Y-129152771D01*
X32609874Y-129151469D01*
X32619894Y-129152182D01*
X32623577Y-129151344D01*
X32625146Y-129151330D01*
X32626977Y-129150571D01*
X32634231Y-129148922D01*
X32733370Y-129114357D01*
X32755477Y-129095184D01*
X32768564Y-129069010D01*
X32770639Y-129039820D01*
X32761385Y-129012058D01*
X32742211Y-128989951D01*
X32716038Y-128976864D01*
X32686848Y-128974789D01*
X32672511Y-128978049D01*
X32601363Y-129002854D01*
X32486975Y-129003901D01*
X32456238Y-128989231D01*
X32444138Y-128977748D01*
X32428039Y-128946975D01*
X32427596Y-128924915D01*
X32441909Y-128894925D01*
X32453393Y-128882824D01*
X32489778Y-128863789D01*
X32594800Y-128836315D01*
X32601751Y-128835822D01*
X32612689Y-128831636D01*
X32613978Y-128831299D01*
X32614413Y-128830976D01*
X32615483Y-128830567D01*
X32672925Y-128800516D01*
X32680754Y-128797274D01*
X32683618Y-128794922D01*
X32685069Y-128794164D01*
X32686367Y-128792666D01*
X32692119Y-128787946D01*
X32721338Y-128757154D01*
X32726905Y-128752327D01*
X32728847Y-128749241D01*
X32730017Y-128748009D01*
X32730774Y-128746180D01*
X32734738Y-128739884D01*
X32757715Y-128691740D01*
X32758588Y-128690868D01*
X32761585Y-128683632D01*
X32768564Y-128669010D01*
X32768754Y-128666323D01*
X32769787Y-128663832D01*
X32771228Y-128649200D01*
X32770290Y-128602483D01*
X32770639Y-128601437D01*
X32770123Y-128594180D01*
X32769787Y-128577425D01*
X32768756Y-128574936D01*
X32768565Y-128572247D01*
X32763310Y-128558515D01*
X32733259Y-128501076D01*
X32730017Y-128493247D01*
X32727662Y-128490378D01*
X32726905Y-128488930D01*
X32725410Y-128487633D01*
X32720690Y-128481882D01*
X32714594Y-128476097D01*
X32792676Y-128476097D01*
X32797743Y-128504919D01*
X32804382Y-128518037D01*
X32992750Y-128811625D01*
X32994098Y-129092403D01*
X33005297Y-129119439D01*
X33025989Y-129140131D01*
X33053025Y-129151330D01*
X33082289Y-129151330D01*
X33109325Y-129140131D01*
X33130017Y-129119439D01*
X33141216Y-129092403D01*
X33142657Y-129077771D01*
X33141834Y-128906342D01*
X33364086Y-128906342D01*
X33365023Y-128953057D01*
X33364675Y-128954104D01*
X33365190Y-128961360D01*
X33365527Y-128978117D01*
X33366558Y-128980606D01*
X33366749Y-128983294D01*
X33372004Y-128997026D01*
X33402056Y-129054472D01*
X33405297Y-129062296D01*
X33407647Y-129065159D01*
X33408407Y-129066612D01*
X33409905Y-129067911D01*
X33414624Y-129073661D01*
X33445419Y-129102885D01*
X33450245Y-129108450D01*
X33453326Y-129110389D01*
X33454561Y-129111561D01*
X33456393Y-129112319D01*
X33462688Y-129116282D01*
X33510831Y-129139259D01*
X33511703Y-129140131D01*
X33518930Y-129143124D01*
X33533562Y-129150108D01*
X33536249Y-129150298D01*
X33538739Y-129151330D01*
X33553371Y-129152771D01*
X33695589Y-129151469D01*
X33705609Y-129152182D01*
X33709292Y-129151344D01*
X33710861Y-129151330D01*
X33712692Y-129150571D01*
X33719946Y-129148922D01*
X33819085Y-129114357D01*
X33841192Y-129095184D01*
X33854279Y-129069010D01*
X33856354Y-129039820D01*
X33847100Y-129012058D01*
X33827926Y-128989951D01*
X33801753Y-128976864D01*
X33772563Y-128974789D01*
X33758226Y-128978049D01*
X33687078Y-129002854D01*
X33572690Y-129003901D01*
X33541953Y-128989231D01*
X33529853Y-128977748D01*
X33513754Y-128946975D01*
X33513311Y-128924915D01*
X33527624Y-128894925D01*
X33539108Y-128882824D01*
X33575493Y-128863789D01*
X33680515Y-128836315D01*
X33687466Y-128835822D01*
X33698404Y-128831636D01*
X33699693Y-128831299D01*
X33700128Y-128830976D01*
X33701198Y-128830567D01*
X33758640Y-128800516D01*
X33766469Y-128797274D01*
X33769333Y-128794922D01*
X33770784Y-128794164D01*
X33772082Y-128792666D01*
X33777834Y-128787946D01*
X33807053Y-128757154D01*
X33812620Y-128752327D01*
X33814562Y-128749241D01*
X33815732Y-128748009D01*
X33816489Y-128746180D01*
X33820453Y-128739884D01*
X33843430Y-128691740D01*
X33844303Y-128690868D01*
X33847300Y-128683632D01*
X33854279Y-128669010D01*
X33854469Y-128666323D01*
X33855502Y-128663832D01*
X33856943Y-128649200D01*
X33856005Y-128602483D01*
X33856354Y-128601437D01*
X33855838Y-128594180D01*
X33855502Y-128577425D01*
X33854471Y-128574936D01*
X33854280Y-128572247D01*
X33849025Y-128558515D01*
X33818974Y-128501076D01*
X33815732Y-128493247D01*
X33813377Y-128490378D01*
X33812620Y-128488930D01*
X33811125Y-128487633D01*
X33810729Y-128487151D01*
X33878961Y-128487151D01*
X33882221Y-128501488D01*
X34080671Y-129092449D01*
X34081036Y-129097581D01*
X34085173Y-129105855D01*
X34088215Y-129114914D01*
X34091726Y-129118962D01*
X34094122Y-129123754D01*
X34101226Y-129129916D01*
X34107389Y-129137021D01*
X34112181Y-129139417D01*
X34116229Y-129142928D01*
X34125148Y-129145901D01*
X34133562Y-129150108D01*
X34138910Y-129150488D01*
X34143992Y-129152182D01*
X34153364Y-129151515D01*
X34162752Y-129152183D01*
X34167841Y-129150486D01*
X34173182Y-129150107D01*
X34181585Y-129145905D01*
X34190515Y-129142929D01*
X34194566Y-129139415D01*
X34199355Y-129137021D01*
X34205513Y-129129920D01*
X34212622Y-129123755D01*
X34215019Y-129118960D01*
X34218529Y-129114914D01*
X34224523Y-129101488D01*
X34427783Y-128487151D01*
X34425709Y-128457961D01*
X34412622Y-128431787D01*
X34390515Y-128412613D01*
X34362752Y-128403359D01*
X34333562Y-128405434D01*
X34307389Y-128418521D01*
X34288215Y-128440628D01*
X34282221Y-128454053D01*
X34153591Y-128842827D01*
X34018529Y-128440628D01*
X33999355Y-128418521D01*
X33973182Y-128405435D01*
X33943992Y-128403360D01*
X33916229Y-128412614D01*
X33894122Y-128431788D01*
X33881036Y-128457961D01*
X33878961Y-128487151D01*
X33810729Y-128487151D01*
X33806405Y-128481882D01*
X33775611Y-128452657D01*
X33770784Y-128447092D01*
X33767701Y-128445152D01*
X33766469Y-128443982D01*
X33764638Y-128443223D01*
X33758341Y-128439260D01*
X33710196Y-128416282D01*
X33709325Y-128415411D01*
X33702099Y-128412417D01*
X33687466Y-128405434D01*
X33684778Y-128405243D01*
X33682289Y-128404212D01*
X33667657Y-128402771D01*
X33525439Y-128404072D01*
X33515420Y-128403360D01*
X33511736Y-128404197D01*
X33510168Y-128404212D01*
X33508336Y-128404970D01*
X33501083Y-128406620D01*
X33401944Y-128441185D01*
X33379836Y-128460358D01*
X33366750Y-128486532D01*
X33364675Y-128515722D01*
X33373929Y-128543484D01*
X33393102Y-128565592D01*
X33419276Y-128578678D01*
X33448466Y-128580753D01*
X33462803Y-128577493D01*
X33533950Y-128552687D01*
X33648338Y-128551640D01*
X33679074Y-128566309D01*
X33691174Y-128577792D01*
X33707274Y-128608567D01*
X33707717Y-128630625D01*
X33693402Y-128660617D01*
X33681919Y-128672718D01*
X33645535Y-128691752D01*
X33540512Y-128719226D01*
X33533562Y-128719720D01*
X33522623Y-128723905D01*
X33521335Y-128724243D01*
X33520899Y-128724565D01*
X33519830Y-128724975D01*
X33462389Y-128755024D01*
X33454561Y-128758267D01*
X33451694Y-128760619D01*
X33450245Y-128761378D01*
X33448946Y-128762874D01*
X33443196Y-128767595D01*
X33413973Y-128798388D01*
X33408408Y-128803216D01*
X33406467Y-128806298D01*
X33405297Y-128807532D01*
X33404538Y-128809362D01*
X33400575Y-128815659D01*
X33377597Y-128863802D01*
X33376726Y-128864674D01*
X33373732Y-128871901D01*
X33366749Y-128886533D01*
X33366558Y-128889220D01*
X33365527Y-128891710D01*
X33364086Y-128906342D01*
X33141834Y-128906342D01*
X33141399Y-128815737D01*
X33337571Y-128504919D01*
X33342638Y-128476097D01*
X33336290Y-128447531D01*
X33319493Y-128423568D01*
X33294804Y-128407857D01*
X33265983Y-128402790D01*
X33237417Y-128409138D01*
X33213454Y-128425935D01*
X33204382Y-128437505D01*
X33067963Y-128653649D01*
X32921860Y-128425935D01*
X32897897Y-128409138D01*
X32869331Y-128402790D01*
X32840509Y-128407857D01*
X32815821Y-128423568D01*
X32799024Y-128447531D01*
X32792676Y-128476097D01*
X32714594Y-128476097D01*
X32689896Y-128452657D01*
X32685069Y-128447092D01*
X32681986Y-128445152D01*
X32680754Y-128443982D01*
X32678923Y-128443223D01*
X32672626Y-128439260D01*
X32624481Y-128416282D01*
X32623610Y-128415411D01*
X32616384Y-128412417D01*
X32601751Y-128405434D01*
X32599063Y-128405243D01*
X32596574Y-128404212D01*
X32581942Y-128402771D01*
X32439724Y-128404072D01*
X32429705Y-128403360D01*
X32426021Y-128404197D01*
X32424453Y-128404212D01*
X32422621Y-128404970D01*
X32415368Y-128406620D01*
X32316229Y-128441185D01*
X32294121Y-128460358D01*
X32281035Y-128486532D01*
X32278960Y-128515722D01*
X32288214Y-128543484D01*
X32307387Y-128565592D01*
X32333561Y-128578678D01*
X32362751Y-128580753D01*
X32377088Y-128577493D01*
X32448235Y-128552687D01*
X32562623Y-128551640D01*
X32593359Y-128566309D01*
X32605459Y-128577792D01*
X32621559Y-128608567D01*
X32622002Y-128630625D01*
X32607687Y-128660617D01*
X32596204Y-128672718D01*
X32559820Y-128691752D01*
X32454797Y-128719226D01*
X32447847Y-128719720D01*
X32436908Y-128723905D01*
X32435620Y-128724243D01*
X32435184Y-128724565D01*
X32434115Y-128724975D01*
X32376674Y-128755024D01*
X32368846Y-128758267D01*
X32365979Y-128760619D01*
X32364530Y-128761378D01*
X32363231Y-128762874D01*
X32357481Y-128767595D01*
X32328258Y-128798388D01*
X32322693Y-128803216D01*
X32320752Y-128806298D01*
X32319582Y-128807532D01*
X32318823Y-128809362D01*
X32314860Y-128815659D01*
X32291882Y-128863802D01*
X32291011Y-128864674D01*
X32288017Y-128871901D01*
X32281034Y-128886533D01*
X32280843Y-128889220D01*
X32279812Y-128891710D01*
X32278371Y-128906342D01*
X31861955Y-128906342D01*
X31861955Y-127497173D01*
X31936955Y-127497173D01*
X31936955Y-127526437D01*
X31948154Y-127553473D01*
X31968846Y-127574165D01*
X31995882Y-127585364D01*
X32010514Y-127586805D01*
X32107116Y-127586415D01*
X32108383Y-128126437D01*
X32119582Y-128153473D01*
X32140274Y-128174165D01*
X32167310Y-128185364D01*
X32196574Y-128185364D01*
X32223610Y-128174165D01*
X32244302Y-128153473D01*
X32255501Y-128126437D01*
X32256942Y-128111805D01*
X32256004Y-127711805D01*
X32449799Y-127711805D01*
X32451111Y-127907225D01*
X32449887Y-127915450D01*
X32451227Y-127924511D01*
X32451240Y-127926437D01*
X32451662Y-127927457D01*
X32452038Y-127929995D01*
X32479811Y-128036164D01*
X32479811Y-128040722D01*
X32483046Y-128048534D01*
X32485556Y-128058126D01*
X32488875Y-128062606D01*
X32491010Y-128067759D01*
X32500337Y-128079124D01*
X32558639Y-128135691D01*
X32564530Y-128142484D01*
X32567689Y-128144472D01*
X32568845Y-128145594D01*
X32570674Y-128146351D01*
X32576972Y-128150316D01*
X32625116Y-128173293D01*
X32625988Y-128174165D01*
X32633219Y-128177160D01*
X32647848Y-128184142D01*
X32650534Y-128184332D01*
X32653024Y-128185364D01*
X32667656Y-128186805D01*
X32770867Y-128185651D01*
X32772561Y-128186216D01*
X32782307Y-128185523D01*
X32796574Y-128185364D01*
X32799063Y-128184332D01*
X32801751Y-128184142D01*
X32815483Y-128178887D01*
X32872928Y-128148834D01*
X32880753Y-128145594D01*
X32883616Y-128143243D01*
X32885069Y-128142484D01*
X32886368Y-128140985D01*
X32892118Y-128136267D01*
X32943029Y-128083793D01*
X32946619Y-128081640D01*
X32951465Y-128075098D01*
X32958588Y-128067758D01*
X32960721Y-128062607D01*
X32964041Y-128058127D01*
X32968988Y-128044281D01*
X32995369Y-127933650D01*
X32998358Y-127926437D01*
X32999249Y-127917380D01*
X32999710Y-127915451D01*
X32999547Y-127914358D01*
X32999799Y-127911805D01*
X32998486Y-127716378D01*
X32999710Y-127708159D01*
X32998370Y-127699100D01*
X32998358Y-127697173D01*
X32997935Y-127696152D01*
X32997560Y-127693614D01*
X32969786Y-127587444D01*
X32969786Y-127582888D01*
X32966550Y-127575077D01*
X32964041Y-127565483D01*
X32960721Y-127561002D01*
X32958588Y-127555852D01*
X32949261Y-127544487D01*
X32915577Y-127511805D01*
X33106941Y-127511805D01*
X33108382Y-128126437D01*
X33119581Y-128153473D01*
X33140273Y-128174165D01*
X33167309Y-128185364D01*
X33196573Y-128185364D01*
X33223609Y-128174165D01*
X33244301Y-128153473D01*
X33255500Y-128126437D01*
X33256941Y-128111805D01*
X33256318Y-127846199D01*
X33314113Y-127969097D01*
X33317811Y-127979265D01*
X33320039Y-127981698D01*
X33321471Y-127984742D01*
X33329876Y-127992440D01*
X33337575Y-128000846D01*
X33340594Y-128002254D01*
X33343052Y-128004506D01*
X33353761Y-128008400D01*
X33364093Y-128013222D01*
X33367424Y-128013368D01*
X33370553Y-128014506D01*
X33381941Y-128014005D01*
X33393329Y-128014506D01*
X33396457Y-128013368D01*
X33399789Y-128013222D01*
X33410120Y-128008400D01*
X33420830Y-128004506D01*
X33423287Y-128002254D01*
X33426307Y-128000846D01*
X33434005Y-127992440D01*
X33442411Y-127984742D01*
X33444894Y-127980549D01*
X33446071Y-127979265D01*
X33446731Y-127977449D01*
X33449905Y-127972092D01*
X33507727Y-127847225D01*
X33508382Y-128126437D01*
X33519581Y-128153473D01*
X33540273Y-128174165D01*
X33567309Y-128185364D01*
X33596573Y-128185364D01*
X33623609Y-128174165D01*
X33644301Y-128153473D01*
X33655500Y-128126437D01*
X33656941Y-128111805D01*
X33655536Y-127512595D01*
X33655644Y-127510131D01*
X34164104Y-127510131D01*
X34169171Y-127538953D01*
X34175810Y-127552071D01*
X34364178Y-127845659D01*
X34365526Y-128126437D01*
X34376725Y-128153473D01*
X34397417Y-128174165D01*
X34424453Y-128185364D01*
X34453717Y-128185364D01*
X34480753Y-128174165D01*
X34501445Y-128153473D01*
X34512644Y-128126437D01*
X34514085Y-128111805D01*
X34512827Y-127849771D01*
X34708999Y-127538953D01*
X34714066Y-127510131D01*
X34707718Y-127481565D01*
X34690921Y-127457602D01*
X34666232Y-127441891D01*
X34637411Y-127436824D01*
X34608845Y-127443172D01*
X34584882Y-127459969D01*
X34575810Y-127471539D01*
X34439391Y-127687683D01*
X34293288Y-127459969D01*
X34269325Y-127443172D01*
X34240759Y-127436824D01*
X34211937Y-127441891D01*
X34187249Y-127457602D01*
X34170452Y-127481565D01*
X34164104Y-127510131D01*
X33655644Y-127510131D01*
X33656071Y-127500417D01*
X33655503Y-127498857D01*
X33655500Y-127497173D01*
X33650518Y-127485146D01*
X33646071Y-127472916D01*
X33644941Y-127471682D01*
X33644301Y-127470137D01*
X33635095Y-127460931D01*
X33626307Y-127451335D01*
X33624791Y-127450627D01*
X33623609Y-127449445D01*
X33611587Y-127444465D01*
X33599789Y-127438959D01*
X33598117Y-127438885D01*
X33596573Y-127438246D01*
X33583554Y-127438246D01*
X33570553Y-127437675D01*
X33568983Y-127438246D01*
X33567309Y-127438246D01*
X33555282Y-127443227D01*
X33543052Y-127447675D01*
X33541818Y-127448804D01*
X33540273Y-127449445D01*
X33531067Y-127458650D01*
X33521471Y-127467439D01*
X33520296Y-127469421D01*
X33519581Y-127470137D01*
X33518903Y-127471772D01*
X33513977Y-127480088D01*
X33382192Y-127764674D01*
X33248892Y-127481220D01*
X33244301Y-127470137D01*
X33243128Y-127468964D01*
X33242411Y-127467439D01*
X33232814Y-127458650D01*
X33223609Y-127449445D01*
X33222063Y-127448804D01*
X33220830Y-127447675D01*
X33208599Y-127443227D01*
X33196573Y-127438246D01*
X33194899Y-127438246D01*
X33193329Y-127437675D01*
X33180328Y-127438246D01*
X33167309Y-127438246D01*
X33165764Y-127438885D01*
X33164093Y-127438959D01*
X33152294Y-127444465D01*
X33140273Y-127449445D01*
X33139090Y-127450627D01*
X33137575Y-127451335D01*
X33128786Y-127460931D01*
X33119581Y-127470137D01*
X33118940Y-127471682D01*
X33117811Y-127472916D01*
X33113363Y-127485146D01*
X33108382Y-127497173D01*
X33108155Y-127499468D01*
X33107811Y-127500417D01*
X33107888Y-127502183D01*
X33106941Y-127511805D01*
X32915577Y-127511805D01*
X32890963Y-127487923D01*
X32885069Y-127481126D01*
X32881907Y-127479135D01*
X32880753Y-127478016D01*
X32878925Y-127477258D01*
X32872626Y-127473294D01*
X32824481Y-127450316D01*
X32823610Y-127449445D01*
X32816384Y-127446451D01*
X32801751Y-127439468D01*
X32799063Y-127439277D01*
X32796574Y-127438246D01*
X32781942Y-127436805D01*
X32678731Y-127437958D01*
X32677038Y-127437394D01*
X32667291Y-127438086D01*
X32653024Y-127438246D01*
X32650534Y-127439277D01*
X32647848Y-127439468D01*
X32634116Y-127444723D01*
X32576673Y-127474773D01*
X32568845Y-127478016D01*
X32565979Y-127480367D01*
X32564530Y-127481126D01*
X32563232Y-127482622D01*
X32557480Y-127487343D01*
X32506565Y-127539818D01*
X32502978Y-127541971D01*
X32498133Y-127548508D01*
X32491010Y-127555851D01*
X32488875Y-127561003D01*
X32485556Y-127565484D01*
X32480609Y-127579329D01*
X32454226Y-127689963D01*
X32451240Y-127697173D01*
X32450348Y-127706224D01*
X32449887Y-127708160D01*
X32450050Y-127709255D01*
X32449799Y-127711805D01*
X32256004Y-127711805D01*
X32255708Y-127585816D01*
X32368003Y-127585364D01*
X32395039Y-127574165D01*
X32415731Y-127553473D01*
X32426930Y-127526437D01*
X32426930Y-127497173D01*
X32415731Y-127470137D01*
X32395039Y-127449445D01*
X32368003Y-127438246D01*
X32353371Y-127436805D01*
X31995882Y-127438246D01*
X31968846Y-127449445D01*
X31948154Y-127470137D01*
X31936955Y-127497173D01*
X31861955Y-127497173D01*
X31861955Y-127361805D01*
X34789066Y-127361805D01*
X34789066Y-129227771D01*
G37*
G36*
X69580187Y-127625593D02*
G01*
X69615517Y-127659873D01*
X69636973Y-127741891D01*
X69638190Y-127923168D01*
X69616944Y-128012261D01*
X69584235Y-128045973D01*
X69552862Y-128062386D01*
X69473977Y-128063268D01*
X69443696Y-128048816D01*
X69408365Y-128014536D01*
X69386910Y-127932519D01*
X69385693Y-127751241D01*
X69406938Y-127662148D01*
X69439647Y-127628437D01*
X69471022Y-127612023D01*
X69549907Y-127611141D01*
X69580187Y-127625593D01*
G37*
G36*
X71351789Y-127776932D02*
G01*
X71217202Y-127777729D01*
X71186237Y-127762950D01*
X71174139Y-127751469D01*
X71158135Y-127720879D01*
X71157411Y-127670450D01*
X71171910Y-127640072D01*
X71183392Y-127627972D01*
X71213715Y-127612109D01*
X71351400Y-127611294D01*
X71351789Y-127776932D01*
G37*
G36*
X71576227Y-129253171D02*
G01*
X68649098Y-129253171D01*
X68649098Y-128931742D01*
X69108371Y-128931742D01*
X69109308Y-128978457D01*
X69108960Y-128979504D01*
X69109475Y-128986760D01*
X69109812Y-129003517D01*
X69110843Y-129006006D01*
X69111034Y-129008694D01*
X69116289Y-129022426D01*
X69146341Y-129079872D01*
X69149582Y-129087696D01*
X69151932Y-129090559D01*
X69152692Y-129092012D01*
X69154190Y-129093311D01*
X69158909Y-129099061D01*
X69189704Y-129128285D01*
X69194530Y-129133850D01*
X69197611Y-129135789D01*
X69198846Y-129136961D01*
X69200678Y-129137719D01*
X69206973Y-129141682D01*
X69255116Y-129164659D01*
X69255988Y-129165531D01*
X69263215Y-129168524D01*
X69277847Y-129175508D01*
X69280534Y-129175698D01*
X69283024Y-129176730D01*
X69297656Y-129178171D01*
X69439874Y-129176869D01*
X69449894Y-129177582D01*
X69453577Y-129176744D01*
X69455146Y-129176730D01*
X69456977Y-129175971D01*
X69464231Y-129174322D01*
X69563370Y-129139757D01*
X69585477Y-129120584D01*
X69598564Y-129094410D01*
X69600639Y-129065220D01*
X69591385Y-129037458D01*
X69572211Y-129015351D01*
X69546038Y-129002264D01*
X69516848Y-129000189D01*
X69502511Y-129003449D01*
X69431363Y-129028254D01*
X69316975Y-129029301D01*
X69286238Y-129014631D01*
X69274138Y-129003148D01*
X69258039Y-128972375D01*
X69257596Y-128950315D01*
X69271909Y-128920325D01*
X69283393Y-128908224D01*
X69319778Y-128889189D01*
X69424800Y-128861715D01*
X69431751Y-128861222D01*
X69442689Y-128857036D01*
X69443978Y-128856699D01*
X69444413Y-128856376D01*
X69445483Y-128855967D01*
X69502925Y-128825916D01*
X69510754Y-128822674D01*
X69513618Y-128820322D01*
X69515069Y-128819564D01*
X69516367Y-128818066D01*
X69522119Y-128813346D01*
X69551338Y-128782554D01*
X69556905Y-128777727D01*
X69558847Y-128774641D01*
X69560017Y-128773409D01*
X69560774Y-128771580D01*
X69564738Y-128765284D01*
X69587715Y-128717140D01*
X69588588Y-128716268D01*
X69591585Y-128709032D01*
X69598564Y-128694410D01*
X69598754Y-128691723D01*
X69599787Y-128689232D01*
X69601228Y-128674600D01*
X69600290Y-128627883D01*
X69600639Y-128626837D01*
X69600123Y-128619580D01*
X69599787Y-128602825D01*
X69598756Y-128600336D01*
X69598565Y-128597647D01*
X69593310Y-128583915D01*
X69563259Y-128526476D01*
X69560017Y-128518647D01*
X69557662Y-128515778D01*
X69556905Y-128514330D01*
X69555410Y-128513033D01*
X69550690Y-128507282D01*
X69544594Y-128501497D01*
X69622676Y-128501497D01*
X69627743Y-128530319D01*
X69634382Y-128543437D01*
X69822750Y-128837025D01*
X69824098Y-129117803D01*
X69835297Y-129144839D01*
X69855989Y-129165531D01*
X69883025Y-129176730D01*
X69912289Y-129176730D01*
X69939325Y-129165531D01*
X69960017Y-129144839D01*
X69971216Y-129117803D01*
X69972657Y-129103171D01*
X69971834Y-128931742D01*
X70194086Y-128931742D01*
X70195023Y-128978457D01*
X70194675Y-128979504D01*
X70195190Y-128986760D01*
X70195527Y-129003517D01*
X70196558Y-129006006D01*
X70196749Y-129008694D01*
X70202004Y-129022426D01*
X70232056Y-129079872D01*
X70235297Y-129087696D01*
X70237647Y-129090559D01*
X70238407Y-129092012D01*
X70239905Y-129093311D01*
X70244624Y-129099061D01*
X70275419Y-129128285D01*
X70280245Y-129133850D01*
X70283326Y-129135789D01*
X70284561Y-129136961D01*
X70286393Y-129137719D01*
X70292688Y-129141682D01*
X70340831Y-129164659D01*
X70341703Y-129165531D01*
X70348930Y-129168524D01*
X70363562Y-129175508D01*
X70366249Y-129175698D01*
X70368739Y-129176730D01*
X70383371Y-129178171D01*
X70525589Y-129176869D01*
X70535609Y-129177582D01*
X70539292Y-129176744D01*
X70540861Y-129176730D01*
X70542692Y-129175971D01*
X70549946Y-129174322D01*
X70649085Y-129139757D01*
X70671192Y-129120584D01*
X70684279Y-129094410D01*
X70686354Y-129065220D01*
X70677100Y-129037458D01*
X70657926Y-129015351D01*
X70631753Y-129002264D01*
X70602563Y-129000189D01*
X70588226Y-129003449D01*
X70517078Y-129028254D01*
X70402690Y-129029301D01*
X70371953Y-129014631D01*
X70359853Y-129003148D01*
X70343754Y-128972375D01*
X70343311Y-128950315D01*
X70357624Y-128920325D01*
X70369108Y-128908224D01*
X70405493Y-128889189D01*
X70510515Y-128861715D01*
X70517466Y-128861222D01*
X70528404Y-128857036D01*
X70529693Y-128856699D01*
X70530128Y-128856376D01*
X70531198Y-128855967D01*
X70588640Y-128825916D01*
X70596469Y-128822674D01*
X70599333Y-128820322D01*
X70600784Y-128819564D01*
X70602082Y-128818066D01*
X70607834Y-128813346D01*
X70637053Y-128782554D01*
X70642620Y-128777727D01*
X70644562Y-128774641D01*
X70645732Y-128773409D01*
X70646489Y-128771580D01*
X70650453Y-128765284D01*
X70673430Y-128717140D01*
X70674303Y-128716268D01*
X70677300Y-128709032D01*
X70684279Y-128694410D01*
X70684469Y-128691723D01*
X70685502Y-128689232D01*
X70686943Y-128674600D01*
X70686005Y-128627883D01*
X70686354Y-128626837D01*
X70685838Y-128619580D01*
X70685502Y-128602825D01*
X70684471Y-128600336D01*
X70684280Y-128597647D01*
X70679025Y-128583915D01*
X70648974Y-128526476D01*
X70645732Y-128518647D01*
X70643377Y-128515778D01*
X70642620Y-128514330D01*
X70641125Y-128513033D01*
X70640729Y-128512551D01*
X70708961Y-128512551D01*
X70712221Y-128526888D01*
X70910671Y-129117849D01*
X70911036Y-129122981D01*
X70915173Y-129131255D01*
X70918215Y-129140314D01*
X70921726Y-129144362D01*
X70924122Y-129149154D01*
X70931226Y-129155316D01*
X70937389Y-129162421D01*
X70942181Y-129164817D01*
X70946229Y-129168328D01*
X70955148Y-129171301D01*
X70963562Y-129175508D01*
X70968910Y-129175888D01*
X70973992Y-129177582D01*
X70983364Y-129176915D01*
X70992752Y-129177583D01*
X70997841Y-129175886D01*
X71003182Y-129175507D01*
X71011585Y-129171305D01*
X71020515Y-129168329D01*
X71024566Y-129164815D01*
X71029355Y-129162421D01*
X71035513Y-129155320D01*
X71042622Y-129149155D01*
X71045019Y-129144360D01*
X71048529Y-129140314D01*
X71054523Y-129126888D01*
X71257783Y-128512551D01*
X71255709Y-128483361D01*
X71242622Y-128457187D01*
X71220515Y-128438013D01*
X71192752Y-128428759D01*
X71163562Y-128430834D01*
X71137389Y-128443921D01*
X71118215Y-128466028D01*
X71112221Y-128479453D01*
X70983591Y-128868227D01*
X70848529Y-128466028D01*
X70829355Y-128443921D01*
X70803182Y-128430835D01*
X70773992Y-128428760D01*
X70746229Y-128438014D01*
X70724122Y-128457188D01*
X70711036Y-128483361D01*
X70708961Y-128512551D01*
X70640729Y-128512551D01*
X70636405Y-128507282D01*
X70605611Y-128478057D01*
X70600784Y-128472492D01*
X70597701Y-128470552D01*
X70596469Y-128469382D01*
X70594638Y-128468623D01*
X70588341Y-128464660D01*
X70540196Y-128441682D01*
X70539325Y-128440811D01*
X70532099Y-128437817D01*
X70517466Y-128430834D01*
X70514778Y-128430643D01*
X70512289Y-128429612D01*
X70497657Y-128428171D01*
X70355439Y-128429472D01*
X70345420Y-128428760D01*
X70341736Y-128429597D01*
X70340168Y-128429612D01*
X70338336Y-128430370D01*
X70331083Y-128432020D01*
X70231944Y-128466585D01*
X70209836Y-128485758D01*
X70196750Y-128511932D01*
X70194675Y-128541122D01*
X70203929Y-128568884D01*
X70223102Y-128590992D01*
X70249276Y-128604078D01*
X70278466Y-128606153D01*
X70292803Y-128602893D01*
X70363950Y-128578087D01*
X70478338Y-128577040D01*
X70509074Y-128591709D01*
X70521174Y-128603192D01*
X70537274Y-128633967D01*
X70537717Y-128656025D01*
X70523402Y-128686017D01*
X70511919Y-128698118D01*
X70475535Y-128717152D01*
X70370512Y-128744626D01*
X70363562Y-128745120D01*
X70352623Y-128749305D01*
X70351335Y-128749643D01*
X70350899Y-128749965D01*
X70349830Y-128750375D01*
X70292389Y-128780424D01*
X70284561Y-128783667D01*
X70281694Y-128786019D01*
X70280245Y-128786778D01*
X70278946Y-128788274D01*
X70273196Y-128792995D01*
X70243973Y-128823788D01*
X70238408Y-128828616D01*
X70236467Y-128831698D01*
X70235297Y-128832932D01*
X70234538Y-128834762D01*
X70230575Y-128841059D01*
X70207597Y-128889202D01*
X70206726Y-128890074D01*
X70203732Y-128897301D01*
X70196749Y-128911933D01*
X70196558Y-128914620D01*
X70195527Y-128917110D01*
X70194086Y-128931742D01*
X69971834Y-128931742D01*
X69971399Y-128841137D01*
X70167571Y-128530319D01*
X70172638Y-128501497D01*
X70166290Y-128472931D01*
X70149493Y-128448968D01*
X70124804Y-128433257D01*
X70095983Y-128428190D01*
X70067417Y-128434538D01*
X70043454Y-128451335D01*
X70034382Y-128462905D01*
X69897963Y-128679049D01*
X69751860Y-128451335D01*
X69727897Y-128434538D01*
X69699331Y-128428190D01*
X69670509Y-128433257D01*
X69645821Y-128448968D01*
X69629024Y-128472931D01*
X69622676Y-128501497D01*
X69544594Y-128501497D01*
X69519896Y-128478057D01*
X69515069Y-128472492D01*
X69511986Y-128470552D01*
X69510754Y-128469382D01*
X69508923Y-128468623D01*
X69502626Y-128464660D01*
X69454481Y-128441682D01*
X69453610Y-128440811D01*
X69446384Y-128437817D01*
X69431751Y-128430834D01*
X69429063Y-128430643D01*
X69426574Y-128429612D01*
X69411942Y-128428171D01*
X69269724Y-128429472D01*
X69259705Y-128428760D01*
X69256021Y-128429597D01*
X69254453Y-128429612D01*
X69252621Y-128430370D01*
X69245368Y-128432020D01*
X69146229Y-128466585D01*
X69124121Y-128485758D01*
X69111035Y-128511932D01*
X69108960Y-128541122D01*
X69118214Y-128568884D01*
X69137387Y-128590992D01*
X69163561Y-128604078D01*
X69192751Y-128606153D01*
X69207088Y-128602893D01*
X69278235Y-128578087D01*
X69392623Y-128577040D01*
X69423359Y-128591709D01*
X69435459Y-128603192D01*
X69451559Y-128633967D01*
X69452002Y-128656025D01*
X69437687Y-128686017D01*
X69426204Y-128698118D01*
X69389820Y-128717152D01*
X69284797Y-128744626D01*
X69277847Y-128745120D01*
X69266908Y-128749305D01*
X69265620Y-128749643D01*
X69265184Y-128749965D01*
X69264115Y-128750375D01*
X69206674Y-128780424D01*
X69198846Y-128783667D01*
X69195979Y-128786019D01*
X69194530Y-128786778D01*
X69193231Y-128788274D01*
X69187481Y-128792995D01*
X69158258Y-128823788D01*
X69152693Y-128828616D01*
X69150752Y-128831698D01*
X69149582Y-128832932D01*
X69148823Y-128834762D01*
X69144860Y-128841059D01*
X69121882Y-128889202D01*
X69121011Y-128890074D01*
X69118017Y-128897301D01*
X69111034Y-128911933D01*
X69110843Y-128914620D01*
X69109812Y-128917110D01*
X69108371Y-128931742D01*
X68649098Y-128931742D01*
X68649098Y-127522573D01*
X68724098Y-127522573D01*
X68724098Y-127551837D01*
X68735297Y-127578873D01*
X68755989Y-127599565D01*
X68783025Y-127610764D01*
X68797657Y-127612205D01*
X68894259Y-127611815D01*
X68895526Y-128151837D01*
X68906725Y-128178873D01*
X68927417Y-128199565D01*
X68954453Y-128210764D01*
X68983717Y-128210764D01*
X69010753Y-128199565D01*
X69031445Y-128178873D01*
X69042644Y-128151837D01*
X69044085Y-128137205D01*
X69043147Y-127737205D01*
X69236942Y-127737205D01*
X69238254Y-127932625D01*
X69237030Y-127940850D01*
X69238370Y-127949911D01*
X69238383Y-127951837D01*
X69238805Y-127952857D01*
X69239181Y-127955395D01*
X69266954Y-128061564D01*
X69266954Y-128066122D01*
X69270189Y-128073934D01*
X69272699Y-128083526D01*
X69276018Y-128088006D01*
X69278153Y-128093159D01*
X69287480Y-128104524D01*
X69345782Y-128161091D01*
X69351673Y-128167884D01*
X69354832Y-128169872D01*
X69355988Y-128170994D01*
X69357817Y-128171751D01*
X69364115Y-128175716D01*
X69412259Y-128198693D01*
X69413131Y-128199565D01*
X69420362Y-128202560D01*
X69434991Y-128209542D01*
X69437677Y-128209732D01*
X69440167Y-128210764D01*
X69454799Y-128212205D01*
X69558010Y-128211051D01*
X69559704Y-128211616D01*
X69569450Y-128210923D01*
X69583717Y-128210764D01*
X69586206Y-128209732D01*
X69588894Y-128209542D01*
X69602626Y-128204287D01*
X69660071Y-128174234D01*
X69667896Y-128170994D01*
X69670759Y-128168643D01*
X69672212Y-128167884D01*
X69673511Y-128166385D01*
X69679261Y-128161667D01*
X69730172Y-128109193D01*
X69733762Y-128107040D01*
X69738608Y-128100498D01*
X69745731Y-128093158D01*
X69747864Y-128088007D01*
X69751184Y-128083527D01*
X69756131Y-128069681D01*
X69782512Y-127959050D01*
X69785501Y-127951837D01*
X69786392Y-127942780D01*
X69786853Y-127940851D01*
X69786690Y-127939758D01*
X69786942Y-127937205D01*
X69785629Y-127741778D01*
X69786853Y-127733559D01*
X69785513Y-127724500D01*
X69785501Y-127722573D01*
X69785078Y-127721552D01*
X69784703Y-127719014D01*
X69756929Y-127612844D01*
X69756929Y-127608288D01*
X69753693Y-127600477D01*
X69751184Y-127590883D01*
X69747864Y-127586402D01*
X69745731Y-127581252D01*
X69736404Y-127569887D01*
X69702720Y-127537205D01*
X69894084Y-127537205D01*
X69895525Y-128151837D01*
X69906724Y-128178873D01*
X69927416Y-128199565D01*
X69954452Y-128210764D01*
X69983716Y-128210764D01*
X70010752Y-128199565D01*
X70031444Y-128178873D01*
X70042643Y-128151837D01*
X70044084Y-128137205D01*
X70043461Y-127871599D01*
X70101256Y-127994497D01*
X70104954Y-128004665D01*
X70107182Y-128007098D01*
X70108614Y-128010142D01*
X70117019Y-128017840D01*
X70124718Y-128026246D01*
X70127737Y-128027654D01*
X70130195Y-128029906D01*
X70140904Y-128033800D01*
X70151236Y-128038622D01*
X70154567Y-128038768D01*
X70157696Y-128039906D01*
X70169084Y-128039405D01*
X70180472Y-128039906D01*
X70183600Y-128038768D01*
X70186932Y-128038622D01*
X70197263Y-128033800D01*
X70207973Y-128029906D01*
X70210430Y-128027654D01*
X70213450Y-128026246D01*
X70221148Y-128017840D01*
X70229554Y-128010142D01*
X70232037Y-128005949D01*
X70233214Y-128004665D01*
X70233874Y-128002849D01*
X70237048Y-127997492D01*
X70294870Y-127872625D01*
X70295525Y-128151837D01*
X70306724Y-128178873D01*
X70327416Y-128199565D01*
X70354452Y-128210764D01*
X70383716Y-128210764D01*
X70410752Y-128199565D01*
X70431444Y-128178873D01*
X70442643Y-128151837D01*
X70444084Y-128137205D01*
X70442945Y-127651491D01*
X71008370Y-127651491D01*
X71009445Y-127726366D01*
X71008959Y-127727825D01*
X71009594Y-127736771D01*
X71009811Y-127751837D01*
X71010841Y-127754325D01*
X71011033Y-127757015D01*
X71016288Y-127770746D01*
X71046339Y-127828186D01*
X71049582Y-127836016D01*
X71051935Y-127838883D01*
X71052693Y-127840332D01*
X71054188Y-127841628D01*
X71058909Y-127847381D01*
X71089703Y-127876603D01*
X71094529Y-127882168D01*
X71097611Y-127884108D01*
X71098845Y-127885279D01*
X71100675Y-127886037D01*
X71106972Y-127890001D01*
X71155116Y-127912979D01*
X71155988Y-127913851D01*
X71163210Y-127916842D01*
X71177846Y-127923828D01*
X71180535Y-127924019D01*
X71183024Y-127925050D01*
X71197656Y-127926491D01*
X71352137Y-127925575D01*
X71352668Y-128151837D01*
X71363867Y-128178873D01*
X71384559Y-128199565D01*
X71411595Y-128210764D01*
X71440859Y-128210764D01*
X71467895Y-128199565D01*
X71488587Y-128178873D01*
X71499786Y-128151837D01*
X71501227Y-128137205D01*
X71499786Y-127522573D01*
X71488587Y-127495537D01*
X71467895Y-127474845D01*
X71440859Y-127463646D01*
X71426227Y-127462205D01*
X71209129Y-127463491D01*
X71207038Y-127462794D01*
X71196140Y-127463568D01*
X71183024Y-127463646D01*
X71180534Y-127464677D01*
X71177848Y-127464868D01*
X71164116Y-127470123D01*
X71106677Y-127500171D01*
X71098844Y-127503416D01*
X71095977Y-127505768D01*
X71094530Y-127506526D01*
X71093233Y-127508020D01*
X71087479Y-127512744D01*
X71058255Y-127543539D01*
X71052693Y-127548364D01*
X71050752Y-127551446D01*
X71049581Y-127552681D01*
X71048822Y-127554512D01*
X71044860Y-127560807D01*
X71021881Y-127608951D01*
X71021010Y-127609823D01*
X71018018Y-127617045D01*
X71011033Y-127631681D01*
X71010841Y-127634370D01*
X71009811Y-127636859D01*
X71008370Y-127651491D01*
X70442945Y-127651491D01*
X70442679Y-127537995D01*
X70443214Y-127525817D01*
X70442646Y-127524257D01*
X70442643Y-127522573D01*
X70437661Y-127510546D01*
X70433214Y-127498316D01*
X70432084Y-127497082D01*
X70431444Y-127495537D01*
X70422238Y-127486331D01*
X70413450Y-127476735D01*
X70411934Y-127476027D01*
X70410752Y-127474845D01*
X70398730Y-127469865D01*
X70386932Y-127464359D01*
X70385260Y-127464285D01*
X70383716Y-127463646D01*
X70370697Y-127463646D01*
X70357696Y-127463075D01*
X70356126Y-127463646D01*
X70354452Y-127463646D01*
X70342425Y-127468627D01*
X70330195Y-127473075D01*
X70328961Y-127474204D01*
X70327416Y-127474845D01*
X70318210Y-127484050D01*
X70308614Y-127492839D01*
X70307439Y-127494821D01*
X70306724Y-127495537D01*
X70306046Y-127497172D01*
X70301120Y-127505488D01*
X70169335Y-127790074D01*
X70036035Y-127506620D01*
X70031444Y-127495537D01*
X70030271Y-127494364D01*
X70029554Y-127492839D01*
X70019957Y-127484050D01*
X70010752Y-127474845D01*
X70009206Y-127474204D01*
X70007973Y-127473075D01*
X69995742Y-127468627D01*
X69983716Y-127463646D01*
X69982042Y-127463646D01*
X69980472Y-127463075D01*
X69967471Y-127463646D01*
X69954452Y-127463646D01*
X69952907Y-127464285D01*
X69951236Y-127464359D01*
X69939437Y-127469865D01*
X69927416Y-127474845D01*
X69926233Y-127476027D01*
X69924718Y-127476735D01*
X69915929Y-127486331D01*
X69906724Y-127495537D01*
X69906083Y-127497082D01*
X69904954Y-127498316D01*
X69900506Y-127510546D01*
X69895525Y-127522573D01*
X69895298Y-127524868D01*
X69894954Y-127525817D01*
X69895031Y-127527583D01*
X69894084Y-127537205D01*
X69702720Y-127537205D01*
X69678106Y-127513323D01*
X69672212Y-127506526D01*
X69669050Y-127504535D01*
X69667896Y-127503416D01*
X69666068Y-127502658D01*
X69659769Y-127498694D01*
X69611624Y-127475716D01*
X69610753Y-127474845D01*
X69603527Y-127471851D01*
X69588894Y-127464868D01*
X69586206Y-127464677D01*
X69583717Y-127463646D01*
X69569085Y-127462205D01*
X69465874Y-127463358D01*
X69464181Y-127462794D01*
X69454434Y-127463486D01*
X69440167Y-127463646D01*
X69437677Y-127464677D01*
X69434991Y-127464868D01*
X69421259Y-127470123D01*
X69363816Y-127500173D01*
X69355988Y-127503416D01*
X69353122Y-127505767D01*
X69351673Y-127506526D01*
X69350375Y-127508022D01*
X69344623Y-127512743D01*
X69293708Y-127565218D01*
X69290121Y-127567371D01*
X69285276Y-127573908D01*
X69278153Y-127581251D01*
X69276018Y-127586403D01*
X69272699Y-127590884D01*
X69267752Y-127604729D01*
X69241369Y-127715363D01*
X69238383Y-127722573D01*
X69237491Y-127731624D01*
X69237030Y-127733560D01*
X69237193Y-127734655D01*
X69236942Y-127737205D01*
X69043147Y-127737205D01*
X69042851Y-127611216D01*
X69155146Y-127610764D01*
X69182182Y-127599565D01*
X69202874Y-127578873D01*
X69214073Y-127551837D01*
X69214073Y-127522573D01*
X69202874Y-127495537D01*
X69182182Y-127474845D01*
X69155146Y-127463646D01*
X69140514Y-127462205D01*
X68783025Y-127463646D01*
X68755989Y-127474845D01*
X68735297Y-127495537D01*
X68724098Y-127522573D01*
X68649098Y-127522573D01*
X68649098Y-127387205D01*
X71576227Y-127387205D01*
X71576227Y-129253171D01*
G37*
D11*
%TO.C,JP501*%
X69145800Y-131606800D02*
X69145800Y-130206800D01*
X69845799Y-129506800D02*
X70445801Y-129506800D01*
X70445801Y-132306800D02*
X69845799Y-132306800D01*
X71145800Y-130206800D02*
X71145800Y-131606800D01*
X69145800Y-130206800D02*
G75*
G02*
X69845799Y-129506800I700000J0D01*
G01*
X69845799Y-132306800D02*
G75*
G02*
X69145800Y-131606800I0J699999D01*
G01*
X70445801Y-129506800D02*
G75*
G02*
X71145800Y-130206800I-1J-700000D01*
G01*
X71145800Y-131606800D02*
G75*
G02*
X70445801Y-132306800I-699999J-1D01*
G01*
%TO.C,JP601*%
X50795800Y-131606800D02*
X50795800Y-130206800D01*
X51495800Y-129506800D02*
X52095800Y-129506800D01*
X52095800Y-132306800D02*
X51495800Y-132306800D01*
X52795800Y-130206800D02*
X52795800Y-131606800D01*
X50795800Y-130206800D02*
G75*
G02*
X51495800Y-129506800I700000J0D01*
G01*
X51495800Y-132306800D02*
G75*
G02*
X50795800Y-131606800I-1J699999D01*
G01*
X52095800Y-129506800D02*
G75*
G02*
X52795800Y-130206800I0J-700000D01*
G01*
X52795800Y-131606800D02*
G75*
G02*
X52095800Y-132306800I-699999J-1D01*
G01*
%TO.C,JP301*%
X32316000Y-131606800D02*
X32316000Y-130206800D01*
X33016000Y-129506800D02*
X33616000Y-129506800D01*
X33616000Y-132306800D02*
X33016000Y-132306800D01*
X34316000Y-130206800D02*
X34316000Y-131606800D01*
X32316000Y-130206800D02*
G75*
G02*
X33016000Y-129506800I700000J0D01*
G01*
X33016000Y-132306800D02*
G75*
G02*
X32316000Y-131606800I-1J699999D01*
G01*
X33616000Y-129506800D02*
G75*
G02*
X34316000Y-130206800I0J-700000D01*
G01*
X34316000Y-131606800D02*
G75*
G02*
X33616000Y-132306800I-699999J-1D01*
G01*
%TD*%
M02*
